<svg height='100px' width='100px'  fill="#b835a1" xmlns="http://www.w3.org/2000/svg" xmlns:xlink="http://www.w3.org/1999/xlink" version="1.1" x="0px" y="0px" viewBox="0 0 100 100" style="enable-background:new 0 0 100 100;" xml:space="preserve"><path d="M75.4,75.6c3.1,0,6.2-1,8.8-3.1c2.9-2.3,4.6-5.7,5-9.4c0.4-3.7-0.7-7.3-3.1-10.1L72.7,36.7c-0.4-0.4-1-0.5-1.4-0.1  c-0.4,0.4-0.5,1-0.1,1.4l13.3,16.2c2,2.4,2.9,5.5,2.6,8.7c-0.3,3.2-1.8,6-4.3,8c-2.4,2-5.5,2.9-8.7,2.6c-3.2-0.3-6-1.8-8-4.3  L38.5,35.6c-0.4-0.4-1-0.5-1.4-0.1c-0.4,0.4-0.5,1-0.1,1.4l27.7,33.7C67.4,73.9,71.4,75.6,75.4,75.6z"></path><path d="M66.2,60.6c-0.2,2.4,0.5,4.7,2,6.6s3.7,3,6.1,3.2c0.3,0,0.6,0,0.9,0c2.1,0,4.1-0.7,5.7-2c1.9-1.5,3-3.7,3.2-6.1  c0.2-2.4-0.5-4.7-2-6.6c-1.5-1.9-3.7-3-6.1-3.2c-2.4-0.2-4.7,0.5-6.6,2S66.5,58.2,66.2,60.6z M70.7,56c1.3-1,2.8-1.6,4.4-1.6  c0.2,0,0.5,0,0.7,0c1.9,0.2,3.5,1.1,4.7,2.5c1.2,1.4,1.7,3.3,1.6,5.1c-0.2,1.9-1.1,3.5-2.5,4.7c-1.4,1.2-3.3,1.7-5.1,1.6  c-1.9-0.2-3.5-1.1-4.7-2.5c-1.2-1.4-1.7-3.3-1.6-5.1S69.3,57.2,70.7,56z"></path><path d="M36.8,26.7c-0.4,0.4-0.5,1-0.1,1.4L59,55.4c0.2,0.2,0.5,0.4,0.8,0.4c0.2,0,0.4-0.1,0.6-0.2c0.4-0.4,0.5-1,0.1-1.4L38.2,26.9  C37.8,26.5,37.2,26.4,36.8,26.7z"></path><path d="M51.3,33.4c-0.4,0.4-0.5,1-0.1,1.4l12.3,14.9c0.2,0.2,0.5,0.4,0.8,0.4c0.2,0,0.4-0.1,0.6-0.2c0.4-0.4,0.5-1,0.1-1.4  L52.7,33.5C52.4,33.1,51.8,33,51.3,33.4z"></path><path d="M53.3,21.7c-0.4-0.4-1-0.5-1.4-0.1c-0.4,0.4-0.5,1-0.1,1.4L71,46.4c0.2,0.2,0.5,0.4,0.8,0.4c0.2,0,0.4-0.1,0.6-0.2  c0.4-0.4,0.5-1,0.1-1.4L53.3,21.7z"></path><path d="M44.7,55.4l-8.9-10.9c-0.4-0.4-1-0.5-1.4-0.1c-0.4,0.4-0.5,1-0.1,1.4l8.9,10.9c2.7,3.2,2.2,8-1,10.7  c-3.2,2.7-8,2.2-10.7-1.1L12.9,43.8c-0.4-0.4-1-0.5-1.4-0.1c-0.4,0.4-0.5,1-0.1,1.4l18.5,22.6c1.9,2.3,4.7,3.5,7.4,3.5  c2.1,0,4.3-0.7,6.1-2.2C47.5,65.6,48.1,59.5,44.7,55.4z"></path><path d="M36.8,66.5c0.2,0,0.3,0,0.5,0c1.2,0,2.4-0.4,3.3-1.2c1.1-0.9,1.7-2.1,1.9-3.5c0.1-1.4-0.3-2.7-1.2-3.8  c-1.8-2.2-5.1-2.5-7.3-0.7c-2.2,1.8-2.5,5.1-0.7,7.3C34.2,65.7,35.4,66.3,36.8,66.5z M34.1,61c0.1-0.9,0.5-1.6,1.2-2.2  c0.6-0.5,1.3-0.7,2-0.7c0.1,0,0.2,0,0.3,0c0.9,0.1,1.6,0.5,2.2,1.2c0.5,0.7,0.8,1.5,0.7,2.3c-0.1,0.9-0.5,1.6-1.2,2.2  c-0.7,0.5-1.5,0.8-2.3,0.7c-0.9-0.1-1.6-0.5-2.2-1.2C34.3,62.7,34,61.8,34.1,61z"></path><path d="M21.4,43.7c-0.4-0.4-1-0.5-1.4-0.1c-0.4,0.4-0.5,1-0.1,1.4l8.2,10c0.2,0.2,0.5,0.4,0.8,0.4c0.2,0,0.4-0.1,0.6-0.2  c0.4-0.4,0.5-1,0.1-1.4L21.4,43.7z"></path><path d="M17.1,31.3c-0.4,0.4-0.5,1-0.1,1.4l12.9,15.7c0.2,0.2,0.5,0.4,0.8,0.4c0.2,0,0.4-0.1,0.6-0.2c0.4-0.4,0.5-1,0.1-1.4  L18.5,31.5C18.1,31.1,17.5,31,17.1,31.3z"></path><circle cx="54.3" cy="70.1" r="1.1"></circle><circle cx="15.3" cy="22.8" r="1.1"></circle><circle cx="50.7" cy="13.5" r="1.1"></circle><circle cx="84.1" cy="35" r="1.1"></circle><circle cx="81.5" cy="83.4" r="1.1"></circle><circle cx="15.6" cy="85.4" r="1.1"></circle><circle cx="38.7" cy="81" r="1.1"></circle><path d="M17.5,74.6c0,2.1,1.7,3.8,3.8,3.8s3.8-1.7,3.8-3.8s-1.7-3.8-3.8-3.8S17.5,72.5,17.5,74.6z M23,74.6c0,1-0.8,1.8-1.8,1.8  s-1.8-0.8-1.8-1.8s0.8-1.8,1.8-1.8S23,73.6,23,74.6z"></path><path d="M31.3,20.3c0-2.1-1.7-3.8-3.8-3.8s-3.8,1.7-3.8,3.8s1.7,3.8,3.8,3.8S31.3,22.4,31.3,20.3z M25.7,20.3c0-1,0.8-1.8,1.8-1.8  s1.8,0.8,1.8,1.8s-0.8,1.8-1.8,1.8S25.7,21.3,25.7,20.3z"></path><path d="M76.5,23.8c2.1,0,3.8-1.7,3.8-3.8s-1.7-3.8-3.8-3.8s-3.8,1.7-3.8,3.8S74.4,23.8,76.5,23.8z M76.5,18.3c1,0,1.8,0.8,1.8,1.8  c0,1-0.8,1.8-1.8,1.8s-1.8-0.8-1.8-1.8C74.7,19.1,75.5,18.3,76.5,18.3z"></path><path d="M57.2,84.3c0-2.1-1.7-3.8-3.8-3.8s-3.8,1.7-3.8,3.8s1.7,3.8,3.8,3.8S57.2,86.4,57.2,84.3z M53.5,86.1c-1,0-1.8-0.8-1.8-1.8  s0.8-1.8,1.8-1.8s1.8,0.8,1.8,1.8S54.4,86.1,53.5,86.1z"></path></svg>