<?xml version="1.0" encoding="utf-8"?>
<!-- Generator: Adobe Illustrator 25.0.0, SVG Export Plug-In . SVG Version: 6.00 Build 0)  -->
<svg version="1.1" id="Layer_1" xmlns="http://www.w3.org/2000/svg" xmlns:xlink="http://www.w3.org/1999/xlink" x="0px" y="0px"
	 viewBox="0 0 100 100" style="enable-background:new 0 0 100 100;" xml:space="preserve">
<style type="text/css">
	.st0{fill:#A84191;}
	.st1{fill:#B835A1;}
</style>
<path class="st0" d="M66,57.7L49.2,41.9V27.2c0-0.2,0-0.3-0.1-0.5c-1.9-5.5-7-18.2-11.6-18.2c-4.6,0-9.6,12.7-11.6,18.2
	c-0.1,0.2-0.1,0.3-0.1,0.5v14.7L9.1,57.7c-0.3,0.3-0.5,0.7-0.5,1.1V67c0,0.8,0.7,1.5,1.5,1.5h16.4l3.3,5.6c0.3,0.5,0.8,0.7,1.3,0.8
	h0.2c-0.6,1.9-0.6,3.9,0,5.8c0.9,2.3,2.8,4.1,5.7,5.2c0.2,0.1,0.4,0.1,0.5,0.1c0,0,0,0,0,0c0.2,0,0.4,0,0.5-0.1
	c3-1.1,4.9-2.9,5.7-5.2c0.6-1.9,0.6-3.9,0-5.8h0.2c0.5,0,1-0.3,1.3-0.7l3.3-5.6H65c0.8,0,1.5-0.7,1.5-1.5v-8.2
	C66.5,58.4,66.3,58,66,57.7z M41,79.6c-0.6,1.5-1.9,2.7-3.4,3.2c-1.5-0.6-2.8-1.7-3.4-3.2c-0.5-1.6-0.3-3.3,0.3-4.8h6.2
	C41.3,76.3,41.4,78,41,79.6z M45.1,68.5l-2,3.3H31.9L30,68.5H45.1z M29,27.2c3.3-9,7.2-15.7,8.6-15.7c1.4,0,5.4,6.9,8.6,15.7
	c-0.5,0.5-3.1,1.6-8.6,1.6C32.1,28.8,29.5,27.7,29,27.2z M28.9,30.6c3,1.2,7.3,1.3,8.7,1.3s5.7-0.1,8.7-1.3l0,34.9H28.9V30.6z
	 M63.5,59.5v6H49.2V46L63.5,59.5z M25.9,46v19.5H11.6v-6L25.9,46z"/>
<path class="st1" d="M31.8,47.1c0,6.3,2.5,11.1,5.8,11.1s5.8-4.8,5.8-11.1S40.9,36,37.6,36S31.8,40.8,31.8,47.1z M41.3,47.1
	c0,5.3-2,9.1-3.8,9.1s-3.8-3.7-3.8-9.1s2-9.1,3.8-9.1S41.3,41.7,41.3,47.1z"/>
<path class="st0" d="M85.3,32.4c-0.3-0.2-0.7-0.3-1.1-0.2c-0.4,0.1-0.7,0.3-1,0.6c-0.2,0.2-0.2,0.5-0.2,0.8v6l-6.2,3.6l-6.2-3.6
	v-6.2c0-0.5-0.3-1-0.8-1.3c-0.5-0.3-1-0.3-1.5,0c-6.2,3.4-8.5,11.2-5.1,17.4c1.1,2,2.7,3.7,4.7,4.9V83c-0.2,4.7,3.6,8.7,8.3,8.9
	c0.1,0,0.2,0,0.3,0c4.6,0,8.4-3.7,8.6-8.3c0-0.2,0-0.4,0-0.6V54.4c3.8-2.3,6.2-6.5,6.3-11C91.4,38.9,89.1,34.8,85.3,32.4z M71,83
	V55.9c3.6,1.3,7.6,1.3,11.2,0V83c0.1,3.1-2.3,5.7-5.4,5.8c-3.1,0.2-5.7-2.3-5.8-5.4C71,83.3,71,83.2,71,83z M68.4,41.8l7.7,4.4
	c0.5,0.3,1,0.3,1.5,0l7.7-4.4c0.5-0.3,0.8-0.8,0.8-1.3v-3.6c1.6,1.8,2.5,4.1,2.5,6.5c0,5.8-5.3,10.5-11.9,10.5h-0.5v0
	c-6.3-0.2-11.4-4.8-11.4-10.5c0-2.6,1.1-5.1,2.9-6.9v4C67.6,41.1,67.9,41.6,68.4,41.8z"/>
<path class="st1" d="M72.5,82c0,2.3,1.8,4.1,4.1,4.1s4.1-1.8,4.1-4.1s-1.8-4.1-4.1-4.1c0,0,0,0,0,0C74.3,77.9,72.5,79.7,72.5,82z
	 M78.7,82c0,1.2-0.9,2.1-2.1,2.1s-2.1-0.9-2.1-2.1s0.9-2.1,2.1-2.1C77.8,79.9,78.7,80.8,78.7,82z"/>
</svg>
