<svg height='100px' width='100px'  fill="#b835a1" xmlns="http://www.w3.org/2000/svg" viewBox="0 0 64 64" x="0px" y="0px"><title>Research</title><g><path d="M46,4H8A1,1,0,0,0,7,5V51c0,.0218.0111.0413.0125.0629a.9852.9852,0,0,0,.0512.257.9588.9588,0,0,0,.0335.0943.9871.9871,0,0,0,.1958.2928l8,8A1.0044,1.0044,0,0,0,16,60H46a1,1,0,0,0,1-1V5A1,1,0,0,0,46,4ZM10.4141,52H15v4.5859ZM45,58H17V51a1,1,0,0,0-1-1H9V6H45ZM11,37a1,1,0,0,1,1-1H42a1,1,0,0,1,0,2H12A1,1,0,0,1,11,37Zm4-4a1,1,0,0,1,1-1H38a1,1,0,0,1,0,2H16A1,1,0,0,1,15,33Zm-4,8a1,1,0,0,1,1-1H42a1,1,0,0,1,0,2H12A1,1,0,0,1,11,41Zm0,4a1,1,0,0,1,1-1H42a1,1,0,0,1,0,2H12A1,1,0,0,1,11,45Zm7.5146-17.5142a2.0774,2.0774,0,0,0,1.5333.5845A8.4326,8.4326,0,0,0,24.1451,26.47,7.9921,7.9921,0,0,0,34.467,16.138c1.6969-2.6927,2.052-4.59,1.0184-5.6238-1.0337-1.0306-2.93-.6791-5.6238,1.0186A7.9924,7.9924,0,0,0,19.5328,21.8617C17.8365,24.5544,17.4819,26.4517,18.5146,27.4858Zm12.7281-4.2431A5.961,5.961,0,0,1,27,25a6.0791,6.0791,0,0,1-.7087-.0457,37.5072,37.5072,0,0,0,3.5368-3.1262,37.5162,37.5162,0,0,0,3.1262-3.5366A6.0757,6.0757,0,0,1,33,19,5.961,5.961,0,0,1,31.2427,23.2427Zm2.8042-11.3462c.0688.156.0214.8543-.7121,2.229a7.2724,7.2724,0,0,0-1.4616-1.4611A4.7043,4.7043,0,0,1,34.0469,11.8965Zm-11.29,2.8608a6,6,0,0,1,8.4854,0,6.0272,6.0272,0,0,1,.9331,1.2164,33.0384,33.0384,0,0,1-3.7617,4.44,33.0184,33.0184,0,0,1-4.4408,3.7615,6.0274,6.0274,0,0,1-1.216-.9329,6,6,0,0,1,0-8.4854Zm-1.414,9.8994a8.1006,8.1006,0,0,0,.7833.6789,4.6967,4.6967,0,0,1-2.1735.7679c-.0688-.1557-.0208-.8552.7122-2.229A8.0785,8.0785,0,0,0,21.3433,24.6567ZM55,8H53a2.0023,2.0023,0,0,0-2,2V51a1,1,0,0,0,.1055.4473l2,4a1,1,0,0,0,1.789,0l2-4A1,1,0,0,0,57,51V10A2.0023,2.0023,0,0,0,55,8Zm-2,6h2V48H53Zm2-4v2H53V10ZM54,52.7642l-1-2V50h2v.7642Z"></path></g></svg>