<svg height='100px' width='100px'  fill="#b835a1" xmlns="http://www.w3.org/2000/svg" xmlns:xlink="http://www.w3.org/1999/xlink" version="1.1" x="0px" y="0px" viewBox="0 0 65 65" enable-background="new 0 0 65 65" xml:space="preserve"><g><path d="M37.6,28.8h-1.3v-2.7c0-2.2-1.8-4-4-4c-2.2,0-4,1.8-4,4v2.7h-1.3c-0.9,0-1.7,0.8-1.7,1.7v6.9c0,0.9,0.8,1.7,1.7,1.7h10.4   c0.9,0,1.7-0.8,1.7-1.7v-6.9C39.3,29.6,38.5,28.8,37.6,28.8z M29.9,26.1c0-1.4,1.1-2.5,2.5-2.5c1.4,0,2.5,1.1,2.5,2.5v2.7h-5V26.1z    M37.8,37.5c0,0.1-0.1,0.2-0.2,0.2H27.2c-0.1,0-0.2-0.1-0.2-0.2v-6.9c0-0.1,0.1-0.2,0.2-0.2h10.4c0.1,0,0.2,0.1,0.2,0.2V37.5z"></path><path d="M65,26.4H51.6c0.7-3.2,1-5.3,1-5.4l0.1-0.7l-0.7-0.1c-13.5-1.7-19-7.5-19-7.6L32.4,12l-0.5,0.6c-0.1,0.1-5.4,5.9-19,7.6   l-0.7,0.1l0.1,0.7c0,0.3,0.3,2.4,1,5.4H0l3.3,8.4h3.8l2.7,6.9h3.8l2.7,6.9h9.2c1.9,1.6,4,3,6.5,4.1l0.3,0.1l0.3-0.1   c2.6-1,4.8-2.5,6.7-4.1h9.2l2.7-6.9h3.8l2.7-6.9h3.8L65,26.4z M4.3,33.4l-2.2-5.5h11.4c0.4,1.7,1,3.5,1.8,5.5H4.3z M10.9,40.3   l-2.2-5.5H16c0.8,1.8,1.7,3.6,2.7,5.5H10.9z M17.4,47.3l-2.2-5.5h4.4c1.3,1.9,2.7,3.8,4.4,5.5H17.4z M32.4,51.4   c-14.4-6.6-18-25.8-18.6-29.8c11.3-1.6,17-5.9,18.6-7.4c1.7,1.5,7.3,5.9,18.7,7.4C50.5,25.6,47.2,45.1,32.4,51.4z M47.6,47.3H41   c1.7-1.7,3.1-3.5,4.4-5.5h4.4L47.6,47.3z M54.1,40.3h-7.8c1.1-1.8,1.9-3.7,2.7-5.5h7.3L54.1,40.3z M49.5,33.4   c0.7-1.9,1.3-3.8,1.7-5.5h11.6l-2.2,5.5H49.5z"></path></g></svg>