<svg height='100px' width='100px'  fill="#b835a1" xmlns="http://www.w3.org/2000/svg" viewBox="0 0 64 64" x="0px" y="0px"><title>Stars</title><g><path d="M22.0811,48.1387l-5.3067-.7715-2.374-4.81a1.04,1.04,0,0,0-1.793,0l-2.374,4.81-5.3066.7715a1,1,0,0,0-.5547,1.7051l3.8408,3.7431L7.3057,58.873a.9995.9995,0,0,0,1.45,1.0538l4.748-2.4952,4.7481,2.4952a.9994.9994,0,0,0,1.45-1.0538l-.9072-5.2861,3.8408-3.7431a1,1,0,0,0-.5546-1.7051Zm-5.0586,4.3838a.9994.9994,0,0,0-.2871.8847l.6533,3.8067-3.42-1.7969a.9955.9955,0,0,0-.93,0l-3.42,1.7969.6534-3.8067a1,1,0,0,0-.2871-.8847L7.22,49.8262l3.8213-.5557a.998.998,0,0,0,.7529-.5469l1.71-3.4638,1.71,3.4638a.998.998,0,0,0,.7529.5469l3.8213.5557ZM27.498,25.8281a.9991.9991,0,0,0,.3975-.9775l-1.1523-6.7178L31.624,13.375a1,1,0,0,0-.5547-1.7051l-6.7451-.98L21.3076,4.5771a1.04,1.04,0,0,0-1.793,0L16.498,10.69l-6.7451.98a1,1,0,0,0-.5547,1.7051L14.08,18.1328l-1.1524,6.7178a1,1,0,0,0,1.45,1.0537l6.0332-3.1709,6.0342,3.1709a.9972.9972,0,0,0,1.0527-.0762Zm-2.8144-7.875.8984,5.2383-4.706-2.4726a.9947.9947,0,0,0-.93,0l-4.7051,2.4726.8984-5.2383a.9994.9994,0,0,0-.2871-.8847l-3.8066-3.711,5.26-.7646a.9984.9984,0,0,0,.7529-.5469l2.3525-4.7666,2.3526,4.7666a.9982.9982,0,0,0,.7529.5469l5.2607.7646-3.8066,3.711A1,1,0,0,0,24.6836,17.9531ZM60.0391,34.0742a1,1,0,0,0-.8077-.6806L48.9258,31.8955l-4.6084-9.3379a.9995.9995,0,0,0-1.793,0L37.915,31.8955,27.6094,33.3936a1,1,0,0,0-.5547,1.705l7.458,7.27L32.752,52.6328a.9994.9994,0,0,0,1.45,1.0537l9.2188-4.8457,9.2168,4.8457a1,1,0,0,0,1.4512-1.0537L52.3281,42.3682l7.458-7.27A1,1,0,0,0,60.0391,34.0742Zm-9.4834,7.23a1,1,0,0,0-.2871.8848l1.5068,8.7851-7.8887-4.1474a.9933.9933,0,0,0-.9306,0l-7.8907,4.1474,1.5069-8.7851a1,1,0,0,0-.2871-.8848l-6.3838-6.2226,8.8213-1.2823a.9981.9981,0,0,0,.7529-.5468L43.4209,25.26l3.9443,7.9922a.998.998,0,0,0,.753.5468L56.94,35.0811Z"></path></g></svg>