<svg height='100px' width='100px'  fill="#b835a1" xmlns="http://www.w3.org/2000/svg" data-name="Layer 100" viewBox="0 0 100 100" x="0px" y="0px"><title>74. Plane Repair</title><path d="M48.68,26.87C47.19,22.68,42,9,37.57,9S27.94,22.68,26.46,26.87a1,1,0,0,0-.06.33V42.11l-16.95,16a1,1,0,0,0-.31.73V67a1,1,0,0,0,1,1H26.82l3.4,5.86a1,1,0,0,0,.86.5H32a9.21,9.21,0,0,0-.22,6.13c.8,2.2,2.62,3.85,5.42,4.91a.92.92,0,0,0,.36.07.84.84,0,0,0,.35-.07c2.8-1.06,4.63-2.71,5.42-4.91a9.15,9.15,0,0,0-.21-6.13h.93a1,1,0,0,0,.86-.5L48.32,68H65a1,1,0,0,0,1-1V58.82a1,1,0,0,0-.31-.73l-16.95-16V27.2A1,1,0,0,0,48.68,26.87ZM26.4,66H11.14V59.25L26.4,44.86ZM37.57,11c2,0,6.32,8.42,9.15,16.31-.29.77-3.42,2-9.15,2s-8.86-1.26-9.15-2C31.24,19.42,35.51,11,37.57,11Zm3.89,68.77a6.38,6.38,0,0,1-3.89,3.58,6.4,6.4,0,0,1-3.89-3.57,7.72,7.72,0,0,1,.48-5.46H41A7.68,7.68,0,0,1,41.46,79.77Zm2-7.45H31.66L29.13,68H46Zm3.26-29.77V66H28.4V29.79c2.84,1.45,7.85,1.55,9.17,1.55s6.33-.1,9.17-1.55ZM64,59.25V66H48.74V44.86Z"></path><path d="M31.8,47.08c0,6.31,2.48,11.07,5.77,11.07s5.77-4.76,5.77-11.07S40.86,36,37.57,36,31.8,40.77,31.8,47.08Zm9.54,0c0,5.34-2,9.07-3.77,9.07s-3.77-3.73-3.77-9.07,2-9.07,3.77-9.07S41.34,41.73,41.34,47.08Z"></path><path d="M85.05,32.87a1,1,0,0,0-1.55.83v6.24L76.82,43.8l-6.68-3.86v-6.5a1,1,0,0,0-.51-.87,1,1,0,0,0-1,0,12.3,12.3,0,0,0-.1,21.52V83a8.1,8.1,0,1,0,16.19,0V54.11A12.69,12.69,0,0,0,91,43.39,12.67,12.67,0,0,0,85.05,32.87ZM82.71,83a6.1,6.1,0,1,1-12.19,0V55.13a15.6,15.6,0,0,0,12.19,0Zm-6.1-28.62c-6.83,0-12.38-4.93-12.38-11a10.43,10.43,0,0,1,3.91-8v5.14a1,1,0,0,0,.5.87l7.68,4.43a1,1,0,0,0,1,0L85,41.39a1,1,0,0,0,.5-.87V35.74A10.23,10.23,0,0,1,89,43.39C89,49.44,83.44,54.37,76.61,54.37Z"></path><path d="M72.51,82a4.11,4.11,0,1,0,4.1-4.11A4.11,4.11,0,0,0,72.51,82Zm6.21,0a2.11,2.11,0,1,1-2.11-2.11A2.12,2.12,0,0,1,78.72,82Z"></path></svg>