<?xml version="1.0" encoding="utf-8"?>
<!-- Generator: Adobe Illustrator 25.0.0, SVG Export Plug-In . SVG Version: 6.00 Build 0)  -->
<svg version="1.1" id="Layer_1" xmlns="http://www.w3.org/2000/svg" xmlns:xlink="http://www.w3.org/1999/xlink" x="0px" y="0px"
	 viewBox="0 0 100 100" style="enable-background:new 0 0 100 100;" xml:space="preserve">
<style type="text/css">
	.st0{fill:#B835A1;}
</style>
<g>
	<path class="st0" d="M76.3,20.8h-9.7v-0.5c0-2.8-2.5-5-5.6-5h-2.3c-0.6-3.2-3.6-5.7-6.9-5.7c-3.3,0-6.3,2.4-6.9,5.7h-2.3
		c-3.1,0-5.6,2.3-5.6,5v0.5h-9.7c-0.8,0-1.4,0.6-1.4,1.4v65.3c0,0.8,0.6,1.4,1.4,1.4h49c0.8,0,1.4-0.6,1.4-1.4V22.1
		C77.7,21.4,77.1,20.8,76.3,20.8z M39.8,24.7v-4.5c0-1.3,1.3-2.3,2.8-2.3h3.6c0.8,0,1.4-0.6,1.4-1.4c0-2.4,1.9-4.3,4.3-4.3
		c2.4,0,4.3,1.9,4.3,4.3c0,0.8,0.6,1.4,1.4,1.4h3.6c1.6,0,2.8,1,2.8,2.3v4.5H39.8z M38.4,27.4h26.9c0.8,0,1.4-0.6,1.4-1.4v-2.5h8.3
		v62.6H28.7V23.5H37v2.5C37,26.8,37.6,27.4,38.4,27.4z"/>
	<path class="st0" d="M51.8,14.7c-1,0-1.9,0.8-1.9,1.9c0,1,0.8,1.9,1.9,1.9c1,0,1.9-0.8,1.9-1.9C53.7,15.5,52.9,14.7,51.8,14.7z"/>
	<path class="st0" d="M42.4,79.7h1.2v2c0,0.8,0.6,1.4,1.4,1.4h14c0.8,0,1.4-0.6,1.4-1.4v-2h0.9c0.4,0,0.8-0.2,1-0.5
		c0.3-0.3,0.4-0.7,0.3-1.1l-1.5-11.1c-0.1-0.5-0.3-0.8-0.8-1V41.9c0-0.3,0.2-8.3-7.9-12.8c-0.4-0.2-0.9-0.2-1.3,0
		c-7.9,4.4-8,11.7-7.9,12.7l0,24.2c-0.4,0.2-0.6,0.6-0.7,1L41,78.1c-0.1,0.4,0.1,0.8,0.3,1.1C41.6,79.5,42,79.7,42.4,79.7z M46,40.5
		c0.2-1.9,1.3-5.8,5.8-8.6c4.4,2.7,5.5,6.7,5.7,8.6H46z M45.9,65.9V43.3h11.7v22.6H45.9z M57.6,79.7v0.6H46.3v-0.6H57.6z M43.9,76.9
		l1.1-8.3h13.5l1.1,8.3H43.9z"/>
	<path class="st0" d="M51.7,44.6c-2.6,0-4.7,2.1-4.7,4.7c0,2.6,2.1,4.7,4.7,4.7s4.7-2.1,4.7-4.7C56.4,46.7,54.3,44.6,51.7,44.6z
		 M51.7,52c-1.5,0-2.7-1.2-2.7-2.7c0-1.5,1.2-2.7,2.7-2.7s2.7,1.2,2.7,2.7C54.4,50.8,53.2,52,51.7,52z"/>
</g>
</svg>
