<svg height='100px' width='100px'  fill="#b835a1" xmlns="http://www.w3.org/2000/svg" viewBox="0 0 64 64" x="0px" y="0px"><title>Telescope</title><g><path d="M59,14H49a1,1,0,0,0-1,1v1H30V14h7a1,1,0,0,0,1-1V9a1,1,0,0,0-1-1H25a1,1,0,0,0-1,1v4a1,1,0,0,0,1,1h3v2H21a1,1,0,0,0-1,1v3H10V19a1,1,0,0,0-1-1H5a1,1,0,0,0-1,1V29a1,1,0,0,0,1,1H9a1,1,0,0,0,1-1V28H20v3a1,1,0,0,0,1,1h5.1843a2.995,2.995,0,0,0,1.349,1.6008L16.1221,54.5215a1,1,0,1,0,1.7558.957L28,36.9213V55a1,1,0,0,0,2,0V36.9213L40.1221,55.4785a1,1,0,1,0,1.7558-.957L30.4667,33.6008A2.9946,2.9946,0,0,0,31.8157,32H48v1a1,1,0,0,0,1,1H59a1,1,0,0,0,1-1V15A1,1,0,0,0,59,14ZM36,12H34V10h2ZM26,10h6v2H26ZM8,28H6V20H8v8Zm2-2V22H20v4Zm19,6a1,1,0,1,1,1-1A1.0009,1.0009,0,0,1,29,32Zm2.8157-2a2.982,2.982,0,0,0-5.6314,0H22V18H48V30ZM50,31V16h4V32H50Zm8,1H56V16h2Z"></path></g></svg>