<svg height='100px' width='100px'  fill="#b835a1" xmlns="http://www.w3.org/2000/svg" xmlns:xlink="http://www.w3.org/1999/xlink" version="1.1" x="0px" y="0px" viewBox="0 0 64 64" style="enable-background:new 0 0 64 64;" xml:space="preserve"><path d="M61,40H48V19.242c0-3.003-1.169-5.826-3.293-7.949c-0.391-0.391-1.023-0.391-1.414,0C41.169,13.416,40,16.239,40,19.242  v9.407c-0.998-2.425-1.662-4.99-1.941-7.645c-0.71-6.746-3.743-13.103-8.539-17.898l-0.812-0.812c-0.391-0.391-1.023-0.391-1.414,0  L26.48,3.105c-4.796,4.796-7.829,11.152-8.539,17.898c-0.28,2.655-0.944,5.22-1.941,7.645v-9.407c0-3.003-1.169-5.826-3.293-7.949  c-0.391-0.391-1.023-0.391-1.414,0C9.169,13.416,8,16.239,8,19.242V40.14c-1.916,2.26-3.483,4.782-4.65,7.506l-1.269,2.961  c-0.133,0.309-0.101,0.663,0.084,0.944C2.35,51.831,2.664,52,3,52h23v1c0,0.553,0.448,1,1,1c0.551,0,1,0.448,1,1s-0.449,1-1,1  c-0.552,0-1,0.447-1,1v4c0,0.553,0.448,1,1,1h34c0.552,0,1-0.447,1-1v-4c0-0.553-0.448-1-1-1c-0.551,0-1-0.448-1-1s0.449-1,1-1  c0.552,0,1-0.447,1-1v-4c0-0.553-0.448-1-1-1c-0.551,0-1-0.448-1-1s0.449-1,1-1c0.552,0,1-0.447,1-1v-4C62,40.447,61.552,40,61,40z   M42,32.571V19.242c0-2.111,0.704-4.115,2-5.743c1.296,1.628,2,3.632,2,5.743v18.555l-1.422-1.659  C43.657,35.063,42.791,33.864,42,32.571z M10,19.242c0-2.111,0.704-4.115,2-5.743c1.296,1.628,2,3.632,2,5.743v13.329  c-0.791,1.293-1.657,2.492-2.578,3.566L10,37.797V19.242z M4.517,50l0.671-1.567c1.108-2.586,2.599-4.98,4.431-7.118l0.141-0.164  l3.182-3.712c3.939-4.595,6.355-10.206,6.99-16.226c0.662-6.291,3.491-12.22,7.964-16.693L28,4.414l0.105,0.105  c4.473,4.474,7.302,10.402,7.964,16.693c0.634,6.02,3.051,11.631,6.99,16.226L45.254,40H27c-0.552,0-1,0.447-1,1v4  c0,0.553,0.448,1,1,1c0.551,0,1,0.448,1,1s-0.449,1-1,1c-0.552,0-1,0.447-1,1v1H4.517z M60,44.171c-1.164,0.413-2,1.525-2,2.829  s0.836,2.416,2,2.829v2.342c-1.164,0.413-2,1.525-2,2.829s0.836,2.416,2,2.829V60H28v-2.171c1.164-0.413,2-1.525,2-2.829  s-0.836-2.416-2-2.829V51v-1.171c1.164-0.413,2-1.525,2-2.829s-0.836-2.416-2-2.829V42h19.407H60V44.171z"></path><path d="M31,23h2c0-2.757-2.243-5-5-5s-5,2.243-5,5h2c0-1.654,1.346-3,3-3S31,21.346,31,23z"></path><rect x="49" y="44" width="2" height="2"></rect><rect x="49" y="48" width="2" height="2"></rect><rect x="49" y="52" width="2" height="2"></rect><rect x="49" y="56" width="2" height="2"></rect><path d="M39,45c-3.309,0-6,2.691-6,6s2.691,6,6,6s6-2.691,6-6S42.309,45,39,45z M39,55c-2.206,0-4-1.794-4-4s1.794-4,4-4  s4,1.794,4,4S41.206,55,39,55z"></path></svg>