<svg height='100px' width='100px'  fill="#b835a1" xmlns="http://www.w3.org/2000/svg" xmlns:xlink="http://www.w3.org/1999/xlink" version="1.1" x="0px" y="0px" viewBox="0 0 100 100" style="enable-background:new 0 0 100 100;" xml:space="preserve"><path d="M11,90h19.4619141c0.5522461,0,1-0.4477539,1-1V74.1503906h7.331543V89c0,0.5522461,0.4477539,1,1,1h20.5483398  c0.5522461,0,1-0.4477539,1-1V74.1503906h7.1962891V89c0,0.5522461,0.4477539,1,1,1H89c0.5522461,0,1-0.4477539,1-1V57.300293  c0-0.5522461-0.4477539-1-1-1H69.5380859c-0.5522461,0-1,0.4477539-1,1v14.8500977h-7.1962891v-9.6689453  c0-0.5522461-0.4477539-1-1-1h-1.1616211v-4.4370117c0-4.7327271-3.6277466-8.6314087-8.2480469-9.0685425V37.4449463  c3.7929077-0.4927368,6.734375-3.7345581,6.734375-7.6573486c0-4.262207-3.4697266-7.7299805-7.734375-7.7299805  s-7.734375,3.4677734-7.734375,7.7299805c0,3.9227905,2.9414673,7.1646118,6.734375,7.6573486v10.5657349  c-4.4892578,0.5618896-7.9765625,4.3947144-7.9765625,9.0337524v4.4370117H39.793457c-0.5522461,0-1,0.4477539-1,1v9.6689453  h-7.331543V57.300293c0-0.5522461-0.4477539-1-1-1H11c-0.5522461,0-1,0.4477539-1,1V89C10,89.5522461,10.4477539,90,11,90z   M70.5380859,74.1503906h7.730957V88h-7.730957V74.1503906z M80.269043,88V74.1503906H88V88H80.269043z M88,72.1503906h-7.730957  V58.300293H88V72.1503906z M70.5380859,58.300293h7.730957v13.8500977h-7.730957V58.300293z M44.1977539,29.7875977  c0-3.159668,2.5722656-5.7299805,5.734375-5.7299805s5.734375,2.5703125,5.734375,5.7299805  c0,3.1591797-2.5722656,5.7294922-5.734375,5.7294922S44.1977539,32.9467773,44.1977539,29.7875977z M42.9555664,57.0444336  c0-3.921875,3.1904297-7.1123047,7.1123047-7.1123047s7.1123047,3.1904297,7.1123047,7.1123047v4.4370117H42.9555664V57.0444336z   M40.793457,63.4814453h1.1621094h16.2246094h1.1616211V88H40.793457V63.4814453z M12,74.1503906h7.730957V88H12V74.1503906z   M29.4619141,88h-7.730957V74.1503906h7.730957V88z M29.4619141,72.1503906h-7.730957V58.300293h7.730957V72.1503906z   M19.730957,58.300293v13.8500977H12V58.300293H19.730957z"></path><path d="M56.6660156,40.5791016c-0.4814453,0.2709961-0.6513672,0.8808594-0.3803711,1.3618164  c0.1835938,0.3261719,0.5229492,0.5092773,0.8720703,0.5092773c0.1660156,0,0.3349609-0.0415039,0.4897461-0.1289062  c4.5336914-2.5546875,7.3500977-7.3574219,7.3500977-12.5341797c0-5.1762695-2.815918-9.9790039-7.3486328-12.5336914  c-0.4829102-0.2714844-1.0922852-0.1010742-1.3623047,0.3798828c-0.2714844,0.4814453-0.1010742,1.0913086,0.3798828,1.3623047  c3.9052734,2.2011719,6.3310547,6.3359375,6.3310547,10.7915039S60.5712891,38.3779297,56.6660156,40.5791016z"></path><path d="M61.4619141,49.5996094c0.1660156,0,0.3349609-0.0415039,0.4897461-0.1289062  c7.1201172-4.0126953,11.543457-11.5546875,11.543457-19.6835938s-4.4223633-15.6708984-11.5415039-19.6831055  c-0.4829102-0.2719727-1.0913086-0.1010742-1.3623047,0.3798828c-0.2714844,0.4814453-0.1010742,1.0913086,0.3798828,1.3623047  c6.4916992,3.6586914,10.5239258,10.5332031,10.5239258,17.940918s-4.0332031,14.2827148-10.5249023,17.9414062  c-0.4814453,0.2709961-0.6513672,0.8808594-0.3803711,1.3618164C60.7734375,49.4165039,61.112793,49.5996094,61.4619141,49.5996094z  "></path><path d="M43.1982422,18.9956055c0.4814453-0.2709961,0.6513672-0.8808594,0.3803711-1.3618164  c-0.2709961-0.4814453-0.8818359-0.6518555-1.3618164-0.3803711c-4.5336914,2.5546875-7.3500977,7.3574219-7.3500977,12.5341797  c0,5.1762695,2.815918,9.9790039,7.3486328,12.5336914c0.1552734,0.0874023,0.3242188,0.1289062,0.4902344,0.1289062  c0.3491211,0,0.6884766-0.1831055,0.8720703-0.5087891c0.2714844-0.4814453,0.1010742-1.0913086-0.3798828-1.3623047  c-3.9052734-2.2011719-6.3310547-6.3359375-6.3310547-10.7915039S39.2929688,21.1967773,43.1982422,18.9956055z"></path><path d="M38.894043,11.8461914c0.4814453-0.2709961,0.6513672-0.8808594,0.3803711-1.3618164  c-0.2709961-0.4814453-0.8818359-0.6523438-1.3618164-0.3803711c-7.1201172,4.0126953-11.543457,11.5551758-11.543457,19.684082  c0,8.128418,4.4223633,15.6704102,11.5415039,19.6826172c0.1552734,0.0874023,0.3242188,0.1289062,0.4902344,0.1289062  c0.3491211,0,0.6884766-0.1831055,0.8720703-0.5087891c0.2714844-0.4814453,0.1010742-1.0913086-0.3798828-1.3623047  c-6.4916992-3.6586914-10.5239258-10.5327148-10.5239258-17.9404297  C28.3691406,22.3798828,32.4023438,15.5048828,38.894043,11.8461914z"></path></svg>