<svg height='100px' width='100px'  fill="#b835a1" xmlns="http://www.w3.org/2000/svg" xmlns:xlink="http://www.w3.org/1999/xlink" version="1.1" x="0px" y="0px" viewBox="0 0 100 100" style="enable-background:new 0 0 100 100;" xml:space="preserve"><path d="M79.3,27.3c-0.3-0.2-0.7-0.2-1.1,0.1l-2.5,1.8l-3-1.1c-0.4-0.1-0.8,0-1,0.2c-0.3,0.3-0.4,0.7-0.3,1l1,3l-1.9,2.5  c-0.2,0.3-0.3,0.7-0.1,1.1c0.2,0.3,0.5,0.6,0.9,0.6l3.1,0l1.8,2.6c0.2,0.3,0.5,0.4,0.8,0.4c0,0,0.1,0,0.1,0c0.4-0.1,0.7-0.3,0.8-0.7  l1-3l3-0.9c0.4-0.1,0.6-0.4,0.7-0.8s-0.1-0.8-0.4-1l-2.5-1.8l0.1-3.1C79.9,27.9,79.7,27.5,79.3,27.3z M77.9,34.1  c-0.3,0.1-0.6,0.3-0.7,0.6l-0.5,1.6L75.8,35c-0.2-0.3-0.5-0.4-0.8-0.4l-1.6,0l1-1.3c0.2-0.3,0.3-0.6,0.2-0.9L74,30.7l1.5,0.5  c0.3,0.1,0.7,0.1,0.9-0.1l1.3-1l0,1.6c0,0.3,0.1,0.6,0.4,0.8l1.3,1L77.9,34.1z"></path><path d="M60.4,20.5c-0.2-0.3-0.6-0.4-1-0.3l-3.1,0.7L54,18.7c-0.3-0.3-0.7-0.3-1-0.2c-0.4,0.1-0.6,0.5-0.6,0.8L52,22.5L49.3,24  c-0.3,0.2-0.5,0.5-0.5,0.9c0,0.4,0.3,0.7,0.6,0.9l2.9,1.2l0.6,3.1c0.1,0.4,0.4,0.7,0.7,0.8c0.1,0,0.2,0,0.3,0c0.3,0,0.6-0.1,0.8-0.3  l2.1-2.4l3.1,0.4c0.4,0,0.7-0.1,1-0.4c0.2-0.3,0.2-0.7,0-1.1l-1.6-2.7l1.3-2.8C60.7,21.2,60.6,20.8,60.4,20.5z M56.4,26.2  c-0.3,0-0.7,0.1-0.9,0.3l-1.1,1.2l-0.3-1.6c-0.1-0.3-0.3-0.6-0.6-0.7l-1.5-0.6l1.4-0.8c0.3-0.2,0.5-0.5,0.5-0.8l0.2-1.6l1.2,1.1  c0.2,0.2,0.6,0.3,0.9,0.2l1.6-0.4l-0.7,1.5c-0.1,0.3-0.1,0.6,0,0.9l0.8,1.4L56.4,26.2z"></path><path d="M23.1,18.8l-3-1l-0.9-3c-0.1-0.4-0.4-0.6-0.8-0.7c-0.4-0.1-0.8,0.1-1,0.4L15.7,17l-3.1-0.1c-0.4,0-0.7,0.2-0.9,0.5  c-0.2,0.3-0.2,0.7,0.1,1.1l1.8,2.6L12.4,24c-0.1,0.4,0,0.8,0.2,1s0.7,0.4,1,0.3l3-0.9l2.5,1.9c0.2,0.1,0.4,0.2,0.6,0.2  c0.1,0,0.3,0,0.4-0.1c0.3-0.2,0.6-0.5,0.6-0.9l0-3.1l2.6-1.8c0.3-0.2,0.5-0.6,0.4-1C23.8,19.3,23.5,19,23.1,18.8z M19.2,21  c-0.3,0.2-0.4,0.5-0.4,0.8l0,1.6l-1.3-1c-0.2-0.1-0.4-0.2-0.6-0.2c-0.1,0-0.2,0-0.3,0L15,22.8l0.6-1.5c0.1-0.3,0.1-0.7-0.1-0.9  L14.5,19l1.6,0.1c0.3,0,0.6-0.1,0.8-0.4l1-1.3l0.5,1.6c0.1,0.3,0.3,0.6,0.6,0.7l1.6,0.5L19.2,21z"></path><circle cx="83.2" cy="13" r="1.1"></circle><circle cx="32" cy="16.2" r="1.1"></circle><circle cx="65.6" cy="31.5" r="1.1"></circle><circle cx="44.3" cy="29.8" r="1.1"></circle><circle cx="16.1" cy="34.9" r="1.1"></circle><path d="M69.8,15.2c-2.1,0-3.8,1.7-3.8,3.8c0,2.1,1.7,3.8,3.8,3.8c2.1,0,3.8-1.7,3.8-3.8C73.6,16.8,71.9,15.2,69.8,15.2z M69.8,20.7  c-1,0-1.8-0.8-1.8-1.8c0-1,0.8-1.8,1.8-1.8c1,0,1.8,0.8,1.8,1.8C71.6,19.9,70.8,20.7,69.8,20.7z"></path><path d="M86.7,20.9c-2.1,0-3.8,1.7-3.8,3.8c0,2.1,1.7,3.8,3.8,3.8s3.8-1.7,3.8-3.8C90.5,22.6,88.8,20.9,86.7,20.9z M86.7,26.5  c-1,0-1.8-0.8-1.8-1.8c0-1,0.8-1.8,1.8-1.8s1.8,0.8,1.8,1.8C88.5,25.7,87.7,26.5,86.7,26.5z"></path><path d="M43.5,11.3c-2.1,0-3.8,1.7-3.8,3.8c0,2.1,1.7,3.8,3.8,3.8c2.1,0,3.8-1.7,3.8-3.8C47.3,13,45.6,11.3,43.5,11.3z M43.5,16.9  c-1,0-1.8-0.8-1.8-1.8c0-1,0.8-1.8,1.8-1.8c1,0,1.8,0.8,1.8,1.8C45.3,16.1,44.5,16.9,43.5,16.9z"></path><path d="M25.2,29.5c0,3.2,2.6,5.8,5.8,5.8s5.8-2.6,5.8-5.8s-2.6-5.8-5.8-5.8S25.2,26.3,25.2,29.5z M31,25.7c2.1,0,3.8,1.7,3.8,3.8  S33,33.3,31,33.3s-3.8-1.7-3.8-3.8S28.9,25.7,31,25.7z"></path><path d="M82.7,61c0.1-0.4-0.1-0.8-0.4-1l-2.5-1.8l0.1-3.1c0-0.4-0.2-0.7-0.5-0.9c-0.3-0.2-0.7-0.2-1.1,0.1L75.7,56l-3-1.1  c-0.4-0.1-0.8,0-1,0.2c-0.3,0.3-0.4,0.7-0.3,1l1,3l-1.9,2.5c-0.2,0.3-0.3,0.7-0.1,1.1c0.2,0.3,0.5,0.6,0.9,0.6l3.1,0l1.8,2.6  c0.2,0.3,0.5,0.4,0.8,0.4c0,0,0.1,0,0.1,0c0.4-0.1,0.7-0.3,0.8-0.7l1-3l3-0.9C82.4,61.7,82.6,61.4,82.7,61z M77.9,60.9  c-0.3,0.1-0.6,0.3-0.7,0.6l-0.5,1.6l-0.9-1.3c-0.2-0.3-0.5-0.4-0.8-0.4l-1.6,0l1-1.3c0.2-0.3,0.3-0.6,0.2-0.9L74,57.5l1.5,0.5  c0.3,0.1,0.7,0.1,0.9-0.1l1.3-1l0,1.6c0,0.3,0.1,0.6,0.4,0.8l1.3,1L77.9,60.9z"></path><path d="M47.5,48.3c0,0.4,0.3,0.7,0.6,0.9l4.9,2.1l1,5.2c0.1,0.4,0.4,0.7,0.7,0.8c0.1,0,0.2,0,0.3,0c0.3,0,0.6-0.1,0.8-0.3l3.5-4  l5.3,0.6c0.4,0,0.7-0.1,1-0.4c0.2-0.3,0.2-0.7,0-1.1l-2.7-4.6l2.2-4.8c0.2-0.3,0.1-0.8-0.1-1c-0.2-0.3-0.6-0.4-1-0.3l-5.2,1.2  l-3.9-3.6c-0.3-0.3-0.7-0.3-1-0.2c-0.4,0.1-0.6,0.5-0.6,0.8l-0.5,5.3L48,47.4C47.7,47.5,47.5,47.9,47.5,48.3z M54.1,46.3  c0.3-0.2,0.5-0.5,0.5-0.8l0.4-3.8l2.8,2.6c0.2,0.2,0.6,0.3,0.9,0.2l3.7-0.8l-1.6,3.5c-0.1,0.3-0.1,0.6,0,0.9l2,3.3L59,50.9  c-0.3,0-0.7,0.1-0.9,0.3l-2.5,2.9l-0.7-3.8c-0.1-0.3-0.3-0.6-0.6-0.7l-3.5-1.5L54.1,46.3z"></path><path d="M12.6,51.8c0.3,0.3,0.7,0.4,1,0.3l3-0.9l2.5,1.9c0.2,0.1,0.4,0.2,0.6,0.2c0.1,0,0.3,0,0.4-0.1c0.3-0.2,0.6-0.5,0.6-0.9  l0-3.1l2.6-1.8c0.3-0.2,0.5-0.6,0.4-1c-0.1-0.4-0.3-0.7-0.7-0.8l-3-1l-0.9-3c-0.1-0.4-0.4-0.6-0.8-0.7c-0.4-0.1-0.8,0.1-1,0.4  l-1.9,2.5l-3.1-0.1c-0.4,0-0.7,0.2-0.9,0.5c-0.2,0.3-0.2,0.7,0.1,1.1l1.8,2.6l-1.1,2.9C12.3,51.2,12.4,51.6,12.6,51.8z M16.1,45.8  c0.3,0,0.6-0.1,0.8-0.4l1-1.3l0.5,1.6c0.1,0.3,0.3,0.6,0.6,0.7l1.5,0.5l-1.4,0.9c-0.3,0.2-0.4,0.5-0.4,0.8l0,1.6l-1.3-1  c-0.2-0.1-0.4-0.2-0.6-0.2c-0.1,0-0.2,0-0.3,0L15,49.6l0.6-1.5c0.1-0.3,0.1-0.7-0.1-0.9l-0.9-1.3L16.1,45.8z"></path><circle cx="83.2" cy="39.8" r="1.1"></circle><circle cx="72.6" cy="46.8" r="1.1"></circle><circle cx="65.6" cy="58.3" r="1.1"></circle><circle cx="44.3" cy="56.6" r="1.1"></circle><path d="M86.7,55.3c2.1,0,3.8-1.7,3.8-3.8c0-2.1-1.7-3.8-3.8-3.8s-3.8,1.7-3.8,3.8C82.9,53.6,84.6,55.3,86.7,55.3z M86.7,49.7  c1,0,1.8,0.8,1.8,1.8c0,1-0.8,1.8-1.8,1.8s-1.8-0.8-1.8-1.8C84.9,50.5,85.7,49.7,86.7,49.7z"></path><path d="M37.7,39.5c0,2.1,1.7,3.8,3.8,3.8c2.1,0,3.8-1.7,3.8-3.8c0-2.1-1.7-3.8-3.8-3.8C39.3,35.8,37.7,37.5,37.7,39.5z M41.4,37.8  c1,0,1.8,0.8,1.8,1.8c0,1-0.8,1.8-1.8,1.8c-1,0-1.8-0.8-1.8-1.8C39.7,38.6,40.5,37.8,41.4,37.8z"></path><path d="M33.1,46.7c-2.1,0-3.8,1.7-3.8,3.8c0,2.1,1.7,3.8,3.8,3.8s3.8-1.7,3.8-3.8C36.9,48.4,35.2,46.7,33.1,46.7z M33.1,52.3  c-1,0-1.8-0.8-1.8-1.8c0-1,0.8-1.8,1.8-1.8s1.8,0.8,1.8,1.8C34.9,51.5,34.1,52.3,33.1,52.3z"></path><path d="M54,71c-0.3-0.3-0.7-0.3-1-0.2c-0.4,0.1-0.6,0.5-0.6,0.8L52,74.7l-2.7,1.5c-0.3,0.2-0.5,0.5-0.5,0.9c0,0.4,0.3,0.7,0.6,0.9  l2.9,1.2l0.6,3.1c0.1,0.4,0.4,0.7,0.7,0.8c0.1,0,0.2,0,0.3,0c0.3,0,0.6-0.1,0.8-0.3l2.1-2.4l3.1,0.4c0.4,0,0.7-0.1,1-0.4  c0.2-0.3,0.2-0.7,0-1.1l-1.6-2.7l1.3-2.8c0.2-0.3,0.1-0.8-0.1-1c-0.2-0.3-0.6-0.4-1-0.3l-3.1,0.7L54,71z M57.2,77.2l0.8,1.4  l-1.6-0.2c-0.3,0-0.7,0.1-0.9,0.3L54.4,80l-0.3-1.6c-0.1-0.3-0.3-0.6-0.6-0.7L52.1,77l1.4-0.8c0.3-0.2,0.5-0.5,0.5-0.8l0.2-1.6  l1.2,1.1c0.2,0.2,0.6,0.3,0.9,0.2l1.6-0.4l-0.7,1.5C57,76.6,57,76.9,57.2,77.2z"></path><path d="M10.5,61.4c-0.2,0.3-0.2,0.7,0.1,1.1l3.9,5.5l-2.3,6.4c-0.1,0.4,0,0.8,0.2,1c0.3,0.3,0.7,0.4,1,0.3l6.4-2l5.3,4.2  c0.2,0.1,0.4,0.2,0.6,0.2c0.1,0,0.3,0,0.4-0.1c0.3-0.2,0.6-0.5,0.6-0.9l0.1-6.8l5.6-3.8c0.3-0.2,0.5-0.6,0.4-1  c-0.1-0.4-0.3-0.7-0.7-0.8l-6.4-2.1l-1.9-6.5c-0.1-0.4-0.4-0.6-0.8-0.7c-0.4-0.1-0.8,0.1-1,0.4l-4,5.4l-6.8-0.2  C11,60.8,10.7,61,10.5,61.4z M18.6,63.1c0.3,0,0.6-0.1,0.8-0.4l3.1-4.2l1.5,5.1c0.1,0.3,0.3,0.6,0.6,0.7l5,1.7l-4.4,2.9  c-0.3,0.2-0.4,0.5-0.4,0.8l0,5.3l-4.1-3.2c-0.2-0.1-0.4-0.2-0.6-0.2c-0.1,0-0.2,0-0.3,0l-5,1.6l1.8-4.9c0.1-0.3,0.1-0.7-0.1-0.9  l-3.1-4.3L18.6,63.1z"></path><circle cx="89.5" cy="61.7" r="1.1"></circle><circle cx="58.8" cy="64.7" r="1.1"></circle><circle cx="33.1" cy="73.9" r="1.1"></circle><circle cx="61.3" cy="86.3" r="1.1"></circle><circle cx="44.3" cy="82" r="1.1"></circle><circle cx="16.1" cy="87.1" r="1.1"></circle><path d="M73.5,84.6c3.8,0,6.9-3.1,6.9-6.9c0-3.8-3.1-6.9-6.9-6.9c-3.8,0-6.9,3.1-6.9,6.9C66.6,81.5,69.7,84.6,73.5,84.6z M73.5,72.8  c2.7,0,4.9,2.2,4.9,4.9s-2.2,4.9-4.9,4.9s-4.9-2.2-4.9-4.9S70.8,72.8,73.5,72.8z"></path><path d="M86.7,80.7c2.1,0,3.8-1.7,3.8-3.8c0-2.1-1.7-3.8-3.8-3.8s-3.8,1.7-3.8,3.8C82.9,79,84.6,80.7,86.7,80.7z M86.7,75.2  c1,0,1.8,0.8,1.8,1.8c0,1-0.8,1.8-1.8,1.8s-1.8-0.8-1.8-1.8C84.9,76,85.7,75.2,86.7,75.2z"></path><path d="M47.3,67.3c0-2.1-1.7-3.8-3.8-3.8c-2.1,0-3.8,1.7-3.8,3.8s1.7,3.8,3.8,3.8C45.6,71.1,47.3,69.4,47.3,67.3z M43.5,69.1  c-1,0-1.8-0.8-1.8-1.8s0.8-1.8,1.8-1.8c1,0,1.8,0.8,1.8,1.8S44.5,69.1,43.5,69.1z"></path><path d="M29.4,86c0,2.1,1.7,3.8,3.8,3.8s3.8-1.7,3.8-3.8c0-2.1-1.7-3.8-3.8-3.8S29.4,83.9,29.4,86z M33.1,84.2c1,0,1.8,0.8,1.8,1.8  c0,1-0.8,1.8-1.8,1.8S31.4,87,31.4,86C31.4,85,32.2,84.2,33.1,84.2z"></path></svg>