<svg height='100px' width='100px'  fill="#b835a1" xmlns="http://www.w3.org/2000/svg" viewBox="0 0 64 64" x="0px" y="0px"><title>Orbit</title><g><path d="M32,26a7,7,0,1,0,7,7A7.0078,7.0078,0,0,0,32,26Zm0,12a5,5,0,1,1,5-5A5.0059,5.0059,0,0,1,32,38Zm0-20a14.7673,14.7673,0,0,0-4.8134.81,2.9772,2.9772,0,0,0-5.04,2.9183A14.9686,14.9686,0,1,0,32,18Zm-7,1.85a1,1,0,1,1-1,1A1.0013,1.0013,0,0,1,25,19.85ZM32,46a12.9767,12.9767,0,0,1-8.6655-22.657A2.9973,2.9973,0,0,0,28,20.85c0-.069-.0158-.1336-.02-.2014A12.7971,12.7971,0,0,1,32,20a13,13,0,0,1,0,26Zm0-34A20.9879,20.9879,0,0,0,19.1045,49.5562,2.9648,2.9648,0,0,0,19,50.3a2.9946,2.9946,0,0,0,5.0857,2.149A20.7684,20.7684,0,0,0,32,54a21,21,0,0,0,0-42ZM22,51.3a1,1,0,1,1,1-1A1.0013,1.0013,0,0,1,22,51.3ZM32,52a18.7708,18.7708,0,0,1-7.033-1.374A2.9246,2.9246,0,0,0,25,50.3a3.0033,3.0033,0,0,0-3-3,2.9717,2.9717,0,0,0-1.7764.5958A18.9862,18.9862,0,1,1,32,52ZM34.8663,6.1625a2.9808,2.9808,0,0,0-5.7326,0,27,27,0,1,0,5.7326,0ZM32,6a1,1,0,1,1-1,1A1.0013,1.0013,0,0,1,32,6Zm0,52A24.9956,24.9956,0,0,1,29.2346,8.1617a2.9992,2.9992,0,0,0,5.5308,0A24.9956,24.9956,0,0,1,32,58Z"></path></g></svg>