<svg height='100px' width='100px'  fill="#b835a1" xmlns="http://www.w3.org/2000/svg" viewBox="0 0 64 64" x="0px" y="0px"><title>Book</title><g><path d="M54,4H14A5.0059,5.0059,0,0,0,9,9V55a5.0059,5.0059,0,0,0,5,5H54a1,1,0,0,0,1-1V5A1,1,0,0,0,54,4ZM14,6H53V50H14a4.9717,4.9717,0,0,0-3,1.0261V9A3.0033,3.0033,0,0,1,14,6Zm0,52a3,3,0,1,1,0-6H53v2H14a1,1,0,0,0,0,2H53v2Zm4-47a1,1,0,0,1,1-1H45a1,1,0,0,1,0,2H19A1,1,0,0,1,18,11Zm0,32a1,1,0,0,1,1-1H45a1,1,0,0,1,0,2H19A1,1,0,0,1,18,43ZM41,16H23a1,1,0,0,1,0-2H41a1,1,0,0,1,0,2Zm-.5146,4.5146c-1.0332-1.0349-2.9321-.6793-5.6266,1.02A7.9892,7.9892,0,0,0,24.535,31.8582c-1.6981,2.6947-2.0536,4.593-1.02,5.6272a2.0737,2.0737,0,0,0,1.5337.5849,8.4355,8.4355,0,0,0,4.1-1.6025,7.9892,7.9892,0,0,0,10.317-10.326C41.1631,23.4471,41.5186,21.5488,40.4854,20.5146ZM27.7573,24.7568A5.9215,5.9215,0,0,1,37.1642,25.99a33.0731,33.0731,0,0,1-3.75,4.4239,33.1058,33.1058,0,0,1-4.4247,3.75,5.9272,5.9272,0,0,1-1.2321-.9214A6.0083,6.0083,0,0,1,27.7573,24.7568ZM24.9531,36.1035c-.0688-.1557-.0208-.8555.7122-2.23a7.2109,7.2109,0,0,0,1.4613,1.4614A4.7627,4.7627,0,0,1,24.9531,36.1035Zm11.29-2.86a5.9706,5.9706,0,0,1-4.9246,1.69,37.5945,37.5945,0,0,0,3.51-3.1049,37.5335,37.5335,0,0,0,3.104-3.508A5.9684,5.9684,0,0,1,36.2427,33.2432Zm1.414-9.9a8.0056,8.0056,0,0,0-.7838-.6784,4.7069,4.7069,0,0,1,2.174-.7679c.0688.1556.021.8545-.7124,2.2294A7.98,7.98,0,0,0,37.6567,23.3428Z"></path></g></svg>