<svg height='100px' width='100px'  fill="#b835a1" xmlns="http://www.w3.org/2000/svg" xmlns:xlink="http://www.w3.org/1999/xlink" version="1.1" x="0px" y="0px" viewBox="0 0 100 100" style="enable-background:new 0 0 100 100;" xml:space="preserve"><path d="M46.4523926,27.6054688c-2.19104-0.8751831-11.5827637-3.7220459-21.9016113,6.609375  c-0.2509766,0.2504883-0.3496094,0.6147461-0.2607422,0.9580078c0.0888672,0.3427734,0.3525391,0.612793,0.6933594,0.7099609  l14.4619141,4.1257324l1.9398193,1.9418945l-4.5638428,4.5686035c-0.390625,0.3901367-0.390625,1.0229492,0,1.4130859  l15.2871094,15.3032227c0.1875,0.1879883,0.4414062,0.293457,0.7070312,0.293457s0.5195312-0.1054688,0.7070312-0.293457  l4.5622559-4.5670166l1.8676758,1.869812l4.1218262,14.4784546c0.0976562,0.3408203,0.3671875,0.6049805,0.7109375,0.6938477  c0.0830078,0.0219727,0.1669922,0.0322266,0.2509766,0.0322266c0.2617188,0,0.5175781-0.1030273,0.7070312-0.293457  c10.1717529-10.1820679,7.5549316-19.4619141,6.6402588-21.826355  c20.6337891-17.5848999,17.428833-42.2584839,17.3880615-42.5432739c-0.0634766-0.4394531-0.4082031-0.7851562-0.8486328-0.8481445  C88.6403809,10.1911621,64.0172119,6.9849243,46.4523926,27.6054688z M45.1196289,29.2476196  c-2.0043945,2.5501099-3.901123,5.4300537-5.6416016,8.6908569l-12.2631836-3.4985352  C35.4221191,27.0438232,42.626709,28.4285889,45.1196289,29.2476196z M52.8154297,61.1137695L38.9414062,47.2255859  l3.8564453-3.8607788L56.671875,57.2539062L52.8154297,61.1137695z M65.5175781,72.78125l-3.4675293-12.180542  c3.2541504-1.7374268,6.128418-3.6314087,8.6751709-5.6325684C71.5172119,57.5609741,72.7282715,64.7441406,65.5175781,72.78125z   M87.8710938,12.1337891c0.1894531,2.2207031,0.4873047,8.9799805-1.8408203,17.0161133  c-2.5771484,8.8920898-8.9951172,21.2084961-24.9296875,29.7084961L41.1962891,38.9316406  C56.1054688,10.9140625,82.9892578,11.7338867,87.8710938,12.1337891z"></path><path d="M73.3037109,34.6777344c2.1259766,0,4.1230469-0.8286133,5.6259766-2.3325195c0-0.0004883,0-0.0004883,0.0009766-0.0004883  c3.0996094-3.1044922,3.0996094-8.1552734-0.0009766-11.2602539c-1.5029297-1.5039062-3.5-2.3325195-5.6259766-2.3325195  c-2.125,0-4.1220703,0.8286133-5.6259766,2.3330078c-3.0996094,3.1044922-3.0996094,8.1552734,0.0009766,11.2602539  C69.1816406,33.8491211,71.1787109,34.6777344,73.3037109,34.6777344z M69.0927734,22.4985352  c1.125-1.1264648,2.6210938-1.746582,4.2109375-1.746582c1.5908203,0,3.0869141,0.6201172,4.2109375,1.7460938  c2.3222656,2.3251953,2.3222656,6.1083984,0.0009766,8.4331055c-1.125,1.1264648-2.6210938,1.746582-4.2119141,1.746582  c-1.5898438,0-3.0859375-0.6201172-4.2099609-1.7460938C66.7714844,28.6064453,66.7714844,24.8232422,69.0927734,22.4985352z"></path><path d="M36.3388672,76.5048828L24.5507812,88.293457c-0.390625,0.390625-0.390625,1.0234375,0,1.4140625  c0.1953125,0.1953125,0.4511719,0.2929688,0.7070312,0.2929688s0.5117188-0.0976562,0.7070312-0.2929688l11.7880859-11.7885742  c0.390625-0.390625,0.390625-1.0234375,0-1.4140625S36.7294922,76.1142578,36.3388672,76.5048828z"></path><path d="M11,90c0.2558594,0,0.5117188-0.0976562,0.7070312-0.2929688l27.2939453-27.2939453  c0.390625-0.390625,0.390625-1.0234375,0-1.4140625s-1.0234375-0.390625-1.4140625,0L10.2929688,88.2929688  c-0.390625,0.390625-0.390625,1.0234375,0,1.4140625C10.4882812,89.9023438,10.7441406,90,11,90z"></path><path d="M10.2939453,75.4482422c0.1953125,0.1953125,0.4511719,0.2929688,0.7070312,0.2929688  s0.5117188-0.0976562,0.7070312-0.2929688l11.7871094-11.7875977c0.390625-0.390625,0.390625-1.0234375,0-1.4140625  s-1.0234375-0.390625-1.4140625,0L10.2939453,74.0341797C9.9033203,74.4248047,9.9033203,75.0576172,10.2939453,75.4482422z"></path><path d="M41.7460938,83.2915039c0.1503906,0.3496094,0.4863281,0.5834961,0.8662109,0.6035156l6.2080078,0.328125  l3.2548828,5.300293C52.2587891,89.8212891,52.5820312,90,52.9277344,90c0.0302734,0,0.0615234-0.0014648,0.0927734-0.0043945  c0.3789062-0.0351562,0.7050781-0.2822266,0.8408203-0.6376953l2.2216797-5.8012695l6.0400391-1.4516602  c0.3701172-0.0888672,0.6582031-0.3803711,0.7421875-0.7514648c0.0839844-0.371582-0.0507812-0.7583008-0.3466797-0.9980469  l-4.8349609-3.9145508l0.4785156-6.1967773c0.0292969-0.3793945-0.1591797-0.7426758-0.4863281-0.9370117  c-0.3271484-0.1948242-0.734375-0.1865234-1.0556641,0.0209961l-5.2080078,3.3828125l-5.7460938-2.3779297  c-0.3525391-0.1459961-0.7558594-0.0791016-1.0429688,0.1723633c-0.2861328,0.2514648-0.4042969,0.6435547-0.3056641,1.0112305  l1.6152344,6.0048828l-4.0283203,4.7260742C41.6572266,82.5375977,41.5957031,82.9418945,41.7460938,83.2915039z   M47.7958984,78.418457c0.2138672-0.2509766,0.2900391-0.5908203,0.2050781-0.9086914l-1.2246094-4.5527344l4.3564453,1.8027344  c0.3027344,0.1259766,0.6503906,0.09375,0.9277344-0.0849609l3.9521484-2.5668945l-0.3632812,4.7026367  c-0.0253906,0.328125,0.1123047,0.6474609,0.3681641,0.8544922l3.6669922,2.9692383l-4.5800781,1.1010742  c-0.3203125,0.0766602-0.5830078,0.3066406-0.7001953,0.6142578L52.71875,86.7495117L50.25,82.7290039  c-0.1728516-0.2802734-0.4716797-0.4580078-0.7998047-0.4750977l-4.7109375-0.2490234L47.7958984,78.418457z"></path><path d="M10.0820312,24.1245117c0.1503906,0.3496094,0.4863281,0.5834961,0.8662109,0.6035156l6.2070312,0.328125  l3.2568359,5.300293c0.1826172,0.2978516,0.5058594,0.4765625,0.8515625,0.4765625  c0.0302734,0,0.0615234-0.0014648,0.0927734-0.0043945c0.3789062-0.0351562,0.7050781-0.2827148,0.8408203-0.6381836  l2.2216797-5.8007812l6.0390625-1.4516602c0.3701172-0.0888672,0.6582031-0.3803711,0.7421875-0.7514648  c0.0839844-0.371582-0.0507812-0.7583008-0.3466797-0.9980469l-4.8339844-3.9145508l0.4775391-6.1972656  c0.0292969-0.3793945-0.1591797-0.7421875-0.4863281-0.9365234c-0.3271484-0.1938477-0.734375-0.1870117-1.0556641,0.0209961  l-5.2080078,3.3828125l-5.7451172-2.3779297c-0.3525391-0.1459961-0.7558594-0.0791016-1.0429688,0.1723633  c-0.2861328,0.2514648-0.4042969,0.6430664-0.3056641,1.0112305l1.6142578,6.0043945l-4.0273438,4.7270508  C9.9931641,23.3706055,9.9316406,23.7749023,10.0820312,24.1245117z M16.1308594,19.2509766  c0.2138672-0.2504883,0.2900391-0.590332,0.2050781-0.9082031l-1.2246094-4.5527344l4.3564453,1.8027344  c0.3027344,0.1254883,0.6503906,0.0932617,0.9277344-0.0849609l3.9521484-2.5668945l-0.3623047,4.703125  c-0.0253906,0.3276367,0.1123047,0.6469727,0.3681641,0.8540039l3.6660156,2.9692383l-4.5800781,1.1010742  c-0.3203125,0.0766602-0.5830078,0.3066406-0.7001953,0.6147461l-1.6845703,4.3994141l-2.4707031-4.0205078  c-0.171875-0.2802734-0.4707031-0.4580078-0.7988281-0.4750977l-4.7099609-0.2490234L16.1308594,19.2509766z"></path><path d="M82.6416016,70.5839844c-4.0576172,0-7.3583984,3.2963867-7.3583984,7.3486328s3.3007812,7.3491211,7.3583984,7.3491211  S90,81.9848633,90,77.9326172S86.6992188,70.5839844,82.6416016,70.5839844z M82.6416016,83.2817383  c-2.9550781,0-5.3583984-2.3994141-5.3583984-5.3491211c0-2.9492188,2.4033203-5.3486328,5.3583984-5.3486328  S88,74.9833984,88,77.9326172C88,80.8823242,85.5966797,83.2817383,82.6416016,83.2817383z"></path><path d="M28.8730469,48.4667969c0-4.0522461-3.3017578-7.3491211-7.359375-7.3491211s-7.3583984,3.296875-7.3583984,7.3491211  s3.3007812,7.3486328,7.3583984,7.3486328S28.8730469,52.519043,28.8730469,48.4667969z M21.5136719,53.8154297  c-2.9550781,0-5.3583984-2.3994141-5.3583984-5.3486328c0-2.949707,2.4033203-5.3491211,5.3583984-5.3491211  s5.359375,2.3994141,5.359375,5.3491211C26.8730469,51.4160156,24.46875,53.8154297,21.5136719,53.8154297z"></path></svg>