<svg height='100px' width='100px'  fill="#b835a1" xmlns="http://www.w3.org/2000/svg" data-name="Layer 100" viewBox="0 0 100 100" x="0px" y="0px"><title>55. Satelite Sygnal</title><path d="M87.74,76.2a6.21,6.21,0,0,0-2-4.36h0l-5.54-5c5.82-11.71-4-23.17-4.09-23.31a1,1,0,0,0-.72-.34.91.91,0,0,0-.74.3L64,54.09l-4.57-3a4.64,4.64,0,0,0-1.33-2.78h0a4.69,4.69,0,0,0-5.9-.58l-1.28-1.07a1,1,0,0,0-1.41.12h0a1,1,0,0,0,.12,1.41l1.19,1a4.66,4.66,0,0,0,4,7.12h0l.17,0,2.74,4.12L47.16,71a1,1,0,0,0-.29.75,1,1,0,0,0,.34.71c.1.09,6.93,5.88,15.39,5.88a17.55,17.55,0,0,0,9.45-2.74L74.3,78,64.87,95.09a1,1,0,0,0,.87,1.49H95a1,1,0,0,0,.84-.45,1,1,0,0,0,.08-.95Zm-2,.23a4.24,4.24,0,1,1-4.24-4.24A4.25,4.25,0,0,1,85.75,76.43ZM54.82,54.3h0a2.68,2.68,0,0,1-1.9-4.57,2.68,2.68,0,0,1,4.58,1.88,2.69,2.69,0,0,1-.78,1.9A2.66,2.66,0,0,1,54.82,54.3ZM57,55.72a4.49,4.49,0,0,0,1.1-.8,4.62,4.62,0,0,0,1-1.62l3.4,2.24L59.18,59ZM49.37,71.65l25.88-26c2.42,3.21,9.86,14.84-.57,25.32S52.59,74.06,49.37,71.65Zm24.35,2.83a25.05,25.05,0,0,0,2.38-2.1,22.82,22.82,0,0,0,3.06-3.79L81,70.22a6.25,6.25,0,0,0-5.67,5.87Zm-6.29,20.1,8.48-15.41A6.23,6.23,0,0,0,87,79.46l6.51,15.12Z"></path><path d="M15,45.09a1,1,0,0,0,.71-.29L19.45,41h0l6.88-6.88.69.69A11.49,11.49,0,0,0,28.42,46a1,1,0,0,0,.73.36h0A1,1,0,0,0,29.9,46l4.91-4.94A5.5,5.5,0,0,0,41.15,41l1.28,1.08a1,1,0,0,0,.65.23,1,1,0,0,0,.76-.35h0a1,1,0,0,0-.12-1.41l-1.16-1a5.57,5.57,0,0,0-.06-6.22l4.7-4.72a1,1,0,0,0,.29-.76,1,1,0,0,0-.36-.72A11.52,11.52,0,0,0,36,25.8l-.69-.69L38.43,22h0L46,14.44A1,1,0,0,0,46,13L36.53,3.53a1,1,0,0,0-1.41,0L24.21,14.44a5.84,5.84,0,0,0-6.75,1.06l-.73.73A5.84,5.84,0,0,0,15.64,23L12.35,26.3h0L8.56,30.1h0L4.76,33.9a1,1,0,0,0-.3.7,1,1,0,0,0,.3.71l9.49,9.49A1,1,0,0,0,15,45.09ZM40.45,39a3.54,3.54,0,0,1-4.18.61L41,34.84A3.53,3.53,0,0,1,40.45,39ZM40.4,26.92a9.38,9.38,0,0,1,4.52,1.19L29.34,43.76c-1.14-2-3-7.09,2.75-12.84C35.18,27.83,38.07,26.92,40.4,26.92ZM35.83,5.65l8.07,8.08-2.38,2.38L33.44,8ZM32,9.45l8.08,8.07-2.39,2.39-8.07-8.08Zm-3.79,3.8,8.07,8.07L33.93,23.7l-8.08-8.07Zm-10.1,4.4h0l.73-.73a3.85,3.85,0,0,1,5.45,0l9.83,9.83a18.2,18.2,0,0,0-3.47,2.76A17.68,17.68,0,0,0,28,32.93l-9.83-9.84a3.84,3.84,0,0,1,0-5.44Zm-1.29,7,8.07,8.08-2.38,2.38L14.47,27Zm-3.79,3.8,8.07,8.07-2.38,2.38-8.08-8.07Zm-3.8,3.79,8.07,8.07L15,42.68,6.88,34.6Z"></path><path d="M47.89,46.39a1,1,0,0,0,.76-.36h0a1,1,0,0,0-.12-1.41l-2.4-2a1,1,0,0,0-1.41.12h0a1,1,0,0,0,.12,1.41l2.4,2A1.05,1.05,0,0,0,47.89,46.39Z"></path></svg>