<svg height='100px' width='100px'  fill="#b835a1" xmlns="http://www.w3.org/2000/svg" data-name="Layer 2" viewBox="0 0 100 100" x="0px" y="0px"><title>Engineering</title><path d="M51.23,32.16a1,1,0,0,0-1.4,0A31.16,31.16,0,0,0,40,55a31.67,31.67,0,0,0,1.2,8.67,1,1,0,0,0,1,.72h3.3L49.13,71a1,1,0,0,0,1.74,0l3.71-6.56h3a1,1,0,0,0,1-.69A31.71,31.71,0,0,0,60,54,31.23,31.23,0,0,0,51.23,32.16ZM50,68.45l-2.29-4h4.58Zm-2.29-6,2.29-4,2.29,4Zm9.12,0H54.58l-3.71-6.56a1,1,0,0,0-1.74,0l-3.71,6.56H42.89A29.52,29.52,0,0,1,42,55a29.14,29.14,0,0,1,8.52-20.74,29.59,29.59,0,0,1,6.35,28.13ZM65.91,58a1,1,0,0,0-1.41,0l-4.73,4.73a1,1,0,0,0-.22,1.08,1,1,0,0,0,.93.62h3.31c.5,2.89-1.89,6.39-4.1,9.18a1,1,0,0,0,0,1.26,1,1,0,0,0,.77.36,1.07,1.07,0,0,0,.48-.12c5.8-3.17,9-7,9.77-11.7a1,1,0,0,0-.28-.87ZM64.29,70.44c1.34-2.43,2.06-5,1.21-7.36a1,1,0,0,0-.94-.67H62.89L65.2,60.1l3.47,3.46A12.42,12.42,0,0,1,64.29,70.44Zm-28.08-6h3.31a1,1,0,0,0,.93-.62,1,1,0,0,0-.22-1.08L35.5,58a1,1,0,0,0-.7-.3,1,1,0,0,0-.71.3l-4.54,4.54a1,1,0,0,0-.28.87c.77,4.71,4,8.53,9.77,11.7a1.07,1.07,0,0,0,.48.12,1,1,0,0,0,.77-.36,1,1,0,0,0,0-1.26C38.1,70.8,35.71,67.3,36.21,64.41Zm-4.88-.85L34.8,60.1l2.31,2.31H35.44a1,1,0,0,0-.94.67c-.85,2.41-.13,4.93,1.21,7.36A12.42,12.42,0,0,1,31.33,63.56ZM45.83,43A4.17,4.17,0,1,0,50,38.79,4.17,4.17,0,0,0,45.83,43Zm6.34,0A2.17,2.17,0,1,1,50,40.79,2.17,2.17,0,0,1,52.17,43ZM43.88,50h1v2h-1Zm3,0h2v2h-2ZM51,50h2.06v2H51Zm5.1,2h-1V50h1ZM50.2,72.49l-.19,0h0l-.18,0a7,7,0,0,0-5.73,6.88c0,3.3,4.71,7.67,5.25,8.16a1,1,0,0,0,1.35,0c.53-.49,5.24-4.86,5.24-8.16A7,7,0,0,0,50.2,72.49Zm.35,5.11A5.34,5.34,0,0,1,50,79.74a5.33,5.33,0,0,1-.54-2.14A6.07,6.07,0,0,1,50,74.88,6,6,0,0,1,50.55,77.6ZM50,85.41c-1.73-1.73-3.92-4.43-3.92-6a5,5,0,0,1,1.55-3.62.13.13,0,0,1,0,.06,9.86,9.86,0,0,0-.17,1.79,9.11,9.11,0,0,0,1.75,4.73,1,1,0,0,0,.8.4,1,1,0,0,0,.7-.32s.08,0,.11-.08a9.14,9.14,0,0,0,1.74-4.73c0-.24,0-.5,0-.75v0c0-.2-.05-.39-.07-.58a2.51,2.51,0,0,1,0-.27l0-.2a5,5,0,0,1,1.54,3.61C53.92,81,51.74,83.68,50,85.41Zm30.75-47v9.12a1,1,0,0,1-1,1H75.4A25.31,25.31,0,0,1,71.89,57L75,60.06a1,1,0,0,1,.29.71,1.05,1.05,0,0,1-.29.71l-1.34,1.34L72.21,61.4l.63-.63-3-2.94a1,1,0,0,1-.11-1.28,23.44,23.44,0,0,0,3.82-9.21,1,1,0,0,1,1-.82h4.17V39.4H74.58a1,1,0,0,1-1-.82,23.7,23.7,0,0,0-3.81-9.21,1,1,0,0,1,.11-1.28l2.95-2.94-5-5-2.94,2.95a1,1,0,0,1-1.28.11,23.7,23.7,0,0,0-9.21-3.81,1,1,0,0,1-.82-1V14.21H46.44v4.17a1,1,0,0,1-.82,1,23.65,23.65,0,0,0-9.2,3.81,1,1,0,0,1-1.28-.11l-3-2.95-5,5,2.95,2.94a1,1,0,0,1,.11,1.28,23.44,23.44,0,0,0-3.82,9.21,1,1,0,0,1-1,.82H21.25v7.12h4.17a1,1,0,0,1,1,.82,23.7,23.7,0,0,0,3.81,9.21,1,1,0,0,1-.11,1.28l-3,2.94.73.72L26.46,62.9,25,61.48a1,1,0,0,1,0-1.42L28.1,57a25.67,25.67,0,0,1-3.5-8.47H20.25a1,1,0,0,1-1-1V38.4a1,1,0,0,1,1-1H24.6a25.31,25.31,0,0,1,3.51-8.47L25,25.86a1,1,0,0,1,0-1.42L31.48,18a1,1,0,0,1,1.42,0L36,21.06a25.33,25.33,0,0,1,8.46-3.5V13.21a1,1,0,0,1,1-1h9.12a1,1,0,0,1,1,1v4.35A25.59,25.59,0,0,1,64,21.06L67.1,18a1,1,0,0,1,1.42,0L75,24.44a1,1,0,0,1,0,1.42L71.9,28.93a25.59,25.59,0,0,1,3.5,8.47h4.35A1,1,0,0,1,80.75,38.4ZM62.31,56.76c0-.48,0-.95,0-1.43s0-.93,0-1.39a17,17,0,0,0,2-2.76,15.76,15.76,0,0,0,1.63-3.92,16.5,16.5,0,0,0,0-8.6,16.12,16.12,0,0,0-1.62-3.92,16.52,16.52,0,0,0-6.09-6.08A16.17,16.17,0,0,0,54.3,27a16.79,16.79,0,0,0-8.6,0,16.53,16.53,0,0,0-10,7.72,16.17,16.17,0,0,0-1.64,3.92A16.74,16.74,0,0,0,33.5,43a16.38,16.38,0,0,0,.57,4.3,16.12,16.12,0,0,0,1.62,3.92A16.85,16.85,0,0,0,37.75,54c0,.86-.09,1.73-.09,2.6v.13A18.51,18.51,0,0,1,34,52.18a19,19,0,0,1-1.83-4.4,18.75,18.75,0,0,1,0-9.64A18.26,18.26,0,0,1,34,33.74a18.53,18.53,0,0,1,11.21-8.65A18.53,18.53,0,0,1,67.87,47.78h0a18.71,18.71,0,0,1-5.56,9Z"></path></svg>