<svg height='100px' width='100px'  fill="#b835a1" xmlns="http://www.w3.org/2000/svg" xmlns:xlink="http://www.w3.org/1999/xlink" version="1.1" x="0px" y="0px" viewBox="0 0 100 100" style="enable-background:new 0 0 100 100;" xml:space="preserve"><path d="M37.383,20.216v0.917H27.338c-0.552,0-1,0.447-1,1v65.313c0,0.553,0.448,1,1,1h48.955c0.552,0,1-0.447,1-1V22.133  c0-0.553-0.448-1-1-1H66.249v-0.917c0-2.561-2.328-4.644-5.189-4.644h-2.657c-0.484-3.2-3.253-5.661-6.587-5.661  s-6.103,2.461-6.587,5.661h-2.657C39.711,15.572,37.383,17.655,37.383,20.216z M64.249,25.055H39.383v-4.839  c0-1.458,1.431-2.644,3.189-2.644h3.582c0.552,0,1-0.447,1-1c0-2.57,2.091-4.661,4.662-4.661s4.662,2.091,4.662,4.661  c0,0.553,0.448,1,1,1h3.582c1.759,0,3.189,1.186,3.189,2.644V25.055z M37.383,23.133v2.922c0,0.553,0.448,1,1,1h26.866  c0.552,0,1-0.447,1-1v-2.922h9.044v63.313H28.338V23.133H37.383z"></path><circle cx="51.816" cy="16.572" r="1.501"></circle><path d="M42.867,67.102l-1.504,11.07c-0.039,0.286,0.048,0.575,0.237,0.793c0.19,0.217,0.465,0.342,0.753,0.342h1.614v2.36  c0,0.553,0.448,1,1,1h14.045c0.552,0,1-0.447,1-1v-2.36h1.263c0.289,0,0.563-0.125,0.753-0.342c0.189-0.218,0.276-0.507,0.237-0.793  l-1.503-11.07c-0.057-0.415-0.368-0.728-0.76-0.823V41.922c0.021-0.56,0.142-8.072-7.739-12.454  c-0.303-0.168-0.672-0.167-0.975,0.002c-7.84,4.389-7.766,11.638-7.733,12.427c0,0.006-0.004,0.012-0.004,0.018v24.377  C43.196,66.408,42.92,66.712,42.867,67.102z M58.004,66.236h-12.45V42.915h12.45V66.236z M57.954,40.915H45.589  c0.166-1.916,1.113-6.339,6.191-9.417C56.744,34.5,57.752,38.979,57.954,40.915z M45.968,79.307h12.045v1.36H45.968V79.307z   M43.499,77.307l1.232-9.07H58.9l1.232,9.07H43.499z"></path><path d="M46.987,49.286c0,2.595,2.111,4.705,4.705,4.705s4.705-2.11,4.705-4.705s-2.111-4.705-4.705-4.705  S46.987,46.691,46.987,49.286z M48.987,49.286c0-1.491,1.213-2.705,2.705-2.705s2.705,1.214,2.705,2.705s-1.213,2.705-2.705,2.705  S48.987,50.777,48.987,49.286z"></path></svg>