<svg height='100px' width='100px'  fill="#b835a1" xmlns="http://www.w3.org/2000/svg" xmlns:xlink="http://www.w3.org/1999/xlink" version="1.1" x="0px" y="0px" viewBox="0 0 100 100" style="enable-background:new 0 0 100 100;" xml:space="preserve"><path d="M24.862,63.172l-11.723-0.073c-0.002,0-0.004,0-0.006,0c-0.378,0-0.725,0.214-0.894,0.552  c-0.171,0.341-0.134,0.748,0.096,1.052l7.073,9.348l-3.692,11.125c-0.12,0.361-0.024,0.76,0.247,1.027  c0.271,0.267,0.671,0.357,1.029,0.233l11.076-3.837l9.44,6.949c0.175,0.129,0.384,0.194,0.593,0.194c0.157,0,0.314-0.037,0.46-0.112  c0.338-0.175,0.547-0.526,0.54-0.907l-0.227-11.72l9.526-6.831c0.309-0.222,0.466-0.6,0.403-0.976  c-0.062-0.375-0.332-0.684-0.695-0.794l-11.217-3.405l-3.553-11.171c-0.115-0.363-0.427-0.629-0.803-0.686  c-0.384-0.06-0.754,0.104-0.971,0.416L24.862,63.172z M15.153,65.111l10.223,0.063c0.295,0.034,0.638-0.158,0.826-0.428l5.847-8.384  l3.098,9.74c0.1,0.314,0.348,0.559,0.662,0.654l9.781,2.97l-8.307,5.957c-0.268,0.191-0.423,0.503-0.417,0.832l0.197,10.219  l-8.231-6.06c-0.265-0.195-0.609-0.246-0.92-0.14l-9.659,3.346l3.22-9.7c0.104-0.312,0.047-0.656-0.151-0.919L15.153,65.111z"></path><path d="M49.433,20.535l1.529,1.382l-0.272,2.042c-0.051,0.377,0.118,0.75,0.435,0.962c0.168,0.113,0.362,0.17,0.557,0.17  c0.172,0,0.344-0.044,0.498-0.133l1.787-1.027l1.858,0.89c0.341,0.166,0.75,0.122,1.049-0.115c0.3-0.234,0.439-0.619,0.361-0.992  l-0.424-2.017l1.42-1.493c0.263-0.276,0.346-0.677,0.214-1.034c-0.131-0.357-0.453-0.609-0.832-0.649l-2.049-0.22l-0.981-1.812  c-0.181-0.335-0.547-0.553-0.917-0.522c-0.38,0.014-0.719,0.243-0.875,0.591l-0.842,1.881l-2.025,0.373  c-0.375,0.068-0.678,0.344-0.781,0.71C49.038,19.886,49.151,20.279,49.433,20.535z M52.278,20.41l0.55-0.102  c0.324-0.06,0.598-0.274,0.732-0.575l0.229-0.512l0.268,0.493c0.156,0.289,0.445,0.482,0.772,0.518l0.558,0.06L55,20.698  c-0.227,0.238-0.321,0.573-0.254,0.896l0.115,0.548L54.356,21.9c-0.137-0.066-0.284-0.099-0.432-0.099  c-0.173,0-0.345,0.045-0.498,0.133l-0.486,0.279l0.074-0.555c0.044-0.326-0.076-0.653-0.32-0.874L52.278,20.41z"></path><path d="M87.059,34.376c0.024-0.38-0.168-0.741-0.498-0.932l-2.022-1.168l-0.184-2.329c-0.03-0.379-0.273-0.709-0.627-0.85  c-0.352-0.141-0.757-0.068-1.039,0.186l-1.736,1.562l-2.271-0.545c-0.376-0.089-0.759,0.041-1.002,0.333  c-0.244,0.293-0.3,0.698-0.146,1.046l0.95,2.134l-1.22,1.992c-0.199,0.325-0.196,0.734,0.007,1.057  c0.203,0.321,0.568,0.502,0.95,0.46l2.323-0.243l1.518,1.774c0.192,0.226,0.472,0.351,0.76,0.351c0.082,0,0.165-0.01,0.246-0.031  c0.369-0.093,0.652-0.389,0.732-0.761l0.485-2.283l2.157-0.895C86.796,35.089,87.034,34.756,87.059,34.376z M83.806,34.163  l-0.771,0.319c-0.305,0.126-0.526,0.394-0.596,0.716l-0.174,0.816l-0.543-0.635c-0.213-0.25-0.528-0.382-0.864-0.345l-0.83,0.087  l0.436-0.712c0.172-0.281,0.195-0.628,0.062-0.929l-0.34-0.763l0.812,0.194c0.318,0.076,0.657-0.009,0.902-0.229l0.621-0.559  l0.065,0.833c0.026,0.328,0.212,0.622,0.497,0.787L83.806,34.163z"></path><path d="M79.651,15.605l0.646,1.451l-0.83,1.355c-0.199,0.325-0.196,0.734,0.007,1.057c0.203,0.321,0.568,0.501,0.95,0.46  l1.579-0.165l1.033,1.207c0.192,0.226,0.472,0.351,0.76,0.351c0.082,0,0.165-0.01,0.246-0.031c0.369-0.093,0.652-0.389,0.732-0.761  l0.33-1.554l1.468-0.608c0.352-0.146,0.59-0.479,0.615-0.858c0.024-0.38-0.168-0.741-0.498-0.932l-1.376-0.794l-0.125-1.584  c-0.03-0.379-0.273-0.709-0.627-0.85c-0.351-0.141-0.757-0.068-1.039,0.186l-1.181,1.062l-1.544-0.371  c-0.37-0.089-0.759,0.041-1.002,0.333C79.553,14.853,79.497,15.258,79.651,15.605z M82.231,17.729l0.046-0.075  c0.172-0.281,0.195-0.628,0.062-0.929l-0.036-0.08l0.085,0.021c0.318,0.076,0.657-0.009,0.902-0.229l0.065-0.059l0.007,0.088  c0.026,0.328,0.212,0.622,0.497,0.787l0.076,0.044l-0.081,0.033c-0.304,0.126-0.526,0.394-0.596,0.716l-0.019,0.087l-0.058-0.067  c-0.213-0.25-0.528-0.381-0.864-0.345L82.231,17.729z"></path><path d="M69.055,20.245c1.406,0,2.594-1.097,2.687-2.52c0.095-1.481-1.033-2.764-2.515-2.86c-1.473-0.103-2.763,1.032-2.859,2.514  c-0.095,1.481,1.033,2.764,2.514,2.86c0,0,0,0,0.001,0C68.94,20.243,68.999,20.245,69.055,20.245z M69.01,18.243  c-0.38-0.025-0.67-0.355-0.646-0.736c0.023-0.365,0.329-0.647,0.69-0.647c0.015,0,0.029,0.001,0.045,0.002  c0.38,0.024,0.671,0.354,0.646,0.736C69.721,17.978,69.417,18.264,69.01,18.243z"></path><path d="M38.345,41.977c1.407,0,2.595-1.098,2.686-2.521c0.095-1.481-1.033-2.764-2.515-2.858c-0.712-0.046-1.409,0.188-1.949,0.664  s-0.863,1.132-0.909,1.851c-0.047,0.716,0.189,1.409,0.664,1.949c0.476,0.54,1.132,0.863,1.851,0.909  C38.23,41.975,38.289,41.977,38.345,41.977z M38.3,39.975c-0.185-0.012-0.354-0.095-0.476-0.233  c-0.121-0.139-0.182-0.316-0.17-0.501c0.012-0.186,0.095-0.354,0.233-0.477c0.127-0.111,0.287-0.172,0.455-0.172  c0.015,0,0.03,0.001,0.046,0.002c0.381,0.024,0.671,0.354,0.646,0.735C39.011,39.709,38.708,40.002,38.3,39.975z"></path><path d="M79.365,52.924c0.54-0.475,0.863-1.132,0.909-1.85c0.046-0.717-0.19-1.41-0.665-1.949c-0.475-0.54-1.132-0.863-1.85-0.909  c-0.713-0.046-1.409,0.188-1.949,0.664s-0.863,1.132-0.909,1.851c-0.047,0.716,0.189,1.409,0.664,1.949  c0.476,0.54,1.132,0.863,1.851,0.909c0.059,0.004,0.117,0.006,0.175,0.006C78.245,53.595,78.87,53.359,79.365,52.924z   M78.278,50.947c-0.024,0.38-0.342,0.664-0.735,0.646c-0.185-0.012-0.354-0.095-0.476-0.233c-0.121-0.139-0.182-0.316-0.17-0.501  c0.012-0.186,0.095-0.354,0.233-0.477c0.127-0.111,0.287-0.172,0.455-0.172c0.015,0,0.03,0.001,0.046,0.002  C78.012,50.236,78.303,50.566,78.278,50.947z"></path><path d="M44.547,43.768c0.364,0.414,0.324,1.046-0.091,1.411l-3.741,3.29c-0.189,0.167-0.425,0.249-0.66,0.249  c-0.277,0-0.554-0.115-0.751-0.34c-0.364-0.414-0.324-1.046,0.091-1.411l3.741-3.29C43.548,43.313,44.182,43.352,44.547,43.768z"></path><path d="M56.557,42.35c-0.277,0-0.554-0.115-0.751-0.34c-0.364-0.415-0.324-1.047,0.091-1.411l18.947-16.66  c0.413-0.364,1.046-0.324,1.411,0.091c0.364,0.415,0.324,1.047-0.091,1.411l-18.947,16.66C57.028,42.268,56.793,42.35,56.557,42.35z  "></path><path d="M43.454,62.581c-0.277,0-0.554-0.115-0.751-0.34c-0.364-0.415-0.324-1.047,0.091-1.411l25.358-22.297  c0.412-0.364,1.046-0.324,1.411,0.091c0.364,0.415,0.324,1.047-0.091,1.411L44.114,62.332  C43.925,62.499,43.689,62.581,43.454,62.581z"></path><path d="M62.744,27.768c0.364,0.415,0.324,1.047-0.091,1.411l-13.932,12.25c-0.189,0.167-0.425,0.249-0.66,0.249  c-0.277,0-0.554-0.115-0.751-0.34c-0.364-0.415-0.324-1.047,0.091-1.411l13.932-12.25C61.745,27.313,62.379,27.352,62.744,27.768z"></path><path d="M71.222,47.469c-0.277,0-0.554-0.115-0.751-0.34c-0.364-0.414-0.324-1.046,0.091-1.411l3.741-3.29  c0.412-0.363,1.047-0.324,1.411,0.091c0.364,0.414,0.324,1.046-0.091,1.411l-3.741,3.29C71.693,47.387,71.458,47.469,71.222,47.469z  "></path><path d="M67.708,49.56c0.364,0.415,0.324,1.047-0.091,1.411l-13.932,12.25c-0.189,0.167-0.425,0.249-0.66,0.249  c-0.277,0-0.554-0.115-0.751-0.34c-0.364-0.415-0.324-1.047,0.091-1.411l13.932-12.25C66.71,49.104,67.343,49.145,67.708,49.56z"></path><path d="M52.974,44.756c0.364,0.415,0.324,1.047-0.091,1.411l-12.48,10.975c-0.189,0.167-0.425,0.249-0.66,0.249  c-0.277,0-0.554-0.115-0.751-0.34c-0.364-0.415-0.324-1.047,0.091-1.411l12.48-10.975C51.976,44.301,52.61,44.341,52.974,44.756z"></path></svg>