<svg width="24" height="24" viewBox="0 0 24 24" fill="none" xmlns="http://www.w3.org/2000/svg">
<path d="M7.65569 19.0227C7.18729 19.0227 6.78631 18.8559 6.45274 18.5224C6.11919 18.1888 5.95241 17.7878 5.95241 17.3194V3.42702C5.95241 2.95697 6.11919 2.55459 6.45274 2.21987C6.78631 1.88514 7.18729 1.71777 7.65569 1.71777H18.5481C19.0181 1.71777 19.4205 1.88514 19.7552 2.21987C20.0899 2.55459 20.2573 2.95697 20.2573 3.42702V17.3194C20.2573 17.7878 20.0899 18.1888 19.7552 18.5224C19.4205 18.8559 19.0181 19.0227 18.5481 19.0227H7.65569ZM7.65569 17.3194H18.5481V3.42702H7.65569V17.3194ZM4.45241 22.2319C3.98236 22.2319 3.57998 22.0646 3.24526 21.7298C2.91053 21.3951 2.74316 20.9927 2.74316 20.5227V6.35312C2.74316 6.11272 2.82542 5.91068 2.98994 5.747C3.15446 5.58331 3.35853 5.50147 3.60216 5.50147C3.84581 5.50147 4.04843 5.58331 4.21001 5.747C4.37161 5.91068 4.45241 6.11272 4.45241 6.35312V20.5227H15.397C15.6374 20.5227 15.8394 20.6049 16.0031 20.7694C16.1668 20.934 16.2486 21.138 16.2486 21.3817C16.2486 21.6253 16.1668 21.8279 16.0031 21.9895C15.8394 22.1511 15.6374 22.2319 15.397 22.2319H4.45241Z" fill="#A70395"/>
</svg>
