<svg width="109" height="109" viewBox="0 0 109 109" fill="none" xmlns="http://www.w3.org/2000/svg">
<path d="M108.681 54.3229C108.681 24.3212 84.3522 0 54.3406 0C24.3291 0 0 24.3212 0 54.3229C0 84.3246 24.3291 108.646 54.3406 108.646C84.3522 108.646 108.681 84.3246 108.681 54.3229Z" fill="url(#paint0_linear_976_2923)"/>
<path d="M93.3181 92.2774C92.7225 91.5647 87.108 86.2106 87.108 86.2106C87.108 86.2106 87.371 82.0473 85.3474 80.2633C83.3259 78.4794 81.0632 76.4564 79.7547 76.1C78.6635 75.8023 76.5855 75.5068 75.9226 75.4156C76.4334 74.9831 76.9289 74.5333 77.4115 74.0705C79.0526 72.7038 81.4675 70.4157 82.7282 67.8951C84.7496 63.8513 86.0603 60.6397 86.0603 60.6397C86.0603 60.6397 87.9644 60.8766 89.8685 58.9753C91.7726 57.0718 92.4856 55.4073 92.4856 55.4073L92.1291 44.9404C92.1291 44.9404 90.8206 41.492 88.9165 40.7771C87.0124 40.0644 85.7039 40.1817 85.7039 40.1817L84.854 39.6146C80.2002 27.9786 68.8278 19.752 55.5274 19.752C42.227 19.752 30.372 28.3219 25.9118 40.3447L24.9054 42.083C24.9054 42.083 23.0013 42.083 21.9319 42.6784C20.8603 43.2738 18.7192 45.7705 18.7192 46.7222C18.7192 47.6739 18.9562 56.4742 18.9562 56.9501C18.9562 57.426 21.2167 60.9939 22.4057 61.2329C23.5947 61.4698 25.4988 61.5893 25.4988 61.5893C25.4988 61.5893 28.3549 68.4883 30.1395 70.1527C30.1829 70.194 30.2351 70.2462 30.2829 70.2896C31.6241 72.0714 33.1543 73.6989 34.8345 75.1591C35.5735 75.987 36.0887 76.5737 36.0887 76.5737C36.0887 76.5737 31.924 78.5967 29.783 78.3577C29.783 78.3577 23.9838 82.7079 19.7191 86.2606C15.4544 89.8133 15.2393 92.097 15.2393 92.097C15.2393 92.097 30.0656 108.996 54.3406 108.996C78.6157 108.996 93.3181 92.273 93.3181 92.273V92.2774Z" fill="white"/>
<path d="M26.3683 63.4407C26.3683 63.4407 28.4115 67.7235 30.1417 69.7986C31.8719 71.8738 33.5847 73.3905 34.8367 74.805L36.0909 76.2196L33.35 77.3387C33.35 77.3387 37.5233 82.2625 41.8967 84.4028C46.27 86.5431 49.5739 87.6144 55.4623 87.6144C61.3506 87.6144 67.5085 85.2959 70.1843 83.6901C72.8622 82.0843 79.02 75.5721 79.02 75.5721L75.9248 75.0615L79.6917 71.6109C79.6917 71.6109 81.624 69.7443 83.176 66.6371C84.728 63.5298 86.0604 60.2834 86.0604 60.2834C86.0604 60.2834 88.0341 60.1422 88.9513 59.3795C89.8686 58.6168 92.4856 55.0489 92.4856 55.0489V50.3271C92.4856 50.3271 90.6163 53.806 88.9209 54.4296C87.2255 55.0532 85.6192 54.6969 85.6192 54.6969L24.1121 55.9702C24.1121 55.9702 22.6188 56.0354 21.7276 55.5009C20.8342 54.9663 18.8823 53.4757 18.8823 53.4757L18.9562 56.596C18.9562 56.596 21.3907 60.5464 22.4058 60.8788C23.423 61.2113 25.4988 61.2352 25.4988 61.2352L26.3661 63.4407H26.3683Z" fill="#E4E7EF"/>
<path d="M29.2766 68.6295C29.2766 68.6295 31.8393 71.7107 32.6653 72.5495C33.4912 73.3882 36.0887 76.2217 36.0887 76.2217L34.665 76.8019C34.665 76.8019 38.8884 80.8348 42.2205 82.4406C45.5527 84.0464 49.5413 85.4131 55.4579 85.235C61.3767 85.0568 64.172 84.105 67.7411 82.1429C71.3102 80.1807 77.3202 75.2917 77.3202 75.2917L75.9204 75.0614C75.9204 75.0614 78.131 72.9732 79.6873 71.6108C81.2436 70.2484 82.4935 68.2275 82.4935 68.2275C82.4935 68.2275 76.9616 73.4599 72.0231 75.5416C67.0846 77.6232 61.1963 79.1095 55.5449 79.1095C49.8934 79.1095 45.0745 77.8014 43.2313 77.0865C41.388 76.3738 36.806 74.4703 34.665 72.8645C32.524 71.2588 29.2744 68.6252 29.2744 68.6252L29.2766 68.6295Z" fill="#BCC2D8"/>
<path d="M86.9603 53.4777C86.9603 67.3343 72.8557 78.5661 55.4601 78.5661C38.0646 78.5661 23.96 67.3343 23.96 53.4777C23.96 34.3321 38.0646 28.3892 55.4601 28.3892C72.8557 28.3892 86.9603 34.9253 86.9603 53.4777Z" fill="#06184C"/>
<path d="M80.6863 51.4088C81.5073 48.365 80.3067 45.3944 78.0048 44.774C75.7029 44.1535 73.1713 46.118 72.3503 49.1619C71.5293 52.2058 72.7298 55.1763 75.0317 55.7968C77.3336 56.4173 79.8653 54.4527 80.6863 51.4088Z" fill="#8993B9"/>
<path d="M73.7504 61.5906C74.161 60.068 73.4143 58.5428 72.0826 58.1838C70.7508 57.8249 69.3383 58.7681 68.9276 60.2906C68.517 61.8131 69.2637 63.3384 70.5955 63.6973C71.9272 64.0563 73.3397 63.1131 73.7504 61.5906Z" fill="#8993B9"/>
<path d="M31.0068 60.1401C31.0068 60.1401 28.418 46.3138 33.4152 40.247C38.4123 34.1803 52.3322 33.2003 55.5448 33.6457C55.5448 33.6457 42.9617 36.8573 38.6797 44.3495C34.3955 51.8417 31.0046 60.1379 31.0046 60.1379L31.0068 60.1401Z" fill="#8993B9"/>
<path d="M25.6836 41.1098C25.6836 41.1098 30.0026 26.6577 55.684 26.6577C81.3654 26.6577 84.9953 41.1098 84.9953 41.1098C84.9953 41.1098 79.5808 27.729 55.684 27.729C31.7871 27.729 25.6836 41.1098 25.6836 41.1098Z" fill="#8993B9"/>
<path d="M36.0889 76.2219C36.0889 76.2219 46.2962 80.8002 55.3385 80.8002C64.3808 80.8002 75.9227 75.0615 75.9227 75.0615C75.9227 75.0615 67.15 81.9953 55.4602 81.9953C43.7705 81.9953 36.0889 76.2219 36.0889 76.2219Z" fill="#8993B9"/>
<path d="M87.1057 85.8562L76.9614 77.2689L78.5004 75.4893C78.5004 75.4893 79.5937 75.574 80.4653 76.0216C81.3348 76.4671 85.5081 79.8807 85.7755 80.1697C86.0428 80.4587 86.758 81.5756 86.9123 83.2031C87.0688 84.8306 87.1057 85.8584 87.1057 85.8584V85.8562Z" fill="#E4E7EF"/>
<path d="M65.422 91.7862L64.2243 88.3486C64.2243 88.3486 64.2221 88.3486 64.2199 88.3486C64.0352 88.3486 63.8569 88.366 63.6787 88.3921L65.3372 91.8231C65.3654 91.8101 65.3915 91.7992 65.422 91.7884" fill="#00D9F5"/>
<path d="M65.1564 91.9424L62.3807 88.8286C62.209 88.9242 62.0459 89.035 61.8916 89.1567L65.0912 92.0076C65.1107 91.9859 65.1325 91.9641 65.1564 91.9424Z" fill="#00D9F5"/>
<path d="M64.9718 92.1882L60.9528 90.2456C60.8528 90.4194 60.768 90.6041 60.6963 90.7954L64.937 92.2729C64.9479 92.2447 64.9588 92.2164 64.9718 92.1882Z" fill="#00D9F5"/>
<path d="M64.8893 92.5315C64.8893 92.5163 64.8937 92.5011 64.8937 92.4859L60.4595 92.2295C60.466 92.4337 60.4856 92.6337 60.5225 92.827L64.8937 92.575C64.8937 92.5598 64.8893 92.5446 64.8893 92.5293" fill="#00D9F5"/>
<path d="M64.937 92.79L61.0527 94.1438C61.1571 94.3046 61.2723 94.4588 61.4005 94.6022L64.974 92.877C64.9609 92.8487 64.9501 92.8226 64.9392 92.7922" fill="#00D9F5"/>
<path d="M65.0936 93.0571L62.4331 95.4278C62.5853 95.5104 62.7483 95.5799 62.9135 95.6407L65.1588 93.1223C65.1371 93.1028 65.1154 93.081 65.0936 93.0571Z" fill="#00D9F5"/>
<path d="M65.339 93.2422L64.0674 95.8714C64.1174 95.8714 64.1695 95.8801 64.2195 95.8801C64.3217 95.8801 64.4217 95.8736 64.5217 95.8649L65.4237 93.2791C65.3955 93.2683 65.3672 93.2574 65.339 93.2444" fill="#00D9F5"/>
<path d="M65.6829 93.3247C65.6676 93.3247 65.6524 93.3203 65.6372 93.3203L65.5024 95.6519C65.622 95.6084 65.7394 95.5584 65.8524 95.5041L65.7263 93.3203C65.7111 93.3203 65.6959 93.3247 65.6807 93.3247" fill="black"/>
<path d="M66.2085 93.1204L67.2736 94.3133C67.3279 94.2394 67.3779 94.1612 67.4279 94.083L66.2737 93.0552C66.2541 93.0769 66.2324 93.0986 66.2085 93.1204Z" fill="black"/>
<path d="M66.4717 92.4858C66.4717 92.5011 66.476 92.5163 66.476 92.5315C66.476 92.5467 66.4717 92.5619 66.4717 92.5771L67.9432 92.6618C67.9563 92.5749 67.9671 92.488 67.9737 92.3989L66.4717 92.4858Z" fill="black"/>
<path d="M66.2715 92.0058L67.717 90.7194C67.6735 90.6129 67.6279 90.5086 67.5757 90.4087L66.2085 91.9428C66.2302 91.9623 66.252 91.9841 66.2737 92.008" fill="black"/>
<path d="M65.6372 91.7426C65.6524 91.7426 65.6676 91.7383 65.6828 91.7383C65.698 91.7383 65.7133 91.7426 65.7285 91.7426L65.9024 88.7462C65.7589 88.6745 65.6089 88.6115 65.4546 88.5571L65.6372 91.7426Z" fill="black"/>
<path d="M65.9434 93.2767L66.565 95.0585C66.6476 94.9933 66.728 94.9216 66.8063 94.8499L66.0303 93.2441C66.002 93.2572 65.976 93.268 65.9455 93.2789" fill="black"/>
<path d="M66.3936 92.8748L67.7151 93.5136C67.7477 93.4332 67.7782 93.3528 67.8042 93.2703L66.4283 92.79C66.4175 92.8183 66.4066 92.8465 66.3936 92.8748Z" fill="black"/>
<path d="M66.4281 92.2708L67.9692 91.7341C67.9605 91.6363 67.9431 91.5407 67.9257 91.4473L66.3955 92.1882C66.4085 92.2165 66.4194 92.2426 66.4303 92.273" fill="black"/>
<path d="M67.0717 89.6568C66.9826 89.5525 66.8869 89.4548 66.7869 89.3613L65.9414 91.7863C65.9697 91.7972 65.9979 91.808 66.0262 91.8211L67.0717 89.659V89.6568Z" fill="black"/>
<defs>
<linearGradient id="paint0_linear_976_2923" x1="1.81311e-06" y1="1.18092" x2="120.858" y2="17.0417" gradientUnits="userSpaceOnUse">
<stop stop-color="#4900FF"/>
<stop offset="1" stop-color="#F849C1"/>
</linearGradient>
</defs>
</svg>
