<svg xmlns="http://www.w3.org/2000/svg" width="24" height="24" viewBox="0 0 24 24" fill="none">
  <path d="M8.94716 13.1876C8.76729 13.1876 8.61777 12.9689 8.54822 12.796L7.80678 10.9543C7.61207 10.4706 7.23618 10.0821 6.75921 9.87156L5.01933 9.10348C4.85343 9.03013 4.7459 8.86014 4.74674 8.6724C4.74758 8.48466 4.85678 8.31555 5.02324 8.24424L6.73928 7.50728C7.22789 7.29745 7.61281 6.90167 7.80898 6.40742L8.54711 4.54763C8.61609 4.37386 8.76617 4.06219 8.9466 4.0619H8.94771C9.12786 4.0619 9.30288 4.3727 9.37243 4.54588L10.1179 6.40071C10.3143 6.88956 10.6958 7.28115 11.1793 7.49038L12.9133 8.24074C13.0792 8.31264 13.1879 8.48088 13.1887 8.66833C13.1898 8.85548 13.0829 9.02518 12.9178 9.09911L11.1533 9.88683C10.6811 10.0976 10.3089 10.4831 10.1148 10.9625L9.37187 12.7972C9.30205 12.9698 9.18679 13.1876 9.00721 13.1876H8.94716Z" fill="currentColor"/>
  <path d="M6.62055 3.80204L5.63626 3.43673C5.07524 3.22851 4.63694 2.78001 4.44167 2.21436L4.07197 1.14339C4.04209 1.05666 3.96333 0.999023 3.87479 0.999023C3.78626 0.999023 3.70721 1.05724 3.67761 1.14427L3.3121 2.21607C3.11752 2.78664 2.67594 3.239 2.11022 3.4473L1.13965 3.80466C1.05642 3.83522 1.00028 3.9173 1 4.00928C0.999722 4.10155 1.05474 4.18393 1.13797 4.21536L2.12791 4.59002C2.68332 4.80023 3.11659 5.2464 3.31041 5.80773L3.67789 6.87197C3.70777 6.95842 3.78653 7.01634 3.87479 7.01634C3.96305 7.01634 4.04181 6.95871 4.0717 6.87226L4.44005 5.81057C4.63344 5.25315 5.06312 4.80957 5.6141 4.59851L6.62194 4.21245C6.70462 4.18072 6.75964 4.09835 6.75908 4.00637C6.75852 3.91439 6.7035 3.83289 6.62055 3.80204Z" fill="currentColor"/>
  <path d="M21 3C21.55 3 22.0204 3.19622 22.4121 3.58789C22.8038 3.97956 23 4.45 23 5V17C23 17.55 22.8038 18.0204 22.4121 18.4121C22.0204 18.8038 21.55 19 21 19H7L4.7002 21.2998C4.38353 21.6165 4.02064 21.6877 3.6123 21.5127C3.20409 21.3377 3.00006 21.0251 3 20.5752V13C3 12.4477 3.44772 12 4 12C4.55228 12 5 12.4477 5 13V18.125L6.15039 17H21V5H13C12.4477 5 12 4.55228 12 4C12 3.44772 12.4477 3 13 3H21Z" fill="currentColor"/>
</svg>
