<svg width="782" height="641" viewBox="0 0 782 641" fill="none" xmlns="http://www.w3.org/2000/svg">
<g clip-path="url(#clip0)">
<path d="M114.718 546.184C164.055 520.607 266.047 477.701 394.787 477.701C523.526 477.701 625.518 520.607 674.856 546.184C722.888 571.083 761.517 600.441 779.714 624.395C786.347 615.367 776.611 454.752 749.67 391.055C710.175 297.448 643.937 217.576 559.253 161.443C474.569 105.311 375.205 75.4152 273.607 75.5C237.469 75.4013 201.671 82.4712 168.284 96.3006C134.897 110.13 104.585 130.444 79.1012 156.067C78.0189 157.149 76.9466 158.239 75.8845 159.336C18.8671 218.236 -7.75593 300.181 1.96425 381.579C8.88461 439.531 25.94 560.744 50.0384 586.445C70.4447 571.255 92.079 557.788 114.718 546.184V546.184Z" fill="#F2F2F2"/>
<path d="M400.52 517.45C445.79 517.45 482.489 509.794 482.489 500.35C482.489 490.906 445.79 483.25 400.52 483.25C355.25 483.25 318.551 490.906 318.551 500.35C318.551 509.794 355.25 517.45 400.52 517.45Z" fill="#F2F2F2"/>
<path d="M483.79 114C408.65 113.993 349.791 100.371 349.793 82.9879C349.794 72.566 370.651 63.2691 407.015 57.4819C407.145 57.4604 407.278 57.4649 407.407 57.495C407.535 57.5251 407.656 57.5803 407.763 57.6574C407.87 57.7345 407.96 57.832 408.03 57.9442C408.099 58.0564 408.145 58.1812 408.166 58.3114C408.186 58.4415 408.181 58.5745 408.15 58.7027C408.119 58.8308 408.063 58.9516 407.986 59.058C407.908 59.1645 407.81 59.2545 407.698 59.323C407.585 59.3915 407.46 59.437 407.33 59.457C373.074 64.909 351.794 73.9256 351.793 82.9881C351.792 98.7078 412.239 111.994 483.79 112C555.342 112.006 615.792 98.7316 615.793 83.0119C615.794 73.9113 594.379 64.8689 559.905 59.4141C559.775 59.3939 559.651 59.3482 559.538 59.2798C559.426 59.2113 559.328 59.1213 559.251 59.015C559.173 58.9086 559.117 58.788 559.087 58.6601C559.056 58.5322 559.051 58.3995 559.071 58.2695C559.092 58.1396 559.138 58.0149 559.207 57.9028C559.275 57.7906 559.366 57.6932 559.472 57.616C559.579 57.5388 559.7 57.4834 559.828 57.4529C559.956 57.4225 560.088 57.4176 560.218 57.4385C596.809 63.2285 617.794 72.5497 617.793 83.0121C617.791 100.395 558.93 114.007 483.79 114Z" fill="#3F3D56"/>
<path d="M417.311 119.832C424.109 131.475 433.844 141.128 445.544 147.826C457.244 154.524 470.498 158.032 483.979 158C497.461 157.967 510.697 154.394 522.364 147.639C534.031 140.885 543.72 131.184 550.461 119.509C506.117 122.056 461.667 122.164 417.311 119.832V119.832Z" fill="#00A7B5"/>
<path d="M557.834 98.1295C561.112 86.6384 561.67 74.5419 559.465 62.7976C557.26 51.0533 552.351 39.9834 545.128 30.4641C537.905 20.9448 528.565 13.2373 517.848 7.95177C507.131 2.6662 495.331 -0.0524041 483.381 0.0110971C471.432 0.0745984 459.661 2.91848 449.001 8.31765C438.341 13.7168 429.083 21.5231 421.962 31.1186C414.84 40.7141 410.05 51.8356 407.969 63.6027C405.889 75.3698 406.576 87.4596 409.976 98.9153C459.088 105.049 508.789 104.785 557.834 98.1295V98.1295Z" fill="#00A7B5"/>
<path d="M501.799 43C506.769 43 510.799 38.9706 510.799 34C510.799 29.0294 506.769 25 501.799 25C496.828 25 492.799 29.0294 492.799 34C492.799 38.9706 496.828 43 501.799 43Z" fill="white"/>
<path d="M454.794 85.9973C463.078 85.9973 469.794 79.2816 469.794 70.9973C469.794 62.713 463.078 55.9973 454.794 55.9973C446.51 55.9973 439.794 62.713 439.794 70.9973C439.794 79.2816 446.51 85.9973 454.794 85.9973Z" fill="white"/>
<path d="M483.799 151C488.769 151 492.799 146.971 492.799 142C492.799 137.029 488.769 133 483.799 133C478.828 133 474.799 137.029 474.799 142C474.799 146.971 478.828 151 483.799 151Z" fill="white"/>
<path d="M402.84 509.422C433.55 509.422 458.445 505.295 458.445 500.204C458.445 495.113 433.55 490.986 402.84 490.986C372.13 490.986 347.235 495.113 347.235 500.204C347.235 505.295 372.13 509.422 402.84 509.422Z" fill="#E6E6E6"/>
<path d="M217.52 606.869C269.187 606.869 311.072 598.132 311.072 587.353C311.072 576.574 269.187 567.836 217.52 567.836C165.853 567.836 123.968 576.574 123.968 587.353C123.968 598.132 165.853 606.869 217.52 606.869Z" fill="#F2F2F2"/>
<path d="M598.52 640.45C675.559 640.45 738.011 627.422 738.011 611.35C738.011 595.279 675.559 582.25 598.52 582.25C521.481 582.25 459.029 595.279 459.029 611.35C459.029 627.422 521.481 640.45 598.52 640.45Z" fill="#F2F2F2"/>
<path d="M217.235 598.614C256.84 598.614 288.946 593.291 288.946 586.726C288.946 580.16 256.84 574.838 217.235 574.838C177.63 574.838 145.524 580.16 145.524 586.726C145.524 593.291 177.63 598.614 217.235 598.614Z" fill="#E6E6E6"/>
<path d="M598.551 629.826C666.262 629.826 721.153 620.726 721.153 609.501C721.153 598.276 666.262 589.177 598.551 589.177C530.839 589.177 475.948 598.276 475.948 609.501C475.948 620.726 530.839 629.826 598.551 629.826Z" fill="#E6E6E6"/>
<path d="M57.7866 326C61.6526 326 64.7866 322.866 64.7866 319C64.7866 315.134 61.6526 312 57.7866 312C53.9206 312 50.7866 315.134 50.7866 319C50.7866 322.866 53.9206 326 57.7866 326Z" fill="white"/>
<path d="M547.787 428C551.653 428 554.787 424.866 554.787 421C554.787 417.134 551.653 414 547.787 414C543.921 414 540.787 417.134 540.787 421C540.787 424.866 543.921 428 547.787 428Z" fill="white"/>
<path d="M308.72 197.08C308.72 214.753 325.061 212.08 345.22 212.08C365.378 212.08 381.72 214.753 381.72 197.08C381.72 179.407 373.737 148.08 345.22 148.08C315.72 148.08 308.72 179.407 308.72 197.08Z" fill="#2F2E41"/>
<path d="M263.994 346.733C263.263 345.344 262.845 343.81 262.771 342.242C262.696 340.673 262.967 339.107 263.563 337.654C264.159 336.201 265.066 334.896 266.221 333.832C267.376 332.768 268.75 331.969 270.247 331.494L312.063 243.035L331.191 256.448L284.073 339.182C284.705 341.75 284.374 344.46 283.142 346.799C281.91 349.139 279.862 350.945 277.387 351.876C274.912 352.807 272.182 352.797 269.714 351.849C267.245 350.902 265.21 349.081 263.994 346.733V346.733Z" fill="#FFB8B8"/>
<path d="M299.826 254.779C299.627 254.116 299.573 253.418 299.668 252.732C299.764 252.047 300.006 251.39 300.378 250.806L313.379 230.424C314.825 227.191 317.493 224.663 320.799 223.394C324.106 222.125 327.78 222.219 331.017 223.655C334.255 225.091 336.79 227.752 338.068 231.055C339.346 234.358 339.263 238.033 337.835 241.274L331.286 264.627C331.099 265.294 330.771 265.912 330.323 266.44C329.876 266.968 329.32 267.394 328.693 267.688C328.066 267.981 327.384 268.137 326.692 268.143C325.999 268.149 325.314 268.006 324.682 267.724L302.474 257.793C301.841 257.51 301.278 257.095 300.821 256.575C300.364 256.055 300.025 255.442 299.826 254.779V254.779Z" fill="#00A7B5"/>
<path d="M415.837 517.679L404.317 521.874L382.656 479.436L399.658 473.245L415.837 517.679Z" fill="#FFB8B8"/>
<path d="M394.89 521.578L417.107 513.489L422.2 527.478L385.995 540.66C385.326 538.823 385.025 536.872 385.11 534.919C385.195 532.966 385.664 531.049 386.49 529.277C387.316 527.505 388.483 525.913 389.924 524.592C391.366 523.271 393.053 522.247 394.89 521.578Z" fill="#2F2E41"/>
<path d="M384.388 490.835L340.5 414.033C340.076 413.29 339.858 412.448 339.867 411.592C339.876 410.737 340.113 409.899 340.552 409.165L360.315 376.228C360.783 375.447 361.464 374.815 362.278 374.405C363.091 373.995 364.004 373.824 364.911 373.912C365.818 374 366.681 374.343 367.401 374.902C368.12 375.461 368.666 376.213 368.976 377.07L406.339 480.538C406.751 481.664 406.725 482.904 406.268 484.012C405.812 485.121 404.956 486.018 403.871 486.528L390.632 492.798C389.993 493.101 389.294 493.258 388.588 493.257C387.736 493.259 386.9 493.035 386.162 492.61C385.425 492.185 384.813 491.573 384.388 490.835V490.835Z" fill="#2F2E41"/>
<path d="M343.662 211.121C357.227 211.121 368.223 200.124 368.223 186.56C368.223 172.995 357.227 161.999 343.662 161.999C330.097 161.999 319.101 172.995 319.101 186.56C319.101 200.124 330.097 211.121 343.662 211.121Z" fill="#FFB8B8"/>
<path d="M308.727 297.811C289.385 254.923 308.884 230.952 318.166 222.638C320.839 220.24 324.304 218.914 327.896 218.917H362.495C364.98 218.916 367.423 219.552 369.593 220.761C371.763 221.971 373.588 223.716 374.894 225.829C376.201 227.943 376.945 230.355 377.057 232.837C377.168 235.319 376.644 237.789 375.533 240.011L352.403 286.27L308.915 298.229L308.727 297.811Z" fill="#00A7B5"/>
<path d="M336.698 529.276L324.438 529.275L318.606 481.987L336.7 481.988L336.698 529.276Z" fill="#FFB8B8"/>
<path d="M315.681 525.772H339.325V540.659H300.794C300.794 536.711 302.362 532.925 305.154 530.133C307.946 527.341 311.733 525.772 315.681 525.772V525.772Z" fill="#2F2E41"/>
<path d="M331.503 511.223L311.875 508.959C311.24 508.886 310.625 508.687 310.068 508.373C309.51 508.06 309.021 507.639 308.627 507.134C308.234 506.63 307.946 506.052 307.778 505.435C307.611 504.817 307.568 504.173 307.652 503.539L325.17 371.639C325.231 371.18 325.207 370.713 325.097 370.263L307.49 297.618C307.323 296.948 307.304 296.25 307.434 295.572C307.565 294.894 307.841 294.252 308.243 293.692C310.974 289.927 320.329 281.155 348.158 280.989H348.188C349.115 280.989 350.022 281.255 350.801 281.757C351.581 282.258 352.2 282.972 352.585 283.815L356.297 291.981C356.574 292.588 357.006 293.11 357.55 293.494C362.66 297.111 387.412 317.412 372.878 361.983C358.593 405.79 340.291 490.837 336.767 507.441C336.542 508.52 335.952 509.489 335.096 510.184C334.24 510.879 333.171 511.257 332.069 511.256C331.88 511.256 331.691 511.245 331.503 511.223V511.223Z" fill="#2F2E41"/>
<path d="M429.141 192.724C429.189 193.276 429.28 193.822 429.414 194.359L396.067 231.067L384.289 228.529L378.135 245.802L398.548 252.322C400.198 252.849 401.973 252.827 403.608 252.258C405.244 251.69 406.65 250.607 407.618 249.171L439.139 202.375C441.268 202.47 443.376 201.914 445.182 200.782C446.988 199.649 448.406 197.994 449.248 196.036C450.09 194.077 450.316 191.909 449.896 189.819C449.476 187.729 448.429 185.817 446.896 184.337C445.362 182.856 443.414 181.877 441.311 181.531C439.207 181.185 437.048 181.487 435.121 182.398C433.194 183.308 431.589 184.784 430.521 186.629C429.453 188.473 428.972 190.599 429.141 192.724H429.141Z" fill="#FFB8B8"/>
<path d="M395.058 232.623L387.327 253.995C387.107 254.603 386.758 255.157 386.305 255.618C385.852 256.079 385.304 256.438 384.7 256.668C384.096 256.899 383.45 256.997 382.804 256.955C382.159 256.913 381.53 256.733 380.961 256.426L361.013 245.679C357.907 244.537 355.381 242.209 353.989 239.207C352.597 236.205 352.452 232.773 353.587 229.664C354.722 226.555 357.043 224.024 360.042 222.625C363.041 221.225 366.473 221.073 369.584 222.2L391.72 226.682C392.354 226.811 392.953 227.074 393.475 227.455C393.998 227.836 394.433 228.325 394.749 228.888C395.066 229.452 395.258 230.078 395.311 230.722C395.364 231.367 395.278 232.015 395.058 232.623V232.623Z" fill="#00A7B5"/>
<path d="M373.72 185.08H364.005L359.72 173.08L358.863 185.08H354.22L351.72 178.08L351.22 185.08H316.72C316.72 178.184 319.459 171.571 324.335 166.695C329.211 161.819 335.824 159.08 342.72 159.08H347.72C354.615 159.08 361.229 161.819 366.104 166.695C370.98 171.571 373.72 178.184 373.72 185.08V185.08Z" fill="#2F2E41"/>
<path d="M114.287 442H110.787V438.5C110.787 437.307 110.313 436.162 109.469 435.318C108.625 434.474 107.48 434 106.287 434C105.093 434 103.949 434.474 103.105 435.318C102.261 436.162 101.787 437.307 101.787 438.5V442H98.2866C97.0931 442 95.9486 442.474 95.1046 443.318C94.2607 444.162 93.7866 445.307 93.7866 446.5C93.7866 447.693 94.2607 448.838 95.1046 449.682C95.9486 450.526 97.0931 451 98.2866 451H101.787V454.5C101.787 455.693 102.261 456.838 103.105 457.682C103.949 458.526 105.093 459 106.287 459C107.48 459 108.625 458.526 109.469 457.682C110.313 456.838 110.787 455.693 110.787 454.5V451H114.287C115.48 451 116.625 450.526 117.469 449.682C118.313 448.838 118.787 447.693 118.787 446.5C118.787 445.307 118.313 444.162 117.469 443.318C116.625 442.474 115.48 442 114.287 442Z" fill="white"/>
<path d="M629.447 356.16H627.627V354.34C627.627 353.719 627.38 353.124 626.941 352.685C626.502 352.247 625.907 352 625.287 352C624.666 352 624.071 352.247 623.632 352.685C623.193 353.124 622.947 353.719 622.947 354.34V356.16H621.127C620.506 356.16 619.911 356.407 619.472 356.845C619.033 357.284 618.787 357.879 618.787 358.5C618.787 359.121 619.033 359.716 619.472 360.155C619.911 360.593 620.506 360.84 621.127 360.84H622.947V362.66C622.947 363.281 623.193 363.876 623.632 364.315C624.071 364.753 624.666 365 625.287 365C625.907 365 626.502 364.753 626.941 364.315C627.38 363.876 627.627 363.281 627.627 362.66V360.84H629.447C630.067 360.84 630.662 360.593 631.101 360.155C631.54 359.716 631.787 359.121 631.787 358.5C631.787 357.879 631.54 357.284 631.101 356.845C630.662 356.407 630.067 356.16 629.447 356.16V356.16Z" fill="#FF6584"/>
<path d="M98.4466 235.16H96.6266V233.34C96.6266 233.033 96.5661 232.728 96.4485 232.445C96.3309 232.161 96.1585 231.903 95.9413 231.685C95.724 231.468 95.466 231.296 95.1821 231.178C94.8982 231.061 94.5939 231 94.2866 231C93.9793 231 93.675 231.061 93.3911 231.178C93.1072 231.296 92.8493 231.468 92.632 231.685C92.4147 231.903 92.2424 232.161 92.1248 232.445C92.0072 232.728 91.9466 233.033 91.9466 233.34V235.16H90.1266C89.506 235.16 88.9108 235.407 88.472 235.845C88.0331 236.284 87.7866 236.879 87.7866 237.5C87.7866 238.121 88.0331 238.716 88.472 239.155C88.9108 239.593 89.506 239.84 90.1266 239.84H91.9466V241.66C91.9466 241.967 92.0072 242.272 92.1248 242.555C92.2424 242.839 92.4147 243.097 92.632 243.315C92.8493 243.532 93.1072 243.704 93.3911 243.822C93.675 243.939 93.9793 244 94.2866 244C94.5939 244 94.8982 243.939 95.1821 243.822C95.466 243.704 95.724 243.532 95.9413 243.315C96.1585 243.097 96.3309 242.839 96.4485 242.555C96.5661 242.272 96.6266 241.967 96.6266 241.66V239.84H98.4466C99.0672 239.84 99.6624 239.593 100.101 239.155C100.54 238.716 100.787 238.121 100.787 237.5C100.787 236.879 100.54 236.284 100.101 235.845C99.6624 235.407 99.0672 235.16 98.4466 235.16V235.16Z" fill="#00A7B5"/>
<path d="M233.447 235.16H231.627V233.34C231.627 232.719 231.38 232.124 230.941 231.685C230.502 231.247 229.907 231 229.287 231C228.666 231 228.071 231.247 227.632 231.685C227.193 232.124 226.947 232.719 226.947 233.34V235.16H225.127C224.506 235.16 223.911 235.407 223.472 235.845C223.033 236.284 222.787 236.879 222.787 237.5C222.787 238.121 223.033 238.716 223.472 239.155C223.911 239.593 224.506 239.84 225.127 239.84H226.947V241.66C226.947 242.281 227.193 242.876 227.632 243.315C228.071 243.753 228.666 244 229.287 244C229.907 244 230.502 243.753 230.941 243.315C231.38 242.876 231.627 242.281 231.627 241.66V239.84H233.447C234.067 239.84 234.662 239.593 235.101 239.155C235.54 238.716 235.787 238.121 235.787 237.5C235.787 236.879 235.54 236.284 235.101 235.845C234.662 235.407 234.067 235.16 233.447 235.16V235.16Z" fill="white"/>
<path d="M698.447 475.16H696.627V473.34C696.627 472.719 696.38 472.124 695.941 471.685C695.502 471.247 694.907 471 694.287 471C693.666 471 693.071 471.247 692.632 471.685C692.193 472.124 691.947 472.719 691.947 473.34V475.16H690.127C689.506 475.16 688.911 475.407 688.472 475.845C688.033 476.284 687.787 476.879 687.787 477.5C687.787 478.121 688.033 478.716 688.472 479.155C688.911 479.593 689.506 479.84 690.127 479.84H691.947V481.66C691.947 482.281 692.193 482.876 692.632 483.315C693.071 483.753 693.666 484 694.287 484C694.907 484 695.502 483.753 695.941 483.315C696.38 482.876 696.627 482.281 696.627 481.66V479.84H698.447C699.067 479.84 699.662 479.593 700.101 479.155C700.54 478.716 700.787 478.121 700.787 477.5C700.787 476.879 700.54 476.284 700.101 475.845C699.662 475.407 699.067 475.16 698.447 475.16V475.16Z" fill="white"/>
<path d="M488.447 280.16H486.627V278.34C486.627 277.719 486.38 277.124 485.941 276.685C485.502 276.247 484.907 276 484.287 276C483.666 276 483.071 276.247 482.632 276.685C482.193 277.124 481.947 277.719 481.947 278.34V280.16H480.127C479.506 280.16 478.911 280.407 478.472 280.845C478.033 281.284 477.787 281.879 477.787 282.5C477.787 283.121 478.033 283.716 478.472 284.155C478.911 284.593 479.506 284.84 480.127 284.84H481.947V286.66C481.947 287.281 482.193 287.876 482.632 288.315C483.071 288.753 483.666 289 484.287 289C484.907 289 485.502 288.753 485.941 288.315C486.38 287.876 486.627 287.281 486.627 286.66V284.84H488.447C489.067 284.84 489.662 284.593 490.101 284.155C490.54 283.716 490.787 283.121 490.787 282.5C490.787 281.879 490.54 281.284 490.101 280.845C489.662 280.407 489.067 280.16 488.447 280.16V280.16Z" fill="white"/>
<path d="M167.447 330.16H165.627V328.34C165.627 327.719 165.38 327.124 164.941 326.685C164.502 326.247 163.907 326 163.287 326C162.666 326 162.071 326.247 161.632 326.685C161.193 327.124 160.947 327.719 160.947 328.34V330.16H159.127C158.506 330.16 157.911 330.407 157.472 330.845C157.033 331.284 156.787 331.879 156.787 332.5C156.787 333.121 157.033 333.716 157.472 334.155C157.911 334.593 158.506 334.84 159.127 334.84H160.947V336.66C160.947 337.281 161.193 337.876 161.632 338.315C162.071 338.753 162.666 339 163.287 339C163.907 339 164.502 338.753 164.941 338.315C165.38 337.876 165.627 337.281 165.627 336.66V334.84H167.447C168.067 334.84 168.662 334.593 169.101 334.155C169.54 333.716 169.787 333.121 169.787 332.5C169.787 331.879 169.54 331.284 169.101 330.845C168.662 330.407 168.067 330.16 167.447 330.16V330.16Z" fill="white"/>
<path d="M173.447 164.16H171.627V162.34C171.627 161.719 171.38 161.124 170.941 160.685C170.502 160.247 169.907 160 169.287 160C168.666 160 168.071 160.247 167.632 160.685C167.193 161.124 166.947 161.719 166.947 162.34V164.16H165.127C164.506 164.16 163.911 164.407 163.472 164.845C163.033 165.284 162.787 165.879 162.787 166.5C162.787 167.121 163.033 167.716 163.472 168.155C163.911 168.593 164.506 168.84 165.127 168.84H166.947V170.66C166.947 171.281 167.193 171.876 167.632 172.315C168.071 172.753 168.666 173 169.287 173C169.907 173 170.502 172.753 170.941 172.315C171.38 171.876 171.627 171.281 171.627 170.66V168.84H173.447C174.067 168.84 174.662 168.593 175.101 168.155C175.54 167.716 175.787 167.121 175.787 166.5C175.787 165.879 175.54 165.284 175.101 164.845C174.662 164.407 174.067 164.16 173.447 164.16V164.16Z" fill="white"/>
</g>
<defs>
<clipPath id="clip0">
<rect width="781.723" height="640.45" fill="white"/>
</clipPath>
</defs>
</svg>
