<svg width="462" height="60" viewBox="0 0 462 60" fill="none" xmlns="http://www.w3.org/2000/svg">
<path d="M39.1543 28.1143C39.2691 28.1143 39.3839 28 39.4987 28L40.1877 27.7714L30.5426 0.342857L30.4278 0H30.0833C28.5907 0 27.2128 0.114286 25.7201 0.342857L25.146 0.457143L38.695 28.3429L39.1543 28.1143Z" fill="#00E7FF"/>
<path d="M37.3171 29.4857C37.432 29.3714 37.6616 29.1429 37.7764 29.0286L38.1209 28.8L15.9603 3.88574L15.7306 3.65717L15.3861 3.88574C14.0083 4.57145 12.7452 5.48574 11.4822 6.51431L11.0229 6.74288L36.9727 29.7143L37.3171 29.4857Z" fill="#00E7FF"/>
<path d="M36.1689 31.4286C36.2837 31.2 36.2837 30.9714 36.3986 30.8571L36.6282 30.5143L4.13359 14.7429L3.90395 15.0857C3.10019 16.4571 2.41126 17.9429 1.83715 19.4286L1.72233 19.8857L36.0541 31.7714L36.1689 31.4286Z" fill="#00E7FF"/>
<path d="M35.8244 33.7143C35.8244 33.6 35.8244 33.6 35.8244 33.4857V33.3714V33.2571C35.8244 33.1429 35.8244 33.1429 35.8244 33.0286V32.5714L0 30.5143V30.9714C0.114822 32.5714 0.229644 34.1714 0.57411 35.7714L0.688932 36.1143L35.9393 34.0571V33.7143H35.8244Z" fill="#00E7FF"/>
<path d="M36.3986 35.8857C36.2837 35.6571 36.1689 35.4285 36.1689 35.3143L36.0541 34.8571L4.47805 45.7143L4.82252 46.1714C5.62627 47.4285 6.54485 48.6857 7.57825 49.8285L7.80789 50.0571L36.6282 36.2285C36.6282 36.2285 36.3986 35.7714 36.3986 35.8857Z" fill="#00E7FF"/>
<path d="M37.7764 37.6C37.5468 37.4857 37.432 37.2571 37.3171 37.1428L37.0875 36.8L15.2713 56.1143L15.8454 56.3428C17.1085 57.0286 18.3715 57.6 19.7494 58.0571L19.979 58.1714L38.2357 37.8286C38.1209 37.9428 37.7764 37.6 37.7764 37.6Z" fill="#00E7FF"/>
<path d="M39.7284 38.7429C39.4987 38.6286 39.2691 38.6286 39.1543 38.5143L38.8098 38.2857L28.361 59.8857H29.05C29.2796 59.8857 29.3944 59.8857 29.6241 59.8857C29.8537 59.8857 30.0834 59.8857 30.1982 59.8857C31.0019 59.8857 31.8057 59.8857 32.6094 59.7714H32.8391L40.1877 38.8571L39.7284 38.7429Z" fill="#00E7FF"/>
<path d="M42.0248 39.0857C41.91 39.0857 41.91 39.0857 41.7952 39.0857C41.6804 39.0857 41.5655 39.0857 41.5655 39.0857C41.4507 39.0857 41.4507 39.0857 41.3359 39.0857H40.8766L39.7284 58.4L40.3025 58.1714C41.2211 57.8286 42.2545 57.3714 43.173 57.0286L43.4027 56.9143L42.3693 39.0857H42.0248Z" fill="white"/>
<path d="M46.0436 37.1429C45.9288 37.3714 45.6991 37.4857 45.5843 37.6L45.2398 37.8286L54.3108 47.8857L54.6552 47.4286C55.1145 46.8572 55.459 46.1714 55.9183 45.6L56.1479 45.2572L46.5029 36.6857L46.0436 37.1429Z" fill="white"/>
<path d="M47.4215 32.5714V33.0286C47.4215 33.1429 47.4215 33.1429 47.4215 33.2571V33.3714V33.4857C47.4215 33.6 47.4215 33.6 47.4215 33.7143V34.1714L59.8222 34.8571V34.5143C59.9371 33.7143 60.0519 33.0286 60.0519 32.4571V32L47.4215 32.5714Z" fill="white"/>
<path d="M45.4695 29.0286C45.6991 29.1429 45.814 29.3715 45.9288 29.4857L46.1584 29.8286L58.0999 19.2L57.9851 18.9715C57.6406 18.1715 57.2961 17.3715 56.8369 16.4572L56.6072 15.8857L45.125 28.6857L45.4695 29.0286Z" fill="white"/>
<path d="M41.3359 27.5429C41.4507 27.5429 41.4507 27.5429 41.5655 27.5429C41.6804 27.5429 41.7952 27.5429 41.7952 27.5429C41.91 27.5429 41.91 27.5429 42.0248 27.5429H42.4841L43.862 3.31429L43.6323 3.2C42.4841 2.62857 41.2211 2.05715 40.0729 1.71429L39.4987 1.48572L40.9914 27.5429H41.3359Z" fill="white"/>
<path d="M44.2064 38.5143C43.9768 38.6286 43.862 38.7429 43.6323 38.7429L43.173 38.8572L48.4549 53.8286L48.9141 53.4857C49.6031 52.9143 50.1772 52.4572 50.7513 51.8857L51.0958 51.6572L44.6657 38.4L44.2064 38.5143Z" fill="white"/>
<path d="M47.077 35.2C46.9622 35.4286 46.9622 35.6571 46.8474 35.7714L46.6177 36.1143L57.8703 41.4857L58.0999 41.0286C58.3295 40.4571 58.5592 39.7714 58.7888 39.0857L58.9037 38.7429L47.1918 34.7429C47.3066 34.8571 47.077 35.2 47.077 35.2Z" fill="white"/>
<path d="M46.8473 30.7429C46.9622 30.9714 47.077 31.2 47.077 31.3143L47.1918 31.7714L60.1667 27.4286V27.0857C60.0519 26.2857 59.937 25.6 59.8222 24.8L59.7074 24.2286L46.7325 30.4L46.8473 30.7429Z" fill="white"/>
<path d="M43.5175 27.8857C43.7472 28 43.9768 28 44.0916 28.1143L44.4361 28.3429L53.0477 10.7429L52.8181 10.5143C52.1292 9.71431 51.3254 8.91431 50.5217 8.11431L50.0624 7.65717L43.0582 27.6572L43.5175 27.8857Z" fill="white"/>
<path d="M110.803 42.8571C108.966 45.3714 106.784 47.2 104.258 48.3428C101.847 49.4857 99.0913 49.9428 96.2208 49.9428C93.2354 49.9428 90.4797 49.4857 88.0684 48.4571C85.5423 47.4285 83.4756 46.0571 81.7532 44.2285C80.0309 42.4 78.653 40.2285 77.6196 37.7142C76.5862 35.2 76.127 32.4571 76.127 29.4857C76.127 26.5142 76.5862 23.7714 77.6196 21.2571C78.653 18.7428 80.0309 16.5714 81.7532 14.8571C83.4756 13.1428 85.6572 11.6571 88.0684 10.6285C90.5945 9.71425 93.3502 9.14282 96.3356 9.14282C98.9765 9.14282 101.503 9.59996 103.799 10.5143C106.095 11.4285 108.162 13.0285 109.885 15.2L106.784 17.7143C105.521 15.8857 104.029 14.5143 102.077 13.7143C100.24 12.9143 98.2876 12.4571 96.2208 12.4571C93.6947 12.4571 91.3983 12.9143 89.3315 13.8285C87.2647 14.7428 85.5424 15.8857 84.1645 17.4857C82.7866 18.9714 81.6384 20.8 80.8347 22.9714C80.0309 25.0285 79.6864 27.3142 79.6864 29.7142C79.6864 32.1142 80.0309 34.4 80.8347 36.4571C81.6384 38.5142 82.6718 40.3428 84.1645 41.9428C85.6572 43.5428 87.3795 44.6857 89.3315 45.6C91.3983 46.5143 93.6947 46.9714 96.2208 46.9714C97.2542 46.9714 98.2876 46.8571 99.321 46.6285C100.354 46.4 101.388 46.0571 102.421 45.4857C103.455 45.0285 104.373 44.3428 105.292 43.6571C106.21 42.8571 107.014 42.0571 107.703 40.9142L110.803 42.8571Z" fill="white"/>
<path d="M115.052 36.3429C115.052 34.4 115.396 32.5714 116.085 30.9714C116.774 29.3714 117.692 27.8857 118.841 26.7429C119.989 25.6 121.482 24.6857 123.089 24C124.697 23.3143 126.534 22.9714 128.486 22.9714C130.438 22.9714 132.275 23.3143 133.882 24C135.49 24.6857 136.983 25.6 138.131 26.7429C139.279 27.8857 140.198 29.3714 140.887 30.9714C141.575 32.5714 141.92 34.4 141.92 36.3429C141.92 38.2857 141.575 40.1143 140.887 41.7143C140.198 43.3143 139.279 44.8 138.131 45.9429C136.983 47.0857 135.49 48 133.882 48.6857C132.275 49.3714 130.438 49.7143 128.486 49.7143C126.534 49.7143 124.697 49.3714 123.089 48.6857C121.482 48 119.989 47.0857 118.841 45.9429C117.692 44.8 116.774 43.3143 116.085 41.7143C115.396 40 115.052 38.2857 115.052 36.3429ZM118.381 36.3429C118.381 37.7143 118.611 39.0857 119.07 40.3429C119.53 41.6 120.219 42.7429 121.137 43.6572C122.056 44.5714 123.089 45.3714 124.352 45.8286C125.615 46.4 126.993 46.6286 128.486 46.6286C129.978 46.6286 131.471 46.4 132.619 45.8286C133.882 45.2571 134.916 44.5714 135.834 43.6572C136.753 42.7429 137.442 41.6 137.901 40.3429C138.36 39.0857 138.59 37.7143 138.59 36.3429C138.59 34.9714 138.36 33.6 137.901 32.3429C137.442 31.0857 136.753 29.9429 135.834 29.0286C134.916 28.1143 133.882 27.3143 132.619 26.8571C131.356 26.2857 129.978 26.0571 128.486 26.0571C126.993 26.0571 125.5 26.2857 124.352 26.8571C123.089 27.4286 122.056 28.1143 121.137 29.0286C120.219 29.9429 119.53 31.0857 119.07 32.3429C118.611 33.6 118.381 34.8571 118.381 36.3429Z" fill="white"/>
<path d="M149.269 30.7428C149.269 30.2857 149.269 29.7143 149.269 29.0285C149.269 28.3428 149.154 27.6571 149.154 26.9714C149.154 26.2857 149.154 25.6 149.039 25.0285C148.924 24.4571 149.039 24 149.039 23.6571H152.369C152.369 24.5714 152.484 25.4857 152.484 26.4C152.484 27.3143 152.598 27.8857 152.598 28.1143H152.713C153.402 26.7428 154.435 25.4857 156.043 24.5714C157.536 23.5428 159.373 23.0857 161.44 23.0857C163.392 23.0857 164.999 23.4285 166.262 24C167.525 24.5714 168.444 25.4857 169.248 26.4C170.051 27.3143 170.511 28.5714 170.74 29.8286C170.97 31.2 171.2 32.4571 171.2 33.9428V49.0286H167.87V34.0571C167.87 33.0285 167.755 32 167.64 31.0857C167.41 30.1714 167.181 29.2571 166.721 28.4571C166.262 27.6571 165.573 27.0857 164.769 26.6285C163.966 26.1714 162.817 25.9428 161.554 25.9428C160.291 25.9428 159.143 26.1714 158.11 26.6285C157.076 27.0857 156.043 27.6571 155.354 28.5714C154.55 29.4857 153.976 30.5143 153.517 31.7714C153.058 33.0285 152.828 34.6285 152.828 36.3428V49.0286H149.269V30.7428Z" fill="white"/>
<path d="M179.926 30.7428C179.926 30.2857 179.926 29.7143 179.926 29.0285C179.926 28.3428 179.811 27.6571 179.811 26.9714C179.811 26.2857 179.811 25.6 179.696 25.0285C179.582 24.4571 179.696 24 179.696 23.6571H183.026C183.026 24.5714 183.141 25.4857 183.141 26.4C183.141 27.3143 183.256 27.8857 183.256 28.1143H183.371C184.06 26.7428 185.093 25.4857 186.7 24.5714C188.193 23.5428 190.03 23.0857 192.097 23.0857C194.049 23.0857 195.657 23.4285 196.92 24C198.183 24.5714 199.101 25.4857 199.905 26.4C200.709 27.3143 201.168 28.5714 201.398 29.8286C201.627 31.2 201.857 32.4571 201.857 33.9428V49.0286H198.527V34.0571C198.527 33.0285 198.412 32 198.297 31.0857C198.068 30.1714 197.838 29.2571 197.379 28.4571C196.92 27.6571 196.231 27.0857 195.427 26.6285C194.623 26.1714 193.475 25.9428 192.212 25.9428C190.949 25.9428 189.801 26.1714 188.767 26.6285C187.734 27.0857 186.7 27.6571 186.012 28.5714C185.208 29.4857 184.634 30.5143 184.174 31.7714C183.715 33.0285 183.485 34.6285 183.485 36.3428V49.0286H180.156V30.7428H179.926Z" fill="white"/>
<path d="M233.089 44.2286C231.825 46.1714 230.218 47.5429 228.266 48.3429C226.314 49.1429 224.247 49.6 222.066 49.6C220.114 49.6 218.391 49.2571 216.784 48.5714C215.176 47.8857 213.798 46.9714 212.65 45.8286C211.502 44.6857 210.583 43.2 210.009 41.6C209.435 40 209.091 38.1714 209.091 36.2286C209.091 34.2857 209.435 32.5714 210.009 30.9714C210.583 29.3714 211.502 28 212.65 26.7429C213.798 25.6 215.176 24.5714 216.669 24C218.162 23.3143 219.884 22.9714 221.836 22.9714C223.788 22.9714 225.51 23.3143 227.003 24C228.496 24.6857 229.759 25.6 230.792 26.7429C231.825 27.8857 232.514 29.1429 233.089 30.5143C233.548 31.8857 233.892 33.3714 233.892 34.8571V37.1429H212.421C212.421 37.8286 212.535 38.7429 212.88 39.7714C213.11 40.8 213.684 41.9429 214.373 42.9714C215.061 44 216.095 44.9143 217.358 45.6C218.621 46.2857 220.228 46.7429 222.18 46.7429C223.903 46.7429 225.51 46.2857 227.118 45.4857C228.725 44.6857 229.874 43.5429 230.792 42.1714L233.089 44.2286ZM230.448 34.1714C230.448 33.0286 230.218 32 229.759 30.9714C229.299 29.9429 228.725 29.1429 227.922 28.3429C227.118 27.5429 226.199 26.9714 225.166 26.5143C224.132 26.0572 222.984 25.8286 221.721 25.8286C219.884 25.8286 218.391 26.1714 217.243 26.9714C216.095 27.6571 215.061 28.5714 214.373 29.4857C213.684 30.4 213.224 31.3143 212.88 32.2286C212.535 33.1429 212.421 33.7143 212.421 34.0571H230.448V34.1714Z" fill="white"/>
<path d="M262.483 45.2571C261.22 46.7428 259.842 47.8857 258.235 48.5714C256.627 49.2571 254.905 49.6 253.068 49.6C251.116 49.6 249.278 49.2571 247.671 48.5714C246.063 47.8857 244.571 46.9714 243.423 45.8285C242.274 44.6857 241.356 43.2 240.667 41.6C239.978 40 239.633 38.1714 239.633 36.2285C239.633 34.2857 239.978 32.4571 240.667 30.8571C241.356 29.2571 242.274 27.7714 243.423 26.6285C244.571 25.4857 246.063 24.5714 247.671 23.8857C249.278 23.2 251.116 22.8571 253.068 22.8571C254.905 22.8571 256.627 23.2 258.235 24C259.842 24.8 261.22 25.8285 262.483 27.2L259.842 29.1428C258.923 28.1143 257.89 27.2 256.742 26.6285C255.594 26.0571 254.331 25.7143 253.068 25.7143C251.575 25.7143 250.082 25.9428 248.934 26.5143C247.671 27.0857 246.638 27.7714 245.719 28.6857C244.8 29.6 244.111 30.7428 243.652 32C243.193 33.2571 242.963 34.6285 242.963 36C242.963 37.3714 243.193 38.7428 243.652 40C244.111 41.2571 244.8 42.4 245.719 43.3143C246.638 44.2285 247.671 45.0285 248.934 45.4857C250.197 46.0571 251.575 46.2857 253.068 46.2857C254.445 46.2857 255.708 45.9428 256.857 45.3714C258.005 44.6857 259.038 43.8857 259.842 42.8571L262.483 45.2571Z" fill="white"/>
<path d="M280.166 26.6285H272.932V43.0857C272.932 44.2285 273.276 45.1428 273.85 45.7143C274.424 46.2857 275.343 46.6285 276.491 46.6285C277.065 46.6285 277.754 46.5143 278.443 46.4C279.132 46.2857 279.706 46.0571 280.28 45.7143L280.51 48.6857C279.936 48.9143 279.132 49.1428 278.328 49.2571C277.525 49.4857 276.836 49.4857 276.147 49.4857C274.999 49.4857 273.965 49.2571 273.161 48.9143C272.358 48.5714 271.669 48.1143 271.095 47.5428C270.52 46.9714 270.176 46.2857 269.946 45.4857C269.717 44.6857 269.602 43.8857 269.602 42.9714V26.6285H264.09V23.6571H269.602V16.3428H272.932V23.6571H280.166V26.6285Z" fill="white"/>
<path d="M321.731 45.2571C320.468 46.7428 319.09 47.8857 317.483 48.5714C315.875 49.2571 314.153 49.6 312.316 49.6C310.364 49.6 308.527 49.2571 306.919 48.5714C305.312 47.8857 303.819 46.9714 302.671 45.8285C301.522 44.6857 300.604 43.2 299.915 41.6C299.226 40 298.882 38.1714 298.882 36.2285C298.882 34.2857 299.226 32.4571 299.915 30.8571C300.604 29.2571 301.522 27.7714 302.671 26.6285C303.819 25.4857 305.312 24.5714 306.919 23.8857C308.527 23.2 310.364 22.8571 312.316 22.8571C314.153 22.8571 315.875 23.2 317.483 24C319.09 24.8 320.468 25.8285 321.731 27.2L319.09 29.1428C318.172 28.1143 317.138 27.2 315.99 26.6285C314.842 26.0571 313.579 25.7143 312.316 25.7143C310.823 25.7143 309.33 25.9428 308.182 26.5143C306.919 27.0857 305.886 27.7714 304.967 28.6857C304.049 29.6 303.36 30.7428 302.9 32C302.441 33.2571 302.211 34.6285 302.211 36C302.211 37.3714 302.441 38.7428 302.9 40C303.36 41.2571 304.049 42.4 304.967 43.3143C305.886 44.2285 306.919 45.0285 308.182 45.4857C309.445 46.0571 310.823 46.2857 312.316 46.2857C313.694 46.2857 314.957 45.9428 316.105 45.3714C317.253 44.6857 318.286 43.8857 319.09 42.8571L321.731 45.2571Z" fill="white"/>
<path d="M327.472 7.54285H330.802V49.0286H327.472V7.54285Z" fill="white"/>
<path d="M339.873 13.6C339.873 12.9143 340.103 12.3429 340.562 11.8857C341.021 11.4286 341.595 11.2 342.284 11.2C342.973 11.2 343.547 11.4286 344.007 11.8857C344.466 12.3429 344.695 12.9143 344.695 13.6C344.695 14.2857 344.466 14.8572 344.007 15.3143C343.547 15.7714 342.973 16 342.284 16C341.595 16 341.021 15.7714 340.562 15.3143C340.103 14.8572 339.873 14.2857 339.873 13.6ZM340.677 23.6572H344.007V49.0286H340.677V23.6572Z" fill="white"/>
<path d="M375.927 44.2286C374.664 46.1714 373.057 47.5429 371.105 48.3429C369.267 49.1429 367.086 49.6 364.904 49.6C362.952 49.6 361.23 49.2571 359.622 48.5714C358.015 47.8857 356.637 46.9714 355.489 45.8286C354.341 44.6857 353.422 43.2 352.848 41.6C352.274 40 351.929 38.1714 351.929 36.2286C351.929 34.2857 352.274 32.5714 352.848 30.9714C353.422 29.3714 354.341 28 355.489 26.7429C356.637 25.6 358.015 24.5714 359.508 24C361 23.3143 362.723 22.9714 364.675 22.9714C366.626 22.9714 368.349 23.3143 369.841 24C371.334 24.6857 372.597 25.6 373.631 26.7429C374.664 27.8857 375.353 29.1429 375.927 30.5143C376.386 31.8857 376.731 33.3714 376.731 34.8571V37.1429H355.374C355.374 37.8286 355.489 38.7429 355.833 39.7714C356.178 40.8 356.637 41.9429 357.326 42.9714C358.015 44 359.048 44.9143 360.311 45.6C361.574 46.2857 363.182 46.7429 365.134 46.7429C366.856 46.7429 368.464 46.2857 370.071 45.4857C371.679 44.6857 372.827 43.5429 373.745 42.1714L375.927 44.2286ZM373.401 34.1714C373.401 33.0286 373.171 32 372.712 30.9714C372.253 29.9429 371.679 29.1429 370.875 28.3429C370.071 27.5429 369.153 26.9714 368.119 26.5143C367.086 26.0572 365.938 25.8286 364.675 25.8286C362.837 25.8286 361.345 26.1714 360.196 26.9714C359.048 27.6571 358.015 28.5714 357.326 29.4857C356.637 30.4 356.178 31.3143 355.833 32.2286C355.489 33.1429 355.374 33.7143 355.374 34.0571H373.401V34.1714Z" fill="white"/>
<path d="M384.079 30.7428C384.079 30.2857 384.079 29.7143 384.079 29.0285C384.079 28.3428 383.965 27.6571 383.965 26.9714C383.965 26.2857 383.965 25.6 383.85 25.0285C383.735 24.4571 383.85 24 383.85 23.6571H387.18C387.18 24.5714 387.294 25.4857 387.294 26.4C387.294 27.3143 387.409 27.8857 387.409 28.1143H387.524C388.213 26.7428 389.246 25.4857 390.854 24.5714C392.347 23.5428 394.184 23.0857 396.251 23.0857C398.203 23.0857 399.81 23.4285 401.073 24C402.336 24.5714 403.255 25.4857 404.058 26.4C404.862 27.3143 405.322 28.5714 405.551 29.8286C405.781 31.2 406.01 32.4571 406.01 33.9428V49.0286H402.681V34.0571C402.681 33.0285 402.566 32 402.451 31.0857C402.221 30.1714 401.992 29.2571 401.532 28.4571C401.073 27.6571 400.384 27.0857 399.58 26.6285C398.777 26.1714 397.628 25.9428 396.365 25.9428C395.102 25.9428 393.954 26.1714 392.921 26.6285C391.887 27.0857 390.854 27.6571 390.165 28.5714C389.361 29.4857 388.787 30.5143 388.328 31.7714C387.869 33.0285 387.639 34.6285 387.639 36.3428V49.0286H384.309V30.7428H384.079Z" fill="white"/>
<path d="M427.138 26.6285H419.904V43.0857C419.904 44.2285 420.248 45.1428 420.822 45.7143C421.397 46.2857 422.315 46.6285 423.463 46.6285C424.037 46.6285 424.726 46.5143 425.415 46.4C426.104 46.2857 426.678 46.0571 427.252 45.7143L427.482 48.6857C426.908 48.9143 426.104 49.1428 425.3 49.2571C424.497 49.4857 423.808 49.4857 423.119 49.4857C421.971 49.4857 420.937 49.2571 420.133 48.9143C419.33 48.5714 418.641 48.1143 418.067 47.5428C417.607 46.9714 417.148 46.2857 416.918 45.4857C416.689 44.6857 416.574 43.8857 416.574 42.9714V26.6285H411.063V23.6571H416.574V16.3428H419.904V23.6571H427.138V26.6285Z" fill="white"/>
<path d="M433.108 42.5143C433.797 43.8857 434.831 44.9143 436.209 45.6C437.586 46.2857 438.964 46.6285 440.457 46.6285C441.146 46.6285 441.835 46.5143 442.524 46.2857C443.213 46.0571 443.902 45.7143 444.361 45.3714C444.935 44.9143 445.394 44.4571 445.739 43.8857C446.083 43.3143 446.313 42.6285 446.313 41.9428C446.313 40.8 445.968 39.8857 445.165 39.3143C444.361 38.7428 443.442 38.2857 442.409 37.9428C441.261 37.6 440.112 37.3714 438.735 37.1428C437.357 36.9143 436.209 36.5714 435.06 36C433.912 35.5428 432.994 34.8571 432.305 33.9428C431.501 33.0285 431.156 31.7714 431.156 30.1714C431.156 28.9143 431.386 27.8857 431.96 26.9714C432.419 26.0571 433.108 25.2571 434.027 24.6857C434.831 24.1143 435.749 23.6571 436.783 23.3143C437.816 22.9714 438.849 22.8571 439.883 22.8571C441.95 22.8571 443.787 23.2 445.279 24C446.772 24.8 448.035 25.9428 448.839 27.6571L445.854 29.3714C445.279 28.2285 444.476 27.3143 443.557 26.7428C442.639 26.1714 441.376 25.8285 439.883 25.8285C439.309 25.8285 438.735 25.9428 438.046 26.0571C437.357 26.1714 436.783 26.5143 436.323 26.8571C435.864 27.2 435.405 27.6571 435.06 28.1143C434.716 28.5714 434.486 29.2571 434.486 29.8285C434.486 30.9714 434.831 31.7714 435.634 32.3428C436.438 32.9143 437.357 33.3714 438.39 33.6C439.424 33.8285 440.687 34.1714 442.064 34.4C443.442 34.6285 444.591 34.9714 445.739 35.4285C446.887 35.8857 447.806 36.6857 448.494 37.6C449.298 38.5143 449.643 39.8857 449.643 41.6C449.643 42.9714 449.413 44.1143 448.954 45.0285C448.494 45.9428 447.806 46.8571 446.887 47.4285C445.968 48.1143 445.05 48.5714 443.902 48.9143C442.753 49.2571 441.605 49.3714 440.457 49.3714C438.275 49.3714 436.209 48.9143 434.371 48.1143C432.534 47.3143 431.156 45.9428 430.123 44.2285L433.108 42.5143Z" fill="white"/>
</svg>
