<?xml version="1.0" encoding="utf-8"?>
<!-- Generator: Adobe Illustrator 27.7.0, SVG Export Plug-In . SVG Version: 6.00 Build 0)  -->
<svg version="1.1" id="Layer_1" xmlns="http://www.w3.org/2000/svg" xmlns:xlink="http://www.w3.org/1999/xlink" x="0px" y="0px"
	 viewBox="0 0 320 52.5" style="enable-background:new 0 0 320 52.5;" xml:space="preserve">
<style type="text/css">
	.st0{fill:#00E7FF;}
	.st1{fill:#FFFFFF;}
</style>
<g>
	<path class="st0" d="M34.1,24.6c0.1,0,0.2-0.1,0.3-0.1l0.6-0.2l-8.4-24L26.5,0h-0.3c-1.3,0-2.5,0.1-3.8,0.3l-0.5,0.1l11.8,24.4
		L34.1,24.6L34.1,24.6z"/>
	<path class="st0" d="M32.5,25.8c0.1-0.1,0.3-0.3,0.4-0.4l0.3-0.2L13.9,3.4l-0.2-0.2l-0.3,0.2C12.2,4,11.1,4.8,10,5.7L9.6,5.9
		L32.2,26L32.5,25.8L32.5,25.8z"/>
	<path class="st0" d="M31.5,27.5c0.1-0.2,0.1-0.4,0.2-0.5l0.2-0.3L3.6,12.9l-0.2,0.3c-0.7,1.2-1.3,2.5-1.8,3.8l-0.1,0.4l29.9,10.4
		L31.5,27.5z"/>
	<path class="st0" d="M31.2,29.5c0-0.1,0-0.1,0-0.2l0,0v-0.1v-0.1c0-0.1,0-0.1,0-0.2v-0.4L0,26.7v0.4c0.1,1.4,0.2,2.8,0.5,4.2
		l0.1,0.3l30.7-1.8v-0.3H31.2z"/>
	<path class="st0" d="M31.7,31.4c-0.1-0.2-0.2-0.4-0.2-0.5l-0.1-0.4L3.9,40l0.3,0.4c0.7,1.1,1.5,2.2,2.4,3.2l0.2,0.2l25.1-12.1
		C31.9,31.7,31.7,31.3,31.7,31.4z"/>
	<path class="st0" d="M32.9,32.9c-0.2-0.1-0.3-0.3-0.4-0.4l-0.2-0.3l0,0l0,0l-19,16.9l0.5,0.2c1.1,0.6,2.2,1.1,3.4,1.5l0.2,0.1
		l15.9-17.8C33.2,33.2,32.9,32.9,32.9,32.9z"/>
	<path class="st0" d="M34.6,33.9c-0.2-0.1-0.4-0.1-0.5-0.2l-0.3-0.2l0,0l0,0l-9.1,18.9h0.6c0.2,0,0.3,0,0.5,0s0.4,0,0.5,0
		c0.7,0,1.4,0,2.1-0.1h0.2L35,34L34.6,33.9L34.6,33.9z"/>
</g>
<g>
	<path class="st1" d="M36.6,34.2c-0.1,0-0.1,0-0.2,0c-0.1,0-0.2,0-0.2,0c-0.1,0-0.1,0-0.2,0h-0.4l-1,16.9l0.5-0.2
		c0.8-0.3,1.7-0.7,2.5-1l0.2-0.1l-0.9-15.6C36.9,34.2,36.6,34.2,36.6,34.2z"/>
	<path class="st1" d="M40.1,32.5c-0.1,0.2-0.3,0.3-0.4,0.4l-0.3,0.2l7.9,8.8l0.3-0.4c0.4-0.5,0.7-1.1,1.1-1.6l0.2-0.3l-8.4-7.5
		L40.1,32.5L40.1,32.5z"/>
	<path class="st1" d="M41.3,28.5v0.4c0,0.1,0,0.1,0,0.2v0.1v0.1c0,0.1,0,0.1,0,0.2v0.4l10.8,0.6v-0.3c0.1-0.7,0.2-1.3,0.2-1.8V28
		L41.3,28.5L41.3,28.5z"/>
	<path class="st1" d="M39.6,25.4c0.2,0.1,0.3,0.3,0.4,0.4l0.2,0.3l10.4-9.3l-0.1-0.2c-0.3-0.7-0.6-1.4-1-2.2l-0.2-0.5l-10,11.2
		L39.6,25.4L39.6,25.4z"/>
	<path class="st1" d="M36,24.1c0.1,0,0.1,0,0.2,0c0.1,0,0.2,0,0.2,0c0.1,0,0.1,0,0.2,0H37l1.2-21.2L38,2.8c-1-0.5-2.1-1-3.1-1.3
		l-0.5-0.2l1.3,22.8L36,24.1L36,24.1z"/>
	<path class="st1" d="M38.5,33.7c-0.2,0.1-0.3,0.2-0.5,0.2L37.6,34l4.6,13.1l0.4-0.3c0.6-0.5,1.1-0.9,1.6-1.4l0.3-0.2l-5.6-11.6
		L38.5,33.7L38.5,33.7z"/>
	<path class="st1" d="M41,30.8c-0.1,0.2-0.1,0.4-0.2,0.5l-0.2,0.3l9.8,4.7l0.2-0.4c0.2-0.5,0.4-1.1,0.6-1.7l0.1-0.3l-10.2-3.5
		C41.2,30.5,41,30.8,41,30.8z"/>
	<path class="st1" d="M40.8,26.9c0.1,0.2,0.2,0.4,0.2,0.5l0.1,0.4L52.4,24v-0.3c-0.1-0.7-0.2-1.3-0.3-2L52,21.2l-11.3,5.4L40.8,26.9
		L40.8,26.9z"/>
	<path class="st1" d="M37.9,24.4c0.2,0.1,0.4,0.1,0.5,0.2l0.3,0.2l7.5-15.4L46,9.2c-0.6-0.7-1.3-1.4-2-2.1l-0.4-0.4l-6.1,17.5
		L37.9,24.4L37.9,24.4z"/>
</g>
<g>
	<path class="st1" d="M69,8.8h3.2v34H69V8.8z"/>
	<path class="st1" d="M80.5,26.9c0-0.4,0-0.9,0-1.5c0-0.6-0.1-1.2-0.1-1.8c0-0.6,0-1.2-0.1-1.7c0-0.5,0-0.9,0-1.2h2.9
		c0,0.8,0.1,1.6,0.1,2.4s0.1,1.3,0.1,1.5h0.1c0.6-1.2,1.5-2.3,2.9-3.1c1.3-0.9,2.9-1.3,4.7-1.3c1.7,0,3.1,0.3,4.2,0.8
		c1.1,0.5,1.9,1.3,2.6,2.1c0.6,0.9,1.1,1.9,1.3,3c0.2,1.2,0.4,2.3,0.4,3.6v13.2h-2.9V29.7c0-0.9-0.1-1.8-0.2-2.6
		c-0.2-0.8-0.4-1.6-0.8-2.3c-0.4-0.7-1-1.2-1.7-1.6c-0.7-0.4-1.7-0.6-2.8-0.6c-1.1,0-2.1,0.2-3,0.6c-0.9,0.4-1.8,0.9-2.4,1.7
		c-0.7,0.8-1.2,1.7-1.6,2.8c-0.4,1.1-0.6,2.5-0.6,4v11.1h-2.9V26.9z"/>
	<path class="st1" d="M118,23.2h-6.3v14.4c0,1,0.3,1.8,0.8,2.3c0.5,0.5,1.3,0.8,2.3,0.8c0.5,0,1.1-0.1,1.7-0.2
		c0.6-0.1,1.1-0.3,1.6-0.6l0.2,2.6c-0.5,0.2-1.2,0.4-1.9,0.5s-1.3,0.2-1.9,0.2c-1,0-1.9-0.2-2.6-0.5c-0.7-0.3-1.3-0.7-1.8-1.2
		c-0.4-0.5-0.8-1.1-1-1.8c-0.2-0.7-0.3-1.4-0.3-2.2V23.2h-4.8v-2.6h4.8v-6.4h2.9v6.4h6.3V23.2z"/>
	<path class="st1" d="M123,26.9c0-0.4,0-0.9,0-1.5c0-0.6-0.1-1.2-0.1-1.8c0-0.6,0-1.2-0.1-1.7c0-0.5,0-0.9,0-1.2h2.9
		c0,0.8,0.1,1.6,0.1,2.4c0,0.8,0.1,1.3,0.1,1.5c0.7-1.3,1.7-2.4,2.8-3.2c1.2-0.8,2.6-1.2,4.2-1.2c0.3,0,0.6,0,0.8,0.1
		c0.3,0,0.6,0.1,0.8,0.2l-0.3,2.8c-0.4-0.1-0.8-0.2-1.1-0.2c-1.2,0-2.3,0.2-3.2,0.6c-0.9,0.4-1.7,1-2.3,1.7c-0.6,0.7-1,1.5-1.3,2.5
		c-0.3,0.9-0.4,2-0.4,3v12.1H123V26.9z"/>
	<path class="st1" d="M136.8,31.7c0-1.7,0.3-3.3,0.9-4.7c0.6-1.4,1.4-2.7,2.4-3.7c1-1,2.3-1.8,3.7-2.4c1.4-0.6,3-0.9,4.7-0.9
		s3.3,0.3,4.7,0.9c1.4,0.6,2.7,1.4,3.7,2.4c1,1,1.8,2.3,2.4,3.7c0.6,1.4,0.9,3,0.9,4.7s-0.3,3.3-0.9,4.7c-0.6,1.4-1.4,2.7-2.4,3.7
		s-2.3,1.8-3.7,2.4s-3,0.9-4.7,0.9s-3.3-0.3-4.7-0.9c-1.4-0.6-2.7-1.4-3.7-2.4c-1-1-1.8-2.3-2.4-3.7S136.8,33.4,136.8,31.7z
		 M139.7,31.7c0,1.2,0.2,2.4,0.6,3.5c0.4,1.1,1,2.1,1.8,2.9c0.8,0.8,1.7,1.5,2.8,1.9c1.1,0.5,2.3,0.7,3.6,0.7s2.6-0.2,3.6-0.7
		c1.1-0.5,2-1.1,2.8-1.9c0.8-0.8,1.4-1.8,1.8-2.9c0.4-1.1,0.6-2.3,0.6-3.5s-0.2-2.4-0.6-3.5c-0.4-1.1-1-2.1-1.8-2.9
		c-0.8-0.8-1.7-1.5-2.8-1.9c-1.1-0.5-2.3-0.7-3.6-0.7s-2.6,0.2-3.6,0.7c-1.1,0.5-2,1.1-2.8,1.9c-0.8,0.8-1.4,1.8-1.8,2.9
		C139.9,29.3,139.7,30.5,139.7,31.7z"/>
	<path class="st1" d="M185.8,38.9L185.8,38.9c-0.5,0.8-1.1,1.4-1.8,2c-0.7,0.6-1.4,1-2.2,1.4c-0.8,0.4-1.6,0.6-2.5,0.8
		s-1.7,0.3-2.5,0.3c-1.7,0-3.3-0.3-4.7-0.9c-1.4-0.6-2.7-1.4-3.7-2.4c-1-1-1.8-2.3-2.4-3.7s-0.9-3-0.9-4.7s0.3-3.3,0.9-4.7
		c0.6-1.4,1.4-2.7,2.4-3.7c1-1,2.3-1.8,3.7-2.4c1.4-0.6,3-0.9,4.7-0.9c0.8,0,1.7,0.1,2.5,0.3c0.9,0.2,1.7,0.4,2.5,0.8
		c0.8,0.4,1.5,0.8,2.2,1.4c0.7,0.6,1.2,1.2,1.7,2h0.1v-18h2.9v36.3h-2.9V38.9z M186.1,31.7c0-1.2-0.2-2.4-0.7-3.5
		c-0.5-1.1-1.1-2.1-2-2.9c-0.8-0.8-1.8-1.5-2.9-1.9c-1.1-0.5-2.3-0.7-3.6-0.7c-1.3,0-2.6,0.2-3.6,0.7c-1.1,0.5-2,1.1-2.8,1.9
		c-0.8,0.8-1.4,1.8-1.8,2.9c-0.4,1.1-0.6,2.3-0.6,3.5s0.2,2.4,0.6,3.5c0.4,1.1,1,2.1,1.8,2.9c0.8,0.8,1.7,1.5,2.8,1.9
		c1.1,0.5,2.3,0.7,3.6,0.7c1.3,0,2.5-0.2,3.6-0.7c1.1-0.5,2.1-1.1,2.9-1.9c0.8-0.8,1.5-1.8,2-2.9C185.9,34.1,186.1,33,186.1,31.7z"
		/>
	<path class="st1" d="M214.4,36.6c0,0.4,0,0.9,0,1.5c0,0.6,0.1,1.2,0.1,1.8c0,0.6,0,1.2,0.1,1.7c0,0.5,0,0.9,0,1.2h-2.9
		c0-0.8-0.1-1.6-0.1-2.4c0-0.8-0.1-1.3-0.1-1.5h-0.1c-0.6,1.2-1.5,2.3-2.9,3.1s-2.9,1.3-4.7,1.3c-1.7,0-3.1-0.3-4.2-0.8
		c-1.1-0.5-2-1.3-2.6-2.1s-1-1.9-1.3-3c-0.2-1.2-0.3-2.3-0.3-3.6V20.6h2.9v13.1c0,0.9,0.1,1.8,0.2,2.6s0.4,1.6,0.8,2.3
		c0.4,0.7,1,1.2,1.7,1.6c0.7,0.4,1.7,0.6,2.8,0.6c1.1,0,2.1-0.2,3-0.6c0.9-0.4,1.8-0.9,2.4-1.7c0.7-0.8,1.2-1.7,1.6-2.8
		c0.4-1.1,0.6-2.5,0.6-4V20.6h2.9V36.6z"/>
	<path class="st1" d="M240.8,39.5c-1.1,1.3-2.3,2.3-3.7,2.9s-2.9,0.9-4.5,0.9c-1.7,0-3.3-0.3-4.7-0.9c-1.4-0.6-2.7-1.4-3.7-2.4
		c-1-1-1.8-2.3-2.4-3.7s-0.9-3-0.9-4.7s0.3-3.3,0.9-4.7c0.6-1.4,1.4-2.7,2.4-3.7c1-1,2.3-1.8,3.7-2.4c1.4-0.6,3-0.9,4.7-0.9
		c1.6,0,3.1,0.3,4.5,1c1.4,0.7,2.6,1.6,3.7,2.8l-2.3,1.7c-0.8-0.9-1.7-1.7-2.7-2.2c-1-0.5-2.1-0.8-3.2-0.8c-1.3,0-2.6,0.2-3.6,0.7
		c-1.1,0.5-2,1.1-2.8,1.9c-0.8,0.8-1.4,1.8-1.8,2.9c-0.4,1.1-0.6,2.3-0.6,3.5s0.2,2.4,0.6,3.5c0.4,1.1,1,2.1,1.8,2.9
		c0.8,0.8,1.7,1.5,2.8,1.9c1.1,0.5,2.3,0.7,3.6,0.7c1.2,0,2.3-0.3,3.3-0.8c1-0.6,1.9-1.3,2.6-2.2L240.8,39.5z"/>
	<path class="st1" d="M256.1,23.2h-6.3v14.4c0,1,0.3,1.8,0.8,2.3c0.5,0.5,1.3,0.8,2.3,0.8c0.5,0,1.1-0.1,1.7-0.2
		c0.6-0.1,1.1-0.3,1.6-0.6l0.2,2.6c-0.5,0.2-1.2,0.4-1.9,0.5s-1.3,0.2-1.9,0.2c-1,0-1.9-0.2-2.6-0.5c-0.7-0.3-1.3-0.7-1.8-1.2
		c-0.4-0.5-0.8-1.1-1-1.8c-0.2-0.7-0.3-1.4-0.3-2.2V23.2h-4.8v-2.6h4.8v-6.4h2.9v6.4h6.3V23.2z"/>
	<path class="st1" d="M261,11.8c0-0.6,0.2-1.1,0.6-1.5c0.4-0.4,0.9-0.6,1.5-0.6c0.6,0,1.1,0.2,1.5,0.6c0.4,0.4,0.6,0.9,0.6,1.5
		c0,0.6-0.2,1.1-0.6,1.5c-0.4,0.4-0.9,0.6-1.5,0.6c-0.6,0-1.1-0.2-1.5-0.6C261.2,13,261,12.4,261,11.8z M261.7,20.6h2.9v22.2h-2.9
		V20.6z"/>
	<path class="st1" d="M271.4,31.7c0-1.7,0.3-3.3,0.9-4.7c0.6-1.4,1.4-2.7,2.4-3.7c1-1,2.3-1.8,3.7-2.4c1.4-0.6,3-0.9,4.7-0.9
		s3.3,0.3,4.7,0.9c1.4,0.6,2.7,1.4,3.7,2.4c1,1,1.8,2.3,2.4,3.7c0.6,1.4,0.9,3,0.9,4.7s-0.3,3.3-0.9,4.7c-0.6,1.4-1.4,2.7-2.4,3.7
		s-2.3,1.8-3.7,2.4s-3,0.9-4.7,0.9s-3.3-0.3-4.7-0.9c-1.4-0.6-2.7-1.4-3.7-2.4c-1-1-1.8-2.3-2.4-3.7S271.4,33.4,271.4,31.7z
		 M274.2,31.7c0,1.2,0.2,2.4,0.6,3.5c0.4,1.1,1,2.1,1.8,2.9c0.8,0.8,1.7,1.5,2.8,1.9c1.1,0.5,2.3,0.7,3.6,0.7s2.6-0.2,3.6-0.7
		c1.1-0.5,2-1.1,2.8-1.9c0.8-0.8,1.4-1.8,1.8-2.9c0.4-1.1,0.6-2.3,0.6-3.5s-0.2-2.4-0.6-3.5c-0.4-1.1-1-2.1-1.8-2.9
		c-0.8-0.8-1.7-1.5-2.8-1.9c-1.1-0.5-2.3-0.7-3.6-0.7s-2.6,0.2-3.6,0.7c-1.1,0.5-2,1.1-2.8,1.9c-0.8,0.8-1.4,1.8-1.8,2.9
		C274.4,29.3,274.2,30.5,274.2,31.7z"/>
	<path class="st1" d="M301,26.9c0-0.4,0-0.9,0-1.5c0-0.6-0.1-1.2-0.1-1.8c0-0.6,0-1.2-0.1-1.7c0-0.5,0-0.9,0-1.2h2.9
		c0,0.8,0.1,1.6,0.1,2.4c0,0.8,0.1,1.3,0.1,1.5h0.1c0.6-1.2,1.5-2.3,2.9-3.1c1.3-0.9,2.9-1.3,4.7-1.3c1.7,0,3.1,0.3,4.2,0.8
		c1.1,0.5,1.9,1.3,2.6,2.1c0.6,0.9,1.1,1.9,1.3,3c0.2,1.2,0.4,2.3,0.4,3.6v13.2h-2.9V29.7c0-0.9-0.1-1.8-0.2-2.6
		c-0.2-0.8-0.4-1.6-0.8-2.3c-0.4-0.7-1-1.2-1.7-1.6c-0.7-0.4-1.7-0.6-2.8-0.6c-1.1,0-2.1,0.2-3,0.6c-0.9,0.4-1.8,0.9-2.4,1.7
		c-0.7,0.8-1.2,1.7-1.6,2.8c-0.4,1.1-0.6,2.5-0.6,4v11.1H301V26.9z"/>
</g>
</svg>
