<svg width="317" height="60" viewBox="0 0 317 60" fill="none" xmlns="http://www.w3.org/2000/svg">
<g clip-path="url(#clip0_6_2)">
<path d="M38.9714 28.1143C39.0857 28.1143 39.2 28 39.3143 28L40 27.7714L30.4 0.342857L30.2857 0H29.9429C28.4571 0 27.0857 0.114286 25.6 0.342857L25.0286 0.457143L38.5143 28.3429L38.9714 28.1143Z" fill="#00E7FF"/>
<path d="M37.1429 29.4857C37.2571 29.3714 37.4857 29.1428 37.6 29.0285L37.9429 28.8L15.8857 3.88568L15.6571 3.6571L15.3143 3.88568C13.9429 4.57139 12.6857 5.48568 11.4286 6.51425L10.9714 6.74282L36.8 29.7142L37.1429 29.4857Z" fill="#00E7FF"/>
<path d="M36 31.4285C36.1143 31.1999 36.1143 30.9714 36.2286 30.8571L36.4571 30.5142L4.11429 14.7428L3.88572 15.0857C3.08572 16.4571 2.4 17.9428 1.82857 19.4285L1.71429 19.8857L35.8857 31.7714L36 31.4285Z" fill="#00E7FF"/>
<path d="M35.6571 33.7143C35.6571 33.6 35.6571 33.6 35.6571 33.4857V33.3714V33.2571C35.6571 33.1429 35.6571 33.1429 35.6571 33.0286V32.5714L0 30.5143V30.9714C0.114286 32.5714 0.228571 34.1714 0.571429 35.7714L0.685714 36.1143L35.7714 34.0571V33.7143H35.6571Z" fill="#00E7FF"/>
<path d="M36.2286 35.8857C36.1143 35.6572 36 35.4286 36 35.3143L35.8857 34.8572L4.45714 45.7143L4.8 46.1715C5.6 47.4286 6.51428 48.6857 7.54286 49.8286L7.77143 50.0572L36.4571 36.2286C36.4571 36.2286 36.2286 35.7715 36.2286 35.8857Z" fill="#00E7FF"/>
<path d="M37.6 37.6C37.3714 37.4858 37.2571 37.2572 37.1429 37.1429L36.9143 36.8L15.2 56.1143L15.7714 56.3429C17.0286 57.0286 18.2857 57.6 19.6571 58.0572L19.8857 58.1715L38.0571 37.8286C37.9429 37.9429 37.6 37.6 37.6 37.6Z" fill="#00E7FF"/>
<path d="M39.5429 38.7429C39.3143 38.6286 39.0857 38.6286 38.9714 38.5143L38.6286 38.2858L28.2286 59.8858H28.9143C29.1429 59.8858 29.2571 59.8858 29.4857 59.8858C29.7143 59.8858 29.9429 59.8858 30.0571 59.8858C30.8571 59.8858 31.6571 59.8858 32.4571 59.7715H32.6857L40 38.8572L39.5429 38.7429Z" fill="#00E7FF"/>
<path d="M41.8286 39.0857C41.7143 39.0857 41.7143 39.0857 41.6 39.0857C41.4857 39.0857 41.3714 39.0857 41.3714 39.0857C41.2571 39.0857 41.2571 39.0857 41.1429 39.0857H40.6857L39.5429 58.4L40.1143 58.1714C41.0286 57.8286 42.0571 57.3714 42.9714 57.0286L43.2 56.9143L42.1714 39.0857H41.8286Z" fill="white"/>
<path d="M45.8286 37.1428C45.7143 37.3714 45.4857 37.4857 45.3714 37.6L45.0286 37.8285L54.0571 47.8857L54.4 47.4285C54.8571 46.8571 55.2 46.1714 55.6571 45.6L55.8857 45.2571L46.2857 36.6857L45.8286 37.1428Z" fill="white"/>
<path d="M47.2 32.5714V33.0286C47.2 33.1429 47.2 33.1429 47.2 33.2571V33.3714V33.4857C47.2 33.6 47.2 33.6 47.2 33.7143V34.1714L59.5429 34.8571V34.5143C59.6571 33.7143 59.7714 33.0286 59.7714 32.4571V32L47.2 32.5714Z" fill="white"/>
<path d="M45.2571 29.0286C45.4857 29.1429 45.6 29.3715 45.7143 29.4857L45.9429 29.8286L57.8286 19.2L57.7143 18.9715C57.3714 18.1715 57.0286 17.3715 56.5714 16.4572L56.3429 15.8857L44.9143 28.6857L45.2571 29.0286Z" fill="white"/>
<path d="M41.1429 27.5429C41.2571 27.5429 41.2571 27.5429 41.3714 27.5429C41.4857 27.5429 41.6 27.5429 41.6 27.5429C41.7143 27.5429 41.7143 27.5429 41.8286 27.5429H42.2857L43.6571 3.31429L43.4286 3.2C42.2857 2.62857 41.0286 2.05715 39.8857 1.71429L39.3143 1.48572L40.8 27.5429H41.1429Z" fill="white"/>
<path d="M44 38.5143C43.7714 38.6286 43.6571 38.7429 43.4286 38.7429L42.9714 38.8572L48.2286 53.8286L48.6857 53.4857C49.3714 52.9143 49.9429 52.4572 50.5143 51.8857L50.8571 51.6572L44.4571 38.4L44 38.5143Z" fill="white"/>
<path d="M46.8571 35.2001C46.7429 35.4286 46.7429 35.6572 46.6286 35.7715L46.4 36.1143L57.6 41.4858L57.8286 41.0286C58.0571 40.4572 58.2857 39.7715 58.5143 39.0858L58.6286 38.7429L46.9714 34.7429C47.0857 34.8572 46.8571 35.2001 46.8571 35.2001Z" fill="white"/>
<path d="M46.6286 30.7428C46.7429 30.9714 46.8571 31.1999 46.8571 31.3142L46.9714 31.7714L59.8857 27.4285V27.0857C59.7714 26.2857 59.6571 25.5999 59.5429 24.7999L59.4286 24.2285L46.5143 30.3999L46.6286 30.7428Z" fill="white"/>
<path d="M43.3143 27.8857C43.5429 28 43.7714 28 43.8857 28.1143L44.2286 28.3428L52.8 10.7428L52.5714 10.5142C51.8857 9.71425 51.0857 8.91425 50.2857 8.11425L49.8286 7.6571L42.8571 27.6571L43.3143 27.8857Z" fill="white"/>
<path d="M78.8571 10.6285H88.8C89.2571 10.6285 89.9429 10.6285 90.8571 10.6285C91.7714 10.6285 92.6857 10.7428 93.6 10.9714C94.6286 11.2 95.6571 11.4285 96.6857 11.8857C97.7143 12.2285 98.6286 12.8 99.4286 13.6C100.229 14.4 100.914 15.3143 101.486 16.4571C102.057 17.6 102.286 18.9714 102.286 20.6857C102.286 22.5143 101.943 24 101.371 25.1428C100.8 26.2857 100 27.3143 98.9714 28C98.0571 28.6857 97.0286 29.2571 95.8857 29.6C94.7429 29.9428 93.6 30.1714 92.5714 30.4L103.657 48.6857H99.6571L88.9143 30.6285H82.2857V48.6857H78.8571V10.6285ZM82.4 27.3143H89.9429C91.7714 27.3143 93.3714 27.0857 94.5143 26.6285C95.6571 26.1714 96.5714 25.6 97.2571 24.9143C97.9429 24.2285 98.2857 23.5428 98.6286 22.7428C98.8572 21.9428 98.9714 21.2571 98.9714 20.5714C98.9714 19.8857 98.8572 19.2 98.6286 18.4C98.4 17.6 97.9429 16.9143 97.2571 16.2285C96.5714 15.5428 95.6571 14.9714 94.5143 14.5143C93.3714 14.0571 91.8857 13.8285 89.9429 13.8285H82.4V27.3143Z" fill="white"/>
<path d="M132.114 43.9999C130.857 45.9428 129.257 47.3142 127.429 48.1142C125.6 48.9142 123.543 49.3714 121.371 49.3714C119.429 49.3714 117.714 49.0285 116.229 48.4571C114.743 47.7714 113.371 46.8571 112.229 45.7142C111.086 44.5714 110.286 43.1999 109.714 41.5999C109.143 39.9999 108.8 38.2856 108.8 36.3428C108.8 34.5142 109.143 32.7999 109.714 31.1999C110.286 29.5999 111.2 28.2285 112.343 27.0856C113.486 25.9428 114.743 25.0285 116.229 24.3428C117.714 23.6571 119.429 23.3142 121.257 23.3142C123.2 23.3142 124.8 23.6571 126.286 24.3428C127.771 25.0285 128.914 25.8285 129.943 26.9714C130.971 28.1142 131.657 29.2571 132.229 30.7428C132.686 32.1142 133.029 33.5999 133.029 34.9714V37.2571H112C112 37.9428 112.114 38.8571 112.457 39.8856C112.686 40.9142 113.257 41.9428 113.943 42.9714C114.629 43.9999 115.657 44.7999 116.8 45.5999C117.943 46.2856 119.543 46.6285 121.486 46.6285C123.086 46.6285 124.686 46.2856 126.286 45.4856C127.771 44.6856 129.029 43.6571 129.829 42.2856L132.114 43.9999ZM129.6 34.1714C129.6 33.0285 129.371 31.9999 128.914 31.0856C128.457 30.1714 127.886 29.2571 127.086 28.5714C126.286 27.8856 125.371 27.1999 124.343 26.8571C123.314 26.3999 122.171 26.1714 121.029 26.1714C119.314 26.1714 117.829 26.5142 116.686 27.1999C115.543 27.8856 114.629 28.6856 113.943 29.7142C113.257 30.6285 112.8 31.5428 112.457 32.4571C112.114 33.3714 112 33.9428 112 34.2856H129.6V34.1714Z" fill="white"/>
<path d="M140.571 42.2857C141.257 43.6572 142.286 44.5714 143.543 45.3714C144.914 46.0572 146.286 46.4 147.771 46.4C148.457 46.4 149.143 46.2857 149.829 46.0571C150.514 45.8286 151.086 45.4857 151.657 45.1429C152.229 44.8 152.686 44.2286 153.029 43.7714C153.371 43.2 153.486 42.6286 153.486 41.8286C153.486 40.6857 153.143 39.7714 152.343 39.2C151.657 38.6286 150.743 38.1714 149.6 37.8286C148.457 37.4857 147.314 37.2572 146.057 37.0286C144.8 36.8 143.543 36.4572 142.514 36C141.486 35.5429 140.571 34.8572 139.771 33.9429C139.086 33.0286 138.629 31.8857 138.629 30.2857C138.629 29.0286 138.857 28 139.429 27.0857C139.886 26.1714 140.571 25.4857 141.371 24.8C142.171 24.1143 143.086 23.7714 144.114 23.4286C145.143 23.0857 146.171 22.9714 147.2 22.9714C149.257 22.9714 150.971 23.3143 152.457 24.1143C153.943 24.9143 155.086 26.0572 155.886 27.6572L153.029 29.3714C152.457 28.2286 151.657 27.3143 150.743 26.7429C149.829 26.1714 148.686 25.8286 147.2 25.8286C146.629 25.8286 146.057 25.9429 145.371 26.0571C144.8 26.2857 144.229 26.5143 143.657 26.8571C143.2 27.2 142.743 27.5429 142.4 28.1143C142.057 28.5714 141.943 29.1429 141.943 29.8286C141.943 30.9714 142.286 31.7714 143.086 32.3429C143.771 32.9143 144.686 33.2571 145.829 33.6C146.857 33.9429 148.114 34.1714 149.371 34.4C150.629 34.6286 151.886 34.9714 152.914 35.4286C153.943 35.8857 154.857 36.5714 155.657 37.4857C156.343 38.4 156.8 39.6572 156.8 41.3714C156.8 42.6286 156.571 43.7714 156.114 44.6857C155.657 45.6 154.971 46.4 154.171 47.0857C153.371 47.7714 152.343 48.2286 151.314 48.5714C150.286 48.9143 149.143 49.0286 147.886 49.0286C145.714 49.0286 143.771 48.5714 142.057 47.7714C140.229 46.9714 138.971 45.7143 137.943 44L140.571 42.2857Z" fill="white"/>
<path d="M162.4 36.2285C162.4 34.2857 162.743 32.5714 163.314 30.9714C164 29.3714 164.8 28 166.057 26.8571C167.2 25.7142 168.571 24.8 170.171 24.1142C171.771 23.4285 173.486 23.2 175.429 23.2C177.371 23.2 179.086 23.5428 180.686 24.1142C182.286 24.6857 183.657 25.7142 184.8 26.8571C185.943 28 186.857 29.3714 187.543 30.9714C188.229 32.5714 188.457 34.2857 188.457 36.2285C188.457 38.1714 188.114 39.8857 187.543 41.4857C186.857 43.0857 185.943 44.4571 184.8 45.6C183.657 46.7428 182.286 47.6571 180.686 48.3428C179.086 49.0285 177.371 49.2571 175.429 49.2571C173.486 49.2571 171.771 48.9142 170.171 48.3428C168.571 47.6571 167.2 46.7428 166.057 45.6C164.914 44.4571 164 43.0857 163.314 41.4857C162.743 39.8857 162.4 38.1714 162.4 36.2285ZM165.6 36.2285C165.6 37.6 165.829 38.9714 166.286 40.2285C166.743 41.4857 167.429 42.5142 168.229 43.4285C169.029 44.3428 170.171 45.0285 171.314 45.6C172.571 46.1714 173.943 46.4 175.429 46.4C176.914 46.4 178.286 46.1714 179.543 45.6C180.8 45.0285 181.829 44.3428 182.629 43.4285C183.429 42.5142 184.114 41.4857 184.571 40.2285C185.029 38.9714 185.257 37.7142 185.257 36.2285C185.257 34.8571 185.029 33.4857 184.571 32.2285C184.114 30.9714 183.429 29.9428 182.629 29.0285C181.714 28.1142 180.686 27.4285 179.543 26.8571C178.286 26.2857 176.914 26.0571 175.429 26.0571C173.943 26.0571 172.571 26.2857 171.314 26.8571C170.057 27.4285 169.029 28.1142 168.229 29.0285C167.314 29.9428 166.743 30.9714 166.286 32.2285C165.829 33.4857 165.6 34.8571 165.6 36.2285Z" fill="white"/>
<path d="M217.143 41.5999C217.143 42.0571 217.143 42.6285 217.143 43.3142C217.143 43.9999 217.257 44.6857 217.257 45.3714C217.257 46.0571 217.257 46.7428 217.371 47.3142C217.371 47.8857 217.371 48.3428 217.371 48.6856H214.171C214.171 47.7714 214.057 46.8571 214.057 45.9428C214.057 45.0285 213.943 44.5714 213.943 44.2285H213.829C213.143 45.5999 212.114 46.7428 210.629 47.7714C209.143 48.7999 207.314 49.2571 205.371 49.2571C203.429 49.2571 201.829 48.9142 200.571 48.3428C199.314 47.7714 198.4 46.9714 197.714 45.9428C197.029 44.9142 196.571 43.7714 196.343 42.5142C196.114 41.2571 196 39.8857 196 38.5142V23.7714H199.2V38.3999C199.2 39.4285 199.314 40.3428 199.429 41.3714C199.657 42.2857 199.886 43.1999 200.343 43.8857C200.8 44.6857 201.371 45.2571 202.171 45.7142C202.971 46.1714 204 46.3999 205.257 46.3999C206.4 46.3999 207.543 46.1714 208.571 45.8285C209.6 45.3714 210.514 44.7999 211.314 43.9999C212.114 43.1999 212.686 42.0571 213.143 40.7999C213.6 39.5428 213.829 38.0571 213.829 36.3428V23.7714H217.029V41.5999H217.143Z" fill="white"/>
<path d="M226.4 30.7428C226.4 30.2857 226.4 29.7142 226.4 29.0285C226.4 28.3428 226.286 27.6571 226.286 26.9714C226.286 26.2857 226.286 25.6 226.171 25.0285C226.171 24.4571 226.171 24 226.171 23.6571H229.371C229.371 24.5714 229.486 25.4857 229.486 26.4C229.486 27.3142 229.6 27.7714 229.6 28.1142C230.4 26.6285 231.429 25.4857 232.8 24.5714C234.057 23.6571 235.657 23.2 237.486 23.2C237.829 23.2 238.171 23.2 238.4 23.3142C238.743 23.3142 238.971 23.4285 239.314 23.5428L238.971 26.7428C238.514 26.6285 238.171 26.5142 237.714 26.5142C236.343 26.5142 235.086 26.7428 234.057 27.2C233.029 27.6571 232.229 28.2285 231.543 29.0285C230.857 29.8285 230.4 30.7428 230.057 31.7714C229.714 32.8 229.6 33.9428 229.6 35.2V48.6857H226.4V30.7428Z" fill="white"/>
<path d="M264.571 45.0285C263.314 46.5142 261.943 47.5428 260.457 48.2285C258.971 48.9142 257.257 49.2571 255.429 49.2571C253.486 49.2571 251.771 48.9142 250.171 48.3428C248.571 47.6571 247.2 46.7428 246.057 45.6C244.914 44.4571 244 43.0857 243.314 41.4857C242.629 39.8857 242.4 38.1714 242.4 36.2285C242.4 34.2857 242.743 32.5714 243.314 30.9714C244 29.3714 244.8 28 246.057 26.8571C247.2 25.7142 248.571 24.8 250.171 24.1142C251.771 23.4285 253.486 23.2 255.429 23.2C257.257 23.2 258.971 23.5428 260.457 24.3428C261.943 25.1428 263.429 26.1714 264.571 27.5428L261.943 29.4857C261.029 28.4571 260 27.6571 258.857 27.0857C257.714 26.5142 256.571 26.1714 255.314 26.1714C253.829 26.1714 252.457 26.4 251.2 26.9714C249.943 27.5428 248.914 28.2285 248.114 29.1428C247.2 30.0571 246.629 31.0857 246.171 32.3428C245.714 33.6 245.486 34.8571 245.486 36.3428C245.486 37.7142 245.714 39.0857 246.171 40.3428C246.629 41.6 247.314 42.6285 248.114 43.5428C248.914 44.4571 250.057 45.1428 251.2 45.7142C252.457 46.2857 253.829 46.5142 255.314 46.5142C256.686 46.5142 257.943 46.1714 259.086 45.6C260.229 45.0285 261.143 44.1142 262.057 43.0857L264.571 45.0285Z" fill="white"/>
<path d="M291.886 43.9999C290.629 45.9428 289.029 47.3142 287.2 48.1142C285.371 48.9142 283.314 49.3714 281.143 49.3714C279.2 49.3714 277.486 49.0285 276 48.4571C274.514 47.7714 273.143 46.8571 272 45.7142C270.857 44.5714 270.057 43.1999 269.486 41.5999C268.914 39.9999 268.571 38.2856 268.571 36.3428C268.571 34.5142 268.914 32.7999 269.486 31.1999C270.057 29.5999 270.971 28.2285 272.114 27.0856C273.257 25.9428 274.514 25.0285 276 24.3428C277.486 23.6571 279.2 23.3142 281.029 23.3142C282.971 23.3142 284.571 23.6571 286.057 24.3428C287.543 25.0285 288.686 25.8285 289.714 26.9714C290.743 28.1142 291.429 29.2571 292 30.7428C292.457 32.1142 292.8 33.5999 292.8 34.9714V37.2571H272C272 37.9428 272.114 38.8571 272.457 39.8856C272.686 40.9142 273.257 41.9428 273.943 42.9714C274.629 43.9999 275.657 44.7999 276.8 45.5999C277.943 46.3999 279.543 46.6285 281.486 46.6285C283.086 46.6285 284.686 46.2856 286.286 45.4856C287.886 44.6856 289.029 43.6571 289.829 42.2856L291.886 43.9999ZM289.486 34.1714C289.486 33.0285 289.257 31.9999 288.8 31.0856C288.343 30.1714 287.771 29.2571 286.971 28.5714C286.171 27.8856 285.257 27.1999 284.229 26.8571C283.2 26.3999 282.057 26.1714 280.914 26.1714C279.2 26.1714 277.714 26.5142 276.571 27.1999C275.429 27.8856 274.514 28.6856 273.829 29.7142C273.143 30.6285 272.686 31.5428 272.343 32.4571C272 33.3714 271.886 33.9428 271.886 34.2856H289.486V34.1714Z" fill="white"/>
<path d="M300.343 42.2857C301.029 43.6572 302.057 44.5714 303.314 45.3714C304.686 46.0572 306.057 46.4 307.543 46.4C308.229 46.4 308.914 46.2857 309.6 46.0571C310.286 45.8286 310.857 45.4857 311.429 45.1429C312 44.8 312.457 44.2286 312.8 43.7714C313.143 43.2 313.257 42.6286 313.257 41.8286C313.257 40.6857 312.914 39.7714 312.114 39.2C311.429 38.6286 310.514 38.1714 309.371 37.8286C308.229 37.4857 307.086 37.2572 305.829 37.0286C304.571 36.8 303.314 36.4572 302.286 36C301.257 35.5429 300.343 34.8572 299.543 33.9429C298.857 33.0286 298.4 31.8857 298.4 30.2857C298.4 29.0286 298.629 28 299.2 27.0857C299.657 26.1714 300.343 25.4857 301.143 24.8C301.943 24.2286 302.857 23.7714 303.886 23.4286C304.914 23.0857 305.943 22.9714 306.971 22.9714C309.029 22.9714 310.743 23.3143 312.229 24.1143C313.714 24.9143 314.857 26.0572 315.657 27.6572L312.8 29.3714C312.229 28.2286 311.429 27.3143 310.514 26.7429C309.6 26.1714 308.457 25.8286 306.971 25.8286C306.4 25.8286 305.829 25.9429 305.143 26.0571C304.571 26.2857 304 26.5143 303.429 26.8571C302.971 27.2 302.514 27.5429 302.171 28.1143C301.829 28.5714 301.714 29.1429 301.714 29.8286C301.714 30.9714 302.057 31.7714 302.857 32.3429C303.543 32.9143 304.457 33.2571 305.6 33.6C306.629 33.9429 307.886 34.1714 309.143 34.4C310.4 34.6286 311.657 34.9714 312.686 35.4286C313.714 35.8857 314.629 36.5714 315.429 37.4857C316.114 38.4 316.571 39.6572 316.571 41.3714C316.571 42.6286 316.343 43.7714 315.886 44.6857C315.429 45.6 314.743 46.4 313.943 47.0857C313.143 47.7714 312.114 48.2286 311.086 48.5714C310.057 48.9143 308.914 49.0286 307.657 49.0286C305.486 49.0286 303.543 48.5714 301.829 47.7714C300 46.9714 298.743 45.7143 297.714 44L300.343 42.2857Z" fill="white"/>
</g>
<defs>
<clipPath id="clip0_6_2">
<rect width="316.8" height="60" fill="white"/>
</clipPath>
</defs>
</svg>
