<?xml version="1.0" encoding="utf-8"?>
<!-- Generator: Adobe Illustrator 26.0.2, SVG Export Plug-In . SVG Version: 6.00 Build 0)  -->
<svg version="1.1" id="Layer_1" xmlns="http://www.w3.org/2000/svg" xmlns:xlink="http://www.w3.org/1999/xlink" x="0px" y="0px"
	 viewBox="0 0 284.5 39.7" style="enable-background:new 0 0 284.5 39.7;" xml:space="preserve">
<style type="text/css">
	.st0{fill:#FFFFFF;}
	.st1{fill:#00A7B5;}
</style>
<path class="st0" d="M59.5,20.3c-0.6-0.4-1.2-0.8-1.8-1c-0.7-0.3-1.3-0.5-2-0.7c-0.5-0.2-1.1-0.4-1.6-0.5c-0.5-0.2-0.9-0.4-1.3-0.7
	c-0.4-0.3-0.7-0.6-0.9-1c-0.3-0.5-0.4-1-0.4-1.5c0-0.6,0.1-1.1,0.4-1.6c0.2-0.4,0.6-0.8,1-1.1c0.4-0.3,0.8-0.5,1.3-0.7
	c0.5-0.1,1-0.2,1.4-0.2c0.8,0,1.6,0.2,2.4,0.5c0.6,0.3,1.2,0.8,1.6,1.4l1.5-1.2c-0.6-0.7-1.3-1.3-2.1-1.6c-1-0.5-2.2-0.7-3.3-0.7
	c-0.7,0-1.4,0.1-2.1,0.3c-0.7,0.2-1.4,0.5-2,1c-0.6,0.4-1.1,1-1.5,1.7c-0.7,1.4-0.7,3.1-0.1,4.6c0.3,0.6,0.7,1.1,1.2,1.5
	c0.5,0.4,1.1,0.7,1.7,1c0.6,0.3,1.2,0.5,1.9,0.7s1.2,0.4,1.8,0.6c0.5,0.2,1,0.4,1.5,0.7c0.4,0.3,0.8,0.7,1,1.1c0.5,1,0.5,2.3,0,3.3
	c-0.3,0.5-0.6,0.8-1,1.2c-0.4,0.3-0.9,0.6-1.4,0.7c-0.5,0.1-1,0.2-1.5,0.2c-0.9,0-1.8-0.2-2.6-0.7c-0.7-0.4-1.3-1-1.7-1.7L49,26.9
	c0.3,0.5,0.7,0.9,1.2,1.2c0.4,0.4,0.9,0.7,1.5,0.9c0.5,0.2,1.1,0.4,1.7,0.5c0.6,0.1,1.2,0.2,1.7,0.2c0.8,0,1.5-0.1,2.3-0.3
	c0.7-0.2,1.4-0.5,2-1c1.3-1,2-2.6,2-4.2c0-0.8-0.1-1.6-0.5-2.4C60.5,21.3,60,20.8,59.5,20.3"/>
<path class="st0" d="M67.2,13h-1.8v3.6h-2.6v1.5h2.6v7.9c0,0.6,0.1,1.2,0.3,1.7c0.2,0.4,0.5,0.8,0.8,1c0.3,0.2,0.7,0.4,1.1,0.5
	c0.4,0.1,0.7,0.1,1.1,0.1c0.4,0,0.8,0,1.2-0.1c0.3-0.1,0.7-0.2,1-0.3l-0.1-1.6c-0.3,0.1-0.5,0.2-0.8,0.3c-0.3,0.1-0.5,0.1-0.8,0.1
	c-0.3,0-0.5,0-0.8-0.1c-0.2-0.1-0.4-0.2-0.6-0.4c-0.2-0.2-0.3-0.4-0.4-0.7c-0.1-0.4-0.1-0.8-0.1-1.2v-7.4h3.6v-1.5h-3.6V13z"/>
<path class="st0" d="M82.2,23.9c0,0.5-0.1,1.1-0.3,1.6c-0.2,0.5-0.4,0.9-0.8,1.3c-0.4,0.4-0.8,0.7-1.3,0.9c-0.5,0.2-1.1,0.4-1.7,0.3
	c-0.4,0-0.7,0-1.1-0.1c-0.3-0.1-0.7-0.2-1-0.4c-0.3-0.2-0.5-0.4-0.7-0.7c-0.2-0.4-0.3-0.7-0.3-1.1c0-0.5,0.2-1.1,0.6-1.4
	c0.4-0.4,1-0.7,1.5-0.8c0.7-0.2,1.4-0.3,2.1-0.4c0.8-0.1,1.5-0.1,2.3-0.1h0.5V23.9z M83.9,26.5v-5.6c0-0.7-0.1-1.4-0.4-2
	c-0.2-0.6-0.6-1-1.1-1.4c-0.5-0.4-1-0.7-1.6-0.8c-0.6-0.2-1.3-0.3-1.9-0.3c-1,0-2,0.2-2.9,0.5c-0.8,0.3-1.5,0.7-2.1,1.3l1,1.2
	c0.5-0.5,1-0.8,1.7-1.1c0.7-0.3,1.4-0.4,2.1-0.4c1.1,0,1.9,0.3,2.5,0.8c0.6,0.5,0.9,1.4,0.9,2.4v0.4c-1.2,0-2.3,0-3.3,0.1
	c-1,0.1-1.9,0.2-2.9,0.5c-0.8,0.2-1.5,0.7-2,1.3c-0.5,0.6-0.7,1.3-0.7,2.3c0,0.6,0.1,1.2,0.4,1.8c0.3,0.5,0.6,0.9,1.1,1.2
	c0.4,0.3,0.9,0.5,1.4,0.7c0.5,0.1,1,0.2,1.5,0.2c0.9,0,1.8-0.2,2.6-0.6c0.8-0.4,1.5-1.1,2-1.8h0.1c0,0.4,0,0.7,0.1,1.1
	c0,0.4,0.1,0.7,0.1,1h1.7C84.1,28.9,84,28.4,84,28C84,27.5,83.9,27,83.9,26.5"/>
<path class="st0" d="M93.4,16.3c-0.9,0-1.7,0.2-2.4,0.7c-0.7,0.4-1.3,1.1-1.6,1.8h-0.1c0-0.3,0-0.6,0-1c0-0.4,0-0.8-0.1-1.1h-1.8
	c0,0.4,0.1,0.9,0.1,1.5s0,1,0,1.3v9.9h1.8v-6.5c0-0.7,0.1-1.5,0.3-2.2c0.2-0.5,0.4-1,0.8-1.5c0.3-0.4,0.7-0.7,1.2-0.8
	c0.4-0.2,0.9-0.3,1.4-0.3c0.3,0,0.5,0,0.8,0.1c0.2,0,0.4,0.1,0.5,0.1l0.2-1.8c-0.2-0.1-0.4-0.1-0.6-0.1
	C93.8,16.3,93.6,16.3,93.4,16.3"/>
<path class="st0" d="M108.5,24.9c-0.2,0.6-0.5,1.2-0.9,1.6c-0.4,0.5-0.9,0.8-1.5,1.1c-0.6,0.3-1.3,0.4-2,0.4c-2,0-3.8-1.2-4.5-3.1
	c-0.5-1.3-0.5-2.7,0-4c0.2-0.6,0.6-1.2,1-1.6c0.4-0.5,1-0.8,1.5-1.1c1.3-0.5,2.7-0.5,4,0c0.6,0.3,1.1,0.6,1.5,1.1
	c0.4,0.5,0.7,1,0.9,1.6C108.9,22.3,108.9,23.7,108.5,24.9 M108.9,18.2c-0.6-0.6-1.3-1.1-2.1-1.4c-0.9-0.4-1.8-0.5-2.7-0.5
	c-0.9,0-1.8,0.2-2.7,0.6c-0.9,0.4-1.6,1.1-2.1,1.9h-0.1v-10h-1.8v20.5h1.8v-2.1h0.1c0.5,0.8,1.3,1.4,2.1,1.8
	c0.8,0.4,1.8,0.6,2.7,0.6c0.9,0,1.8-0.2,2.7-0.5c0.8-0.3,1.5-0.8,2.1-1.4c0.6-0.6,1-1.3,1.3-2.1c0.6-1.7,0.6-3.6,0-5.3
	C110,19.5,109.5,18.8,108.9,18.2"/>
<path class="st0" d="M123.9,26.5v-9.9h-1.8v6.5c0,0.7-0.1,1.5-0.3,2.2c-0.2,0.6-0.5,1.1-0.9,1.5c-0.7,0.8-1.6,1.2-2.7,1.2
	c-0.6,0-1.1-0.1-1.7-0.3c-0.4-0.2-0.8-0.5-1.1-0.9c-0.3-0.4-0.5-0.9-0.6-1.4c-0.1-0.6-0.2-1.2-0.2-1.8v-7h-1.8v7.8
	c0,1.6,0.4,2.8,1.2,3.8c0.8,1,2,1.4,3.6,1.4c0.9,0,1.8-0.2,2.6-0.7c0.8-0.4,1.4-1,1.8-1.8h0.1c0,0.3,0,0.6,0,1c0,0.4,0,0.8,0.1,1.1
	h1.8c0-0.4-0.1-0.9-0.1-1.5C123.9,27.3,123.9,26.8,123.9,26.5"/>
<path class="st0" d="M133.1,16.3c-0.9,0-1.7,0.2-2.4,0.7c-0.7,0.4-1.3,1.1-1.6,1.8H129c0-0.3,0-0.6,0-1c0-0.4,0-0.8-0.1-1.1h-1.8
	c0,0.4,0.1,0.9,0.1,1.5c0,0.5,0,1,0,1.3v9.9h1.9v-6.5c0-0.7,0.1-1.5,0.3-2.2c0.2-0.5,0.4-1,0.8-1.5c0.3-0.4,0.7-0.7,1.2-0.8
	c0.4-0.2,0.9-0.3,1.4-0.3c0.3,0,0.5,0,0.8,0.1c0.2,0,0.4,0.1,0.5,0.1l0.2-1.8c-0.2-0.1-0.4-0.1-0.6-0.1
	C133.5,16.3,133.3,16.3,133.1,16.3"/>
<path class="st0" d="M140.7,22c-0.8-0.1-1.6-0.4-2.3-0.8c-0.5-0.3-0.8-0.8-0.7-1.4c0-0.3,0.1-0.6,0.2-0.9c0.2-0.3,0.4-0.5,0.6-0.6
	c0.3-0.2,0.6-0.3,0.9-0.4c0.3-0.1,0.6-0.1,1-0.1c0.7,0,1.3,0.2,1.9,0.5c0.5,0.3,1,0.7,1.2,1.3l1.4-1.1c-0.4-0.7-1.1-1.3-1.9-1.7
	c-0.8-0.4-1.7-0.6-2.6-0.6c-0.6,0-1.1,0.1-1.7,0.2c-0.5,0.1-1,0.4-1.5,0.7c-0.4,0.3-0.8,0.7-1,1.1c-0.3,0.5-0.4,1.1-0.4,1.7
	c0,0.5,0.1,1,0.4,1.5c0.2,0.4,0.5,0.7,0.9,1c0.4,0.3,0.8,0.5,1.2,0.6c0.4,0.1,0.8,0.2,1.2,0.3c1,0.2,1.9,0.5,2.8,0.9
	c0.6,0.3,1,0.9,1,1.5c0,0.7-0.3,1.4-0.9,1.7c-0.3,0.2-0.6,0.3-0.9,0.4c-0.4,0.1-0.7,0.1-1.1,0.1c-1.4,0-2.8-0.7-3.5-2l-1.5,1.1
	c0.5,0.8,1.3,1.5,2.2,1.9c0.9,0.4,1.8,0.6,2.8,0.6c0.6,0,1.2-0.1,1.7-0.2c0.5-0.1,1.1-0.4,1.5-0.7c1-0.7,1.6-1.8,1.5-3.1
	c0-0.9-0.4-1.8-1.1-2.4C143.3,22.7,142.2,22.3,140.7,22"/>
<path class="st0" d="M154.9,18.2v-1.5h-3.6V13h-1.8v3.6h-2.6v1.5h2.6v7.9c0,0.6,0.1,1.2,0.3,1.7c0.2,0.4,0.5,0.8,0.8,1
	c0.3,0.2,0.7,0.4,1.1,0.5c0.4,0.1,0.7,0.1,1.1,0.1c0.4,0,0.8,0,1.2-0.1c0.3-0.1,0.7-0.2,1-0.3l-0.1-1.6c-0.3,0.1-0.5,0.2-0.8,0.3
	c-0.3,0.1-0.5,0.1-0.8,0.1c-0.3,0-0.5,0-0.8-0.1c-0.2-0.1-0.4-0.2-0.6-0.4c-0.2-0.2-0.3-0.5-0.4-0.7c-0.1-0.4-0.1-0.8-0.1-1.2v-7.4
	H154.9z"/>
<path class="st0" d="M26.1,18.1L19.8,0h0c-1,0-1.9,0.1-2.8,0.2l8.7,18.1C25.8,18.2,26,18.2,26.1,18.1"/>
<path class="st1" d="M24.7,18.9L10.1,2.5C9.2,3,8.4,3.6,7.5,4.3l16.9,15C24.5,19.2,24.6,19,24.7,18.9"/>
<path class="st1" d="M23.8,20.2L2.6,10c-0.5,0.9-1,1.9-1.4,2.9l22.3,7.8C23.6,20.5,23.7,20.4,23.8,20.2"/>
<path class="st1" d="M23.3,22c0-0.1,0-0.2,0-0.2L0,20.5c0,1.1,0.1,2.1,0.3,3.2l23-1.3C23.4,22.2,23.3,22.1,23.3,22"/>
<path class="st1" d="M23.6,23.4L3.1,30.5c0.5,0.8,1.2,1.7,1.8,2.4l18.8-9.1C23.7,23.7,23.6,23.6,23.6,23.4"/>
<path class="st1" d="M24.4,24.8l-14,12.5c0.8,0.4,1.7,0.8,2.5,1.1l11.8-13.3C24.6,25,24.5,24.9,24.4,24.8"/>
<path class="st0" d="M25.7,25.8L19,39.6c0.3,0,0.5,0,0.8,0c0.5,0,1.1,0,1.6-0.1L26.1,26C26,25.9,25.8,25.9,25.7,25.8"/>
<path class="st0" d="M27.5,26.2c-0.1,0-0.2,0-0.2,0l-0.7,12.3c0.6-0.2,1.3-0.5,1.9-0.8l-0.7-11.5C27.7,26.2,27.6,26.2,27.5,26.2"/>
<path class="st0" d="M30.3,25.2l5.6,6.3c0.3-0.4,0.6-0.8,0.8-1.2l-6.1-5.4C30.5,24.9,30.4,25,30.3,25.2"/>
<path class="st0" d="M31.7,21.8c0,0.1,0,0.2,0,0.2c0,0.1,0,0.2,0,0.2l7.8,0.4c0.1-0.5,0.1-0.9,0.2-1.4L31.7,21.8z"/>
<path class="st0" d="M30.6,19.3l7.6-6.8c-0.2-0.6-0.5-1.1-0.7-1.6l-7.2,8.1C30.4,19,30.5,19.2,30.6,19.3"/>
<path class="st0" d="M27.3,17.9c0.1,0,0.2,0,0.2,0s0.2,0,0.2,0l0.9-15.8c-0.8-0.4-1.6-0.7-2.4-1L27.3,17.9z"/>
<path class="st0" d="M28.9,26l3.3,9.4c0.4-0.3,0.9-0.7,1.3-1.1l-4.1-8.5C29.2,25.9,29,25.9,28.9,26"/>
<path class="st0" d="M31.3,23.9l7,3.4c0.2-0.4,0.3-0.8,0.5-1.3l-7.2-2.5C31.4,23.6,31.3,23.7,31.3,23.9"/>
<path class="st0" d="M31.5,20.7l8.1-2.8c-0.1-0.5-0.1-1-0.2-1.5l-8.1,3.9C31.3,20.4,31.4,20.5,31.5,20.7"/>
<path class="st0" d="M34.8,6.9c-0.5-0.5-1-1.1-1.5-1.6l-4.4,12.8c0.2,0.1,0.3,0.1,0.4,0.2L34.8,6.9z"/>
<path class="st0" d="M161.1,10.2h12.6v3.1h-9.2V18h8.7V21h-8.7v5.2h9.7v3.1h-13.1V10.2z"/>
<path class="st0" d="M176.9,16.4h3.1v2.1h0.1c0.3-0.7,0.8-1.3,1.4-1.7c0.6-0.5,1.5-0.7,2.6-0.7c0.8,0,1.5,0.1,2.2,0.4
	c0.6,0.3,1.1,0.6,1.5,1.1c0.4,0.5,0.7,1,0.8,1.6c0.2,0.6,0.2,1.3,0.2,1.9v8.1h-3.2v-6.5c0-0.4,0-0.8-0.1-1.2c0-0.4-0.1-0.8-0.3-1.2
	c-0.1-0.4-0.4-0.7-0.7-1c-0.4-0.3-0.8-0.4-1.3-0.4c-0.5,0-0.9,0.1-1.4,0.3c-0.4,0.2-0.7,0.4-0.9,0.7c-0.2,0.3-0.4,0.7-0.5,1
	c-0.1,0.4-0.2,0.8-0.2,1.2v7h-3.2V16.4z"/>
<path class="st0" d="M190.4,19.1v-2.7h2.7v-3.7h3.2v3.7h3.5v2.7h-3.6v5.6c0,0.5,0.1,1.1,0.4,1.5c0.2,0.4,0.7,0.6,1.4,0.6
	c0.3,0,0.6,0,0.9-0.1c0.3,0,0.6-0.1,0.8-0.3v2.7c-0.4,0.2-0.8,0.3-1.2,0.3c-0.4,0.1-0.9,0.1-1.3,0.1c-0.7,0-1.4-0.1-2.1-0.3
	c-0.5-0.2-1-0.5-1.3-0.9c-0.3-0.4-0.6-0.9-0.6-1.4c-0.1-0.7-0.2-1.3-0.2-2v-5.9L190.4,19.1z"/>
<path class="st0" d="M204.2,23.9c0.1,0.9,0.5,1.7,1.1,2.2c0.7,0.5,1.5,0.8,2.3,0.8c0.7,0,1.4-0.1,2-0.5c0.5-0.3,1-0.8,1.4-1.2
	l2.3,1.7c-0.7,0.9-1.5,1.5-2.5,2c-0.9,0.4-1.9,0.6-2.9,0.6c-0.9,0-1.9-0.2-2.7-0.5c-1.7-0.6-3-1.9-3.7-3.5c-0.7-1.8-0.7-3.8,0-5.6
	c0.7-1.6,2.1-2.9,3.7-3.5c0.9-0.3,1.8-0.5,2.7-0.5c0.8,0,1.7,0.1,2.5,0.5c0.7,0.3,1.4,0.8,1.9,1.4c0.6,0.6,1,1.4,1.2,2.2
	c0.3,1,0.5,2,0.4,3v0.9H204.2z M210.8,21.5c0-0.8-0.3-1.7-0.9-2.2c-0.6-0.5-1.4-0.8-2.4-0.8c-0.8,0-1.7,0.3-2.3,0.8
	c-0.6,0.6-1,1.4-1,2.2L210.8,21.5z"/>
<path class="st0" d="M216.7,16.4h3.2v2h0.1c0.3-0.7,0.9-1.3,1.5-1.7c0.7-0.4,1.5-0.6,2.3-0.6c0.2,0,0.4,0,0.6,0.1
	c0.2,0,0.4,0.1,0.6,0.1v3.1c-0.3-0.1-0.5-0.1-0.8-0.2c-0.3,0-0.5-0.1-0.8-0.1c-0.6,0-1.3,0.1-1.8,0.4c-0.4,0.2-0.8,0.6-1,1
	c-0.2,0.3-0.4,0.7-0.5,1.1c-0.1,0.3-0.1,0.5-0.1,0.8v6.9h-3.2V16.4z"/>
<path class="st0" d="M227.2,16.4h3.1v1.9h0.1c0.4-0.8,1.1-1.4,1.9-1.7c0.8-0.4,1.7-0.5,2.6-0.5c0.9,0,1.8,0.2,2.7,0.5
	c0.8,0.3,1.5,0.8,2,1.4c0.6,0.6,1,1.4,1.3,2.1c0.3,0.9,0.4,1.8,0.4,2.7c0,0.9-0.1,1.8-0.5,2.7c-0.3,0.8-0.7,1.5-1.3,2.1
	c-0.5,0.6-1.2,1.1-2,1.4c-0.8,0.4-1.7,0.5-2.5,0.5c-0.5,0-1.1-0.1-1.6-0.2c-0.4-0.1-0.8-0.3-1.2-0.5c-0.3-0.2-0.6-0.4-0.9-0.6
	c-0.2-0.2-0.4-0.4-0.6-0.7h-0.1v7.8h-3.2V16.4z M237.9,22.8c0-0.5-0.1-1-0.3-1.4c-0.2-0.5-0.4-0.9-0.8-1.2c-0.7-0.8-1.7-1.2-2.8-1.2
	c-1.6,0-3,0.9-3.5,2.4c-0.3,0.9-0.3,2,0,2.9c0.2,0.5,0.4,0.9,0.8,1.2c1.4,1.5,3.9,1.6,5.4,0.2c0.1-0.1,0.1-0.1,0.2-0.2
	c0.3-0.4,0.6-0.8,0.8-1.2C237.8,23.8,237.9,23.3,237.9,22.8L237.9,22.8z"/>
<path class="st0" d="M243.8,16.4h3.2v2h0.1c0.3-0.7,0.9-1.3,1.5-1.7c0.7-0.4,1.5-0.6,2.3-0.6c0.2,0,0.4,0,0.6,0.1
	c0.2,0,0.4,0.1,0.6,0.1v3.1c-0.3-0.1-0.5-0.1-0.8-0.2c-0.3,0-0.5-0.1-0.8-0.1c-0.6,0-1.3,0.1-1.8,0.4c-0.4,0.2-0.8,0.6-1,1
	c-0.2,0.3-0.4,0.7-0.5,1.1c-0.1,0.3-0.1,0.5-0.1,0.8v6.9h-3.2V16.4z"/>
<path class="st0" d="M253.4,12c0-0.5,0.2-1,0.6-1.4c0.4-0.4,0.9-0.6,1.5-0.6c0.6,0,1.1,0.2,1.5,0.6c0.8,0.7,0.8,1.9,0.1,2.7
	c0,0-0.1,0.1-0.1,0.1c-0.4,0.4-0.9,0.6-1.5,0.6c-0.5,0-1.1-0.2-1.5-0.6C253.6,13,253.4,12.5,253.4,12z M253.8,16.4h3.2v12.9h-3.2
	V16.4z"/>
<path class="st0" d="M267.4,19.9c-0.6-0.8-1.5-1.3-2.5-1.3c-0.4,0-0.9,0.1-1.3,0.3c-0.4,0.2-0.6,0.6-0.6,1c0,0.4,0.2,0.7,0.5,0.9
	c0.4,0.2,0.8,0.4,1.3,0.5c0.5,0.1,1.1,0.3,1.7,0.4c0.6,0.1,1.2,0.3,1.7,0.6c0.5,0.3,1,0.7,1.3,1.1c0.4,0.6,0.5,1.3,0.5,2
	c0,0.7-0.1,1.4-0.5,1.9c-0.3,0.5-0.8,1-1.3,1.3c-0.6,0.3-1.2,0.6-1.8,0.7c-0.7,0.1-1.3,0.2-2,0.2c-0.9,0-1.9-0.1-2.8-0.4
	c-0.9-0.3-1.7-0.8-2.2-1.6l2.1-2c0.4,0.4,0.8,0.8,1.3,1.1c0.5,0.3,1.1,0.5,1.7,0.4c0.2,0,0.5,0,0.7-0.1c0.2-0.1,0.5-0.1,0.7-0.3
	c0.2-0.1,0.4-0.3,0.5-0.5c0.4-0.5,0.2-1.3-0.3-1.7c-0.4-0.2-0.8-0.4-1.3-0.5c-0.5-0.1-1.1-0.3-1.7-0.4c-0.6-0.1-1.2-0.3-1.7-0.6
	c-0.5-0.3-1-0.6-1.3-1.1c-0.4-0.6-0.5-1.3-0.5-1.9c0-0.7,0.1-1.3,0.4-1.9c0.3-0.5,0.7-1,1.2-1.3c0.5-0.3,1.1-0.6,1.7-0.8
	c1.5-0.4,3-0.3,4.5,0.2c0.8,0.3,1.5,0.8,2,1.5L267.4,19.9z"/>
<path class="st0" d="M274.7,23.9c0.1,0.9,0.5,1.7,1.1,2.2c0.7,0.5,1.5,0.8,2.3,0.8c0.7,0,1.4-0.1,2-0.5c0.5-0.3,1-0.8,1.4-1.2
	l2.3,1.7c-0.7,0.9-1.5,1.5-2.5,2c-0.9,0.4-1.9,0.6-2.9,0.6c-0.9,0-1.9-0.2-2.7-0.5c-0.8-0.3-1.6-0.8-2.2-1.4
	c-0.6-0.6-1.1-1.3-1.5-2.1c-0.7-1.8-0.7-3.8,0-5.6c0.3-0.8,0.9-1.5,1.5-2.1c0.6-0.6,1.4-1.1,2.2-1.4c0.9-0.3,1.8-0.5,2.7-0.5
	c0.8,0,1.7,0.1,2.5,0.5c0.7,0.3,1.4,0.8,1.9,1.4c0.6,0.6,1,1.4,1.2,2.2c0.3,1,0.5,2,0.4,3v0.9L274.7,23.9z M281.3,21.5
	c0-0.8-0.3-1.7-0.9-2.2c-0.6-0.5-1.4-0.8-2.4-0.8c-0.8,0-1.7,0.3-2.3,0.8c-0.6,0.6-1,1.4-1,2.2L281.3,21.5z"/>
</svg>
