<?xml version="1.0" encoding="utf-8"?>
<!-- Generator: Adobe Illustrator 26.0.2, SVG Export Plug-In . SVG Version: 6.00 Build 0)  -->
<svg version="1.1" id="Layer_1" xmlns="http://www.w3.org/2000/svg" xmlns:xlink="http://www.w3.org/1999/xlink" x="0px" y="0px"
	 viewBox="0 0 244 39.7" style="enable-background:new 0 0 244 39.7;" xml:space="preserve">
<style type="text/css">
	.st0{fill:#FFFFFF;}
	.st1{fill:#00A7B5;}
</style>
<path class="st0" d="M59.5,20.3c-0.6-0.4-1.2-0.7-1.8-1c-0.7-0.3-1.3-0.5-2-0.7c-0.5-0.2-1.1-0.4-1.6-0.5c-0.5-0.2-0.9-0.4-1.3-0.7
	c-0.4-0.3-0.7-0.6-0.9-1c-0.3-0.5-0.4-1-0.4-1.5c0-0.6,0.1-1.1,0.4-1.6c0.2-0.4,0.6-0.8,1-1.1c0.4-0.3,0.8-0.5,1.3-0.7
	c0.5-0.1,1-0.2,1.4-0.2c0.8,0,1.6,0.2,2.4,0.5c0.6,0.3,1.2,0.8,1.6,1.4L61,12c-0.6-0.7-1.3-1.3-2.1-1.6c-1-0.5-2.2-0.7-3.3-0.7
	c-0.7,0-1.4,0.1-2.1,0.3c-0.7,0.2-1.4,0.5-2,0.9c-0.6,0.4-1.1,1-1.5,1.6c-0.7,1.4-0.7,3.1-0.1,4.6c0.3,0.6,0.7,1.1,1.2,1.5
	c0.5,0.4,1.1,0.7,1.7,1c0.6,0.3,1.2,0.5,1.9,0.7c0.6,0.2,1.2,0.4,1.8,0.6c0.5,0.2,1,0.4,1.5,0.7c0.4,0.3,0.8,0.7,1,1.1
	c0.5,1,0.5,2.2,0,3.3c-0.3,0.5-0.6,0.8-1,1.2c-0.4,0.3-0.9,0.6-1.4,0.7c-0.5,0.1-1,0.2-1.5,0.2c-0.9,0-1.8-0.2-2.6-0.7
	c-0.7-0.4-1.3-1-1.7-1.7L49,26.9c0.3,0.5,0.7,0.9,1.2,1.2c0.4,0.4,0.9,0.7,1.5,0.9c0.5,0.2,1.1,0.4,1.7,0.5c0.6,0.1,1.2,0.2,1.7,0.2
	c0.8,0,1.5-0.1,2.3-0.3c0.7-0.2,1.4-0.5,2-1c0.6-0.5,1.1-1.1,1.4-1.7c0.4-0.8,0.6-1.6,0.5-2.5c0-0.8-0.1-1.6-0.5-2.4
	C60.5,21.3,60,20.8,59.5,20.3"/>
<path class="st0" d="M67.2,13h-1.8v3.6h-2.6v1.5h2.6v7.9c0,0.6,0.1,1.2,0.3,1.7c0.2,0.4,0.5,0.8,0.8,1c0.3,0.2,0.7,0.4,1.1,0.5
	c0.4,0.1,0.7,0.1,1.1,0.1c0.4,0,0.8,0,1.2-0.1c0.3-0.1,0.7-0.2,1-0.3l-0.1-1.6c-0.3,0.1-0.5,0.2-0.8,0.3c-0.3,0.1-0.5,0.1-0.8,0.1
	c-0.3,0-0.5,0-0.8-0.1c-0.2-0.1-0.4-0.2-0.6-0.4c-0.2-0.2-0.3-0.4-0.4-0.7c-0.1-0.4-0.1-0.8-0.1-1.2v-7.4h3.6v-1.5h-3.6V13z"/>
<path class="st0" d="M82.2,23.9c0,0.5-0.1,1.1-0.3,1.6c-0.2,0.5-0.4,0.9-0.8,1.3c-0.4,0.4-0.8,0.7-1.3,0.9c-0.5,0.2-1.1,0.4-1.7,0.3
	c-0.4,0-0.7,0-1.1-0.1c-0.3-0.1-0.7-0.2-1-0.4c-0.3-0.2-0.5-0.4-0.7-0.7c-0.2-0.3-0.3-0.7-0.3-1.1c0-0.5,0.2-1.1,0.6-1.4
	c0.4-0.4,1-0.7,1.5-0.8c0.7-0.2,1.4-0.3,2.1-0.4c0.8-0.1,1.5-0.1,2.3-0.1h0.5L82.2,23.9z M83.9,26.5v-5.6c0-0.7-0.1-1.4-0.4-2
	c-0.2-0.6-0.6-1-1.1-1.4c-0.5-0.4-1-0.7-1.6-0.8c-0.6-0.2-1.3-0.3-1.9-0.3c-1,0-2,0.2-2.9,0.5c-0.8,0.3-1.5,0.7-2.1,1.3l1,1.2
	c0.5-0.5,1-0.8,1.7-1.1c0.7-0.3,1.4-0.4,2.1-0.4c1.1,0,1.9,0.3,2.5,0.8c0.6,0.5,0.9,1.4,0.9,2.4v0.4c-1.2,0-2.3,0-3.3,0.1
	c-1,0.1-1.9,0.2-2.9,0.5c-0.8,0.2-1.5,0.7-2,1.3c-0.5,0.6-0.7,1.3-0.7,2.3c0,0.6,0.1,1.2,0.4,1.8c0.3,0.5,0.6,0.9,1.1,1.2
	c0.4,0.3,0.9,0.5,1.4,0.7c0.5,0.1,1,0.2,1.5,0.2c0.9,0,1.8-0.2,2.6-0.6c0.8-0.4,1.5-1.1,2-1.8h0.1c0,0.4,0,0.7,0.1,1.1
	c0,0.4,0.1,0.7,0.1,1h1.7C84.1,28.9,84,28.4,84,28C83.9,27.5,83.9,26.9,83.9,26.5"/>
<path class="st0" d="M93.4,16.3c-1.7,0-3.3,1-4.1,2.5h-0.1c0-0.3,0-0.6,0-1c0-0.4,0-0.8-0.1-1.1h-1.8c0,0.4,0.1,0.9,0.1,1.5
	c0,0.5,0,1,0,1.3v9.9h1.8v-6.5c0-0.7,0.1-1.5,0.3-2.2c0.2-0.5,0.4-1,0.8-1.5c0.3-0.4,0.7-0.7,1.2-0.8c0.4-0.2,0.9-0.3,1.4-0.3
	c0.3,0,0.5,0,0.8,0.1c0.2,0,0.4,0.1,0.5,0.1l0.2-1.8c-0.2-0.1-0.4-0.1-0.6-0.1C93.8,16.3,93.6,16.3,93.4,16.3"/>
<path class="st0" d="M108.4,24.9c-0.2,0.6-0.5,1.2-0.9,1.6c-0.4,0.5-0.9,0.8-1.5,1.1c-0.6,0.3-1.3,0.4-2,0.4c-2,0-3.8-1.2-4.5-3.1
	c-0.5-1.3-0.5-2.7,0-4c0.2-0.6,0.6-1.2,1-1.6c0.4-0.5,1-0.8,1.5-1.1c0.6-0.3,1.3-0.4,2-0.4c0.7,0,1.4,0.1,2,0.4
	c0.6,0.3,1.1,0.6,1.5,1.1c0.4,0.5,0.7,1,0.9,1.6C108.9,22.3,108.9,23.7,108.4,24.9 M108.9,18.2c-0.6-0.6-1.3-1.1-2.1-1.4
	c-0.9-0.4-1.8-0.5-2.7-0.5c-0.9,0-1.8,0.2-2.7,0.6c-0.9,0.4-1.6,1.1-2.1,1.9h-0.1v-10h-1.8v20.5h1.8v-2.1h0.1
	c0.5,0.8,1.3,1.4,2.1,1.8c0.8,0.4,1.8,0.6,2.7,0.6c0.9,0,1.8-0.2,2.7-0.5c0.8-0.3,1.5-0.8,2.1-1.4c0.6-0.6,1-1.3,1.3-2.1
	c0.6-1.7,0.6-3.6,0-5.3C109.9,19.5,109.5,18.8,108.9,18.2"/>
<path class="st0" d="M123.9,26.5v-9.9h-1.8v6.5c0,0.7-0.1,1.5-0.3,2.2c-0.2,0.6-0.5,1.1-0.9,1.5c-0.3,0.4-0.8,0.7-1.2,0.9
	c-0.4,0.2-0.9,0.3-1.4,0.3c-0.6,0-1.1-0.1-1.7-0.3c-0.4-0.2-0.8-0.5-1.1-0.9c-0.3-0.4-0.5-0.9-0.6-1.4c-0.1-0.6-0.2-1.2-0.2-1.8v-7
	h-1.8v7.8c0,1.6,0.4,2.8,1.2,3.8c0.8,1,2,1.4,3.6,1.4c0.9,0,1.8-0.2,2.6-0.7c0.8-0.4,1.4-1,1.8-1.8h0.1c0,0.3,0,0.6,0,1
	c0,0.4,0,0.8,0.1,1.1h1.8c0-0.4-0.1-0.9-0.1-1.5C123.9,27.3,123.9,26.8,123.9,26.5"/>
<path class="st0" d="M133.1,16.3c-1.7,0-3.3,1-4.1,2.5h-0.1c0-0.3,0-0.6,0-1c0-0.4,0-0.8-0.1-1.1h-1.8c0,0.4,0.1,0.9,0.1,1.5
	c0,0.5,0,1,0,1.3v9.9h1.8v-6.5c0-0.7,0.1-1.5,0.3-2.2c0.2-0.5,0.4-1,0.8-1.5c0.3-0.4,0.7-0.7,1.2-0.8c0.4-0.2,0.9-0.3,1.4-0.3
	c0.3,0,0.5,0,0.8,0.1c0.2,0,0.4,0.1,0.5,0.1l0.2-1.8c-0.2-0.1-0.4-0.1-0.6-0.1C133.5,16.3,133.3,16.3,133.1,16.3"/>
<path class="st0" d="M140.7,22c-0.8-0.1-1.6-0.4-2.3-0.8c-0.5-0.3-0.8-0.8-0.7-1.4c0-0.3,0.1-0.6,0.2-0.9c0.2-0.3,0.4-0.5,0.6-0.6
	c0.3-0.2,0.6-0.3,0.9-0.4c0.3-0.1,0.6-0.1,1-0.1c0.7,0,1.3,0.2,1.9,0.5c0.5,0.3,1,0.8,1.2,1.3l1.4-1.1c-0.4-0.7-1.1-1.3-1.9-1.7
	c-0.8-0.4-1.7-0.6-2.6-0.6c-0.6,0-1.1,0.1-1.7,0.2c-0.5,0.1-1,0.4-1.4,0.7c-0.4,0.3-0.8,0.7-1,1.1c-0.3,0.5-0.4,1.1-0.4,1.7
	c0,0.5,0.1,1,0.4,1.5c0.2,0.4,0.5,0.7,0.9,1c0.4,0.3,0.8,0.5,1.2,0.6c0.4,0.1,0.8,0.2,1.2,0.3c1,0.2,1.9,0.5,2.8,0.9
	c0.6,0.3,1,0.9,1,1.5c0,0.4-0.1,0.7-0.2,1c-0.2,0.3-0.4,0.5-0.6,0.7c-0.3,0.2-0.6,0.3-1,0.4c-0.4,0.1-0.7,0.1-1.1,0.1
	c-1.4,0-2.8-0.7-3.5-2l-1.5,1.1c0.5,0.8,1.3,1.5,2.2,1.9c0.9,0.4,1.8,0.6,2.8,0.6c0.6,0,1.2-0.1,1.7-0.2c0.5-0.1,1.1-0.4,1.5-0.7
	c0.5-0.3,0.8-0.7,1.1-1.2c0.3-0.6,0.4-1.2,0.4-1.8c0-0.9-0.4-1.8-1.1-2.4C143.3,22.7,142.2,22.3,140.7,22"/>
<path class="st0" d="M154.9,18.2v-1.5h-3.6V13h-1.8v3.6h-2.6v1.5h2.6v7.9c0,0.6,0.1,1.2,0.3,1.7c0.2,0.4,0.5,0.8,0.8,1
	c0.3,0.2,0.7,0.4,1.1,0.5c0.4,0.1,0.7,0.1,1.1,0.1c0.4,0,0.8,0,1.2-0.1c0.3-0.1,0.7-0.2,1-0.3l-0.1-1.6c-0.3,0.1-0.5,0.2-0.8,0.3
	c-0.3,0.1-0.5,0.1-0.8,0.1c-0.3,0-0.5,0-0.8-0.1c-0.2-0.1-0.4-0.2-0.6-0.4c-0.2-0.2-0.3-0.4-0.4-0.7c-0.1-0.4-0.1-0.8-0.1-1.2v-7.4
	H154.9z"/>
<path class="st1" d="M26.1,18.1L19.8,0h0c-1,0-1.9,0.1-2.8,0.2l8.7,18.1C25.8,18.2,26,18.2,26.1,18.1"/>
<path class="st1" d="M24.7,18.9L10.1,2.5C9.2,3,8.4,3.6,7.6,4.3l16.9,15C24.5,19.2,24.6,19,24.7,18.9"/>
<path class="st1" d="M23.8,20.2L2.6,10c-0.5,0.9-1,1.9-1.4,2.9l22.3,7.8C23.6,20.5,23.7,20.4,23.8,20.2"/>
<path class="st1" d="M23.3,22c0-0.1,0-0.2,0-0.2L0,20.5c0,1.1,0.1,2.1,0.3,3.1l23-1.3C23.3,22.2,23.3,22.1,23.3,22"/>
<path class="st1" d="M23.6,23.4L3.1,30.5c0.5,0.8,1.2,1.7,1.8,2.4l18.8-9.1C23.7,23.7,23.6,23.6,23.6,23.4"/>
<path class="st1" d="M24.4,24.8l-14,12.5c0.8,0.4,1.7,0.8,2.5,1.1l11.8-13.3C24.6,25,24.5,24.9,24.4,24.8"/>
<path class="st1" d="M25.7,25.8L19,39.6c0.3,0,0.5,0,0.8,0c0.5,0,1.1,0,1.6-0.1L26.1,26C26,25.9,25.8,25.9,25.7,25.8"/>
<path class="st0" d="M27.5,26.2c-0.1,0-0.2,0-0.2,0l-0.7,12.3c0.6-0.2,1.2-0.5,1.8-0.8l-0.7-11.5C27.7,26.2,27.6,26.2,27.5,26.2"/>
<path class="st0" d="M30.3,25.2l5.6,6.3c0.3-0.4,0.6-0.8,0.8-1.2l-6.1-5.4C30.5,24.9,30.4,25,30.3,25.2"/>
<path class="st0" d="M31.7,21.8c0,0.1,0,0.2,0,0.2c0,0.1,0,0.2,0,0.2l7.8,0.4c0.1-0.5,0.1-0.9,0.2-1.4L31.7,21.8z"/>
<path class="st0" d="M30.6,19.3l7.6-6.8c-0.2-0.6-0.5-1.1-0.7-1.6l-7.2,8.1C30.4,19,30.5,19.2,30.6,19.3"/>
<path class="st0" d="M27.3,17.9c0.1,0,0.2,0,0.2,0c0.1,0,0.2,0,0.2,0l0.9-15.8c-0.8-0.4-1.5-0.7-2.4-1L27.3,17.9z"/>
<path class="st0" d="M28.9,26l3.3,9.4c0.4-0.3,0.9-0.7,1.3-1.1l-4.1-8.5C29.2,25.9,29,25.9,28.9,26"/>
<path class="st0" d="M31.2,23.9l7,3.4c0.2-0.4,0.3-0.8,0.5-1.3l-7.2-2.5C31.4,23.6,31.3,23.7,31.2,23.9"/>
<path class="st0" d="M31.4,20.7l8.1-2.8c-0.1-0.5-0.1-1-0.2-1.5l-8.1,3.9C31.3,20.4,31.4,20.5,31.4,20.7"/>
<path class="st0" d="M34.8,6.9c-0.5-0.5-1-1.1-1.5-1.6l-4.4,12.8c0.2,0.1,0.3,0.1,0.4,0.2L34.8,6.9z"/>
<path class="st0" d="M178,27.9c-2.4,1.3-5.1,1.9-7.9,1.9c-1.4,0-2.8-0.2-4-0.7c-2.4-0.9-4.3-2.8-5.3-5.1c-0.5-1.3-0.8-2.7-0.8-4.1
	c0-1.4,0.2-2.8,0.8-4.2c0.5-1.2,1.2-2.3,2.1-3.2c0.9-0.9,2-1.6,3.2-2c1.3-0.5,2.7-0.7,4-0.7c1.4,0,2.8,0.2,4.1,0.5
	c1.3,0.3,2.4,1,3.4,1.9l-2.5,2.5c-0.6-0.6-1.4-1.1-2.2-1.4c-0.9-0.3-1.8-0.5-2.8-0.5c-0.9,0-1.8,0.2-2.7,0.5
	c-0.8,0.3-1.5,0.8-2.1,1.5c-0.6,0.6-1,1.4-1.3,2.2c-0.3,0.9-0.5,1.8-0.5,2.7c0,1,0.1,1.9,0.5,2.8c0.3,0.8,0.7,1.6,1.3,2.2
	c0.6,0.6,1.3,1.1,2.1,1.5c0.8,0.4,1.8,0.5,2.7,0.5c0.8,0,1.6-0.1,2.4-0.2c0.7-0.1,1.4-0.4,2-0.8v-4.5h-3.9v-3.1h7.3V27.9z"/>
<path class="st0" d="M189.7,27.5L189.7,27.5c-0.5,0.7-1.1,1.3-1.9,1.6c-0.7,0.3-1.5,0.5-2.4,0.5c-0.6,0-1.2-0.1-1.7-0.2
	c-0.5-0.1-1.1-0.4-1.5-0.7c-0.4-0.3-0.8-0.7-1.1-1.2c-0.3-0.5-0.4-1.1-0.4-1.7c0-0.6,0.1-1.2,0.4-1.8c0.2-0.5,0.6-0.9,1-1.2
	c0.4-0.3,0.9-0.6,1.5-0.8c0.6-0.2,1.1-0.3,1.7-0.4c0.6-0.1,1.2-0.2,1.8-0.2c0.6,0,1.2,0,1.7,0h0.8v-0.3c0-0.7-0.3-1.4-0.8-1.8
	c-0.6-0.4-1.4-0.6-2.1-0.6c-0.7,0-1.3,0.1-1.9,0.4c-0.6,0.2-1.1,0.6-1.5,1l-1.7-1.7c0.7-0.7,1.6-1.3,2.5-1.6c1-0.3,2-0.5,3-0.5
	c0.8,0,1.6,0.1,2.3,0.3c0.6,0.2,1.1,0.4,1.6,0.8c0.4,0.3,0.7,0.7,1,1.1c0.2,0.4,0.4,0.8,0.5,1.3c0.1,0.4,0.2,0.8,0.2,1.2
	c0,0.4,0,0.8,0,1.1v7.4h-2.9V27.5z M189.5,23.5h-0.7c-0.4,0-1,0-1.5,0.1c-0.5,0-1.1,0.1-1.6,0.3c-0.5,0.1-0.9,0.3-1.2,0.6
	c-0.3,0.3-0.5,0.7-0.5,1.1c0,0.3,0.1,0.5,0.2,0.8c0.1,0.2,0.3,0.4,0.5,0.5c0.2,0.1,0.5,0.3,0.7,0.3c0.3,0.1,0.5,0.1,0.8,0.1
	c1.1,0,1.9-0.3,2.5-0.8c0.5-0.6,0.8-1.4,0.8-2.2L189.5,23.5z"/>
<path class="st0" d="M196.2,8.9h3.2v20.3h-3.2V8.9z"/>
<path class="st0" d="M211.1,27.5L211.1,27.5c-0.5,0.7-1.1,1.3-1.9,1.6c-0.7,0.3-1.5,0.5-2.4,0.5c-0.6,0-1.2-0.1-1.7-0.2
	c-0.5-0.1-1.1-0.4-1.5-0.7c-0.4-0.3-0.8-0.7-1.1-1.2c-0.3-0.5-0.4-1.1-0.4-1.7c0-0.6,0.1-1.2,0.4-1.8c0.2-0.5,0.6-0.9,1-1.2
	c0.4-0.3,0.9-0.6,1.5-0.8c0.6-0.2,1.1-0.3,1.7-0.4c0.6-0.1,1.2-0.2,1.8-0.2c0.6,0,1.2,0,1.7,0h0.8v-0.3c0-0.7-0.3-1.4-0.8-1.8
	c-0.6-0.4-1.4-0.6-2.1-0.6c-0.7,0-1.3,0.1-1.9,0.4c-0.6,0.2-1.1,0.6-1.5,1l-1.7-1.7c0.7-0.7,1.6-1.3,2.5-1.6c1-0.3,2-0.5,3-0.5
	c0.8,0,1.6,0.1,2.3,0.3c0.6,0.2,1.1,0.4,1.6,0.8c0.4,0.3,0.7,0.7,1,1.1c0.2,0.4,0.4,0.8,0.5,1.3c0.1,0.4,0.2,0.8,0.2,1.2
	c0,0.4,0,0.8,0,1.1v7.4h-2.9V27.5z M211,23.5h-0.7c-0.4,0-0.9,0-1.5,0.1c-0.5,0-1.1,0.1-1.6,0.3c-0.5,0.1-0.9,0.3-1.2,0.6
	c-0.3,0.3-0.5,0.7-0.5,1.1c0,0.3,0.1,0.5,0.2,0.8c0.1,0.2,0.3,0.4,0.5,0.5c0.2,0.1,0.5,0.3,0.7,0.3c0.3,0.1,0.5,0.1,0.8,0.1
	c1.1,0,1.9-0.3,2.5-0.8c0.5-0.6,0.8-1.4,0.8-2.2L211,23.5z"/>
<path class="st0" d="M220.8,22.3l-4.5-6h3.9l2.6,3.9l2.8-3.9h3.7l-4.4,6l5.2,6.9h-3.9l-3.4-4.6l-3.4,4.6h-3.8L220.8,22.3z"/>
<path class="st0" d="M230.2,16.4h3.5l3.6,8.9h0l3.2-8.9h3.4L237.9,32c-0.2,0.6-0.5,1.1-0.8,1.6c-0.3,0.4-0.6,0.8-1,1.2
	c-0.4,0.3-0.8,0.6-1.3,0.7c-0.6,0.2-1.2,0.2-1.8,0.2c-0.8,0-1.7-0.1-2.5-0.3l0.4-2.9c0.3,0.1,0.5,0.2,0.8,0.2
	c0.3,0.1,0.6,0.1,0.8,0.1c0.3,0,0.7,0,1-0.1c0.5-0.1,0.9-0.5,1.2-0.9c0.1-0.2,0.3-0.5,0.4-0.9l0.6-1.5L230.2,16.4z"/>
</svg>
