<svg xmlns="http://www.w3.org/2000/svg" viewBox="0 0 867.48 141.1"><defs><style>.cls-1{fill:#fff;}.cls-2{fill:#00b6c9;}</style></defs><g id="Layer_2" data-name="Layer 2"><g id="Layer_1-2" data-name="Layer 1"><path class="cls-1" d="M211.42,72.31a25.78,25.78,0,0,0-6.49-3.52c-2.4-.9-4.79-1.73-7.16-2.51-1.92-.64-3.77-1.28-5.53-1.92a19.1,19.1,0,0,1-4.71-2.46,11.89,11.89,0,0,1-3.31-3.62A10.41,10.41,0,0,1,183,52.89a11.75,11.75,0,0,1,1.3-5.69,12.17,12.17,0,0,1,3.42-4,14.74,14.74,0,0,1,4.72-2.36,17.76,17.76,0,0,1,5.11-.77,17.42,17.42,0,0,1,8.39,1.87,16.78,16.78,0,0,1,5.69,5l5.49-4.43a20.33,20.33,0,0,0-7.42-5.84,26.4,26.4,0,0,0-11.86-2.46,28.91,28.91,0,0,0-7.61,1.06,21.64,21.64,0,0,0-7,3.38A17.87,17.87,0,0,0,178,44.5,17.34,17.34,0,0,0,176,53a17.33,17.33,0,0,0,1.59,7.81,16.54,16.54,0,0,0,4.19,5.35,22.4,22.4,0,0,0,5.88,3.52c2.19.9,4.4,1.7,6.65,2.41s4.28,1.41,6.27,2.12a22.83,22.83,0,0,1,5.3,2.65,12.48,12.48,0,0,1,3.71,4,12.86,12.86,0,0,1,0,11.67,13.72,13.72,0,0,1-3.57,4.14,14.78,14.78,0,0,1-4.86,2.51,18.48,18.48,0,0,1-5.3.82,17.57,17.57,0,0,1-9.4-2.46,18.32,18.32,0,0,1-6.22-6.12l-6,4.43a23.18,23.18,0,0,0,4.24,4.44,24.4,24.4,0,0,0,5.21,3.18,28.22,28.22,0,0,0,5.88,1.88,30.75,30.75,0,0,0,6.17.62,28.9,28.9,0,0,0,8.05-1.15,21,21,0,0,0,7.11-3.57,18.1,18.1,0,0,0,7-14.94,17.38,17.38,0,0,0-1.83-8.44,17.19,17.19,0,0,0-4.71-5.49"/><path class="cls-1" d="M238.93,46.33h-6.55V59.06H223v5.49h9.35V92.7a14,14,0,0,0,1.11,6.07,9.93,9.93,0,0,0,2.84,3.67,9.75,9.75,0,0,0,3.76,1.83,16.7,16.7,0,0,0,3.86.48,23.66,23.66,0,0,0,4.09-.34,19.76,19.76,0,0,0,3.62-1l-.29-5.69a13.9,13.9,0,0,1-2.85,1.06,11.2,11.2,0,0,1-2.84.39,10.19,10.19,0,0,1-2.7-.34,4.7,4.7,0,0,1-2.17-1.25,6,6,0,0,1-1.4-2.56,15,15,0,0,1-.48-4.14V64.55h12.73V59.06H238.93Z"/><path class="cls-1" d="M292.24,85a16.63,16.63,0,0,1-1,5.69,14.62,14.62,0,0,1-2.79,4.77A13,13,0,0,1,284,98.72a14.9,14.9,0,0,1-6.17,1.21,16.81,16.81,0,0,1-3.81-.44,10.4,10.4,0,0,1-3.42-1.44,7.54,7.54,0,0,1-2.46-2.65,8.2,8.2,0,0,1-.92-4.05,6.57,6.57,0,0,1,2.13-5.11,14.1,14.1,0,0,1,5.44-2.94A35.54,35.54,0,0,1,282.16,82c2.74-.22,5.45-.34,8.15-.34h1.93Zm6.17,9.06V74.29a17.87,17.87,0,0,0-1.35-7.23A13.81,13.81,0,0,0,293.3,62a16.37,16.37,0,0,0-5.59-3,22.34,22.34,0,0,0-6.85-1,27.73,27.73,0,0,0-10.36,1.83,21.49,21.49,0,0,0-7.37,4.63l3.66,4.34a17.94,17.94,0,0,1,5.88-3.86,19.42,19.42,0,0,1,7.52-1.45q5.88,0,9,2.87T292.24,75v1.44c-4.11,0-8.09.14-11.91.43a41.49,41.49,0,0,0-10.16,1.94,15.86,15.86,0,0,0-7.09,4.54c-1.77,2-2.65,4.79-2.65,8.27A12.77,12.77,0,0,0,261.92,98a13.35,13.35,0,0,0,3.76,4.25,14.81,14.81,0,0,0,5,2.37,21.11,21.11,0,0,0,5.35.73,20.55,20.55,0,0,0,9.4-2,19.1,19.1,0,0,0,7-6.51h.19a37.34,37.34,0,0,0,.2,3.76c.12,1.29.29,2.48.48,3.57h5.88a37.43,37.43,0,0,1-.58-4.73c-.13-1.86-.19-3.66-.19-5.39"/><path class="cls-1" d="M332,57.9a15.78,15.78,0,0,0-8.68,2.46,15.56,15.56,0,0,0-5.78,6.41h-.19c0-1,0-2.19-.1-3.67s-.16-2.82-.29-4h-6.26c.13,1.54.22,3.27.29,5.2s.09,3.51.09,4.73v35.18h6.56V81.09a23.89,23.89,0,0,1,1.11-7.74,15.77,15.77,0,0,1,2.89-5.29,10.62,10.62,0,0,1,4.19-3,13.44,13.44,0,0,1,5-1,18.86,18.86,0,0,1,2.7.19,14,14,0,0,1,1.93.38l.87-6.26a12.18,12.18,0,0,0-2.08-.38,22.11,22.11,0,0,0-2.26-.1"/><path class="cls-1" d="M385.6,88.7a16.85,16.85,0,0,1-3.32,5.78,15.17,15.17,0,0,1-5.35,3.86,17.83,17.83,0,0,1-7.23,1.4,17.08,17.08,0,0,1-6.94-1.4,16.9,16.9,0,0,1-5.49-3.81,17.21,17.21,0,0,1-3.62-5.74,20.48,20.48,0,0,1,0-14.36,17.7,17.7,0,0,1,3.62-5.78,16.59,16.59,0,0,1,5.49-3.86,17.08,17.08,0,0,1,6.94-1.4,17.35,17.35,0,0,1,7.23,1.45,15.54,15.54,0,0,1,5.35,3.91,16.76,16.76,0,0,1,3.32,5.78,22.22,22.22,0,0,1,0,14.17m1.69-24a21.81,21.81,0,0,0-7.33-5,24.15,24.15,0,0,0-9.59-1.83,21.47,21.47,0,0,0-9.54,2.27,18.62,18.62,0,0,0-7.52,6.69h-.19V31.29h-6.55v72.88h6.55V96.55h.19a18.52,18.52,0,0,0,7.52,6.56,21.82,21.82,0,0,0,9.54,2.22A24.33,24.33,0,0,0,380,103.5a22,22,0,0,0,7.33-5A22.48,22.48,0,0,0,392,91a26.71,26.71,0,0,0,0-18.7,22.48,22.48,0,0,0-4.72-7.52"/><path class="cls-1" d="M440.66,94.24V59.06H434.1V82.19a23.75,23.75,0,0,1-1.16,7.86,15.93,15.93,0,0,1-3.08,5.49,12.35,12.35,0,0,1-4.39,3.23,12.55,12.55,0,0,1-5.06,1.06,13.48,13.48,0,0,1-5.93-1.15,9.62,9.62,0,0,1-3.76-3.23,13.63,13.63,0,0,1-2-5,32.65,32.65,0,0,1-.58-6.46v-25h-6.55V86.72q0,8.39,4.29,13.5c2.85,3.4,7.15,5.11,12.86,5.11a18.27,18.27,0,0,0,9.16-2.46,14.92,14.92,0,0,0,6.27-6.41h.19c0,1,0,2.18.1,3.66s.16,2.83.29,4H441c-.13-1.54-.22-3.28-.29-5.2s-.09-3.51-.09-4.73"/><path class="cls-1" d="M473.16,57.9a16,16,0,0,0-14.46,8.87h-.19c0-1,0-2.19-.1-3.67s-.16-2.82-.28-4h-6.27c.13,1.54.22,3.27.29,5.2s.09,3.51.09,4.73v35.18h6.56V81.09a23.89,23.89,0,0,1,1.11-7.74,15.94,15.94,0,0,1,2.89-5.29A10.69,10.69,0,0,1,467,65a13.46,13.46,0,0,1,5-1,18.72,18.72,0,0,1,2.69.19,13.7,13.7,0,0,1,1.93.38l.87-6.26a12.08,12.08,0,0,0-2.07-.38,22.45,22.45,0,0,0-2.27-.1"/><path class="cls-1" d="M500.16,78.14A25.16,25.16,0,0,1,492,75.3a5.46,5.46,0,0,1-2.6-4.87,6,6,0,0,1,.82-3.18A6.77,6.77,0,0,1,492.35,65a9.5,9.5,0,0,1,3.08-1.25,15.78,15.78,0,0,1,3.47-.39,12.65,12.65,0,0,1,6.7,1.79A11.54,11.54,0,0,1,510,69.76L515,66a14.78,14.78,0,0,0-6.65-6,21,21,0,0,0-9.16-2.12,23.16,23.16,0,0,0-6,.77A16.24,16.24,0,0,0,488.06,61a11.85,11.85,0,0,0-3.62,4A12.17,12.17,0,0,0,483.1,71a10.22,10.22,0,0,0,1.25,5.3,11.32,11.32,0,0,0,3.18,3.52A14.64,14.64,0,0,0,491.72,82c1.51.48,2.94.88,4.29,1.21a44.18,44.18,0,0,1,9.88,3.32,5.72,5.72,0,0,1,3.42,5.35,7.25,7.25,0,0,1-.87,3.71A7.16,7.16,0,0,1,506.13,98a9.39,9.39,0,0,1-3.37,1.35,20.47,20.47,0,0,1-4.05.38,14.72,14.72,0,0,1-12.53-7L481,96.55a18.38,18.38,0,0,0,7.91,6.66,24.46,24.46,0,0,0,9.93,2.12,26.52,26.52,0,0,0,6.12-.73,15.58,15.58,0,0,0,5.44-2.41,13,13,0,0,0,3.91-4.33,13.17,13.17,0,0,0,1.49-6.51,10.39,10.39,0,0,0-3.8-8.44q-3.81-3.12-11.81-4.77"/><path class="cls-1" d="M550.72,64.55V59.06H538V46.33h-6.56V59.06h-9.35v5.49h9.35V92.7a14.13,14.13,0,0,0,1.11,6.07,10,10,0,0,0,2.85,3.67,9.85,9.85,0,0,0,3.75,1.83,16.83,16.83,0,0,0,3.86.48,22.74,22.74,0,0,0,4.1-.34,18.9,18.9,0,0,0,3.61-1l-.28-5.69a14.35,14.35,0,0,1-2.85,1.06,11.26,11.26,0,0,1-2.84.39,10.08,10.08,0,0,1-2.7-.34,4.79,4.79,0,0,1-2.17-1.25,5.92,5.92,0,0,1-1.4-2.56,15,15,0,0,1-.48-4.14V64.55Z"/><path class="cls-2" d="M93,64.42,70.52,0h-.08A70.26,70.26,0,0,0,60.32.81L91.38,65.06A16.64,16.64,0,0,1,93,64.42"/><path class="cls-2" d="M88,67.34,36,9a70.94,70.94,0,0,0-9.15,6.14l59.92,53.4A13.82,13.82,0,0,1,88,67.34"/><path class="cls-2" d="M84.49,72,9.23,35.57A69.43,69.43,0,0,0,4.42,45.86L83.85,73.52A16.64,16.64,0,0,1,84.49,72"/><path class="cls-2" d="M83,78.39c0-.29.07-.56.08-.85L0,72.76A71.21,71.21,0,0,0,1.2,84l81.85-4.72c0-.29-.08-.56-.08-.85"/><path class="cls-2" d="M83.85,83.26,11.09,108.6a71.43,71.43,0,0,0,6.49,8.57L84.49,84.83a16.64,16.64,0,0,1-.64-1.57"/><path class="cls-2" d="M86.77,88.23,36.93,132.65a71,71,0,0,0,9,4L88,89.44a13.82,13.82,0,0,1-1.21-1.21"/><path class="cls-2" d="M91.38,91.72,67.58,141c1,0,1.89.14,2.86.14,1.9,0,3.77-.14,5.64-.28L93,92.36a14.34,14.34,0,0,1-1.57-.64"/><path class="cls-1" d="M97.82,93.24c-.29,0-.56-.07-.85-.08l-2.52,43.66q3.38-1.23,6.58-2.77L98.67,93.16c-.29,0-.56.08-.85.08"/><path class="cls-1" d="M107.66,89.44l19.93,22.36q1.51-2.1,2.88-4.32l-21.6-19.25a13.82,13.82,0,0,1-1.21,1.21"/><path class="cls-1" d="M112.59,77.54c0,.29.08.56.08.85s-.07.57-.08.85l27.57,1.59c.23-1.62.43-3.25.56-4.91Z"/><path class="cls-1" d="M108.87,68.55l27.06-24.12c-.79-2-1.68-3.94-2.65-5.83L107.66,67.34a13.82,13.82,0,0,1,1.21,1.21"/><path class="cls-1" d="M97,63.62c.29,0,.56-.08.85-.08s.56.07.85.08l3.24-56.15a71.27,71.27,0,0,0-8.38-3.53Z"/><path class="cls-1" d="M102.69,92.36l11.62,33.38c1.56-1.24,3-2.56,4.5-3.92l-14.55-30.1a14.34,14.34,0,0,1-1.57.64"/><path class="cls-1" d="M111.15,84.83l24.74,12c.6-1.5,1.17-3,1.67-4.56l-25.77-9a14.34,14.34,0,0,1-.64,1.57"/><path class="cls-1" d="M111.79,73.53l28.84-10.05c-.18-1.83-.49-3.61-.81-5.39L111.15,72a14.5,14.5,0,0,1,.64,1.58"/><path class="cls-1" d="M123.85,24.54A71.59,71.59,0,0,0,118.5,19L102.69,64.42a16.64,16.64,0,0,1,1.57.64Z"/><path class="cls-1" d="M632.82,99.05a58.43,58.43,0,0,1-28,6.69,39.65,39.65,0,0,1-14.37-2.53,32.32,32.32,0,0,1-18.68-18.29,37.62,37.62,0,0,1-2.67-14.43,39.17,39.17,0,0,1,2.67-14.75,33.08,33.08,0,0,1,7.41-11.32,32.39,32.39,0,0,1,11.27-7.21,39.44,39.44,0,0,1,14.37-2.53,54.69,54.69,0,0,1,14.52,1.86,29.82,29.82,0,0,1,12.13,6.64l-8.88,9a22.34,22.34,0,0,0-7.88-4.88,28.08,28.08,0,0,0-9.79-1.71,23.49,23.49,0,0,0-9.51,1.86,21.62,21.62,0,0,0-7.3,5.16,23.3,23.3,0,0,0-4.73,7.68,26.29,26.29,0,0,0-1.67,9.46,29,29,0,0,0,1.67,10,23.54,23.54,0,0,0,4.73,7.93,21.85,21.85,0,0,0,7.3,5.25,23,23,0,0,0,9.51,1.91,41.91,41.91,0,0,0,8.64-.86,24.13,24.13,0,0,0,7.21-2.68v-16H606.93V64.48h25.89Z"/><path class="cls-1" d="M674.65,97.71h-.29a14.78,14.78,0,0,1-6.3,5.69,19.92,19.92,0,0,1-8.41,1.76,22.08,22.08,0,0,1-6.16-.86,16.8,16.8,0,0,1-5.35-2.57,13.34,13.34,0,0,1-3.77-4.3,12.26,12.26,0,0,1-1.43-6,13.76,13.76,0,0,1,1.34-6.35,12.9,12.9,0,0,1,3.58-4.39,18,18,0,0,1,5.2-2.82,35.89,35.89,0,0,1,6.16-1.58,55.72,55.72,0,0,1,6.45-.67q3.24-.13,6.11-.14h2.87V74.22a7.45,7.45,0,0,0-3-6.45,12.56,12.56,0,0,0-7.55-2.15,17.72,17.72,0,0,0-6.78,1.29,17.11,17.11,0,0,0-5.44,3.49l-6-6a22.14,22.14,0,0,1,8.93-5.63A32.76,32.76,0,0,1,665.38,57a26.37,26.37,0,0,1,8.22,1.1,18.2,18.2,0,0,1,5.54,2.81,12.59,12.59,0,0,1,3.39,4,18.62,18.62,0,0,1,1.72,4.53,25.46,25.46,0,0,1,.62,4.44Q685,76,685,77.66V104H674.65ZM674,83.48h-2.39c-1.59,0-3.37.07-5.35.19a28,28,0,0,0-5.58.91,12.85,12.85,0,0,0-4.45,2.1,4.6,4.6,0,0,0-1.81,3.87,4.86,4.86,0,0,0,.72,2.72A6.25,6.25,0,0,0,657,95.14a7.64,7.64,0,0,0,2.58,1.09,12.15,12.15,0,0,0,2.86.34q5.93,0,8.74-2.82A10.39,10.39,0,0,0,674,86.06Z"/><path class="cls-1" d="M697.47,31.81h11.46V104H697.47Z"/><path class="cls-1" d="M750.77,97.71h-.29a14.78,14.78,0,0,1-6.3,5.69,19.92,19.92,0,0,1-8.41,1.76,22.08,22.08,0,0,1-6.16-.86,16.8,16.8,0,0,1-5.35-2.57,13.34,13.34,0,0,1-3.77-4.3,12.26,12.26,0,0,1-1.43-6,13.76,13.76,0,0,1,1.34-6.35A12.9,12.9,0,0,1,724,80.67a18,18,0,0,1,5.2-2.82,35.89,35.89,0,0,1,6.16-1.58,55.72,55.72,0,0,1,6.45-.67q3.24-.13,6.11-.14h2.87V74.22a7.45,7.45,0,0,0-3-6.45,12.56,12.56,0,0,0-7.55-2.15,17.72,17.72,0,0,0-6.78,1.29A17,17,0,0,0,728,70.4l-6-6A22.14,22.14,0,0,1,731,58.75,32.72,32.72,0,0,1,741.5,57a26.37,26.37,0,0,1,8.22,1.1,18.2,18.2,0,0,1,5.54,2.81,12.59,12.59,0,0,1,3.39,4,18.62,18.62,0,0,1,1.72,4.53,25.46,25.46,0,0,1,.62,4.44q.09,2.16.09,3.78V104H750.77Zm-.67-14.23h-2.39c-1.59,0-3.37.07-5.35.19a28,28,0,0,0-5.58.91,12.85,12.85,0,0,0-4.45,2.1,4.6,4.6,0,0,0-1.81,3.87,4.86,4.86,0,0,0,.72,2.72,6.25,6.25,0,0,0,1.86,1.87,7.64,7.64,0,0,0,2.58,1.09,12.15,12.15,0,0,0,2.86.34q5.93,0,8.74-2.82a10.39,10.39,0,0,0,2.82-7.69Z"/><path class="cls-1" d="M785.24,79.38,769.39,58.17h13.94l9.17,13.76,9.94-13.76h13.08L799.86,79.38,818.29,104H804.35L792.41,87.59l-12,16.43H766.81Z"/><path class="cls-1" d="M818.48,58.17h12.61L843.89,90h.19l11.46-31.81h11.94L845.8,113.86a35.4,35.4,0,0,1-2.73,5.68,16.05,16.05,0,0,1-3.48,4.1,13.06,13.06,0,0,1-4.73,2.49,23.13,23.13,0,0,1-6.54.81,33.77,33.77,0,0,1-8.79-1.15L821,115.48a23.74,23.74,0,0,0,2.82.81,13.82,13.82,0,0,0,3,.34,13.61,13.61,0,0,0,3.53-.39,6.4,6.4,0,0,0,2.44-1.19,6.52,6.52,0,0,0,1.67-2.1c.45-.86.92-1.9,1.43-3.11l2.2-5.44Z"/></g></g></svg>