<svg width="540" height="60" viewBox="0 0 540 60" fill="none" xmlns="http://www.w3.org/2000/svg">
<g clip-path="url(#clip0_2_126)">
<path d="M37.1782 26.6945C37.2873 26.64 37.3964 26.5964 37.5055 26.5527L38.1709 26.3236L29.0291 0.141807L28.8982 -0.13092H28.6036C27.2291 -0.120011 25.8545 -0.0109204 24.4909 0.196352L23.9455 0.283625L36.7964 26.8582L37.1564 26.6836L37.1782 26.6945Z" fill="#00E7FF"/>
<path d="M35.4545 27.9927C35.5964 27.84 35.7491 27.6873 35.9127 27.5455L36.2182 27.2727L15.1309 3.62184L14.9127 3.38184L14.6291 3.54547C13.3309 4.27638 12.0873 5.11638 10.9091 6.04365L10.5273 6.34911L35.1818 28.32L35.4545 28.0146V27.9927Z" fill="#00E7FF"/>
<path d="M34.3745 29.8582C34.44 29.6618 34.5273 29.4655 34.6145 29.2691L34.7891 28.8982L3.94909 13.9855L3.76364 14.3127C3 15.6437 2.34545 17.0509 1.81091 18.4909L1.66909 18.8837L34.2436 30.2509L34.3745 29.8691V29.8582Z" fill="#00E7FF"/>
<path d="M34.0691 32.0073C34.0691 31.9309 34.0691 31.8545 34.0473 31.7782V31.6691C34.0473 31.6691 34.0473 31.5818 34.0582 31.5382C34.0582 31.4727 34.08 31.4073 34.08 31.3418V30.9491L0 28.9745V29.4218C0.0545455 30.9382 0.218182 32.4764 0.501818 33.9709L0.567273 34.32L34.0691 32.3891V32.0073Z" fill="#00E7FF"/>
<path d="M34.6145 34.0691C34.5273 33.8727 34.44 33.6763 34.3745 33.48L34.2436 33.0981L4.23273 43.5381L4.51636 43.9745C5.30182 45.1963 6.18545 46.3636 7.15636 47.4545L7.36364 47.6836L34.7891 34.4291L34.6145 34.0691Z" fill="#00E7FF"/>
<path d="M35.9127 35.7818C35.7491 35.64 35.6073 35.4872 35.4655 35.3345L35.1927 35.0291L14.4982 53.4654L15.0109 53.7381C16.1891 54.36 17.4218 54.9054 18.6655 55.3636L18.9273 55.4618L36.2182 36.0545L35.9127 35.7818Z" fill="#00E7FF"/>
<path d="M37.7782 36.8727C37.5818 36.8073 37.3855 36.72 37.1891 36.6327L36.8182 36.4582H36.8073L26.8255 57.12H27.4691C27.6655 57.12 27.84 57.1309 28.0255 57.1418C28.2218 57.1527 28.4182 57.1746 28.6145 57.1746C29.3891 57.1746 30.1636 57.12 30.9055 57.0655L31.1673 57.0436L38.16 37.0036L37.7673 36.8727H37.7782Z" fill="#00E7FF"/>
<path d="M39.9164 37.1673C39.84 37.1673 39.7636 37.1673 39.6873 37.1891C39.6109 37.2 39.5236 37.1891 39.4473 37.1891C39.3818 37.1891 39.3164 37.1673 39.2509 37.1673H38.8582L37.7891 55.6473L38.3673 55.44C39.2727 55.1128 40.1782 54.7309 41.04 54.3164L41.28 54.1964L40.2982 37.1673H39.9164Z" fill="white"/>
<path d="M43.7018 35.3346C43.56 35.4982 43.4073 35.64 43.2545 35.7818L42.9491 36.0546L51.5345 45.6873L51.8291 45.2727C52.2436 44.7055 52.6364 44.1164 52.9964 43.5164L53.1709 43.2218L43.9636 35.0182L43.6909 35.3236L43.7018 35.3346Z" fill="white"/>
<path d="M45.0873 30.9382V31.32C45.0873 31.3964 45.0873 31.4728 45.1091 31.5491C45.1091 31.5819 45.12 31.6255 45.12 31.6582C45.12 31.7019 45.12 31.7455 45.1091 31.7891C45.1091 31.8546 45.0873 31.92 45.0873 31.9855V32.3782L56.88 33.0546L56.9345 32.6837C57.0436 31.9419 57.1091 31.2873 57.1636 30.6982L57.1964 30.2291L45.0873 30.9273V30.9382Z" fill="white"/>
<path d="M43.2436 27.5455C43.4073 27.6873 43.5491 27.84 43.6909 27.9928L43.9636 28.2982L55.3091 18.1855L55.2 17.9237C54.8945 17.1382 54.5346 16.3419 54.12 15.5564L53.8473 15.0328L42.9273 27.2837L43.2327 27.5564L43.2436 27.5455Z" fill="white"/>
<path d="M39.2509 26.16C39.3273 26.16 39.4036 26.16 39.48 26.1382C39.5564 26.1273 39.6436 26.1382 39.72 26.1382C39.7855 26.1382 39.8509 26.16 39.9164 26.16H40.3091L41.64 3.03275L41.4 2.91275C40.2982 2.36729 39.1527 1.87638 37.9964 1.48366L37.4182 1.28729L38.8473 26.1709H39.2291L39.2509 26.16Z" fill="white"/>
<path d="M41.9782 36.6327C41.7927 36.72 41.5964 36.8073 41.3891 36.8727L41.0073 37.0036L45.9818 51.2946L46.4291 50.9346C47.0509 50.4436 47.6073 49.9309 48.1964 49.3964L48.48 49.1455L42.3491 36.4582L41.9891 36.6327H41.9782Z" fill="white"/>
<path d="M44.7818 33.48C44.7164 33.6764 44.6291 33.8727 44.5418 34.0691L44.3673 34.4291L55.0255 39.6L55.1891 39.1964C55.3855 38.7055 55.6473 38.04 55.8655 37.3418L55.9855 36.96L44.9127 33.0873L44.7818 33.48Z" fill="white"/>
<path d="M44.5527 29.2582C44.64 29.4436 44.7273 29.64 44.7927 29.8473L44.9236 30.24L57.1636 26.0073L57.1309 25.6909C57.0545 24.9491 56.9345 24.2291 56.8036 23.4982L56.7055 22.9745L44.3782 28.8982L44.5527 29.2691V29.2582Z" fill="white"/>
<path d="M41.3891 26.4546C41.5855 26.52 41.7818 26.6073 41.9782 26.6946L42.3382 26.8691L50.4764 10.0473L50.3018 9.84003C49.6255 9.05457 48.8946 8.30184 48.1309 7.59275L47.6727 7.1673L41.0073 26.3128L41.3891 26.4437V26.4546Z" fill="white"/>
<path d="M75.6218 38.8909C76.5382 40.2655 77.7164 41.2909 79.1455 41.9346C80.5746 42.5891 82.0473 42.9164 83.5745 42.9164C84.4255 42.9164 85.2873 42.7855 86.1709 42.5127C87.0545 42.2509 87.8618 41.8473 88.5818 41.3236C89.3018 40.8 89.9018 40.1455 90.36 39.36C90.8182 38.5855 91.0473 37.68 91.0473 36.6546C91.0473 35.2036 90.5891 34.1018 89.6727 33.3382C88.7564 32.5746 87.6109 31.9418 86.2473 31.4291C84.8836 30.9164 83.4 30.4255 81.7964 29.9455C80.1818 29.4655 78.6982 28.8 77.3455 27.96C75.9818 27.1091 74.8473 25.9746 73.92 24.5346C73.0036 23.1055 72.5455 21.1636 72.5455 18.7309C72.5455 17.64 72.7855 16.4727 73.2655 15.2291C73.7455 13.9964 74.4982 12.8618 75.5127 11.8364C76.5273 10.8109 77.8582 9.96001 79.4618 9.26183C81.0764 8.57455 83.0073 8.22546 85.2655 8.22546C87.3164 8.22546 89.28 8.5091 91.1564 9.07637C93.0327 9.64365 94.6691 10.7891 96.0873 12.5236L91.9527 16.2873C91.32 15.2946 90.4145 14.4982 89.2473 13.8982C88.08 13.2982 86.7491 13.0036 85.2655 13.0036C83.7818 13.0036 82.68 13.1891 81.7418 13.56C80.8036 13.9309 80.0509 14.4109 79.4946 14.9891C78.9273 15.5782 78.5345 16.2 78.3055 16.8764C78.0764 17.5527 77.9564 18.1636 77.9564 18.7309C77.9564 20.3236 78.4145 21.5455 79.3309 22.3855C80.2473 23.2364 81.3927 23.9236 82.7564 24.4473C84.12 24.9709 85.6036 25.4509 87.2073 25.8764C88.8218 26.3018 90.3055 26.8909 91.6582 27.6546C93.0218 28.4182 94.1564 29.4436 95.0836 30.7309C96 32.0182 96.4582 33.7964 96.4582 36.0655C96.4582 37.8655 96.1091 39.4909 95.4218 40.9418C94.7345 42.3927 93.8073 43.6146 92.64 44.5964C91.4727 45.5891 90.0982 46.3418 88.5055 46.8764C86.9127 47.4 85.2218 47.6727 83.4109 47.6727C81.0109 47.6727 78.7309 47.2473 76.5709 46.4073C74.4109 45.5564 72.6982 44.2473 71.4218 42.48L75.6109 38.8691L75.6218 38.8909Z" fill="white"/>
<path d="M116.236 25.7345H109.396V37.1345C109.396 37.8436 109.418 38.5418 109.451 39.2291C109.484 39.9164 109.615 40.5382 109.844 41.0836C110.073 41.6291 110.422 42.0764 110.902 42.4036C111.382 42.7418 112.08 42.9054 112.996 42.9054C113.564 42.9054 114.142 42.8509 114.742 42.7418C115.342 42.6327 115.887 42.4473 116.389 42.1527V46.5054C115.822 46.8218 115.091 47.04 114.185 47.1709C113.291 47.2909 112.582 47.3564 112.091 47.3564C110.247 47.3564 108.829 47.0945 107.825 46.5927C106.822 46.08 106.08 45.4145 105.6 44.6073C105.12 43.8 104.836 42.8836 104.749 41.88C104.662 40.8764 104.618 39.8618 104.618 38.8364V25.7345H99.0982V21.6H104.618V14.5418H109.396V21.6H116.236V25.7345Z" fill="white"/>
<path d="M122.498 24.6763C123.84 23.4436 125.4 22.5163 127.167 21.8945C128.935 21.2727 130.702 20.9672 132.469 20.9672C134.236 20.9672 135.895 21.1963 137.215 21.6545C138.545 22.1127 139.625 22.7345 140.476 23.509C141.327 24.2836 141.949 25.1781 142.353 26.1818C142.756 27.1854 142.964 28.2436 142.964 29.3345V42.1636C142.964 43.0472 142.985 43.8654 143.018 44.6072C143.051 45.349 143.105 46.0581 143.182 46.7236H138.938C138.829 45.4472 138.775 44.1818 138.775 42.9054H138.665C137.607 44.5309 136.353 45.6763 134.902 46.3527C133.451 47.029 131.771 47.3563 129.862 47.3563C128.695 47.3563 127.582 47.1927 126.524 46.8763C125.465 46.56 124.538 46.08 123.742 45.4472C122.945 44.8145 122.313 44.029 121.855 43.0909C121.396 42.1527 121.167 41.0618 121.167 39.829C121.167 38.2036 121.527 36.84 122.258 35.749C122.978 34.6581 123.971 33.7636 125.225 33.0763C126.48 32.389 127.942 31.8872 129.622 31.5927C131.302 31.2981 133.091 31.1454 135 31.1454H138.502V30.0872C138.502 29.4545 138.382 28.8109 138.131 28.1781C137.88 27.5454 137.509 26.9672 137.018 26.4545C136.527 25.9418 135.905 25.5381 135.164 25.2327C134.422 24.9381 133.538 24.7854 132.513 24.7854C131.596 24.7854 130.789 24.8727 130.102 25.0472C129.415 25.2218 128.782 25.4509 128.225 25.7127C127.658 25.9745 127.145 26.2909 126.687 26.64C126.229 26.989 125.782 27.3272 125.356 27.6436L122.498 24.6763ZM135.971 34.6472C134.836 34.6472 133.68 34.7127 132.502 34.8327C131.313 34.9527 130.244 35.1927 129.273 35.5418C128.302 35.8909 127.505 36.3927 126.884 37.0254C126.262 37.6581 125.956 38.4763 125.956 39.469C125.956 40.92 126.447 41.9563 127.418 42.6C128.389 43.2327 129.709 43.549 131.367 43.549C132.676 43.549 133.789 43.3309 134.705 42.8836C135.622 42.4472 136.364 41.869 136.931 41.16C137.498 40.4509 137.902 39.6654 138.153 38.8036C138.404 37.9418 138.524 37.08 138.524 36.229V34.6363H135.982L135.971 34.6472Z" fill="white"/>
<path d="M149.913 21.6H154.691V25.4727H154.8C155.116 24.7964 155.542 24.1964 156.076 23.64C156.611 23.0836 157.2 22.6255 157.855 22.2327C158.509 21.84 159.229 21.5345 160.004 21.3055C160.778 21.0764 161.553 20.9564 162.338 20.9564C163.124 20.9564 163.822 21.0655 164.455 21.2727L164.247 26.4109C163.855 26.3018 163.473 26.2145 163.08 26.1491C162.687 26.0836 162.305 26.04 161.913 26.04C159.578 26.04 157.789 26.6945 156.556 28.0036C155.313 29.3127 154.702 31.3418 154.702 34.1018V46.7236H149.924V21.6H149.913Z" fill="white"/>
<path d="M169.527 6.64362H174.305V25.2H174.415C175.265 23.8909 176.487 22.8545 178.069 22.1018C179.662 21.3382 181.353 20.9673 183.164 20.9673C185.105 20.9673 186.862 21.3054 188.444 21.9709C190.015 22.6472 191.356 23.5745 192.469 24.7527C193.582 25.9418 194.444 27.3382 195.044 28.9418C195.644 30.5454 195.949 32.2909 195.949 34.1672C195.949 36.0436 195.655 37.7782 195.044 39.36C194.433 40.9418 193.582 42.3491 192.469 43.5491C191.356 44.7491 190.015 45.6872 188.444 46.3636C186.873 47.04 185.105 47.3672 183.164 47.3672C181.473 47.3672 179.815 46.9963 178.2 46.2545C176.596 45.5127 175.331 44.4654 174.404 43.1236H174.295V46.7345H169.516V6.64362H169.527ZM182.575 42.9163C183.851 42.9163 184.996 42.6982 186.022 42.2509C187.047 41.8145 187.909 41.2036 188.618 40.4509C189.327 39.6873 189.873 38.7709 190.265 37.6909C190.658 36.6109 190.855 35.4327 190.855 34.1672C190.855 32.9018 190.658 31.7236 190.265 30.6436C189.873 29.5636 189.327 28.6472 188.618 27.8836C187.909 27.12 187.047 26.52 186.022 26.0836C184.996 25.6473 183.851 25.4182 182.575 25.4182C181.298 25.4182 180.153 25.6363 179.127 26.0836C178.102 26.5309 177.24 27.1309 176.531 27.8836C175.822 28.6472 175.276 29.5636 174.884 30.6436C174.491 31.7236 174.305 32.9018 174.305 34.1672C174.305 35.4327 174.502 36.6109 174.884 37.6909C175.265 38.7709 175.822 39.6873 176.531 40.4509C177.24 41.2145 178.102 41.8145 179.127 42.2509C180.153 42.6982 181.298 42.9163 182.575 42.9163Z" fill="white"/>
<path d="M224.204 46.7345H219.425V42.8618H219.316C218.716 44.2036 217.669 45.2945 216.185 46.1236C214.702 46.9527 212.989 47.3672 211.036 47.3672C209.804 47.3672 208.636 47.1818 207.535 46.8109C206.433 46.44 205.473 45.8618 204.644 45.0872C203.815 44.3127 203.149 43.3091 202.658 42.0872C202.167 40.8654 201.916 39.4254 201.916 37.7672V21.5891H206.695V36.4363C206.695 37.6036 206.858 38.6072 207.175 39.4363C207.491 40.2654 207.916 40.9418 208.451 41.4545C208.985 41.9672 209.585 42.3381 210.284 42.5672C210.971 42.7963 211.691 42.9163 212.433 42.9163C213.425 42.9163 214.342 42.7527 215.193 42.4363C216.044 42.12 216.785 41.6181 217.418 40.9309C218.051 40.2436 218.553 39.3709 218.902 38.3018C219.251 37.2436 219.436 35.989 219.436 34.5381V21.6H224.215V46.7345H224.204Z" fill="white"/>
<path d="M231.415 21.6H236.193V25.4727H236.302C236.618 24.7964 237.044 24.1964 237.578 23.64C238.113 23.0836 238.702 22.6255 239.356 22.2327C240.011 21.84 240.731 21.5345 241.505 21.3055C242.28 21.0764 243.055 20.9564 243.84 20.9564C244.625 20.9564 245.324 21.0655 245.956 21.2727L245.749 26.4109C245.356 26.3018 244.975 26.2145 244.582 26.1491C244.189 26.0836 243.807 26.04 243.415 26.04C241.08 26.04 239.291 26.6945 238.058 28.0036C236.815 29.3127 236.204 31.3418 236.204 34.1018V46.7236H231.425V21.6H231.415Z" fill="white"/>
<path d="M264.393 27.9054C263.825 27.1963 263.127 26.6073 262.298 26.1273C261.469 25.6473 260.444 25.4073 259.244 25.4073C258.109 25.4073 257.127 25.6473 256.298 26.1273C255.469 26.6073 255.055 27.3054 255.055 28.2218C255.055 28.9636 255.295 29.5636 255.775 30.0218C256.255 30.48 256.822 30.8509 257.465 31.1345C258.109 31.4182 258.818 31.6254 259.56 31.7673C260.302 31.9091 260.935 32.0291 261.469 32.1382C262.495 32.3891 263.455 32.6836 264.36 33.0327C265.265 33.3818 266.04 33.8509 266.695 34.4073C267.349 34.9745 267.862 35.6618 268.233 36.48C268.604 37.2982 268.789 38.28 268.789 39.4473C268.789 40.8654 268.495 42.0763 267.884 43.08C267.284 44.0836 266.509 44.9127 265.549 45.5454C264.589 46.1782 263.509 46.6363 262.287 46.92C261.065 47.2036 259.844 47.3454 258.6 47.3454C256.516 47.3454 254.684 47.0291 253.113 46.3963C251.542 45.7636 250.135 44.5963 248.902 42.8945L252.513 39.9273C253.287 40.7018 254.16 41.3891 255.109 42C256.058 42.6 257.225 42.9054 258.611 42.9054C259.211 42.9054 259.822 42.84 260.444 42.72C261.065 42.6 261.611 42.4036 262.091 42.1309C262.571 41.8582 262.964 41.5309 263.258 41.1273C263.553 40.7236 263.705 40.2545 263.705 39.72C263.705 39.0109 263.487 38.4327 263.04 37.9745C262.593 37.5163 262.069 37.1563 261.447 36.8836C260.825 36.6218 260.182 36.4036 259.484 36.2509C258.796 36.0982 258.185 35.9563 257.651 35.8582C256.625 35.6073 255.655 35.3236 254.738 35.0073C253.822 34.6909 253.004 34.2654 252.295 33.7309C251.585 33.1963 251.018 32.5309 250.604 31.7127C250.178 30.8945 249.971 29.8909 249.971 28.6909C249.971 27.3818 250.244 26.2473 250.789 25.2654C251.335 24.2945 252.055 23.4873 252.96 22.8545C253.865 22.2218 254.891 21.7418 256.036 21.4254C257.182 21.1091 258.338 20.9454 259.505 20.9454C261.207 20.9454 262.833 21.2618 264.382 21.8945C265.942 22.5273 267.175 23.5963 268.091 25.08L264.382 27.8945L264.393 27.9054Z" fill="white"/>
<path d="M288.044 25.7345H281.204V37.1345C281.204 37.8436 281.225 38.5418 281.258 39.2291C281.291 39.9164 281.422 40.5382 281.651 41.0836C281.88 41.6291 282.229 42.0764 282.709 42.4036C283.189 42.7418 283.887 42.9054 284.804 42.9054C285.371 42.9054 285.949 42.8509 286.549 42.7418C287.149 42.6327 287.695 42.4473 288.196 42.1527V46.5054C287.629 46.8218 286.898 47.04 285.993 47.1709C285.098 47.2909 284.389 47.3564 283.898 47.3564C282.055 47.3564 280.636 47.0945 279.633 46.5927C278.629 46.08 277.887 45.4145 277.407 44.6073C276.927 43.8 276.644 42.8836 276.556 41.88C276.469 40.8764 276.425 39.8618 276.425 38.8364V25.7345H270.905V21.6H276.425V14.5418H281.204V21.6H288.044V25.7345Z" fill="white"/>
<path d="M301.985 9.68726H324.655V12.8291H305.433V26.0291H323.444V29.1709H305.433V43.6254H325.484V46.7673H301.975V9.68726H301.985Z" fill="white"/>
<path d="M332.411 29.3781C332.411 28.92 332.389 28.3745 332.356 27.7309C332.324 27.0872 332.291 26.4327 332.28 25.7672C332.258 25.1018 332.236 24.48 332.204 23.9127C332.171 23.3345 332.149 22.8872 332.149 22.5818H335.291C335.324 23.4872 335.356 24.36 335.367 25.2C335.389 26.04 335.433 26.5745 335.498 26.8254H335.651C336.284 25.4945 337.331 24.36 338.793 23.4C340.255 22.44 341.967 21.96 343.92 21.96C345.873 21.96 347.345 22.2545 348.524 22.8545C349.702 23.4545 350.64 24.2291 351.327 25.1891C352.015 26.1491 352.484 27.2618 352.745 28.5163C353.007 29.7709 353.138 31.0691 353.138 32.3891V46.7891H349.996V32.5418C349.996 31.56 349.909 30.6109 349.735 29.6836C349.56 28.7563 349.255 27.9272 348.818 27.1963C348.382 26.4654 347.771 25.8763 346.985 25.44C346.2 25.0036 345.175 24.7854 343.92 24.7854C342.764 24.7854 341.673 24.9818 340.647 25.3854C339.622 25.7891 338.727 26.4 337.975 27.2181C337.222 28.0363 336.633 29.0727 336.196 30.3054C335.76 31.5491 335.542 33 335.542 34.68V46.7781H332.4V29.3891L332.411 29.3781Z" fill="white"/>
<path d="M373.625 25.3964H366.709V41.16C366.709 42.24 367.004 43.08 367.604 43.6691C368.193 44.2582 369.022 44.5636 370.069 44.5636C370.658 44.5636 371.269 44.4873 371.88 44.3236C372.491 44.1709 373.08 43.9636 373.636 43.7236L373.898 46.5491C373.309 46.7564 372.622 46.9527 371.858 47.1273C371.084 47.3018 370.407 47.3891 369.818 47.3891C368.705 47.3891 367.745 47.2254 366.938 46.8873C366.131 46.5491 365.487 46.1127 364.996 45.5564C364.505 45 364.145 44.3454 363.927 43.5927C363.698 42.84 363.589 42.0327 363.589 41.16V25.3964H358.353V22.5709H363.589V15.6109H366.731V22.5709H373.647V25.3964H373.625Z" fill="white"/>
<path d="M400.855 42.2073C399.633 44.0618 398.127 45.3818 396.327 46.1891C394.527 46.9964 392.553 47.3891 390.382 47.3891C388.527 47.3891 386.858 47.0727 385.353 46.4509C383.847 45.8291 382.56 44.9454 381.48 43.8109C380.4 42.6764 379.571 41.3345 378.993 39.7745C378.415 38.2254 378.131 36.5018 378.131 34.6145C378.131 32.7273 378.425 31.1236 379.025 29.5854C379.615 28.0473 380.455 26.7164 381.535 25.5818C382.615 24.4473 383.891 23.5527 385.353 22.9091C386.815 22.2654 388.44 21.9382 390.218 21.9382C391.996 21.9382 393.698 22.2654 395.116 22.9091C396.535 23.5527 397.713 24.4145 398.673 25.4727C399.633 26.5418 400.353 27.7527 400.844 29.1164C401.335 30.48 401.575 31.8545 401.575 33.2509V35.4545H381.262C381.262 36.12 381.393 36.96 381.655 37.9964C381.916 39.0218 382.396 40.0254 383.095 41.0073C383.793 41.9891 384.731 42.8182 385.898 43.5164C387.065 44.2145 388.582 44.5636 390.425 44.5636C392.029 44.5636 393.589 44.1818 395.084 43.4073C396.589 42.6436 397.735 41.5964 398.542 40.2654L400.844 42.2073H400.855ZM398.444 32.6291C398.444 31.5491 398.225 30.5345 397.789 29.5964C397.353 28.6582 396.764 27.8291 396.011 27.1091C395.258 26.3891 394.375 25.8218 393.338 25.4073C392.313 24.9927 391.222 24.7745 390.065 24.7745C388.353 24.7745 386.935 25.1236 385.8 25.8218C384.665 26.52 383.771 27.3273 383.105 28.2327C382.44 29.1382 381.971 30.0218 381.687 30.8727C381.404 31.7345 381.273 32.3127 381.273 32.6291H398.444Z" fill="white"/>
<path d="M408.862 29.3782C408.862 28.92 408.84 28.3746 408.807 27.7309C408.775 27.0873 408.742 26.4327 408.731 25.7673C408.709 25.1018 408.687 24.48 408.655 23.9127C408.622 23.3346 408.6 22.8873 408.6 22.5818H411.742C411.775 23.4873 411.807 24.36 411.818 25.2C411.84 26.04 411.884 26.5746 411.949 26.8255C412.756 25.3964 413.782 24.2291 415.036 23.3127C416.291 22.4073 417.829 21.9491 419.64 21.9491C419.956 21.9491 420.262 21.9709 420.556 22.0255C420.851 22.08 421.156 22.1346 421.473 22.2109L421.102 25.2982C420.687 25.1564 420.284 25.0909 419.902 25.0909C418.538 25.0909 417.36 25.3091 416.367 25.7455C415.375 26.1818 414.556 26.7818 413.902 27.5564C413.258 28.32 412.778 29.2255 412.462 30.2509C412.145 31.2764 411.993 32.3891 411.993 33.5782V46.7782H408.851V29.3891L408.862 29.3782Z" fill="white"/>
<path d="M425.88 22.5709H429.022V26.8146H429.131C429.622 25.9746 430.233 25.2546 430.964 24.6436C431.695 24.0327 432.491 23.5309 433.342 23.1273C434.193 22.7236 435.098 22.4291 436.036 22.2327C436.975 22.0473 437.902 21.9491 438.807 21.9491C440.662 21.9491 442.364 22.2655 443.913 22.8873C445.462 23.52 446.815 24.3927 447.949 25.5273C449.084 26.6618 449.967 28.0036 450.589 29.5636C451.211 31.1236 451.527 32.8146 451.527 34.6691C451.527 36.5236 451.211 38.2255 450.589 39.7745C449.956 41.3236 449.084 42.6764 447.949 43.8109C446.815 44.9455 445.473 45.8291 443.913 46.4509C442.364 47.0836 440.662 47.3891 438.807 47.3891C437.902 47.3891 436.975 47.2909 436.036 47.1055C435.098 46.9091 434.193 46.6146 433.342 46.2109C432.491 45.8073 431.695 45.3055 430.964 44.6946C430.233 44.0836 429.622 43.3636 429.131 42.5236H429.022V58.7018H425.88V22.5709ZM428.705 34.6691C428.705 36.0327 428.967 37.3091 429.491 38.52C430.015 39.72 430.735 40.7673 431.64 41.6618C432.545 42.5564 433.615 43.2546 434.836 43.7782C436.058 44.3018 437.378 44.5636 438.818 44.5636C440.258 44.5636 441.611 44.3018 442.8 43.7782C443.989 43.2546 445.004 42.5455 445.833 41.6618C446.673 40.7673 447.305 39.72 447.742 38.52C448.178 37.32 448.396 36.0327 448.396 34.6691C448.396 33.3055 448.178 32.0291 447.742 30.8182C447.305 29.6182 446.673 28.5709 445.833 27.6764C444.993 26.7818 443.978 26.0836 442.8 25.56C441.611 25.0364 440.291 24.7745 438.818 24.7745C437.345 24.7745 436.058 25.0364 434.836 25.56C433.615 26.0836 432.545 26.7927 431.64 27.6764C430.735 28.5709 430.015 29.6182 429.491 30.8182C428.967 32.0182 428.705 33.3055 428.705 34.6691Z" fill="white"/>
<path d="M458.815 29.3782C458.815 28.92 458.793 28.3746 458.76 27.7309C458.727 27.0873 458.695 26.4327 458.684 25.7673C458.662 25.1018 458.64 24.48 458.607 23.9127C458.575 23.3455 458.553 22.8873 458.553 22.5818H461.695C461.727 23.4873 461.76 24.36 461.771 25.2C461.793 26.04 461.836 26.5746 461.902 26.8255C462.709 25.3964 463.735 24.2291 464.989 23.3127C466.244 22.4073 467.782 21.9491 469.593 21.9491C469.909 21.9491 470.215 21.9709 470.509 22.0255C470.804 22.08 471.109 22.1346 471.425 22.2109L471.055 25.2982C470.64 25.1564 470.236 25.0909 469.855 25.0909C468.491 25.0909 467.313 25.3091 466.32 25.7455C465.327 26.1818 464.509 26.7818 463.855 27.5564C463.211 28.32 462.731 29.2255 462.415 30.2509C462.098 31.2764 461.945 32.3891 461.945 33.5782V46.7782H458.804V29.3891L458.815 29.3782Z" fill="white"/>
<path d="M476.258 12.9818C476.258 12.3163 476.487 11.76 476.935 11.3018C477.393 10.8436 477.949 10.6254 478.615 10.6254C479.28 10.6254 479.836 10.8545 480.295 11.3018C480.753 11.76 480.971 12.3163 480.971 12.9818C480.971 13.6472 480.742 14.2036 480.295 14.6618C479.847 15.12 479.28 15.3382 478.615 15.3382C477.949 15.3382 477.393 15.1091 476.935 14.6618C476.476 14.2036 476.258 13.6472 476.258 12.9818ZM477.044 22.56H480.185V46.7563H477.044V22.5709V22.56Z" fill="white"/>
<path d="M489.393 40.5818C490.058 41.8691 491.029 42.8618 492.327 43.5381C493.615 44.2145 494.978 44.5636 496.407 44.5636C497.073 44.5636 497.738 44.4545 498.393 44.2472C499.058 44.04 499.647 43.7454 500.171 43.3527C500.695 42.9709 501.12 42.5018 501.458 41.9672C501.786 41.4218 501.96 40.8109 501.96 40.1127C501.96 39 501.6 38.16 500.891 37.6036C500.171 37.0472 499.298 36.6109 498.251 36.2945C497.204 35.9781 496.047 35.7054 494.793 35.4872C493.538 35.2581 492.382 34.9091 491.335 34.44C490.287 33.9709 489.404 33.3163 488.695 32.4763C487.975 31.6363 487.625 30.4472 487.625 28.92C487.625 27.7309 487.866 26.7054 488.356 25.8327C488.847 24.96 489.48 24.24 490.266 23.6618C491.051 23.0836 491.935 22.6581 492.905 22.3745C493.887 22.0909 494.88 21.96 495.895 21.96C497.88 21.96 499.604 22.3309 501.055 23.0618C502.505 23.7927 503.629 24.9491 504.436 26.52L501.611 28.2C501.022 27.0872 500.28 26.2363 499.385 25.6581C498.491 25.08 497.335 24.7963 495.905 24.7963C495.349 24.7963 494.76 24.8836 494.149 25.0581C493.538 25.2327 492.993 25.4727 492.502 25.7891C492.011 26.1054 491.607 26.5091 491.269 26.9891C490.942 27.48 490.767 28.0363 490.767 28.6691C490.767 29.7491 491.127 30.5563 491.836 31.08C492.556 31.6036 493.429 32.0181 494.476 32.3127C495.524 32.6072 496.68 32.8581 497.935 33.0763C499.189 33.2836 500.345 33.6218 501.393 34.1018C502.44 34.5709 503.324 35.2581 504.033 36.1418C504.753 37.0363 505.102 38.3018 505.102 39.9381C505.102 41.1927 504.862 42.2836 504.393 43.2109C503.924 44.1381 503.28 44.9127 502.451 45.5454C501.633 46.1781 500.695 46.6472 499.647 46.9636C498.6 47.28 497.498 47.4327 496.353 47.4327C494.258 47.4327 492.349 47.0291 490.615 46.2327C488.891 45.4254 487.549 44.1927 486.611 42.5127L489.382 40.6254L489.393 40.5818Z" fill="white"/>
<path d="M533.28 42.2073C532.058 44.0618 530.553 45.3818 528.753 46.1891C526.953 46.9964 524.978 47.3891 522.807 47.3891C520.953 47.3891 519.284 47.0727 517.778 46.4509C516.273 45.8291 514.985 44.9454 513.905 43.8109C512.825 42.6764 511.996 41.3345 511.418 39.7745C510.84 38.2254 510.556 36.5018 510.556 34.6145C510.556 32.7273 510.851 31.1236 511.451 29.5854C512.04 28.0473 512.88 26.7164 513.96 25.5818C515.04 24.4473 516.316 23.5527 517.778 22.9091C519.24 22.2654 520.865 21.9382 522.644 21.9382C524.422 21.9382 526.124 22.2654 527.542 22.9091C528.96 23.5527 530.138 24.4145 531.098 25.4727C532.058 26.5418 532.778 27.7527 533.269 29.1164C533.76 30.48 534 31.8545 534 33.2509V35.4545H513.687C513.687 36.12 513.818 36.96 514.08 37.9964C514.342 39.0218 514.822 40.0254 515.52 41.0073C516.218 41.9891 517.156 42.8182 518.324 43.5164C519.491 44.2145 521.007 44.5636 522.851 44.5636C524.455 44.5636 526.015 44.1818 527.509 43.4073C529.015 42.6436 530.16 41.5964 530.967 40.2654L533.269 42.2073H533.28ZM530.869 32.6291C530.869 31.5491 530.651 30.5345 530.215 29.5964C529.778 28.6582 529.189 27.8291 528.436 27.1091C527.684 26.3891 526.8 25.8218 525.764 25.4073C524.738 24.9927 523.647 24.7745 522.491 24.7745C520.778 24.7745 519.36 25.1236 518.225 25.8218C517.091 26.52 516.196 27.3273 515.531 28.2327C514.865 29.1382 514.396 30.0218 514.113 30.8727C513.829 31.7345 513.698 32.3127 513.698 32.6291H530.869Z" fill="white"/>
</g>
<defs>
<clipPath id="clip0_2_126">
<rect width="539.105" height="60" fill="white"/>
</clipPath>
</defs>
</svg>
