<svg width="150" height="150" viewBox="0 0 150 150" fill="none" xmlns="http://www.w3.org/2000/svg">
<g clip-path="url(#clip0_45_6271)">
<path d="M92.8604 69.7998L63.6363 79.4129L38.2121 90.7166L31.0993 92.6086C29.2878 94.3437 27.3883 96.1021 25.334 97.8817C23.0809 99.8404 20.9826 101.621 19.3698 102.911C17.5807 104.335 14.93 107.005 13.5826 108.696C11.5725 111.233 9.98208 113.926 9.29727 115.996C8.08226 119.734 8.67897 123.517 11.0203 127.01C14.0244 131.46 20.0107 135.999 26.9906 139.093C30.5472 140.673 36.5333 142.698 41.0392 143.833C48.5276 145.747 63.0178 147.816 70.9915 148.127C72.6043 148.194 74.7687 148.194 74.8565 148.127C75.0345 148.016 76.2713 145.636 77.7072 142.676C82.6111 132.596 86.1447 123.138 88.0666 115.06C89.2156 110.165 90.1209 103.645 90.7171 95.9241C90.8717 93.7653 90.9373 86.5335 90.805 84.0854C90.6059 80.0803 90.2533 76.8314 89.7016 73.6493C89.6126 73.1821 89.5904 72.7595 89.6349 72.7372C89.7228 72.6705 89.9875 72.5815 93.5889 71.5349L92.8604 69.7998ZM86.1892 73.7383C86.4539 73.7383 87.1613 80.5696 87.3381 84.8863C87.3826 85.7994 87.3592 86.4 87.3159 86.4C87.139 86.4 83.5821 84.2856 81.0428 82.684C78.8339 81.2815 74.6374 78.4775 73.9745 77.9437C73.7532 77.7879 73.7754 77.7657 75.5862 77.1428C78.6571 76.0973 85.9467 73.7383 86.1892 73.7383ZM71.3018 78.6788C71.4998 78.6788 72.0081 78.9669 73.2227 79.7243C77.7728 82.595 83.958 86.0663 86.6085 87.2231C87.426 87.579 87.5138 87.4455 85.6375 88.7368C81.6167 91.4952 76.6028 94.2102 70.461 96.9474C69.3799 97.4368 68.4734 97.815 68.4523 97.815C68.4078 97.815 68.5401 97.2588 68.7159 96.5915C70.1962 91.0503 71.036 85.4424 71.0805 80.9478C71.1027 78.7222 71.1027 78.7222 71.3018 78.6566C71.2573 78.6788 71.2785 78.6788 71.3018 78.6788ZM68.2309 79.8578C68.3633 79.9913 68.2754 84.9752 68.0986 86.3333C67.7004 89.5822 67.082 92.6074 66.0665 96.0131C65.8229 96.8362 65.6016 97.5258 65.5582 97.5703C65.4692 97.6815 62.4439 94.6996 61.4496 93.5428C59.7267 91.5397 58.3798 89.5365 57.3855 87.579C56.8772 86.578 56.0819 84.6193 56.1486 84.5526C56.5012 84.3079 68.1431 79.7688 68.2309 79.8578ZM53.784 85.5759C53.8063 85.5759 53.8285 85.5758 53.8508 85.5981C53.8952 85.6426 54.0498 85.9996 54.1822 86.4C54.8896 88.3353 56.479 91.1838 57.8493 93.009C59.3508 95.011 61.3172 97.1476 62.9511 98.549C63.4816 98.9939 63.9677 99.4166 64.0333 99.4844C64.1668 99.6179 64.2102 99.5945 60.6098 100.975C56.4356 102.576 51.8843 104.179 46.6717 105.87C45.4264 106.275 44.1823 106.683 42.9392 107.094C42.7401 107.161 42.8065 107.05 43.3808 106.138C45.9651 102.065 49.8967 94.0767 52.1056 88.4243C52.4816 87.4455 52.8564 86.4668 52.9231 86.2443C53.0121 85.9318 53.1222 85.8205 53.4092 85.6648C53.5638 85.6214 53.7184 85.5759 53.784 85.5759ZM49.3673 87.4233C49.4329 87.4678 48.3062 89.8491 47.2022 92.0291C45.0595 96.2356 42.7181 100.374 39.5815 105.403C39.0514 106.271 38.5435 107.072 38.4771 107.161C38.3668 107.317 38.3224 107.272 37.9691 106.583C37.2181 105.091 36.5993 103.178 36.2681 101.42C35.9367 99.6835 36.0031 96.6582 36.3787 94.7885C36.6655 93.4094 36.6437 93.4316 37.3064 93.098C40.1337 91.6509 49.2783 87.3343 49.3673 87.4233ZM87.4705 88.9815V89.9158C87.4705 94.8775 86.9399 101.687 86.1669 106.65C86.0346 107.517 85.9233 108.229 85.9022 108.251C85.9022 108.251 85.2615 108.074 84.5108 107.851C81.1974 106.805 77.5971 105.269 74.3494 103.467C72.2061 102.288 69.0918 100.352 69.1808 100.263C69.2019 100.241 70.1306 99.7514 71.2128 99.173C75.5428 96.9029 79.6948 94.4549 83.2951 92.0302C84.6432 91.117 86.6752 89.6489 87.1168 89.2485L87.4705 88.9815ZM32.6896 95.5671C32.7779 95.5671 32.7558 95.7451 32.6233 96.547C32.5349 97.1254 32.4245 98.1931 32.3807 98.9272C32.2035 102.176 32.734 104.58 34.3244 107.873C34.7661 108.785 35.1198 109.541 35.0974 109.564C34.9427 109.698 20.32 114.015 15.7252 115.283C14.3559 115.661 13.1632 115.995 13.0744 116.017C12.9201 116.061 12.8978 116.039 12.9641 115.661C13.4721 112.39 15.9461 108.118 19.3919 104.513C21.6893 102.109 23.5227 100.708 26.6594 98.905C28.9124 97.6148 32.3804 95.6795 32.6454 95.5894C32.6457 95.5671 32.6676 95.5671 32.6896 95.5671ZM67.1487 101.776C67.171 101.753 67.7004 102.043 68.341 102.421C73.0681 105.18 79.6503 107.74 85.2616 109.052L85.7698 109.164L85.0625 109.564C82.125 111.211 72.4719 115.26 62.5985 118.976C61.1626 119.51 59.749 120.045 59.4831 120.157C59.2184 120.267 58.9748 120.335 58.9748 120.312C58.9748 120.289 59.373 119.51 59.8802 118.554C62.6419 113.347 65.4258 107.005 66.8384 102.599C67.0163 102.176 67.1265 101.798 67.1487 101.776ZM63.6363 102.933C63.6585 102.956 63.4816 103.423 63.2603 103.957C61.3395 108.652 58.8202 113.77 55.5959 119.511C54.7784 120.98 54.0943 122.16 54.071 122.16C54.0498 122.16 53.387 121.758 52.5917 121.269C47.9092 118.376 43.7561 114.816 41.0393 111.367L40.6416 110.877L42.6515 110.321C49.8522 108.34 55.9707 106.205 62.0457 103.579C62.9077 103.223 63.614 102.933 63.6363 102.933ZM85.4606 110.61C85.4606 110.61 85.4829 110.632 85.4606 110.61C85.4829 111.122 84.3562 115.706 83.4275 119.021C82.6544 121.803 81.9916 123.984 80.777 127.833C80.2476 129.525 79.7838 130.926 79.7615 130.926C79.7393 130.926 79.6069 130.904 79.4746 130.86C72.9134 129.657 67.0386 127.989 61.5163 125.763C59.9692 125.141 57.7603 124.14 57.6279 124.028C57.5845 123.983 58.9092 123.36 60.5887 122.626C70.6389 118.198 81.0651 113.168 84.6431 111.011C85.0625 110.744 85.3939 110.61 85.4606 110.61ZM35.0753 112.346C35.1196 112.39 32.3142 116.463 28.3822 122.003C27.0128 123.939 25.4224 126.208 24.8262 127.055C24.2297 127.9 23.3241 129.235 22.816 130.037L21.8878 131.483L20.8938 130.637C19.7231 129.657 17.6911 127.566 16.7854 126.41C14.8857 124.028 13.6048 121.514 13.0967 119.222C12.8537 118.153 12.8537 117.62 13.0743 117.553C13.4056 117.464 19.3033 116.062 24.8259 114.771C27.8964 114.059 31.4524 113.214 32.7336 112.903C34.0149 112.59 35.0534 112.346 35.0753 112.346ZM37.9027 113.436L38.6093 114.237C41.7905 117.82 45.0375 120.468 48.9691 122.783C49.6765 123.183 50.2059 123.539 50.1614 123.561C50.008 123.672 36.5109 128.501 30.2598 130.682C26.7479 131.927 23.8541 132.928 23.8323 132.928C23.8102 132.928 23.6113 132.796 23.39 132.639L22.9926 132.35L23.6332 131.416C25.7094 128.389 28.3164 125.074 33.9931 118.176L37.9027 113.436ZM55.5302 126.142C55.5514 126.12 56.5235 126.475 57.7158 126.921C60.5887 128.011 62.8632 128.701 65.9119 129.481C69.6668 130.437 75.1001 131.371 78.3034 131.638C78.7894 131.683 79.0541 131.727 78.9663 131.794C78.8117 131.883 75.565 132.974 73.1793 133.73C69.3799 134.932 57.7825 138.381 48.3285 141.118C46.5837 141.63 45.0816 142.052 44.9933 142.074C44.7726 142.119 44.0435 141.919 44.0435 141.83C44.0435 141.785 44.5734 141.096 45.2142 140.339C48.3952 136.512 51.554 132.239 54.1822 128.189C54.9107 127.077 55.5302 126.164 55.5302 126.142ZM51.6418 126.254C51.6641 126.276 50.0958 128.812 47.357 133.173C46.1861 135.021 44.8828 137.113 44.4187 137.847C43.9769 138.559 43.3144 139.672 42.939 140.295L42.2984 141.429L41.9671 141.34C41.1717 141.118 35.5833 139.137 34.1032 138.536C32.2697 137.802 30.3701 136.913 28.9563 136.156C27.1894 135.199 24.9806 133.775 25.1572 133.73C25.2013 133.708 28.2276 132.884 31.8721 131.883C41.5473 129.235 46.9147 127.7 50.4273 126.588C51.0679 126.387 51.6196 126.231 51.6418 126.254ZM79.1431 132.75H79.1642C79.2532 132.974 75.6751 142.988 74.3716 146.146C74.0846 146.858 73.9745 147.037 73.8199 147.014C73.444 146.993 68.2532 146.259 65.0944 145.79C59.5944 144.945 50.3605 143.32 48.0415 142.786L47.5121 142.676L50.8021 141.919C57.8715 140.316 61.2727 139.448 64.7185 138.381C69.0707 137.046 73.3773 135.377 77.7295 133.33C78.4135 133.017 78.9885 132.773 79.1431 132.75Z" fill="url(#paint0_linear_45_6271)"/>
<path d="M62.7294 1.17594C62.2434 1.10954 54.4021 3.95777 49.3436 6.02699C42.5179 8.83106 37.2168 11.5014 33.9475 13.8151C32.7328 14.6833 31.2084 16.2186 30.9657 16.8193C30.8774 17.0419 30.833 17.3089 30.833 17.5758L33.7931 20.4019L40.8393 22.6716L57.6053 25.698L76.7782 29.0136L76.9773 27.3448C76.9105 27.3448 76.866 27.3225 76.8004 27.3225L74.2823 26.9219L73.774 26.0096C71.168 21.3811 68.2962 15.64 66.6178 11.768C65.3143 8.76399 64.0775 5.29291 63.3923 2.8006C63.0164 1.2875 62.973 1.19852 62.7306 1.17628V1.17583H62.7294V1.17594ZM62.3757 2.3111H62.398C62.4202 2.33312 62.5081 2.95653 62.5971 3.69039C62.9719 6.80623 63.6571 9.80983 64.7393 13.0587C65.5568 15.5065 65.5568 15.3732 64.6069 15.0836C62.3546 14.4608 52.2599 12.7029 44.948 11.6793C43.7773 11.5235 42.7833 11.3678 42.7833 11.3456C42.695 11.2566 48.0623 8.43033 50.4258 7.31809C53.4522 5.91577 61.7573 2.42221 62.3757 2.3111ZM41.0821 12.28L41.9439 12.569C46.6264 14.1714 58.3995 16.4411 64.8939 16.9751C65.6224 17.042 66.2419 17.1088 66.263 17.1088C66.2853 17.1311 65.6669 17.4648 64.8716 17.843C61.7351 19.423 58.2894 21.3589 55.9036 22.8499C55.1973 23.2947 54.5567 23.651 54.4677 23.651C54.3798 23.651 53.916 23.5619 53.43 23.4951L52.5469 23.3614L50.338 21.1805C46.4502 17.3756 43.4018 14.4384 42.231 13.3256L41.0821 12.28ZM40.1989 12.9696L43.3132 16.8861C45.014 19.0447 46.737 21.1585 47.1128 21.6256C47.4884 22.0932 47.7976 22.4716 47.7753 22.4938C47.6875 22.5605 43.2695 21.6925 40.9277 21.1587C38.52 20.6023 37.526 20.3352 36.0462 19.8682L34.8312 19.4674V19.1557C34.8532 17.6647 36.731 15.4397 39.9117 13.1701L40.1989 12.9696ZM66.6612 18.3103C66.7502 18.3103 66.8603 18.5105 67.125 19.1113C67.8758 20.7801 70.2182 25.2752 70.7921 26.1429C70.9689 26.4325 71.2781 26.4546 68.1639 25.9428C60.6751 24.7187 58.2671 24.3186 58.2671 24.274C58.2671 24.2519 58.4885 24.096 58.7754 23.9401C61.0956 22.6498 63.4368 21.0029 65.5134 19.245C66.0206 18.8221 66.4844 18.4216 66.5734 18.3546C66.5945 18.3103 66.639 18.2881 66.6612 18.3103Z" fill="url(#paint1_linear_45_6271)"/>
<path d="M31.1185 16.5078C31.1185 16.5078 30.6328 17.2869 31.0966 18.4441C31.384 19.1559 32.2233 20.0236 33.1729 20.914C33.1729 20.914 43.0025 30.5712 44.1953 31.9511C49.6289 38.2705 51.9924 44.5012 52.2137 53.0908C52.3461 58.6086 51.3072 63.4602 48.7235 69.0904C44.1289 79.1929 34.4317 90.3409 19.4775 102.713L21.6647 101.979C23.0783 100.911 25.0001 99.776 29.5062 97.2835C39.9099 91.5421 51.6176 86.269 65.9755 80.839C86.6498 73.0066 120.646 63.8384 139.995 60.8565L142.005 60.545L141.696 60.0556C139.928 57.2962 138.714 55.5822 137.256 53.7581C133.015 48.4616 127.868 44.1675 121.573 40.607C112.914 35.734 101.714 31.9289 87.5341 29.1028C84.8614 28.5685 78.9854 27.545 74.2139 26.8107C64.0969 25.2312 57.5592 24.1407 50.3585 22.8945C47.7736 22.4493 43.9079 21.782 41.3455 21.2257C40.0203 20.9362 37.4803 20.3355 35.4923 19.6457C33.9019 19.0224 31.6044 18.3993 31.1185 16.5078ZM36.8178 22.071C36.8396 22.0491 37.193 22.1822 37.6571 22.3381C38.4964 22.627 39.5788 22.9609 40.8603 23.3172C41.8297 23.5859 42.8016 23.8454 43.7759 24.096C45.1012 24.4295 46.2055 24.7412 46.2275 24.7412C46.3825 24.897 48.6134 32.084 49.3642 34.8433C49.6511 35.8895 49.8724 36.7793 49.8502 36.7793C49.828 36.8019 49.5855 36.4234 49.2985 35.9116C46.7136 31.3277 42.6271 26.6769 37.8999 22.9385C37.2818 22.4938 36.8178 22.0933 36.8178 22.071ZM47.6858 25.0973C47.7959 25.0973 48.2819 25.1642 48.8781 25.2975C52.633 26.143 59.371 27.4337 63.6776 28.1681C64.4072 28.2792 64.9811 28.413 64.9811 28.4573C64.9811 28.502 64.7164 28.6575 64.385 28.8358C63.6553 29.2138 60.7179 30.9716 59.7458 31.6393C57.2944 33.286 55.0855 35.0661 53.495 36.6682C52.8544 37.3136 52.3016 37.8476 52.3016 37.8476C52.3016 37.8476 52.1692 37.4696 52.0591 37.0019C51.2639 33.9088 49.6066 29.3248 48.1051 26.0984C47.8615 25.5868 47.6635 25.1195 47.6635 25.0751C47.6635 25.1195 47.6635 25.0973 47.6858 25.0973ZM66.8141 28.7689C66.9465 28.8133 67.1678 29.57 67.6094 31.2388C68.4269 34.4655 68.8028 38.0703 68.6705 41.4304C68.626 42.365 68.5815 43.2327 68.537 43.3442L68.4714 43.5664L67.3224 43.1884C64.9589 42.4318 61.1161 41.2967 57.825 40.3623C55.9464 39.8504 54.4226 39.3832 54.4226 39.3387C54.4226 39.205 57.1621 36.4459 58.3322 35.4001C60.5633 33.4193 66.615 28.702 66.8141 28.7689ZM68.339 28.9912C68.4046 28.9248 77.4839 30.5044 81.6147 31.3055C84.6845 31.9062 89.1468 32.841 89.4116 32.9524C89.5439 32.9967 89.0801 33.2637 87.5997 33.9312C81.7682 36.5794 77.4394 38.9601 73.1317 41.8531C72.0061 42.6097 71.0551 43.2327 71.034 43.2327C71.0117 43.2327 70.9895 42.5876 70.9895 41.8086C70.9895 37.5809 70.1497 33.3083 68.6037 29.7036C68.4491 29.3474 68.3168 29.0137 68.339 28.9912ZM91.8195 33.6644C91.8852 33.7311 91.5982 35.5337 91.3335 36.6016C90.5382 39.9173 88.395 44.8353 85.7667 49.4638C85.3029 50.2868 84.8836 50.9542 84.8391 50.9764C84.7946 50.9987 84.1985 50.665 83.5133 50.2646C80.9518 48.7508 78.0355 47.3271 74.8545 45.9919C73.9714 45.6137 73.1984 45.302 73.1761 45.2578C73.0215 45.1241 80.1343 40.3844 83.8893 38.1148C86.8712 36.2901 91.7306 33.5753 91.8195 33.6644ZM93.4979 33.9313C93.697 33.9313 97.7167 35.0441 99.8155 35.6671C105.006 37.2249 110.97 39.4277 114.857 41.2078L116.47 41.9424L115.343 42.2093C105.846 44.4121 97.7167 46.949 89.8753 50.1534C89.2347 50.4203 88.6597 50.6427 88.6163 50.6427C88.5718 50.6427 88.7931 50.1311 89.0801 49.5083C91.4436 44.4568 92.9674 39.183 93.3433 34.6877C93.3656 34.2649 93.4312 33.9313 93.4979 33.9313ZM53.4728 43.1884C53.5384 43.1214 56.6093 43.8559 58.2665 44.3229C60.7847 45.0351 66.129 46.8378 66.129 46.9712C66.129 46.9935 65.5328 47.5051 64.8265 48.128C61.9336 50.5538 59.1497 53.113 55.814 56.3619C54.8197 57.3184 53.9811 58.097 53.9366 58.097C53.8921 58.097 53.871 57.9635 53.8921 57.7856C54.4004 54.0473 54.2903 49.2413 53.5829 44.3676C53.5173 43.7443 53.4505 43.2105 53.4728 43.1884ZM117.995 43.2552C118.038 43.2995 116.58 45.6137 115.653 46.9267C114.328 48.8398 112.384 51.3768 107.988 56.9403C105.669 59.8777 103.062 63.1933 102.201 64.3055C101.317 65.4178 100.588 66.3521 100.566 66.3521C100.544 66.3521 100.257 65.9528 99.9478 65.4634C97.4742 61.724 94.5134 58.4529 91.0021 55.5155C90.3391 54.9594 89.6106 54.3587 89.3671 54.1808C89.1246 54.0028 88.9255 53.8249 88.9255 53.8026C88.9255 53.7359 92.6804 52.1109 95.53 50.9542C100.522 48.9065 107.325 46.4596 112.428 44.8793C115.101 44.0339 117.951 43.2105 117.995 43.2552ZM119.696 43.7C119.784 43.6779 120.314 43.9449 120.955 44.3229C126.322 47.4161 131.579 51.3991 135.732 55.4932C136.903 56.6511 139.796 59.6775 139.752 59.6997C139.752 59.6997 138.736 59.7887 137.544 59.8777C128.244 60.5895 116.338 62.5693 104.896 65.351C104.123 65.529 103.438 65.6847 103.394 65.6847C103.35 65.6847 104.211 64.8172 105.294 63.7716C112.009 57.2517 115.079 53.1353 118.701 45.7916C119.21 44.7015 119.651 43.7669 119.696 43.7C119.673 43.7 119.673 43.7 119.696 43.7ZM70.5034 48.7742C70.8126 48.8398 73.6844 50.1978 75.8489 51.2878C77.8364 52.2889 80.8195 53.8916 80.9741 54.0251C80.9952 54.0473 79.9352 54.6034 78.6328 55.2485C74.4797 57.3407 70.9227 59.3205 67.2123 61.5905C66.1523 62.2356 65.2681 62.7706 65.2459 62.7706C65.158 62.7706 65.1802 62.6805 65.7764 61.5905C67.764 57.9413 69.3545 53.5802 70.261 49.3303C70.3488 48.9955 70.4367 48.7742 70.5034 48.7742ZM67.6316 49.3081C67.6984 49.3748 66.9465 52.1109 66.4838 53.6024C65.5773 56.4286 64.0535 59.9667 62.5731 62.6372C62.2194 63.2589 61.69 64.1721 61.4031 64.6837L60.8503 65.5735L59.6135 64.3723C58.1776 62.9708 57.0064 62.1022 55.5048 61.3236C54.9087 61.0122 54.4449 60.7452 54.4449 60.7008C54.4449 60.5228 58.2221 57.0737 61.115 54.5812C63.1916 52.7794 67.566 49.2413 67.6316 49.3081ZM85.1928 56.5843L86.275 57.2962C88.7486 58.9212 91.6638 61.0789 93.8961 62.9708C95.1541 64.0163 97.5843 66.2197 98.0703 66.7536L98.3351 67.0428L96.5466 67.5544C86.4296 70.3806 78.6095 72.8943 69.4868 76.2777C68.4714 76.6559 67.6094 76.9673 67.5426 76.9673C67.4114 76.9673 67.3002 77.0785 69.5758 74.9641C75.4073 69.5575 80.5759 63.5937 84.4198 57.7856L85.1928 56.5843ZM80.5759 57.7411C80.6204 57.7856 77.594 62.0799 75.7821 64.5057C73.6177 67.3987 69.7738 72.2492 67.1233 75.409C66.0189 76.7226 65.0701 77.8126 65.0256 77.8348C64.9589 77.8571 64.9367 77.5234 64.9367 77.0118C64.9367 74.319 64.2526 71.4483 63.0592 69.0003C62.5509 67.977 62.463 67.7323 62.5731 67.6211C62.9936 67.243 69.4212 63.5492 73.4853 61.3458C76.2248 59.8777 80.5092 57.6966 80.5759 57.7411ZM52.6553 64.6392C52.722 64.6392 53.2303 64.9061 53.8042 65.2176C55.2179 65.9972 56.4769 66.8648 57.6036 67.7991C57.647 67.8436 57.0731 68.3107 56.3223 68.8668C54.2235 70.3806 51.0425 72.8064 49.1873 74.2968C47.2436 75.855 47.1777 75.8995 47.3984 75.5648C48.8559 73.318 49.5855 72.049 50.3585 70.4251C51.0425 68.9792 51.7277 67.2652 52.2137 65.7748C52.3906 65.1286 52.6108 64.6392 52.6553 64.6392ZM60.0995 70.5141C60.2096 70.4918 60.3431 70.692 60.9393 71.5818C62.1983 73.4737 63.1693 76.0108 63.4129 78.0573L63.4563 78.5022L60.431 79.6823C55.0188 81.7955 50.027 83.8877 46.6471 85.4448C45.6975 85.8908 44.0407 86.6916 42.9585 87.2255C41.8761 87.7816 40.9925 88.2043 40.9925 88.182C40.9925 88.1598 41.6771 87.6481 42.5165 87.0253C49.1217 82.1971 54.8419 76.9006 59.1274 71.6041C59.5912 71.0479 60.0116 70.5363 60.055 70.5141H60.0995ZM56.676 71.3594C56.7639 71.4483 54.2458 74.319 52.5229 76.0764C48.2597 80.4608 44.041 83.8876 38.8058 87.2255C38.1431 87.6481 37.5468 88.0263 37.4804 88.0708C37.3257 88.1598 37.5244 87.9373 39.8218 85.4226C41.2798 83.8432 42.3841 82.5074 43.6432 80.8612C44.4825 79.7712 44.6372 79.6155 45.8524 78.7469C49.0994 76.3889 56.5871 71.2704 56.676 71.3594Z" fill="url(#paint2_radial_45_6271)"/>
</g>
<defs>
<linearGradient id="paint0_linear_45_6271" x1="30.6699" y1="133.636" x2="41.2772" y2="127.414" gradientUnits="userSpaceOnUse">
<stop stop-color="#909CA9"/>
<stop offset="1" stop-color="#EDEDEE"/>
</linearGradient>
<linearGradient id="paint1_linear_45_6271" x1="30.9105" y1="15.0513" x2="39.4133" y2="15.0513" gradientUnits="userSpaceOnUse">
<stop stop-color="#939FAB"/>
<stop offset="1" stop-color="#DCDEE1"/>
</linearGradient>
<radialGradient id="paint2_radial_45_6271" cx="0" cy="0" r="1" gradientUnits="userSpaceOnUse" gradientTransform="translate(73.8135 54.3354) rotate(-171.395) scale(10.9642 22.0886)">
<stop stop-color="#EE352C"/>
<stop offset="1" stop-color="#A91D22"/>
</radialGradient>
<clipPath id="clip0_45_6271">
<rect width="134.545" height="148" fill="white" transform="translate(8 1)"/>
</clipPath>
</defs>
</svg>
