<svg width="302" height="149" viewBox="0 0 302 149" fill="none" xmlns="http://www.w3.org/2000/svg">
<g clip-path="url(#clip0_67_2927)">
<path fill-rule="evenodd" clip-rule="evenodd" d="M0 149H152.626L302 0H0V149Z" fill="url(#paint0_linear_67_2927)"/>
<path fill-rule="evenodd" clip-rule="evenodd" d="M179.224 28.0176H149.491V98.515L123.523 27.9957H97.7739L75.6062 86.9529C73.2334 72.0894 57.8544 66.9548 45.6976 63.1056C37.6859 60.5419 29.1835 56.7658 29.2933 52.588C29.3592 49.1697 33.8558 46.0144 42.7536 46.4673C48.7368 46.7813 54.0096 47.2634 64.5113 52.3104L74.8372 34.3793C65.2217 29.5222 51.9957 26.4472 41.1352 26.4326H41.0693C28.4145 26.4326 17.8689 30.5228 11.3365 37.2643C6.81301 41.8957 4.26436 48.0946 4.22553 54.56C4.0571 63.6534 7.40386 70.1174 14.4343 75.2301C20.3662 79.5686 27.9532 82.3807 34.6467 84.4477C42.9001 86.9967 49.6376 89.2171 49.557 93.9428C49.5105 95.6849 48.8131 97.3468 47.6017 98.6027C45.5438 100.721 42.3801 101.524 38.0154 101.597C29.6009 101.773 23.3687 100.458 13.4017 94.5928L4.22553 112.787C14.4981 118.602 26.101 121.676 37.9129 121.712H39.4581C49.8866 121.53 58.3084 118.564 65.0312 113.159C65.4194 112.86 65.7636 112.546 66.1224 112.224L63.1052 120.149H90.0771L94.6102 106.403C99.7299 108.097 105.093 108.943 110.487 108.909C115.746 108.934 120.975 108.133 125.983 106.535L130.377 120.149H174.42V91.6639H184.021C207.243 91.6639 220.974 79.8681 220.974 60.111C220.974 38.1189 207.631 28.0176 179.224 28.0176ZM110.517 88.3772C107.269 88.3967 104.044 87.8326 100.996 86.7119L110.421 57.0653H110.582L119.846 86.7995C116.848 87.8459 113.693 88.3793 110.517 88.3772ZM180.967 71.3371H174.42V47.4095H180.967C189.704 47.4095 196.668 50.3311 196.668 59.198C196.668 68.401 189.704 71.3006 180.967 71.3006" fill="white"/>
</g>
<defs>
<linearGradient id="paint0_linear_67_2927" x1="151" y1="0" x2="151" y2="149" gradientUnits="userSpaceOnUse">
<stop stop-color="#00B8F1"/>
<stop offset="0.02" stop-color="#01B6F0"/>
<stop offset="0.31" stop-color="#0D90D9"/>
<stop offset="0.58" stop-color="#1775C8"/>
<stop offset="0.82" stop-color="#1C65BF"/>
<stop offset="1" stop-color="#1E5FBB"/>
</linearGradient>
<clipPath id="clip0_67_2927">
<rect width="302" height="149" fill="white"/>
</clipPath>
</defs>
</svg>
