<svg width="150" height="150" viewBox="0 0 150 150" fill="none" xmlns="http://www.w3.org/2000/svg">
<path d="M35.3965 131.325L6.68584 81.595C5.58199 79.6831 5.00085 77.5143 5.00085 75.3065C5.00085 73.0988 5.58199 70.93 6.68584 69.0181L35.3965 19.289C36.5005 17.3768 38.0885 15.7889 40.0007 14.6849C41.913 13.581 44.0821 12.9999 46.2902 13H103.712C105.919 13.0001 108.088 13.5813 110 14.6852C111.912 15.7892 113.5 17.377 114.604 19.289L143.315 69.0181C144.419 70.9301 145 73.0992 145 75.3071C145 77.515 144.419 79.684 143.315 81.5961L114.604 131.324C113.5 133.236 111.912 134.824 110 135.928C108.088 137.032 105.919 137.613 103.712 137.613H46.2902C44.0821 137.613 41.9129 137.032 40.0006 135.928C38.0884 134.824 36.5005 133.237 35.3965 131.325Z" fill="url(#paint0_linear_45_6263)"/>
<mask id="mask0_45_6263" style="mask-type:luminance" maskUnits="userSpaceOnUse" x="5" y="13" width="140" height="125">
<path d="M35.3957 131.325L6.68499 81.595C5.58113 79.6831 5 77.5143 5 75.3065C5 73.0988 5.58113 70.93 6.68499 69.0181L35.3957 19.289C36.4995 17.3769 38.0873 15.789 39.9993 14.6851C41.9114 13.5811 44.0803 12.9999 46.2882 13H103.71C105.918 12.9999 108.087 13.581 109.999 14.6849C111.911 15.7889 113.499 17.3768 114.603 19.289L143.314 69.0181C144.418 70.9301 144.999 73.0992 144.999 75.3071C144.999 77.515 144.418 79.684 143.314 81.5961L114.603 131.324C113.499 133.236 111.911 134.824 109.999 135.928C108.087 137.032 105.918 137.613 103.71 137.613H46.2882C44.0803 137.613 41.9114 137.032 39.9993 135.928C38.0873 134.824 36.4995 133.236 35.3957 131.324V131.325Z" fill="white"/>
</mask>
<g mask="url(#mask0_45_6263)">
<path opacity="0.07" d="M58.9354 64.2334L51.2683 71.8786L57.7837 78.3951L51.3328 89.8531L100.152 138.673L111.982 138.675L135.085 97.1823L98.5026 60.5967L58.9354 64.2334Z" fill="black"/>
</g>
<path d="M97.6409 60.2902H52.3207C51.5912 60.2902 50.9951 60.8873 50.9951 61.618V70.9869C50.9951 71.7154 51.5923 72.3125 52.3207 72.3125H97.6409C98.3705 72.3125 98.9677 71.7154 98.9677 70.9869V61.6158C98.9677 60.8873 98.3716 60.2891 97.642 60.2891M90.6246 69.0127C89.9061 69.0107 89.2177 68.7242 88.71 68.2158C88.2023 67.7075 87.9166 67.0187 87.9154 66.3003C87.9151 65.9444 87.985 65.592 88.1211 65.2632C88.2571 64.9343 88.4567 64.6356 88.7083 64.3839C88.9599 64.1323 89.2587 63.9328 89.5875 63.7967C89.9163 63.6607 90.2688 63.5908 90.6246 63.5911C92.123 63.5911 93.3371 64.7975 93.3371 66.3003C93.3371 66.6565 93.2669 67.0092 93.1306 67.3383C92.9943 67.6674 92.7945 67.9664 92.5426 68.2183C92.2907 68.4701 91.9917 68.6699 91.6626 68.8063C91.3335 68.9426 90.9808 69.0127 90.6246 69.0127ZM97.6409 78.2997L52.3207 78.3019C51.5912 78.3019 50.9951 78.8991 50.9951 79.6297V88.9976C50.9951 89.726 51.5923 90.3243 52.3207 90.3243H97.6409C98.3705 90.3243 98.9677 89.726 98.9677 88.9976V79.6275C98.9677 78.8991 98.3705 78.2997 97.6409 78.2997ZM90.6246 87.0234C89.9061 87.0216 89.2175 86.7352 88.7097 86.2268C88.2019 85.7184 87.9163 85.0294 87.9154 84.3109C87.9151 83.955 87.985 83.6026 88.1211 83.2738C88.2571 82.9449 88.4567 82.6462 88.7083 82.3945C88.9599 82.1429 89.2587 81.9434 89.5875 81.8073C89.9163 81.6713 90.2688 81.6014 90.6246 81.6017C90.9897 81.587 91.354 81.6463 91.6956 81.7758C92.0372 81.9054 92.3491 82.1027 92.6126 82.3558C92.8761 82.609 93.0858 82.9127 93.229 83.2488C93.3722 83.585 93.446 83.9466 93.446 84.312C93.446 84.6773 93.3722 85.039 93.229 85.3751C93.0858 85.7112 92.8761 86.015 92.6126 86.2681C92.3491 86.5212 92.0372 86.7185 91.6956 86.8481C91.354 86.9777 90.9897 87.038 90.6246 87.0234Z" fill="white"/>
<defs>
<linearGradient id="paint0_linear_45_6263" x1="75.0008" y1="13.0011" x2="75.0008" y2="137.42" gradientUnits="userSpaceOnUse">
<stop stop-color="#4387FD"/>
<stop offset="1" stop-color="#4683EA"/>
</linearGradient>
</defs>
</svg>
