<svg width="150" height="150" viewBox="0 0 150 150" fill="none" xmlns="http://www.w3.org/2000/svg">
<g clip-path="url(#clip0_45_6257)">
<path d="M141 9H9V141H141V9Z" fill="url(#paint0_linear_45_6257)"/>
<path d="M117.117 79.5052C116.606 76.742 113.474 74.7884 111.326 73.398C110.64 72.958 108.757 72.254 108.598 71.638C108.588 71.1973 108.647 70.7577 108.774 70.3356L110.534 57.6812C111.045 53.9676 111.538 50.254 112.048 46.5404C112.506 43.126 110.869 40.838 108.088 38.9196C102.421 34.9948 95.0288 33.4108 88.3584 32.3196C79.9931 30.9538 71.4862 30.6758 63.0496 31.4924C55.4616 32.0492 48.0141 33.8323 40.9968 36.7724C37.2304 38.5324 32.3024 41.278 32.9184 46.0828C34.6784 60.374 36.7552 74.63 38.6736 88.9036C39.5536 95.4332 40.4336 101.963 41.3136 108.492C41.4556 109.764 41.9308 110.975 42.691 112.005C43.4512 113.034 44.4696 113.844 45.6432 114.353C51.0992 117.31 57.8576 118.155 63.9472 118.718C72.043 119.449 80.2004 119.088 88.2 117.644C93.2688 116.712 102.702 115.18 103.512 108.844C104.515 100.995 105.624 93.1452 106.68 85.3132L107.067 82.9196C109.936 83.606 118.12 85.0668 117.117 79.5052ZM72.448 34.5196C83.008 34.5196 95.0992 35.7164 104.568 40.926C106.029 41.7356 109.426 43.5484 108.405 45.6956C107.384 47.8428 104.216 48.9164 102.28 49.6908C99.5155 50.712 96.6725 51.5066 93.7792 52.0668C81.2158 54.5556 68.3135 54.8236 55.6576 52.8588C49.9429 52.2695 44.3839 50.6412 39.2544 48.054C37.9872 47.3324 35.8928 46.03 36.4736 44.3052C36.9336 43.3785 37.6558 42.6074 38.5504 42.0876C42.4162 39.6015 46.7148 37.8642 51.2224 36.966C58.173 35.2975 65.3 34.476 72.448 34.5196ZM100.045 108.704C99.7808 110.763 96.384 111.784 94.7648 112.364C91.4032 113.489 87.9356 114.267 84.416 114.688C76.6066 115.726 68.6942 115.726 60.8848 114.688C55.9936 114.308 51.2173 113.013 46.8048 110.868C46.2045 110.607 45.6888 110.184 45.3157 109.646C44.9426 109.109 44.7269 108.477 44.6928 107.824C42.9328 93.8668 40.9264 79.91 39.0432 65.9532L37.0016 50.8172C41.0027 53.0257 45.3454 54.5486 49.8496 55.3228C54.6737 56.3046 59.561 56.9456 64.4752 57.2412C74.1197 57.9323 83.8129 57.3941 93.3216 55.6396C98.3882 54.9109 103.283 53.2775 107.771 50.8172L104.04 78.4492C95.1213 75.5109 86.4077 71.9831 77.9568 67.8892C77.586 67.7477 77.227 67.577 76.8832 67.3788C76.408 67.0268 76.5312 67.2028 76.3024 66.6572C75.8624 65.654 75.7568 64.8972 74.824 64.07C74.3204 63.6667 73.7259 63.3925 73.0922 63.2713C72.4585 63.1502 71.8047 63.1857 71.1879 63.3748C70.571 63.5639 70.0097 63.9008 69.5528 64.3563C69.0958 64.8118 68.7571 65.3721 68.5661 65.9883C68.375 66.6046 68.3374 67.2582 68.4566 67.8923C68.5758 68.5264 68.8481 69.1218 69.2498 69.6266C69.6516 70.1315 70.1706 70.5305 70.7617 70.7891C71.3528 71.0476 71.9982 71.1578 72.6416 71.11C73.2483 71.0094 73.8397 70.8319 74.4016 70.582C75.088 70.3708 75.088 70.406 75.8096 70.7404C84.3691 74.9142 93.1871 78.5355 102.21 81.582C103.565 82.022 103.547 81.582 103.547 82.7084C103.49 83.5653 103.378 84.4177 103.213 85.2604L102.086 93.6556L100.045 108.704ZM72.888 67.0796C72.888 67.5548 72.2192 67.502 72.0432 67.2028C71.8672 66.9036 72.888 66.4108 72.888 67.0796ZM107.56 79.3996L108.088 75.51C109.848 76.5132 112.84 78.0268 113.632 80.0332C111.907 80.7372 109.179 79.8044 107.56 79.3996Z" fill="white"/>
</g>
<defs>
<linearGradient id="paint0_linear_45_6257" x1="-18.3328" y1="168.333" x2="168.333" y2="-18.3328" gradientUnits="userSpaceOnUse">
<stop stop-color="#1B660F"/>
<stop offset="1" stop-color="#6CAE3E"/>
</linearGradient>
<clipPath id="clip0_45_6257">
<rect width="132" height="132" fill="white" transform="translate(9 9)"/>
</clipPath>
</defs>
</svg>
