<svg width="150" height="150" viewBox="0 0 150 150" fill="none" xmlns="http://www.w3.org/2000/svg">
<path fill-rule="evenodd" clip-rule="evenodd" d="M19 21.1211V128.57C19 139.821 43.669 148.692 74.4948 148.692V21.1211H19Z" fill="#3E3E3E"/>
<path fill-rule="evenodd" clip-rule="evenodd" d="M73.8232 148.985H74.7048C105.251 148.985 130.2 139.792 130.2 128.864V21.1348H73.8232V148.985Z" fill="#A0A1A2"/>
<path fill-rule="evenodd" clip-rule="evenodd" d="M129.99 21.1214C129.99 32.3715 105.321 41.2428 74.4948 41.2428C43.669 41.2428 19 32.3715 19 21.1214C19 9.87132 43.9489 1 74.4948 1C105.041 1 129.99 10.1652 129.99 21.1214Z" fill="white"/>
<path fill-rule="evenodd" clip-rule="evenodd" d="M118.544 19.9463C118.544 27.3344 98.8562 33.2533 74.4811 33.2533C50.1059 33.2533 30.4463 27.3344 30.4463 19.9463C30.4463 12.5582 50.1339 6.61133 74.4811 6.61133C98.8283 6.61133 118.544 12.5302 118.544 19.9463Z" fill="#7FBA00"/>
<path fill-rule="evenodd" clip-rule="evenodd" d="M109.435 28.2296C115.312 25.8509 118.544 23.1923 118.544 19.932C118.544 12.5439 98.8562 6.625 74.4811 6.625C50.1059 6.625 30.4463 12.5439 30.4463 19.932C30.4463 22.9124 33.9724 25.8509 39.5555 28.2296C47.4613 24.9693 60.0967 22.8984 74.4811 22.8984C88.8655 22.8984 101.207 24.9553 109.435 28.2296Z" fill="#B8D432"/>
<path fill-rule="evenodd" clip-rule="evenodd" d="M73.6132 148.987V95.7026C65.3856 95.7026 58.3473 91.267 54.2474 84.7324C50.1196 91.253 43.3891 95.7026 35.1615 95.7026C28.6829 95.7026 23.0998 93.044 19 88.6084V128.865C19 139.807 43.3752 148.679 73.6132 148.987Z" fill="#3999C6"/>
<path fill-rule="evenodd" clip-rule="evenodd" d="M113.184 95.7163C104.831 95.7163 97.3868 91.2807 93.203 84.7461C89.3271 91.2667 82.1768 95.4225 73.8232 95.7163V149C104.831 149 130.172 139.807 130.172 128.879V88.3142C126.016 92.7499 120.041 95.7303 113.184 95.7303V95.7163Z" fill="#59B4D9"/>
</svg>
