<svg width="124" height="138" viewBox="0 0 124 138" fill="none" xmlns="http://www.w3.org/2000/svg">
<rect x="0.000244141" y="56.9966" width="24.7999" height="24.8" fill="#F43BA6"/>
<rect x="20.2615" y="116.89" width="24.8" height="24.7999" transform="rotate(-60 20.2615 116.89)" fill="#F43BA6"/>
<rect x="99.2002" y="56.9966" width="24.7999" height="24.8" fill="#F43BA6"/>
<rect x="69.8613" y="30.98" width="24.8" height="24.7999" transform="rotate(-60 69.8613 30.98)" fill="#F43BA6"/>
<rect x="82.2612" y="129.29" width="24.8" height="24.7999" transform="rotate(-120 82.2612 129.29)" fill="#F43BA6"/>
<rect x="32.6614" y="43.3804" width="24.8" height="24.7999" transform="rotate(-120 32.6614 43.3804)" fill="#F43BA6"/>
<path d="M12.4002 28.2808L23.1389 46.8807H1.66153L12.4002 28.2808Z" fill="#FFBC00"/>
<path d="M111.6 28.2808L122.339 46.8807H100.861L111.6 28.2808Z" fill="#FFBC00"/>
<path d="M12.4001 110.512L1.66138 91.9122L23.1388 91.9122L12.4001 110.512Z" fill="#FFBC00"/>
<path d="M61.9999 24.7998L51.2612 6.19983L72.7386 6.19983L61.9999 24.7998Z" fill="#FFBC00"/>
<path d="M62.0001 113.123L72.7388 131.723H51.2614L62.0001 113.123Z" fill="#FFBC00"/>
<path d="M61.5651 48.2944L79.8397 58.8453V79.947L61.5651 90.4979L43.2905 79.947L43.2905 58.8453L61.5651 48.2944Z" fill="#0C1A2C"/>
<path d="M111.6 110.512L100.861 91.9122L122.339 91.9122L111.6 110.512Z" fill="#FFBC00"/>
</svg>