<svg width="150" height="150" viewBox="0 0 150 150" fill="none" xmlns="http://www.w3.org/2000/svg">
<g clip-path="url(#clip0_45_6281)">
<path d="M62.6613 35.2287C67.407 30.29 74.0026 27.2174 81.3061 27.2174C91.0226 27.2174 99.4844 32.6387 104.005 40.6661C107.93 38.9126 112.273 37.9313 116.826 37.9313C134.345 37.9313 148.533 52.2487 148.533 69.9283C148.533 87.6078 134.329 101.925 116.826 101.925C114.687 101.925 112.595 101.716 110.584 101.298C106.611 108.376 99.0339 113.17 90.347 113.17C86.7113 113.17 83.2687 112.333 80.2122 110.837C76.1904 120.313 66.7957 126.957 55.8726 126.957C44.9496 126.957 34.7826 119.75 31.0504 109.647C29.4257 109.985 27.7365 110.178 25.9991 110.178C12.4378 110.178 1.45044 99.0778 1.45044 85.3717C1.45044 76.1861 6.38913 68.1748 13.7248 63.8796C12.2126 60.4048 11.3761 56.56 11.3761 52.5383C11.3761 36.773 24.1652 24 39.9465 24C49.2126 24 57.4491 28.4078 62.6613 35.2287Z" fill="#0D9DDA"/>
<path d="M22.7656 77.392C22.6691 77.6333 22.7978 77.6816 22.83 77.7298C23.1034 77.9229 23.393 78.0677 23.6665 78.2446C25.1626 79.0329 26.5782 79.2742 28.0582 79.2742C31.0826 79.2742 32.9487 77.6655 32.9487 75.0916V75.0433C32.9487 72.6624 30.8252 71.7937 28.8465 71.1664L28.5891 71.0859C27.093 70.6033 25.8061 70.1851 25.8061 69.1877V69.1394C25.8061 68.3029 26.5621 67.6755 27.7365 67.6755C29.0395 67.6755 30.5839 68.1098 31.5652 68.6568C31.5652 68.6568 31.8548 68.8498 31.9674 68.5603C32.0317 68.3994 32.5304 67.0481 32.5787 66.9033C32.643 66.7424 32.5304 66.6298 32.4339 66.5655C31.2917 65.8737 29.7313 65.4072 28.1065 65.4072H27.8008C25.0339 65.4072 23.1034 67.0803 23.1034 69.4611V69.5094C23.1034 72.0351 25.2269 72.8394 27.2217 73.4185L27.5434 73.5151C28.9913 73.9655 30.2461 74.3516 30.2461 75.3651V75.4133C30.2461 76.3464 29.4256 77.0381 28.1226 77.0381C27.6078 77.0381 25.983 77.0381 24.2295 75.912C24.0204 75.7833 23.8917 75.7029 23.7308 75.6064C23.6504 75.5581 23.4252 75.4616 23.3287 75.7351L22.7334 77.392H22.7656Z" fill="white"/>
<path d="M66.9248 77.393C66.8283 77.6343 66.957 77.6826 66.9892 77.7308C67.2626 77.9239 67.5522 78.0686 67.8257 78.2456C69.3218 79.0339 70.7374 79.2752 72.2174 79.2752C75.2418 79.2752 77.1078 77.6665 77.1078 75.0926V75.0443C77.1078 72.6634 75.0005 71.7947 73.0057 71.1673L72.7483 71.0869C71.2522 70.6043 69.9652 70.186 69.9652 69.1886V69.1404C69.9652 68.3039 70.7213 67.6765 71.8957 67.6765C73.1987 67.6765 74.7431 68.1108 75.7244 68.6578C75.7244 68.6578 76.0139 68.8508 76.1265 68.5612C76.1909 68.4004 76.6896 67.0491 76.7378 66.9043C76.8022 66.7434 76.6896 66.6308 76.5931 66.5665C75.4509 65.8747 73.8905 65.4082 72.2657 65.4082H71.96C69.1931 65.4082 67.2626 67.0812 67.2626 69.4621V69.5104C67.2626 72.036 69.3861 72.8404 71.3809 73.4195L71.7026 73.516C73.1505 73.9665 74.4052 74.3526 74.4052 75.366V75.4143C74.4052 76.3473 73.5848 77.0391 72.2818 77.0391C71.767 77.0391 70.1422 77.0391 68.3887 75.913C68.1796 75.7843 68.0509 75.7039 67.89 75.6073C67.8418 75.5752 67.5844 75.4786 67.4878 75.736L66.8926 77.393H66.9248Z" fill="white"/>
<path d="M99.5969 69.6225C99.3556 68.786 98.9696 68.046 98.4548 67.4347C97.94 66.8234 97.2965 66.3247 96.5243 65.9708C95.7522 65.6169 94.8513 65.4238 93.8217 65.4238C92.7922 65.4238 91.8913 65.6008 91.1191 65.9708C90.3469 66.3247 89.7035 66.8234 89.1887 67.4347C88.6739 68.046 88.2878 68.786 88.0465 69.6225C87.8052 70.459 87.6765 71.3599 87.6765 72.3251C87.6765 73.2904 87.8052 74.2073 88.0465 75.0277C88.2878 75.8643 88.6739 76.6043 89.1887 77.2156C89.7035 77.8269 90.363 78.3256 91.1191 78.6795C91.8913 79.0334 92.7922 79.2103 93.8217 79.2103C94.8513 79.2103 95.7522 79.0334 96.5243 78.6795C97.2965 78.3256 97.94 77.843 98.4548 77.2156C98.9696 76.6043 99.3556 75.8643 99.5969 75.0277C99.8383 74.1912 99.9669 73.2904 99.9669 72.3251C99.9669 71.3599 99.8383 70.443 99.5969 69.6225ZM97.0713 72.3251C97.0713 73.789 96.7978 74.9312 96.2669 75.7517C95.7361 76.556 94.9317 76.9421 93.8217 76.9421C92.7117 76.9421 91.9074 76.556 91.3765 75.7517C90.8456 74.9312 90.5722 73.789 90.5722 72.3251C90.5722 70.8612 90.8456 69.719 91.3604 68.9147C91.8913 68.1103 92.6796 67.7243 93.8056 67.7243C94.9317 67.7243 95.72 68.1103 96.2509 68.9147C96.7817 69.719 97.0552 70.8612 97.0552 72.3251" fill="white"/>
<path fill-rule="evenodd" clip-rule="evenodd" d="M120.285 76.5555C120.204 76.3142 119.963 76.4108 119.963 76.4108C119.593 76.5555 119.207 76.6842 118.789 76.7486C118.37 76.8129 117.904 76.8451 117.405 76.8451C116.183 76.8451 115.217 76.4751 114.526 75.7673C113.834 75.0434 113.432 73.8851 113.448 72.3247C113.448 70.8929 113.802 69.8312 114.413 69.0108C115.024 68.1903 115.957 67.7881 117.212 67.7881C118.258 67.7881 119.046 67.9008 119.883 68.1742C119.883 68.1742 120.076 68.2547 120.172 67.9973C120.397 67.386 120.558 66.9516 120.799 66.276C120.864 66.0829 120.703 66.0025 120.639 65.9864C120.317 65.8577 119.545 65.6486 118.966 65.5681C118.419 65.4877 117.791 65.4395 117.083 65.4395C116.022 65.4395 115.089 65.6164 114.268 65.9864C113.464 66.3403 112.788 66.839 112.241 67.4503C111.694 68.0616 111.292 68.8016 111.019 69.6381C110.745 70.4747 110.6 71.3755 110.6 72.3568C110.6 74.4481 111.163 76.1373 112.273 77.376C113.383 78.6147 115.056 79.2421 117.244 79.2421C118.531 79.2421 119.85 78.9847 120.816 78.5986C120.816 78.5986 120.993 78.5181 120.912 78.2929L120.301 76.5877L120.285 76.5555Z" fill="white"/>
<path fill-rule="evenodd" clip-rule="evenodd" d="M133.17 69.156C132.961 68.3517 132.43 67.5312 132.076 67.1612C131.529 66.566 130.998 66.1638 130.451 65.9225C129.76 65.6169 128.923 65.4238 128.006 65.4238C126.944 65.4238 125.979 65.6008 125.191 65.9708C124.403 66.3408 123.743 66.8395 123.228 67.4669C122.714 68.0943 122.327 68.8343 122.07 69.6869C121.829 70.5234 121.7 71.4404 121.7 72.4056C121.7 73.3708 121.829 74.3038 122.086 75.1243C122.344 75.9608 122.762 76.6847 123.325 77.296C123.888 77.9073 124.612 78.3899 125.464 78.7117C126.317 79.0495 127.363 79.2103 128.553 79.2103C131.014 79.2103 132.317 78.6473 132.848 78.3577C132.945 78.3095 133.025 78.213 132.929 77.9556L132.366 76.3951C132.285 76.1699 132.044 76.2503 132.044 76.2503C131.433 76.4756 130.564 76.8777 128.537 76.8777C127.218 76.8777 126.237 76.4917 125.625 75.8804C124.998 75.253 124.692 74.336 124.628 73.049H133.154C133.154 73.049 133.379 73.049 133.395 72.8399C133.395 72.7434 133.685 71.0864 133.138 69.1721L133.17 69.156ZM124.692 70.9417C124.805 70.1373 125.03 69.4617 125.384 68.9308C125.899 68.1264 126.703 67.6921 127.829 67.6921C128.955 67.6921 129.679 68.1264 130.21 68.9308C130.564 69.4617 130.709 70.1534 130.773 70.9417H124.692Z" fill="white"/>
<path fill-rule="evenodd" clip-rule="evenodd" d="M64.8976 69.156C64.6885 68.3517 64.1576 67.5312 63.8037 67.1612C63.2567 66.566 62.7259 66.1638 62.1789 65.9225C61.4872 65.6169 60.6507 65.4238 59.7337 65.4238C58.672 65.4238 57.7067 65.6008 56.9185 65.9708C56.1302 66.3408 55.4707 66.8395 54.9559 67.4669C54.4411 68.0943 54.055 68.8343 53.7976 69.6869C53.5563 70.5234 53.4276 71.4404 53.4276 72.4056C53.4276 73.3708 53.5563 74.3038 53.8137 75.1243C54.0711 75.9608 54.4893 76.6847 55.0524 77.296C55.6154 77.9073 56.3394 78.3899 57.192 78.7117C58.0446 79.0495 59.0902 79.2103 60.2807 79.2103C62.742 79.2103 64.045 78.6473 64.5759 78.3577C64.6724 78.3095 64.7528 78.213 64.6402 77.9556L64.0772 76.3951C63.9967 76.1699 63.7554 76.2503 63.7554 76.2503C63.1441 76.4756 62.2754 76.8777 60.2485 76.8777C58.9294 76.8777 57.948 76.4917 57.3367 75.8804C56.7094 75.253 56.4037 74.336 56.3394 73.049H64.8654C64.8654 73.049 65.0907 73.049 65.1067 72.8399C65.1067 72.7434 65.3963 71.0864 64.8493 69.1721L64.8976 69.156ZM56.4198 70.9417C56.5324 70.1373 56.7576 69.4617 57.1115 68.9308C57.6424 68.1264 58.4307 67.6921 59.5567 67.6921C60.6828 67.6921 61.4067 68.1264 61.9537 68.9308C62.3076 69.4617 62.4524 70.1534 62.5167 70.9417H56.4359H56.4198Z" fill="white"/>
<path d="M41.3782 70.5234C41.0243 70.4912 40.5899 70.4912 40.043 70.4912C39.3191 70.4912 38.6113 70.5877 37.9356 70.7647C37.276 70.9417 36.6647 71.2151 36.1499 71.5851C35.6352 71.9551 35.2169 72.4217 34.9113 72.9847C34.6056 73.5477 34.4608 74.2073 34.4608 74.9473C34.4608 75.6873 34.5895 76.363 34.8469 76.8938C35.1043 77.4247 35.4743 77.8751 35.9569 78.229C36.4234 78.5669 37.0186 78.8243 37.6943 78.9851C38.3699 79.1299 39.126 79.2103 39.9465 79.2103C40.8152 79.2103 41.6999 79.1299 42.5365 79.0012C43.373 78.8564 44.4026 78.6473 44.676 78.583C44.9656 78.5186 45.2713 78.4382 45.2713 78.4382C45.4804 78.3899 45.4643 78.1647 45.4643 78.1647V70.3625C45.4643 68.6573 44.9978 67.3864 44.0969 66.5982C43.196 65.8099 41.893 65.4238 40.1878 65.4238C39.5443 65.4238 38.5147 65.5043 37.9034 65.633C37.9034 65.633 36.0373 65.9869 35.2813 66.5982C35.2813 66.5982 35.1204 66.6947 35.2008 66.936L35.8121 68.5608C35.8926 68.7699 36.0856 68.7056 36.0856 68.7056C36.0856 68.7056 36.1499 68.6734 36.2304 68.6412C37.8713 67.7564 39.9465 67.7725 39.9465 67.7725C40.8634 67.7725 41.5713 67.9656 42.0539 68.3195C42.5204 68.6734 42.7617 69.2203 42.7617 70.3464V70.7004C42.0378 70.5877 41.3621 70.5395 41.3621 70.5395L41.3782 70.5234ZM37.9839 76.5077C37.646 76.2343 37.5978 76.1699 37.4852 76.009C37.3243 75.7517 37.2278 75.3817 37.2278 74.899C37.2278 74.143 37.4691 73.6121 37.9839 73.2421C37.9839 73.2421 38.7239 72.5986 40.4613 72.6308C41.6839 72.6308 42.7778 72.8238 42.7778 72.8238V76.7008C42.7778 76.7008 41.6999 76.926 40.4773 77.0064C38.7399 77.103 37.9678 76.5077 37.9839 76.5077Z" fill="white"/>
<path fill-rule="evenodd" clip-rule="evenodd" d="M110.133 66.1316C110.198 65.9385 110.069 65.842 110.005 65.8259C109.86 65.7777 109.136 65.6168 108.573 65.5846C107.495 65.5203 106.9 65.6972 106.369 65.9385C105.838 66.1798 105.259 66.5659 104.921 67.0003V65.9546C104.921 65.8098 104.825 65.6972 104.68 65.6972H102.492C102.347 65.6972 102.251 65.8098 102.251 65.9546V78.6794C102.251 78.8242 102.363 78.9368 102.508 78.9368H104.744C104.889 78.9368 105.002 78.8242 105.002 78.6794V72.325C105.002 71.4724 105.098 70.6198 105.291 70.089C105.468 69.5581 105.726 69.1398 106.031 68.8342C106.337 68.5285 106.691 68.3194 107.077 68.2068C107.479 68.0781 107.913 68.0459 108.219 68.0459C108.67 68.0459 109.152 68.1585 109.152 68.1585C109.313 68.1746 109.41 68.0781 109.458 67.9333C109.603 67.5472 110.021 66.3729 110.101 66.1477L110.133 66.1316Z" fill="white"/>
<path fill-rule="evenodd" clip-rule="evenodd" d="M89.1083 60.2437C88.8348 60.1632 88.5935 60.0989 88.2718 60.0506C87.95 59.9863 87.5478 59.9541 87.1135 59.9541C85.5691 59.9541 84.3626 60.3884 83.51 61.2571C82.6574 62.1098 82.0783 63.4128 81.8048 65.118L81.7083 65.6971H79.7778C79.7778 65.6971 79.5365 65.6971 79.4883 65.9384L79.1665 67.708C79.1504 67.885 79.2148 67.9815 79.44 67.9815H81.3222L79.4078 78.6471C79.2631 79.4998 79.0861 80.2076 78.8931 80.7545C78.7 81.2854 78.5231 81.6715 78.2978 81.9611C78.0726 82.2345 77.8796 82.4437 77.5257 82.5563C77.2361 82.6528 76.8983 82.7011 76.5283 82.7011C76.3191 82.7011 76.0457 82.6689 75.8365 82.6206C75.6274 82.5884 75.5309 82.5402 75.37 82.4758C75.37 82.4758 75.1448 82.3954 75.0644 82.6206C75 82.7976 74.4852 84.1811 74.437 84.358C74.3726 84.5189 74.4691 84.6637 74.5657 84.6958C74.8231 84.7924 75 84.8406 75.3378 84.9211C75.8044 85.0337 76.2065 85.0337 76.5926 85.0337C77.3809 85.0337 78.0887 84.9211 78.6839 84.7119C79.2791 84.5028 79.7939 84.1167 80.2604 83.618C80.7591 83.0711 81.0648 82.4919 81.3704 81.7037C81.66 80.9315 81.9174 79.9663 82.1265 78.8402L84.0409 67.9654H86.8561C86.8561 67.9654 87.0974 67.9654 87.1457 67.7241L87.4674 65.9545C87.4835 65.7776 87.4191 65.6811 87.1939 65.6811H84.4752C84.4752 65.6811 84.62 64.6676 84.9257 63.7506C85.0544 63.3645 85.3118 63.0589 85.5209 62.8337C85.73 62.6245 85.9713 62.4798 86.2287 62.3832C86.5022 62.3028 86.8078 62.2545 87.1457 62.2545C87.4031 62.2545 87.6605 62.2867 87.8535 62.3189C88.1109 62.3671 88.2235 62.3993 88.2878 62.4315C88.5613 62.5119 88.6096 62.4315 88.6578 62.3028L89.3174 60.5171C89.3818 60.3241 89.2209 60.2437 89.1565 60.2276L89.1083 60.2437Z" fill="white"/>
<path fill-rule="evenodd" clip-rule="evenodd" d="M51.03 78.6793C51.03 78.8241 50.9335 78.9367 50.7887 78.9367H48.5205C48.3757 78.9367 48.2792 78.8241 48.2792 78.6793V60.4849C48.2792 60.3401 48.3757 60.2275 48.5205 60.2275H50.7887C50.9335 60.2275 51.03 60.3401 51.03 60.4849V78.6793Z" fill="white"/>
</g>
<defs>
<clipPath id="clip0_45_6281">
<rect width="148" height="102.957" fill="white" transform="translate(1 24)"/>
</clipPath>
</defs>
</svg>
