<svg width="150" height="150" viewBox="0 0 150 150" fill="none" xmlns="http://www.w3.org/2000/svg">
<g clip-path="url(#clip0_45_6301)">
<path d="M9.62546 51H11.8737L12.196 52.509H39.6986L39.9564 51H42.3032L47.0273 64.1712L44.1345 65.1987C42.743 61.6879 41.0938 59.2197 39.1867 57.7941C37.2797 56.3686 34.838 55.6596 31.8618 55.6596C30.6183 55.6596 29.8789 55.7089 29.6439 55.8037C29.4088 55.8984 29.242 56.0653 29.1472 56.3003C29.0524 56.5354 29.0031 57.2861 29.0031 58.5486V89.6492C29.0031 91.1278 29.0828 92.1212 29.2458 92.6368C29.405 93.1524 29.6363 93.5467 29.9358 93.8273C30.2353 94.104 30.6486 94.305 31.1718 94.4225C31.695 94.5401 32.8703 94.6121 34.6902 94.631V97.3305H17.4053V94.631C19.3124 94.6083 20.4801 94.5438 20.9086 94.4377C21.6593 94.2216 22.1938 93.8121 22.5161 93.2093C22.8384 92.6065 22.9976 91.4956 22.9976 89.8767V58.1316C22.9976 57.1458 22.9483 56.5468 22.8535 56.3345C22.7588 56.1221 22.5768 55.9553 22.3076 55.8378C22.0384 55.7203 21.4886 55.6596 20.6545 55.6596C18.3191 55.6596 16.4499 55.9591 15.0471 56.5581C13.6443 57.1572 12.3211 58.1771 11.0776 59.6102C9.83398 61.0471 8.77619 62.9087 7.8966 65.1987L5.00378 64.1712L9.62546 51Z" fill="#20679E"/>
<path d="M46.7126 52.5088H64.4296C69.8096 52.5088 73.5175 52.85 75.5535 53.5362C78.1051 54.3514 80.2093 55.7428 81.8737 57.7143C83.5343 59.6858 84.3647 62.1919 84.3647 65.2326C84.3647 67.8259 83.7315 70.0628 82.4652 71.9471C80.941 74.2182 79.0947 75.8295 76.9184 76.7811C74.7422 77.7327 71.3148 78.2105 66.64 78.2105H58.4393V89.7135C58.4393 91.4272 58.5341 92.5077 58.7274 92.9589C58.9852 93.5807 59.3378 94.0129 59.789 94.2593C60.2402 94.5058 61.1501 94.6271 62.5188 94.6271H64.0619V97.3265H46.7126V94.6271H47.7742C49.2528 94.6271 50.2575 94.5058 50.7959 94.2593C51.3305 94.0129 51.721 93.6262 51.9674 93.1029C52.2139 92.5797 52.3352 91.5864 52.3352 90.1305V59.4811C52.3352 58.0556 52.2214 57.1039 51.9978 56.6148C51.7741 56.1295 51.3987 55.7732 50.8717 55.5457C50.3447 55.3182 49.3135 55.2045 47.7704 55.2045H46.7088V52.5088H46.7126ZM58.4393 56.012V74.8058H65.3585C68.8542 74.8058 71.3072 74.4949 72.7138 73.8731C74.1204 73.2514 75.2805 72.1746 76.2056 70.6429C77.1269 69.1112 77.5895 67.3179 77.5895 65.2629C77.5895 63.0147 77.0511 61.1341 75.9781 59.6252C74.9052 58.1162 73.4455 57.0926 71.6029 56.558C70.3138 56.194 67.804 56.012 64.0733 56.012H58.4431H58.4393Z" fill="#20679E"/>
<path d="M121.099 52.5089H123.412L127.483 67.4469L124.496 68.281C122.888 64.8346 121.667 62.5181 120.833 61.3428C119.461 59.4357 117.755 57.9268 115.707 56.8121C113.66 55.6974 111.408 55.1401 108.944 55.1401C106.051 55.1401 103.389 55.9173 100.959 57.4718C98.5288 59.0263 96.5573 61.3049 95.0483 64.3038C93.5394 67.3066 92.7849 70.6809 92.7849 74.4344C92.7849 78.1878 93.5507 81.7328 95.0824 84.7545C96.6142 87.7762 98.6842 90.1041 101.3 91.7306C103.913 93.3609 106.73 94.176 109.751 94.176C112.599 94.176 115.514 93.3609 118.49 91.7268C121.467 90.0927 124.048 87.8065 126.232 84.8606L128.803 86.6274C127.476 88.5989 126.039 90.2671 124.5 91.6396C122.058 93.8462 119.522 95.4727 116.887 96.5229C114.252 97.5731 111.359 98.0963 108.212 98.0963C101.251 98.0963 95.5981 95.5144 91.2494 90.3543C87.6514 86.0701 85.8505 80.9745 85.8505 75.0637C85.8505 70.715 86.8476 66.7796 88.8381 63.2574C90.8285 59.7352 93.5773 56.9334 97.0805 54.8558C100.584 52.7781 104.356 51.7393 108.405 51.7393C110.57 51.7393 112.576 52.035 114.43 52.6226C116.284 53.2103 118.16 54.1581 120.068 55.4662L121.103 52.5089H121.099Z" fill="#20679E"/>
<path d="M138.198 65.8811C137.25 65.8811 136.363 65.7029 135.537 65.3465C134.71 64.9901 133.997 64.5048 133.391 63.8944C132.784 63.284 132.306 62.5674 131.958 61.7485C131.609 60.9295 131.434 60.0575 131.434 59.1362V59.0983C131.434 58.1732 131.609 57.3012 131.958 56.486C132.306 55.6671 132.788 54.9505 133.402 54.3326C134.013 53.7146 134.737 53.2255 135.567 52.8615C136.397 52.4975 137.288 52.3193 138.236 52.3193C139.184 52.3193 140.071 52.4975 140.898 52.8539C141.724 53.2103 142.437 53.6956 143.044 54.306C143.65 54.9164 144.128 55.633 144.477 56.4519C144.826 57.2709 145 58.1429 145 59.0642V59.1021C145 60.0272 144.826 60.8992 144.477 61.7143C144.128 62.5333 143.646 63.2498 143.032 63.8678C142.422 64.4858 141.698 64.9749 140.867 65.3389C140.037 65.7029 139.146 65.8811 138.198 65.8811ZM138.198 65.1304C139.059 65.1304 139.855 64.9711 140.587 64.6527C141.319 64.3342 141.952 63.902 142.49 63.3598C143.028 62.8176 143.449 62.1769 143.756 61.4376C144.064 60.702 144.215 59.921 144.215 59.0945V59.0566C144.215 58.2339 144.064 57.4528 143.756 56.7249C143.449 55.9932 143.032 55.3562 142.501 54.8141C141.971 54.2719 141.341 53.8435 140.61 53.5326C139.878 53.2217 139.089 53.0624 138.24 53.0624C137.391 53.0624 136.583 53.2217 135.851 53.5402C135.12 53.8586 134.487 54.2908 133.948 54.833C133.41 55.3752 132.989 56.0159 132.682 56.7552C132.375 57.4908 132.223 58.2718 132.223 59.0983V59.1362C132.223 59.9589 132.375 60.74 132.674 61.4679C132.974 62.1958 133.391 62.8366 133.929 63.3788C134.468 63.9209 135.101 64.3493 135.832 64.664C136.564 64.9749 137.353 65.1342 138.202 65.1342L138.198 65.1304ZM135.423 55.2956H138.627C139.59 55.2956 140.333 55.5572 140.856 56.0842C141.254 56.4823 141.455 57.0093 141.455 57.6576V57.6955C141.455 58.2832 141.311 58.7571 141.023 59.121C140.735 59.485 140.359 59.7504 139.901 59.9248L141.664 62.5105H139.81L138.274 60.1864H137.019V62.5105H135.427V55.2956H135.423ZM138.612 58.8177C139.01 58.8177 139.317 58.723 139.529 58.5258C139.741 58.3324 139.848 58.086 139.848 57.7865V57.7486C139.848 57.3998 139.734 57.1382 139.51 56.96C139.286 56.7856 138.972 56.6984 138.574 56.6984H137.019V58.8139H138.612V58.8177Z" fill="#20679E"/>
</g>
<defs>
<clipPath id="clip0_45_6301">
<rect width="140" height="47.1001" fill="white" transform="translate(5 51)"/>
</clipPath>
</defs>
</svg>
