<svg width="150" height="150" viewBox="0 0 150 150" fill="none" xmlns="http://www.w3.org/2000/svg">
<g clip-path="url(#clip0_45_6269)">
<path d="M141 9H9V141H141V9Z" fill="url(#paint0_linear_45_6269)"/>
<path d="M97.4401 80.2449L85.8065 91.8609C87.8994 91.277 89.9188 90.4562 91.8257 89.4145C92.3828 89.7601 92.8584 90.2222 93.22 90.769C93.5815 91.3159 93.8203 91.9346 93.9201 92.5825C93.9201 95.8033 87.0913 99.3057 76.9537 100.731C73.8265 101.154 70.6756 101.378 67.5201 101.4H65.7601C51.5393 101.066 41.1201 96.5777 41.1201 92.6001C41.2198 91.9522 41.4586 91.3335 41.8202 90.7866C42.1817 90.2398 42.6574 89.7777 43.2145 89.4321C48.7409 92.5121 57.6993 94.3425 67.5201 94.3425H67.7137L68.6993 90.8225C68.3121 90.8225 67.9249 90.8225 67.5201 90.8225C57.8401 90.8225 48.8641 88.9041 44.0945 85.8769C42.1937 84.6273 41.1377 83.2721 41.1201 82.0929V73.9441C46.5057 78.0625 57.2417 80.2097 67.5201 80.2097C68.9105 80.2097 70.3009 80.2097 71.6561 80.0865L72.6593 76.5665C70.8993 76.6897 69.2625 76.7425 67.5201 76.7425C52.4193 76.7425 41.1201 72.1137 41.1201 67.9425C41.2198 67.2946 41.4586 66.6759 41.8202 66.129C42.1817 65.5822 42.6574 65.1201 43.2145 64.7745C48.0721 67.5025 55.5345 69.2097 64.0001 69.5969L64.0881 66.0769C55.7633 65.6721 48.2481 63.8769 44.0945 61.2193C42.2113 60.0049 41.1553 58.6321 41.1201 57.4353V49.3041C46.5057 53.4225 57.2417 55.5697 67.5201 55.5697H67.9073L69.7729 52.0497H67.5201C52.4193 52.0497 41.1201 47.4209 41.1201 43.2497C41.1201 39.0785 52.4193 34.4497 67.5201 34.4497C72.6061 34.4281 77.6761 35.0191 82.6209 36.2097H92.2833C87.0033 32.9889 77.8865 30.9297 67.5201 30.9297C53.0177 30.9297 37.6001 35.2241 37.6001 43.2497V57.4177C37.653 58.4213 37.9171 59.4025 38.375 60.2972C38.8329 61.1918 39.4745 61.9798 40.2577 62.6097C39.4645 63.25 38.8171 64.0522 38.3588 64.9628C37.9005 65.8733 37.6418 66.8712 37.6001 67.8897V81.9697C37.6407 82.9884 37.8989 83.9867 38.3573 84.8974C38.8157 85.8081 39.4636 86.6101 40.2577 87.2497C39.4645 87.89 38.8171 88.6922 38.3588 89.6028C37.9005 90.5133 37.6418 91.5112 37.6001 92.5297V106.61C37.5897 106.733 37.5897 106.856 37.6001 106.979C38.0753 114.706 53.2113 118.859 67.5201 118.859C81.8289 118.859 96.9649 114.706 97.4401 106.944C97.4574 106.822 97.4574 106.697 97.4401 106.574V92.4945C97.4063 91.4744 97.1512 90.4738 96.6923 89.5621C96.2334 88.6503 95.5817 87.8493 94.7825 87.2145C95.5765 86.5749 96.2244 85.7729 96.6828 84.8622C97.1412 83.9515 97.3994 82.9532 97.4401 81.9345V80.2449ZM93.9201 106.645C93.9201 110.798 82.6209 115.445 67.5201 115.445C52.4193 115.445 41.1201 110.851 41.1201 106.645V98.5489C46.5057 102.632 57.2417 104.779 67.5201 104.779C77.7985 104.779 88.5345 102.632 93.9201 98.5489V106.645Z" fill="white"/>
<path d="M46.4001 59.6353C47.6151 59.6353 48.6001 58.6504 48.6001 57.4354C48.6001 56.2203 47.6151 55.2354 46.4001 55.2354C45.185 55.2354 44.2001 56.2203 44.2001 57.4354C44.2001 58.6504 45.185 59.6353 46.4001 59.6353Z" fill="white"/>
<path d="M46.4001 84.275C47.6151 84.275 48.6001 83.29 48.6001 82.075C48.6001 80.86 47.6151 79.875 46.4001 79.875C45.185 79.875 44.2001 80.86 44.2001 82.075C44.2001 83.29 45.185 84.275 46.4001 84.275Z" fill="white"/>
<path d="M46.4001 108.916C47.6151 108.916 48.6001 107.931 48.6001 106.716C48.6001 105.501 47.6151 104.516 46.4001 104.516C45.185 104.516 44.2001 105.501 44.2001 106.716C44.2001 107.931 45.185 108.916 46.4001 108.916Z" fill="white"/>
<path d="M71.92 99.6049C71.6101 99.6017 71.3066 99.5167 71.04 99.3585C70.6973 99.1612 70.4311 98.8542 70.2842 98.487C70.1373 98.1198 70.1184 97.7138 70.2305 97.3345L80.1216 64.4049H70.16C69.8526 64.4089 69.5495 64.3322 69.281 64.1826C69.0124 64.0329 68.7877 63.8156 68.6293 63.5521C68.4708 63.2886 68.3842 62.9882 68.3779 62.6809C68.3717 62.3735 68.4461 62.0698 68.5937 61.8001L79.1537 40.6801C79.2999 40.3899 79.5237 40.1458 79.8002 39.9749C80.0766 39.8041 80.395 39.7131 80.72 39.7121H103.6C103.885 39.698 104.169 39.7533 104.428 39.8735C104.687 39.9937 104.913 40.1751 105.086 40.402C105.26 40.629 105.375 40.8946 105.423 41.1761C105.47 41.4576 105.449 41.7464 105.36 42.0177L100.854 55.5521H110.728C111.072 55.5534 111.408 55.6555 111.695 55.8457C111.981 56.0359 112.206 56.3059 112.341 56.6223C112.475 56.9387 112.514 57.2877 112.453 57.6261C112.392 57.9646 112.233 58.2776 111.995 58.5265L73.2753 99.0065C73.1064 99.1988 72.8977 99.3519 72.6637 99.4553C72.4296 99.5586 72.1759 99.6097 71.92 99.6049ZM73.0112 60.8849H82.4801C82.7533 60.8849 83.0228 60.9485 83.2671 61.0707C83.5115 61.1929 83.7241 61.3703 83.888 61.5889C84.052 61.8075 84.1628 62.0613 84.2117 62.3301C84.2605 62.5989 84.2462 62.8754 84.1696 63.1377L75.7041 91.2977L106.522 59.0897H98.32C98.0329 59.105 97.7463 59.0496 97.4855 58.9285C97.2246 58.8074 96.9974 58.6242 96.8238 58.395C96.6501 58.1658 96.5353 57.8975 96.4893 57.6136C96.4433 57.3297 96.4676 57.0389 96.56 56.7665L101.066 43.2497H81.7057L73.0112 60.8849Z" fill="white"/>
</g>
<defs>
<linearGradient id="paint0_linear_45_6269" x1="-18.3328" y1="168.333" x2="168.35" y2="-18.3504" gradientUnits="userSpaceOnUse">
<stop stop-color="#2E27AD"/>
<stop offset="1" stop-color="#527FFF"/>
</linearGradient>
<clipPath id="clip0_45_6269">
<rect width="132" height="132" fill="white" transform="translate(9 9)"/>
</clipPath>
</defs>
</svg>
