<svg width="54" height="53" viewBox="0 0 54 53" fill="none" xmlns="http://www.w3.org/2000/svg">
<g clip-path="url(#clip0_68_3209)">
<path d="M34.08 25.0607C34.18 25.0107 34.28 24.9707 34.38 24.9307L34.99 24.7207L26.61 0.720703L26.49 0.470703H26.2199C24.9599 0.480703 23.7 0.580703 22.45 0.770703L21.95 0.850703L33.7299 25.2107L34.06 25.0507L34.08 25.0607Z" fill="#1AD1EC"/>
<path d="M32.4999 26.2507C32.6299 26.1107 32.7699 25.9707 32.9199 25.8407L33.1999 25.5907L13.8699 3.90066L13.6699 3.68066L13.4099 3.83066C12.2199 4.50066 11.0799 5.27066 9.9999 6.12066L9.6499 6.40066L32.2499 26.5407L32.4999 26.2607V26.2507Z" fill="#1AD1EC"/>
<path d="M31.51 27.9604C31.57 27.7804 31.65 27.6004 31.73 27.4204L31.89 27.0804L3.62003 13.4004L3.45003 13.7004C2.75003 14.9204 2.15003 16.2104 1.66003 17.5304L1.53003 17.8904L31.39 28.3104L31.51 27.9604Z" fill="#1AD1EC"/>
<path d="M31.23 29.9204C31.23 29.8504 31.23 29.7804 31.21 29.7104V29.6104C31.21 29.6104 31.21 29.5304 31.22 29.4904C31.22 29.4304 31.24 29.3704 31.24 29.3104V28.9504L0 27.1504V27.5604C0.05 28.9504 0.2 30.3604 0.46 31.7304L0.52 32.0504L31.23 30.2804V29.9304V29.9204Z" fill="#1AD1EC"/>
<path d="M31.7299 31.8207C31.6499 31.6407 31.5699 31.4607 31.5099 31.2807L31.3899 30.9307L3.87988 40.5007L4.13988 40.9007C4.85988 42.0207 5.66988 43.0907 6.55988 44.0907L6.74988 44.3007L31.8899 32.1507L31.7299 31.8207Z" fill="#1AD1EC"/>
<path d="M32.92 33.3912C32.77 33.2612 32.64 33.1212 32.51 32.9812L32.26 32.7012L13.29 49.6012L13.76 49.8512C14.84 50.4212 15.97 50.9212 17.11 51.3412L17.35 51.4312L33.2 33.6412L32.92 33.3912Z" fill="#1AD1EC"/>
<path d="M34.6301 34.381C34.4501 34.321 34.2701 34.241 34.0901 34.161L33.7501 34.001H33.7401L24.5901 52.941H25.1801C25.3601 52.941 25.5201 52.951 25.6901 52.961C25.8701 52.971 26.0501 52.991 26.2301 52.991C26.9401 52.991 27.6501 52.941 28.3301 52.891L28.5701 52.871L34.9801 34.501L34.6201 34.381H34.6301Z" fill="#1AD1EC"/>
<path d="M36.5901 34.6611C36.5201 34.6611 36.4501 34.6611 36.3801 34.6811C36.3101 34.6911 36.2301 34.6811 36.1601 34.6811C36.1001 34.6811 36.0401 34.6611 35.9801 34.6611H35.6201L34.6401 51.6011L35.1701 51.4111C36.0001 51.1111 36.8301 50.7611 37.6201 50.3811L37.8401 50.2711L36.9401 34.6611H36.5901Z" fill="black"/>
<path d="M40.0601 32.9804C39.9301 33.1304 39.7901 33.2604 39.6501 33.3904L39.3701 33.6404L47.2401 42.4704L47.5101 42.0904C47.8901 41.5704 48.2501 41.0304 48.5801 40.4804L48.7401 40.2104L40.3001 32.6904L40.0501 32.9704L40.0601 32.9804Z" fill="black"/>
<path d="M41.3301 28.9508V29.3008C41.3301 29.3708 41.3301 29.4408 41.3501 29.5108C41.3501 29.5408 41.3601 29.5808 41.3601 29.6108C41.3601 29.6508 41.3601 29.6908 41.3501 29.7308C41.3501 29.7908 41.3301 29.8508 41.3301 29.9108V30.2708L52.1401 30.8908L52.1901 30.5508C52.2901 29.8708 52.3501 29.2708 52.4001 28.7308L52.4301 28.3008L41.3301 28.9408V28.9508Z" fill="black"/>
<path d="M39.6401 25.8304C39.7901 25.9604 39.9201 26.1004 40.0501 26.2404L40.3001 26.5204L50.7001 17.2504L50.6001 17.0104C50.3201 16.2904 49.9901 15.5604 49.6101 14.8404L49.3601 14.3604L39.3501 25.5904L39.6301 25.8404L39.6401 25.8304Z" fill="black"/>
<path d="M35.98 24.5607C36.05 24.5607 36.12 24.5607 36.19 24.5407C36.26 24.5307 36.34 24.5407 36.41 24.5407C36.47 24.5407 36.53 24.5607 36.59 24.5607H36.9501L38.17 3.36074L37.9501 3.25074C36.9401 2.75074 35.8901 2.30074 34.8301 1.94074L34.3 1.76074L35.6101 24.5707H35.96L35.98 24.5607Z" fill="black"/>
<path d="M38.4801 34.1707C38.3101 34.2507 38.1301 34.3307 37.9401 34.3907L37.5901 34.5107L42.1501 47.6107L42.5601 47.2807C43.1301 46.8307 43.6401 46.3607 44.1801 45.8707L44.4401 45.6407L38.8201 34.0107L38.4901 34.1707H38.4801Z" fill="black"/>
<path d="M41.0502 31.2809C40.9902 31.4609 40.9102 31.6409 40.8302 31.8209L40.6702 32.1509L50.4402 36.8909L50.5902 36.5209C50.7702 36.0709 51.0102 35.4609 51.2102 34.8209L51.3202 34.4709L41.1702 30.9209L41.0502 31.2809Z" fill="black"/>
<path d="M40.8399 27.4104C40.9199 27.5804 40.9999 27.7604 41.0599 27.9504L41.1799 28.3104L52.3999 24.4304L52.3699 24.1404C52.2999 23.4604 52.1899 22.8004 52.0699 22.1304L51.9799 21.6504L40.6799 27.0804L40.8399 27.4204V27.4104Z" fill="black"/>
<path d="M37.9401 24.8411C38.1201 24.9011 38.3001 24.9811 38.4801 25.0611L38.8101 25.2211L46.2701 9.80113L46.1101 9.61113C45.4901 8.89113 44.8201 8.20113 44.1201 7.55113L43.7001 7.16113L37.5901 24.7111L37.9401 24.8311V24.8411Z" fill="black"/>
</g>
<defs>
<clipPath id="clip0_68_3209">
<rect width="53.34" height="52.53" fill="white" transform="translate(0 0.470703)"/>
</clipPath>
</defs>
</svg>
