<svg width="150" height="150" viewBox="0 0 150 150" fill="none" xmlns="http://www.w3.org/2000/svg">
<g clip-path="url(#clip0_45_6315)">
<path d="M64.8055 77.5053H74.5696L69.4121 69.1763L59.9298 84.2197H55.618L67.1504 66.1714C67.4018 65.8113 67.7359 65.5166 68.1246 65.3121C68.5133 65.1076 68.9454 64.9993 69.3846 64.9962C69.8238 64.993 70.2573 65.0952 70.6489 65.2941C71.0405 65.493 71.3788 65.7829 71.6353 66.1394L83.1998 84.2197H78.8879L76.8569 80.8561H66.9774L64.8247 77.5053M109.628 80.8561V65.1783H105.964V82.4002C105.963 82.6395 106.011 82.8764 106.104 83.0967C106.198 83.317 106.335 83.5159 106.508 83.6815C106.682 83.859 106.889 83.9998 107.118 84.0956C107.347 84.1913 107.593 84.2401 107.841 84.2389H124.499L126.671 80.8753H109.609M49.038 78.0563C50.7458 78.0563 52.3835 77.3779 53.5911 76.1703C54.7986 74.9628 55.477 73.325 55.477 71.6173C55.477 69.9096 54.7986 68.2718 53.5911 67.0643C52.3835 65.8567 50.7458 65.1783 49.038 65.1783H33.0207V84.2197H36.6791V68.5484H48.8138C49.6311 68.5484 50.415 68.8731 50.9929 69.451C51.5709 70.0289 51.8955 70.8128 51.8955 71.6301C51.8955 72.4474 51.5709 73.2313 50.9929 73.8092C50.415 74.3872 49.6311 74.7118 48.8138 74.7118H38.4922L49.4225 84.2197H54.7338L47.3915 78.0563H49.038ZM10.5196 84.2197H21.5844C24.0658 84.1553 26.424 83.1244 28.1563 81.3465C29.8886 79.5686 30.8581 77.1845 30.8581 74.7022C30.8581 72.22 29.8886 69.8358 28.1563 68.058C26.424 66.2801 24.0658 65.2491 21.5844 65.1847H10.5196C9.24897 65.1518 7.9846 65.3736 6.80105 65.837C5.6175 66.3005 4.53874 66.9963 3.62839 67.8833C2.71803 68.7704 1.99451 69.8307 1.50049 71.0019C1.00647 72.173 0.751953 73.4312 0.751953 74.7022C0.751953 75.9733 1.00647 77.2315 1.50049 78.4026C1.99451 79.5737 2.71803 80.6341 3.62839 81.5211C4.53874 82.4082 5.6175 83.104 6.80105 83.5674C7.9846 84.0309 9.24897 84.2527 10.5196 84.2197ZM21.3345 80.8689H10.7631C9.16365 80.8173 7.647 80.1457 6.53384 78.996C5.42068 77.8464 4.7983 76.3089 4.7983 74.7086C4.7983 73.1084 5.42068 71.5709 6.53384 70.4212C7.647 69.2716 9.16365 68.6 10.7631 68.5484H21.3345C22.1602 68.5217 22.9828 68.6614 23.7535 68.959C24.5241 69.2566 25.2271 69.7061 25.8206 70.2807C26.4141 70.8554 26.886 71.5435 27.2083 72.3042C27.5306 73.0648 27.6967 73.8825 27.6967 74.7086C27.6967 75.5348 27.5306 76.3525 27.2083 77.1131C26.886 77.8738 26.4141 78.5619 25.8206 79.1366C25.2271 79.7112 24.5241 80.1607 23.7535 80.4583C22.9828 80.7559 22.1602 80.8955 21.3345 80.8689ZM90.8432 84.2197H102.139L104.279 80.8689H91.0931C90.2674 80.8955 89.4448 80.7559 88.6741 80.4583C87.9035 80.1607 87.2005 79.7112 86.607 79.1366C86.0135 78.5619 85.5416 77.8738 85.2193 77.1131C84.897 76.3525 84.731 75.5348 84.731 74.7086C84.731 73.8825 84.897 73.0648 85.2193 72.3042C85.5416 71.5435 86.0135 70.8554 86.607 70.2807C87.2005 69.7061 87.9035 69.2566 88.6741 68.959C89.4448 68.6614 90.2674 68.5217 91.0931 68.5484H101.825L103.99 65.1847H90.8432C89.5726 65.1518 88.3082 65.3736 87.1247 65.837C85.9411 66.3005 84.8624 66.9963 83.952 67.8833C83.0417 68.7704 82.3181 69.8307 81.8241 71.0019C81.3301 72.173 81.0756 73.4312 81.0756 74.7022C81.0756 75.9733 81.3301 77.2315 81.8241 78.4026C82.3181 79.5737 83.0417 80.6341 83.952 81.5211C84.8624 82.4082 85.9411 83.104 87.1247 83.5674C88.3082 84.0309 89.5726 84.2527 90.8432 84.2197ZM135.608 80.8689C134.266 80.8694 132.96 80.4317 131.889 79.6222C130.818 78.8127 130.041 77.6757 129.676 76.3841H145.321L147.474 73.0268H129.676C130.04 71.7346 130.817 70.5971 131.888 69.7874C132.959 68.9778 134.266 68.5404 135.608 68.542H146.346L148.493 65.1783H135.359C132.877 65.2427 130.519 66.2737 128.787 68.0516C127.054 69.8294 126.085 72.2135 126.085 74.6958C126.085 77.1781 127.054 79.5622 128.787 81.3401C130.519 83.1179 132.877 84.1489 135.359 84.2133H146.654L148.8 80.8625H135.602" fill="#C74634"/>
</g>
<defs>
<clipPath id="clip0_45_6315">
<rect width="148" height="19.2208" fill="white" transform="translate(1 65)"/>
</clipPath>
</defs>
</svg>
