<svg width="150" height="150" viewBox="0 0 150 150" fill="none" xmlns="http://www.w3.org/2000/svg">
<g clip-path="url(#clip0_45_6265)">
<path d="M141 9H9V141H141V9Z" fill="url(#paint0_linear_45_6265)"/>
<path d="M75 119C60.4976 119 45.08 114.793 45.08 106.997V43.0029H48.6V106.997C48.6 110.517 58.6496 115.48 75 115.48C91.3504 115.48 101.4 110.552 101.4 106.997V43.0029H104.92V106.997C104.92 114.793 89.5024 119 75 119Z" fill="white"/>
<path d="M75 119C60.4976 119 45.08 114.793 45.08 106.997V43.0029H48.6V106.997C48.6 110.517 58.6496 115.48 75 115.48C91.3504 115.48 101.4 110.552 101.4 106.997V43.0029H104.92V106.997C104.92 114.793 89.5024 119 75 119Z" fill="white"/>
<path d="M75 54.9888C60.4976 54.9888 45.08 50.7824 45.08 43.0032C45.08 35.224 60.4976 31 75 31C89.5024 31 104.92 35.2064 104.92 43.0032C104.92 50.8 89.5024 54.9888 75 54.9888ZM75 34.52C58.6496 34.52 48.6 39.448 48.6 43.0032C48.6 46.5584 58.6496 51.4688 75 51.4688C91.3504 51.4688 101.4 46.5408 101.4 43.0032C101.4 39.4656 91.3504 34.52 75 34.52Z" fill="white"/>
<path d="M70.0112 78.4455L69.2307 81.8779L79.9054 84.3051L80.6859 80.8727L70.0112 78.4455Z" fill="white"/>
<path d="M88.9443 67.9305L84.8733 78.2441L88.1475 79.5365L92.2184 69.2229L88.9443 67.9305Z" fill="white"/>
<path d="M61.9891 82.5766L58.397 90.9941L61.6345 92.3757L65.2266 83.9582L61.9891 82.5766Z" fill="white"/>
<path d="M58.28 101.876C57.0617 101.876 55.8707 101.514 54.8577 100.838C53.8447 100.161 53.0551 99.1986 52.5889 98.073C52.1227 96.9474 52.0007 95.7088 52.2384 94.5139C52.476 93.319 53.0627 92.2214 53.9242 91.3599C54.7857 90.4984 55.8833 89.9117 57.0782 89.674C58.2732 89.4363 59.5117 89.5583 60.6373 90.0246C61.7629 90.4908 62.725 91.2803 63.4018 92.2934C64.0787 93.3064 64.44 94.4973 64.44 95.7157C64.44 97.3494 63.791 98.9162 62.6358 100.071C61.4806 101.227 59.9137 101.876 58.28 101.876ZM58.28 93.0757C57.7579 93.0757 57.2474 93.2305 56.8133 93.5206C56.3791 93.8107 56.0408 94.223 55.841 94.7054C55.6411 95.1878 55.5889 95.7186 55.6907 96.2307C55.7926 96.7428 56.044 97.2132 56.4132 97.5824C56.7824 97.9516 57.2528 98.2031 57.765 98.3049C58.2771 98.4068 58.8079 98.3545 59.2903 98.1547C59.7727 97.9549 60.185 97.6165 60.4751 97.1824C60.7652 96.7482 60.92 96.2378 60.92 95.7157C60.92 95.0155 60.6419 94.344 60.1468 93.8489C59.6517 93.3538 58.9802 93.0757 58.28 93.0757Z" fill="white"/>
<path d="M65.3199 85.3669C64.1016 85.3669 62.9106 85.0056 61.8976 84.3287C60.8846 83.6519 60.0951 82.6898 59.6288 81.5642C59.1626 80.4386 59.0406 79.2 59.2783 78.0051C59.516 76.8102 60.1026 75.7126 60.9641 74.8511C61.8256 73.9896 62.9232 73.4029 64.1182 73.1652C65.3131 72.9276 66.5517 73.0495 67.6772 73.5158C68.8028 73.982 69.7649 74.7716 70.4418 75.7846C71.1186 76.7976 71.4799 77.9885 71.4799 79.2069C71.4799 80.8406 70.8309 82.4074 69.6757 83.5627C68.5205 84.7179 66.9536 85.3669 65.3199 85.3669ZM65.3199 76.5669C64.7978 76.5669 64.2874 76.7217 63.8532 77.0118C63.4191 77.3019 63.0807 77.7142 62.8809 78.1966C62.6811 78.679 62.6288 79.2098 62.7306 79.7219C62.8325 80.234 63.0839 80.7044 63.4532 81.0736C63.8224 81.4428 64.2928 81.6943 64.8049 81.7962C65.317 81.898 65.8478 81.8457 66.3302 81.6459C66.8126 81.4461 67.2249 81.1077 67.515 80.6736C67.8051 80.2394 67.9599 79.729 67.9599 79.2069C67.9599 78.5067 67.6818 77.8352 67.1867 77.3401C66.6916 76.845 66.0201 76.5669 65.3199 76.5669Z" fill="white"/>
<path d="M84.6799 89.0798C83.4616 89.0798 82.2706 88.7185 81.2576 88.0416C80.2446 87.3648 79.455 86.4027 78.9888 85.2771C78.5226 84.1515 78.4006 82.9129 78.6383 81.718C78.8759 80.5231 79.4626 79.4255 80.3241 78.564C81.1856 77.7025 82.2832 77.1158 83.4781 76.8781C84.6731 76.6404 85.9116 76.7624 87.0372 77.2287C88.1628 77.6949 89.1249 78.4844 89.8018 79.4975C90.4786 80.5105 90.8399 81.7014 90.8399 82.9198C90.8399 84.5535 90.1909 86.1203 89.0357 87.2755C87.8804 88.4308 86.3136 89.0798 84.6799 89.0798ZM84.6799 80.2798C84.1578 80.2798 83.6473 80.4346 83.2132 80.7247C82.779 81.0148 82.4407 81.4271 82.2409 81.9095C82.041 82.3919 81.9888 82.9227 82.0906 83.4348C82.1925 83.9469 82.4439 84.4173 82.8131 84.7865C83.1823 85.1557 83.6527 85.4072 84.1649 85.509C84.677 85.6109 85.2078 85.5586 85.6902 85.3588C86.1726 85.159 86.5849 84.8206 86.875 84.3865C87.1651 83.9523 87.3199 83.4419 87.3199 82.9198C87.3199 82.2196 87.0418 81.5481 86.5467 81.053C86.0516 80.5579 85.3801 80.2798 84.6799 80.2798Z" fill="white"/>
<path d="M91.7199 70.6003C90.5016 70.6003 89.3106 70.239 88.2976 69.5621C87.2846 68.8853 86.4951 67.9232 86.0288 66.7976C85.5626 65.672 85.4406 64.4334 85.6783 63.2385C85.916 62.0436 86.5027 60.946 87.3642 60.0845C88.2257 59.223 89.3233 58.6363 90.5182 58.3986C91.7131 58.161 92.9517 58.2829 94.0773 58.7492C95.2029 59.2154 96.1649 60.005 96.8418 61.018C97.5187 62.031 97.8799 63.2219 97.8799 64.4403V64.5283C97.8523 66.1453 97.1917 67.6869 96.0399 68.8222C94.8882 69.9575 93.3372 70.5959 91.7199 70.6003ZM91.7199 61.8003C91.2016 61.8006 90.6948 61.9534 90.2628 62.2398C89.8308 62.5262 89.4926 62.9334 89.2904 63.4107C89.0883 63.888 89.0311 64.4142 89.1261 64.9238C89.221 65.4334 89.4638 65.9037 89.8243 66.2762C90.1848 66.6487 90.6469 66.9068 91.1531 67.0184C91.6592 67.13 92.1871 67.0901 92.6707 66.9037C93.1544 66.7173 93.5725 66.3927 93.8729 65.9702C94.1733 65.5478 94.3427 65.0463 94.3599 64.5283C94.3717 64.1743 94.3122 63.8215 94.1848 63.4909C94.0574 63.1604 93.8648 62.8589 93.6185 62.6044C93.3722 62.3498 93.0771 62.1475 92.751 62.0093C92.4248 61.8712 92.0742 61.8001 91.7199 61.8003Z" fill="white"/>
</g>
<defs>
<linearGradient id="paint0_linear_45_6265" x1="-18.3504" y1="168.35" x2="168.333" y2="-18.3328" gradientUnits="userSpaceOnUse">
<stop stop-color="#4D27A8"/>
<stop offset="1" stop-color="#A166FF"/>
</linearGradient>
<clipPath id="clip0_45_6265">
<rect width="132" height="132" fill="white" transform="translate(9 9)"/>
</clipPath>
</defs>
</svg>
