<svg width="150" height="150" viewBox="0 0 150 150" fill="none" xmlns="http://www.w3.org/2000/svg">
<g clip-path="url(#clip0_45_6321)">
<path d="M75.1087 22.023C84.3559 22.023 93.6032 21.9756 102.846 22.023C120.554 22.1334 136.802 33.4632 142.983 50.0003C145.647 57.1406 146.226 64.5294 145.466 72.1155C144.353 83.2559 141.036 93.5956 134.751 102.862C125.056 117.166 111.389 125.115 94.4649 127.762C88.7277 128.658 82.9708 128.551 77.206 128.551C74.8135 128.551 73.5347 127.455 73.393 125.47C73.2395 123.344 74.5735 121.711 76.9345 121.569C79.5473 121.407 82.1799 121.541 84.8045 121.47C100.737 121.036 114.533 115.533 125.461 103.718C133.118 95.4339 136.998 85.3428 138.313 74.2221C139.226 66.5058 139.127 58.8369 136.085 51.527C131.418 40.3432 123.057 33.4869 111.543 30.3073C107.073 29.0725 102.492 28.8398 97.908 28.8122C80.7947 28.7096 63.6736 28.7727 46.5642 28.7688C45.8441 28.7688 45.1161 28.7964 44.4 28.7333C43.5786 28.6571 42.8119 28.2878 42.2392 27.6927C41.6665 27.0976 41.326 26.3162 41.2795 25.4905C41.2674 24.6936 41.5375 23.9183 42.0419 23.3022C42.5462 22.6861 43.252 22.2692 44.034 22.1255C44.816 22.017 45.6062 21.9788 46.395 22.0111C55.9675 22.0111 65.5427 22.0111 75.1205 22.0111L75.1087 22.023Z" fill="#29F1FB"/>
<path d="M57.5821 104.082H26.8891C26.233 104.111 25.5758 104.096 24.9216 104.038C23.1469 103.798 22.0294 102.776 21.8562 100.977C21.6831 99.1782 22.5252 97.9474 24.2172 97.3162C25.2915 96.9217 26.4169 97.0045 27.5266 97.0045C47.717 97.0045 67.9114 97.0361 88.1019 96.969C95.1849 96.9453 101.3 94.3141 106.16 89.1068C110.327 84.6412 112.511 79.2445 113.16 73.1694C113.672 68.4039 112.995 64.0211 110.043 60.1314C106.762 55.792 102.327 53.6144 96.995 53.5907C77.9182 53.5079 58.8255 53.5592 39.7644 53.5316C37.7379 53.5316 35.7074 53.3659 33.6888 53.1765C31.9456 53.0148 30.9815 51.9615 30.8634 50.2021C30.7336 48.2848 31.7134 46.9041 33.4487 46.5688C34.0298 46.486 34.6174 46.4583 35.2037 46.486C55.6657 46.486 76.1277 46.486 96.5897 46.486C106.903 46.5057 115.82 52.7584 119.07 62.5339C121.376 69.473 120.554 76.4673 117.969 83.1934C113.003 96.1051 101.312 104.046 87.4763 104.082C77.5128 104.109 67.5455 104.082 57.5821 104.082Z" fill="#29F1FB"/>
<path d="M11.8132 53.1876C9.45222 53.1876 7.09123 53.2192 4.73023 53.1876C2.76273 53.1521 1.25169 51.8542 1.0274 50.0869C0.803101 48.3196 1.90884 46.8008 4.03767 46.3669C5.20031 46.1778 6.37822 46.0999 7.55555 46.1341C10.7665 46.1065 13.9814 46.0986 17.1924 46.1341C18.1729 46.1327 19.1502 46.2465 20.1043 46.4734C21.8396 46.9152 22.7879 48.3985 22.5833 50.2013C22.3787 52.0041 21.2926 53.089 19.4747 53.1482C16.9208 53.235 14.3592 53.1718 11.8054 53.1718L11.8132 53.1876Z" fill="#29F1FB"/>
<path d="M54.8841 128.539C52.6569 128.539 50.4297 128.578 48.1946 128.539C46.0776 128.491 44.6531 127.288 44.4367 125.513C44.3545 124.579 44.6439 123.651 45.2418 122.93C45.8396 122.21 46.6973 121.756 47.628 121.666C52.3922 121.291 57.1782 121.284 61.9435 121.647C62.3931 121.666 62.834 121.777 63.2393 121.973C63.6445 122.169 64.0056 122.446 64.3003 122.787C64.5951 123.128 64.8172 123.526 64.9533 123.956C65.0893 124.386 65.1364 124.839 65.0915 125.288C64.9459 127.26 63.5608 128.468 61.3729 128.554H54.8841V128.539Z" fill="#29F1FB"/>
</g>
<defs>
<clipPath id="clip0_45_6321">
<rect width="148" height="106.56" fill="white" transform="translate(1 22)"/>
</clipPath>
</defs>
</svg>
