<svg width="150" height="150" viewBox="0 0 150 150" fill="none" xmlns="http://www.w3.org/2000/svg">
    <path d="M139.749 99.6665H84.2494C82.5535 99.6665 81.166 101.004 81.166 102.7V139.7C81.166 141.403 82.5464 142.833 84.2494 142.833H139.749C141.452 142.833 142.833 141.403 142.833 139.7V102.7C142.833 100.997 141.452 99.6665 139.749 99.6665ZM99.666 136.667H87.3327V130.5H99.666V136.667ZM99.666 124.333H87.3327V118.167H99.666V124.333ZM99.666 112H87.3327V105.833H99.666V112ZM118.166 136.667H105.833V130.5H118.166V136.667ZM118.166 124.333H105.833V118.167H118.166V124.333ZM118.166 112H105.833V105.833H118.166V112ZM136.666 136.667H124.333V130.5H136.666V136.667ZM136.666 124.333H124.333V118.167H136.666V124.333ZM136.666 112H124.333V105.833H136.666V112ZM136.678 83.1266C135.978 79.3874 131.538 75.442 122.316 70.3499L127.416 27.2082C127.416 16.1395 100.497 7.1665 67.291 7.1665C34.0851 7.1665 7.16602 16.1395 7.16602 27.2082L19.6138 129.128C20.0142 139.9 49.6581 142.833 67.291 142.833C69.6704 142.833 72.2802 142.725 74.9994 142.608V136.445C72.5398 136.549 69.9868 136.667 67.291 136.667C41.745 136.667 26.7169 131.536 25.7774 128.909C25.7774 128.785 25.7714 128.66 25.7563 128.538L14.5098 36.8087C24.7153 43.0294 44.5215 47.2498 67.291 47.2498C90.0827 47.2498 109.908 43.0217 120.105 36.7912L114.863 80.6732C101.076 76.2085 83.296 68.1736 75.0919 64.3478C75.0934 64.2834 74.9994 64.2732 74.9994 64.2082C74.9994 59.8949 71.5426 56.4998 67.291 56.4998C63.0394 56.4998 59.5827 59.8949 59.5827 64.2082C59.5827 68.5215 63.0394 71.9165 67.291 71.9165C69.2668 71.9165 71.1637 71.2002 72.529 69.9564C81.0862 73.9453 99.8439 82.4159 114.108 86.9117L113.317 93.4998H119.516L120.102 88.6149C123.741 89.5316 126.719 90.0188 129.063 90.0175C132.116 90.0175 134.173 89.2393 135.483 87.6779C136.561 86.3937 136.985 84.7783 136.678 83.1266ZM67.291 65.7498C66.4419 65.7498 65.7494 65.0583 65.7494 64.2082C65.7494 63.3581 66.4419 62.6665 67.291 62.6665C68.1402 62.6665 68.8327 63.3581 68.8327 64.2082C68.8327 65.0583 68.1402 65.7498 67.291 65.7498ZM67.291 41.0832C37.4906 41.0832 13.3327 34.8712 13.3327 27.2082C13.3327 19.5452 37.4906 13.3332 67.291 13.3332C97.0914 13.3332 121.249 19.5452 121.249 27.2082C121.249 34.8712 97.0914 41.0832 67.291 41.0832ZM120.85 82.4442L121.511 76.9886C127.808 80.6729 129.778 82.8438 130.364 83.7531C129.396 83.9347 126.811 84.0072 120.85 82.4442Z" fill="#7AA116"/>
</svg>
