<svg width="150" height="150" viewBox="0 0 150 150" fill="none" xmlns="http://www.w3.org/2000/svg">
<path d="M5 105.198H9.61171V86.8899L16.752 102.851C17.596 104.783 18.7489 105.465 21.0081 105.465C23.2672 105.465 24.3771 104.783 25.2211 102.851L32.3614 86.8899V105.198H36.9731V86.9188C36.9731 85.1353 36.2619 84.2724 34.8001 83.8284C31.2982 82.7272 28.9457 83.6803 27.8825 86.056L20.8752 101.808L14.0905 86.056C13.0705 83.6767 10.6748 82.7272 7.17296 83.8284C5.71115 84.2724 5 85.1353 5 86.9188L5 105.198Z" fill="#006189"/>
<path d="M40.8126 90.2979H45.4243V100.385C45.3812 100.934 45.6003 102.219 48.1253 102.259C49.4147 102.281 58.0742 102.259 58.1568 102.259V90.251H62.7793C62.8008 90.251 62.7757 106.628 62.7757 106.7C62.8008 110.74 57.7905 111.617 55.481 111.686H40.9168V108.566C40.9419 108.566 55.4702 108.566 55.5061 108.566C58.4765 108.252 58.1245 106.768 58.1245 106.27V105.053H48.3192C43.7578 105.01 40.8521 103.01 40.8162 100.707C40.8162 100.494 40.9132 90.4026 40.8162 90.3015L40.8126 90.2979Z" fill="#006189"/>
<path d="M66.3315 105.198H79.592C81.1436 105.198 82.6521 104.869 83.8481 104.306C85.8451 103.385 86.8184 102.136 86.8184 100.501V97.1142C86.8184 95.7783 85.7086 94.5291 83.5356 93.6951C82.3827 93.2511 80.964 93.0128 79.5884 93.0128H73.9997C72.1357 93.0128 71.2485 92.4496 71.0294 91.2004C70.9863 91.0524 70.9863 90.9332 70.9863 90.7852V88.6767C70.9863 88.5576 70.9863 88.4384 71.0294 88.2904C71.2521 87.3409 71.7406 87.0701 73.3784 86.9221C73.5113 86.9221 73.6873 86.8932 73.8202 86.8932H86.9908V83.8027H74.0392C72.1752 83.8027 71.2018 83.9219 70.3147 84.189C67.5635 85.0519 66.3674 86.4166 66.3674 88.7959V91.5C66.3674 93.5796 68.7164 95.3631 72.6636 95.7783C73.1054 95.8072 73.5508 95.8361 73.9926 95.8361H78.7838C78.9598 95.8361 79.1394 95.8361 79.2723 95.865C80.7341 95.9841 81.3555 96.2513 81.8009 96.7856C82.0666 97.0528 82.1564 97.3199 82.1564 97.6196V100.324C82.1564 100.652 81.9337 101.068 81.492 101.425C81.0933 101.782 80.4288 102.021 79.5417 102.078C79.3657 102.078 79.2328 102.107 79.0532 102.107H66.3243V105.198H66.3315Z" fill="#E48F00"/>
<path d="M115.596 99.818C115.596 102.999 117.945 104.782 122.693 105.14C123.135 105.169 123.58 105.197 124.022 105.197H136.039V102.107H123.932C121.227 102.107 120.207 101.425 120.207 99.7891V83.7988H115.596V99.818Z" fill="#E48F00"/>
<path d="M89.7629 99.9808V88.962C89.7629 86.1639 91.7168 84.4635 95.585 83.9291C95.9837 83.8714 96.4291 83.8389 96.8278 83.8389H105.584C106.03 83.8389 106.428 83.8678 106.874 83.9291C110.742 84.4671 112.696 86.1639 112.696 88.962V99.9808C112.696 102.252 111.866 103.468 109.952 104.259L114.495 108.382H109.14L105.466 105.046L101.766 105.281H96.8349C95.9909 105.281 95.1002 105.162 94.1232 104.895C91.1888 104.089 89.7665 102.541 89.7665 99.9808H89.7629ZM94.741 99.7137C94.741 99.8617 94.7841 100.013 94.8308 100.19C95.0966 101.472 96.2962 102.187 98.1208 102.187H102.312L98.462 98.6919H103.817L107.175 101.739C107.793 101.407 108.203 100.901 108.343 100.248C108.386 100.1 108.386 99.9519 108.386 99.8003V89.2255C108.386 89.1064 108.386 88.9584 108.343 88.8103C108.077 87.6189 106.877 86.9329 105.099 86.9329H98.1208C96.0771 86.9329 94.7446 87.8247 94.7446 89.2255V99.71L94.741 99.7137Z" fill="#E48F00"/>
<path d="M140.097 78.6726C137.263 78.5932 135.097 78.8604 133.244 79.6438C132.716 79.8677 131.879 79.8713 131.793 80.5356C132.084 80.8388 132.127 81.2938 132.357 81.6692C132.799 82.3877 133.546 83.3517 134.21 83.8571C134.939 84.4095 135.686 85.0016 136.469 85.4782C137.856 86.3302 139.407 86.814 140.743 87.666C141.53 88.1679 142.313 88.7997 143.081 89.3665C143.462 89.6481 143.717 90.0814 144.209 90.2583V90.1789C143.951 89.8467 143.882 89.3918 143.645 89.0452C143.297 88.695 142.945 88.3412 142.597 87.991C141.573 86.6227 140.269 85.424 138.886 84.4239C137.784 83.6297 135.316 82.5538 134.857 81.2649C134.828 81.2396 134.803 81.2107 134.778 81.1854C135.561 81.0952 136.476 80.8136 137.195 80.6186C138.409 80.2901 139.49 80.3767 140.743 80.0518C141.307 79.8893 141.871 79.7269 142.435 79.5644V79.2395C141.803 78.586 141.35 77.7231 140.661 77.131C138.854 75.5858 136.886 74.0405 134.857 72.7552C133.732 72.0404 132.339 71.5783 131.146 70.9717C130.744 70.7695 130.04 70.6612 129.774 70.3218C129.146 69.5203 128.805 68.5022 128.323 67.5671C127.31 65.6067 126.319 63.4694 125.421 61.4079C124.811 60.0034 124.408 58.617 123.647 57.357C119.987 51.306 116.047 47.656 109.941 44.0673C108.645 43.3055 107.079 43.0022 105.426 42.6087C104.539 42.5545 103.652 42.5004 102.765 42.4462C102.223 42.2188 101.659 41.5544 101.152 41.2295C99.1302 39.9442 93.9438 37.1534 92.4461 40.8252C91.5015 43.143 93.8612 45.4031 94.7053 46.5801C95.2979 47.4032 96.0557 48.3275 96.4795 49.2554C96.7561 49.8655 96.8064 50.4757 97.0434 51.1183C97.6289 52.7069 98.1389 54.4326 98.8967 55.8984C99.281 56.6422 99.7013 57.422 100.186 58.0863C100.484 58.4943 100.991 58.6712 101.073 59.303C100.574 60.0034 100.545 61.0901 100.269 61.9783C99.0081 65.9714 99.4822 70.9356 101.318 73.8925C101.881 74.7987 103.203 76.7447 105.028 76.001C106.622 75.3475 106.263 73.3257 106.719 71.5421C106.824 71.1378 106.759 70.8417 106.96 70.571V70.6504C107.445 71.6216 107.926 72.5964 108.411 73.5676C109.485 75.3042 111.392 77.1238 113.005 78.3477C113.842 78.9831 114.503 80.0843 115.584 80.4561V80.3767H115.505C115.296 80.0482 114.966 79.911 114.7 79.6474C114.068 79.0264 113.368 78.2538 112.847 77.539C111.378 75.5352 110.078 73.3401 108.896 71.0548C108.332 69.9644 107.84 68.7622 107.366 67.6502C107.183 67.2205 107.183 66.5743 106.802 66.3541C106.281 67.1664 105.513 67.8235 105.11 68.7838C104.464 70.3182 104.381 72.192 104.144 74.1308C104.004 74.1813 104.065 74.1452 103.983 74.2102C102.858 73.9394 102.463 72.7769 102.047 71.7804C100.991 69.2604 100.797 65.1987 101.723 62.2996C101.964 61.5487 103.049 59.1839 102.611 58.4907C102.402 57.7975 101.709 57.4003 101.321 56.8696C100.843 56.2161 100.362 55.3569 100.032 54.5987C99.1661 52.6311 98.7638 50.4251 97.8552 48.4394C97.4206 47.4899 96.6843 46.5295 96.0809 45.6847C95.4128 44.7496 94.6658 44.06 94.145 42.93C93.9618 42.5292 93.7104 41.883 93.9833 41.4714C94.0695 41.1934 94.1917 41.0743 94.4682 40.984C94.9351 40.623 96.2389 41.1032 96.7274 41.3089C98.0204 41.8469 99.0979 42.3632 100.193 43.0925C100.718 43.4427 101.249 44.1214 101.885 44.3092H102.611C103.745 44.5727 105.017 44.3922 106.076 44.7135C107.951 45.2876 109.629 46.1757 111.155 47.1433C115.803 50.093 119.599 54.2918 122.2 59.2994C122.616 60.1045 122.799 60.8771 123.166 61.7292C123.909 63.4549 124.847 65.2276 125.583 66.9173C126.319 68.5997 127.041 70.2966 128.083 71.6974C128.632 72.4339 130.748 72.8274 131.71 73.2354C132.385 73.5206 133.492 73.8203 134.127 74.2066C135.349 74.9467 136.53 75.8277 137.676 76.6364C138.247 77.0407 140.007 77.9289 140.093 78.6618L140.097 78.6726Z" fill="#006189"/>
<path fill-rule="evenodd" clip-rule="evenodd" d="M104.061 47.7969C103.472 47.7861 103.052 47.8619 102.61 47.9594V48.0388H102.689C102.97 48.6201 103.469 48.9956 103.817 49.4974C104.087 50.0642 104.356 50.6311 104.622 51.1979C104.647 51.1726 104.676 51.1437 104.701 51.1185C105.2 50.7647 105.43 50.1978 105.426 49.3349C105.225 49.1219 105.196 48.8584 105.024 48.6057C104.794 48.2699 104.349 48.0785 104.058 47.7969H104.061Z" fill="#006189"/>
<path fill-rule="evenodd" clip-rule="evenodd" d="M138.204 102.021C138.204 104.061 139.81 105.436 141.602 105.436C143.394 105.436 145 104.061 145 102.021C145 99.981 143.394 98.6055 141.602 98.6055C139.81 98.6055 138.204 99.981 138.204 102.021ZM144.242 102.021C144.242 103.57 143.064 104.729 141.605 104.729C140.147 104.729 138.969 103.57 138.969 102.021C138.969 100.472 140.129 99.3131 141.605 99.3131C143.082 99.3131 144.242 100.472 144.242 102.021ZM142.518 103.97H143.279L142.166 102.259C142.766 102.194 143.218 101.905 143.218 101.194C143.218 100.403 142.719 100.075 141.76 100.075H140.248V103.974H140.901V102.288H141.508L142.525 103.974L142.518 103.97ZM140.898 101.739V100.616H141.649C142.04 100.616 142.511 100.689 142.511 101.144C142.511 101.689 142.083 101.736 141.595 101.736H140.898V101.739Z" fill="#E48F00"/>
</svg>
