<svg width="150" height="150" viewBox="0 0 150 150" fill="none" xmlns="http://www.w3.org/2000/svg">
<g clip-path="url(#clip0_45_6287)">
<path d="M29.3357 40.5518L56.1647 56.6393C57.6504 57.5322 59.3947 57.8957 61.1134 57.6706C62.8321 57.4455 64.4239 56.6451 65.6295 55.3997C66.4351 54.6232 67.0748 53.6912 67.5098 52.6603C67.9448 51.6294 68.166 50.5209 68.1602 49.402V17.1589C68.2139 15.7467 67.8856 14.3461 67.2101 13.1047C66.5346 11.8633 65.5369 10.8271 64.3219 10.1052C63.1072 9.38327 61.7203 9.00225 60.3072 9.00225C58.8942 9.00225 57.5073 9.38327 56.2926 10.1052C55.0776 10.8271 54.0799 11.8633 53.4044 13.1047C52.7289 14.3461 52.4006 15.7467 52.4543 17.1589V35.5069L37.2186 26.3701C36.3202 25.8368 35.324 25.489 34.2888 25.3473C33.2537 25.2056 32.2007 25.2728 31.192 25.5451C29.1584 26.0916 27.4424 27.4838 26.4482 29.3483C24.2682 33.2671 25.5407 38.1758 29.3357 40.5312V40.5518ZM93.8301 56.6187L120.659 40.5312C124.454 38.1737 125.729 33.2444 123.547 29.3442C123.053 28.4239 122.378 27.6131 121.563 26.9606C120.748 26.3081 119.809 25.8275 118.803 25.5476C117.797 25.2678 116.745 25.1946 115.71 25.3324C114.675 25.4702 113.678 25.8161 112.78 26.3494L97.7241 35.3626V17.1301C97.7623 16.0748 97.5875 15.0227 97.2101 14.0366C96.8326 13.0505 96.2604 12.1505 95.5274 11.3905C94.7944 10.6304 93.9157 10.0259 92.9439 9.613C91.9721 9.20011 90.927 8.9873 89.8711 8.9873C88.8152 8.9873 87.7701 9.20011 86.7983 9.613C85.8265 10.0259 84.9478 10.6304 84.2148 11.3905C83.4818 12.1505 82.9096 13.0505 82.5321 14.0366C82.1547 15.0227 81.9799 16.0748 82.0181 17.1301V48.7337C81.8567 50.4266 82.2119 52.1287 83.037 53.6157C84.0311 55.4781 85.7471 56.8538 87.7808 57.4189C88.7883 57.7007 89.843 57.7729 90.8796 57.631C91.9161 57.4891 92.9126 57.1361 93.8074 56.5939L93.8301 56.6187ZM69.9505 74.9378C69.9773 74.4222 70.1732 73.9065 70.5115 73.5353L73.6465 70.2765C74.0177 69.9312 74.4974 69.7255 75.0036 69.6949H75.1211C75.6262 69.7248 76.1049 69.9306 76.4741 70.2765L79.6091 73.5353C79.9485 73.9273 80.146 74.422 80.1701 74.9399V75.0636C80.1454 75.5826 79.9479 76.0784 79.6091 76.4723L76.4741 79.731C76.1065 80.08 75.6272 80.2875 75.1211 80.3168H75.0036C74.4962 80.2879 74.0136 80.0796 73.6465 79.731L70.5115 76.4723C70.1727 76.0784 69.9752 75.5826 69.9505 75.0636V74.9378ZM60.4547 73.5972V76.4104C60.4896 77.1174 60.7596 77.7925 61.222 78.3285L71.8645 89.3774C72.3666 89.8522 73.0204 90.1342 73.7104 90.1735H76.4164C77.1064 90.1342 77.7602 89.8522 78.2623 89.3774L88.9048 78.3285C89.3672 77.7925 89.6372 77.1174 89.6721 76.4104V73.5972C89.6372 72.8902 89.3672 72.2151 88.9048 71.679L78.2623 60.6302C77.7602 60.1554 77.1064 59.8734 76.4164 59.8341H73.7104C73.0204 59.8734 72.3666 60.1554 71.8645 60.6302L61.222 71.6997C60.761 72.2365 60.4911 72.9111 60.4547 73.6178V73.5972ZM15.4551 65.9659L30.6454 75.076L15.4551 84.1778C13.6294 85.3151 12.3114 87.1112 11.7742 89.194C11.237 91.2768 11.5218 93.4864 12.5697 95.3648C13.0625 96.2863 13.7369 97.0984 14.5522 97.7521C15.3675 98.4058 16.3068 98.8875 17.3134 99.168C19.3471 99.7332 21.5251 99.4424 23.3401 98.3595L50.169 82.272C52.644 80.7004 54.0878 77.9862 54.0878 75.0698C54.0876 73.6376 53.7289 72.2283 53.0444 70.9703C52.3599 69.7123 51.3714 68.6456 50.169 67.8675L23.3401 51.78C22.4416 51.2468 21.4454 50.899 20.4103 50.7573C19.3752 50.6156 18.3221 50.6828 17.3134 50.955C15.2798 51.5016 13.5638 52.8938 12.5697 54.7583C10.3896 58.677 11.6622 63.5817 15.4572 65.9412L15.4551 65.9659ZM95.8843 75.1028C95.8606 76.5375 96.2115 77.9536 96.9023 79.2112C97.5932 80.4689 98.6001 81.5246 99.8237 82.2741L126.636 98.3616C128.451 99.4424 130.625 99.7352 132.659 99.1701C134.692 98.605 136.406 97.2314 137.402 95.3689C138.455 93.4914 138.743 91.2799 138.205 89.1957C137.667 87.1114 136.345 85.3153 134.515 84.1819L119.343 75.078L134.533 65.968C138.328 63.6105 139.601 58.6874 137.421 54.7851C136.929 53.8629 136.255 53.0502 135.44 52.3964C134.624 51.7426 133.684 51.2613 132.677 50.9819C130.642 50.4167 128.466 50.7055 126.655 51.8069L99.8422 67.8944C98.6095 68.6492 97.5967 69.7147 96.9053 70.9842C96.214 72.2536 95.8683 73.6825 95.9029 75.1275L95.8843 75.1028ZM61.552 92.5474C59.7003 92.1901 57.7819 92.531 56.1668 93.5044L29.3378 109.592C25.5428 111.949 24.2723 116.873 26.4503 120.775C27.4465 122.637 29.1604 124.013 31.1941 124.576C32.2011 124.855 33.2543 124.928 34.2902 124.789C35.326 124.65 36.3229 124.302 37.2207 123.767L52.4563 114.631V132.842C52.4144 133.9 52.5864 134.955 52.962 135.944C53.3377 136.933 53.9093 137.837 54.6426 138.599C55.3759 139.362 56.2557 139.969 57.2292 140.384C58.2028 140.799 59.2501 141.012 60.3083 141.012C61.3665 141.012 62.4138 140.799 63.3873 140.384C64.3609 139.969 65.2407 139.362 65.974 138.599C66.7072 137.837 67.2788 136.933 67.6545 135.944C68.0302 134.955 68.2022 133.9 68.1602 132.842V100.575C68.188 98.6679 67.5392 96.813 66.3291 95.3393C65.1189 93.8656 63.4256 92.8684 61.5499 92.5247L61.552 92.5474ZM120.661 109.594L93.8321 93.5065C92.9343 92.9715 91.9374 92.6241 90.9016 92.4851C89.8658 92.3462 88.8126 92.4186 87.8055 92.698C86.7986 92.9772 85.8589 93.4582 85.0434 94.1116C84.228 94.765 83.5538 95.5773 83.0618 96.4992C82.2366 97.9884 81.8815 99.6924 82.0429 101.387V132.84C82.0009 133.898 82.1729 134.953 82.5486 135.942C82.9243 136.931 83.4959 137.834 84.2291 138.597C84.9624 139.36 85.8422 139.967 86.8158 140.382C87.7893 140.797 88.8366 141.01 89.8948 141.01C90.953 141.01 92.0003 140.797 92.9739 140.382C93.9474 139.967 94.8272 139.36 95.5605 138.597C96.2938 137.834 96.8654 136.931 97.2411 135.942C97.6167 134.953 97.7887 133.898 97.7467 132.84V114.765L112.776 123.778C113.675 124.311 114.671 124.659 115.706 124.801C116.741 124.942 117.794 124.875 118.803 124.603C120.836 124.056 122.552 122.664 123.547 120.8C125.727 116.881 124.454 111.972 120.659 109.617" fill="#29B5E8"/>
</g>
<defs>
<clipPath id="clip0_45_6287">
<rect width="132" height="132" fill="white" transform="translate(9 9)"/>
</clipPath>
</defs>
</svg>
