<svg xmlns="http://www.w3.org/2000/svg" width="150" height="150" viewBox="0 0 150 150" fill="none">
<path fill-rule="evenodd" clip-rule="evenodd" d="M85.5398 127.171L78.4828 107.63L65.7218 110.273L60.2092 127.171H85.5398Z" fill="#5D7389"/>
<path fill-rule="evenodd" clip-rule="evenodd" d="M50.075 99.4883L60.2095 127.171L78.483 107.63L65.4708 101.235L50.075 99.4883Z" fill="#32485C"/>
<path fill-rule="evenodd" clip-rule="evenodd" d="M66.0618 90.4583L50.075 99.488L78.483 107.63L82.1029 89.3535L66.0618 90.4583Z" fill="#091F34"/>
<path fill-rule="evenodd" clip-rule="evenodd" d="M120.825 127.171L110.617 100.147L98.3724 108.875L94.5869 127.171H120.825Z" fill="#5D7389"/>
<path fill-rule="evenodd" clip-rule="evenodd" d="M88.3464 108.264L94.587 127.171L110.617 100.148L96.3598 98.4922L88.3464 108.264Z" fill="#32485C"/>
<path fill-rule="evenodd" clip-rule="evenodd" d="M82.1028 89.3536L88.3462 108.264L110.616 100.148L97.6557 88.7227L82.1028 89.3536Z" fill="#091F34"/>
<path fill-rule="evenodd" clip-rule="evenodd" d="M92.8625 73.7154L82.1028 89.354L110.616 100.148L111.076 64.3945L92.8625 73.7154Z" fill="#32485C"/>
<path fill-rule="evenodd" clip-rule="evenodd" d="M82.1026 89.3544L111.076 64.395L92.514 57.7861L84.2522 60.4497L78.4741 67.5838L82.1026 89.3544Z" fill="#5D7389"/>
<path fill-rule="evenodd" clip-rule="evenodd" d="M82.1027 89.3539L84.2524 60.4492L75.6566 49.7294L57.4944 49.7266L61.2113 70.2297L82.1027 89.3539Z" fill="#32485C"/>
<path fill-rule="evenodd" clip-rule="evenodd" d="M50.075 99.4883L82.1029 89.3538L68.5398 67.5146L54.203 82.057L50.075 99.4883Z" fill="#1E3448"/>
<path fill-rule="evenodd" clip-rule="evenodd" d="M50.0746 99.4887L68.5393 67.5151L59.8722 59.9841L34.7043 51.7852L38.5669 83.3791L50.0746 99.4887Z" fill="#5D7389"/>
<path fill-rule="evenodd" clip-rule="evenodd" d="M50.075 99.4887L34.7048 51.7852L24.2763 76.796L18.0471 93.8791L27.2995 101.093L50.075 99.4887Z" fill="#1E3448"/>
<path fill-rule="evenodd" clip-rule="evenodd" d="M31.045 109.018L50.0751 99.4886L18.0471 93.8789L13.5251 110.525L31.045 109.018Z" fill="#091F34"/>
<path fill-rule="evenodd" clip-rule="evenodd" d="M34.5136 127.171L50.0751 99.4883L13.5251 110.525L17.7788 120.825L34.5136 127.171Z" fill="#32485C"/>
<path fill-rule="evenodd" clip-rule="evenodd" d="M9 127.172H34.5133L13.5248 110.525L9 127.172Z" fill="#5D7389"/>
<path fill-rule="evenodd" clip-rule="evenodd" d="M18.8636 65.6537L18.0471 93.8791L34.7048 51.7852L18.8636 65.6537Z" fill="#091F34"/>
<path fill-rule="evenodd" clip-rule="evenodd" d="M57.4942 49.7266L34.7043 51.7849L68.5393 67.5148L57.4942 49.7266Z" fill="#8DA5BA"/>
<path fill-rule="evenodd" clip-rule="evenodd" d="M105.638 41.3503L85.9939 37.0596L94.2271 52.1757L111.076 64.3942L117.374 53.4575L112.167 45.6268L105.638 41.3503Z" fill="#5D7389"/>
<path fill-rule="evenodd" clip-rule="evenodd" d="M122.276 44.2021L112.167 45.6267L111.076 64.3941L137.018 51.1735L122.276 44.2021Z" fill="#1E3448"/>
<path fill-rule="evenodd" clip-rule="evenodd" d="M112.167 45.6271L137.018 51.174L134.177 42.0358L128.333 36.7002L120.252 37.5452L112.167 45.6271Z" fill="#8DA5BA"/>
<path fill-rule="evenodd" clip-rule="evenodd" d="M141 39.9547L128.333 36.7002L137.018 51.174L141 39.9547Z" fill="#BCD4EB"/>
<path fill-rule="evenodd" clip-rule="evenodd" d="M111.347 36.5494L112.166 45.6276L128.333 36.7007L120.733 29.4609L111.347 36.5494Z" fill="#32485C"/>
<path fill-rule="evenodd" clip-rule="evenodd" d="M85.9939 37.0604L112.167 45.6276L120.734 29.4609L99.7112 32.1758L85.9939 37.0604Z" fill="#BCD4EB"/>
<path fill-rule="evenodd" clip-rule="evenodd" d="M100.664 26.2345L99.7307 32.2296L106.579 31.2875L112.072 27.7247L107.013 23.7965L102.389 23L100.664 26.2345Z" fill="#8DA5BA"/>
<path fill-rule="evenodd" clip-rule="evenodd" d="M85.9909 37.0596L57.4944 49.7263L84.2524 60.4489L90.8583 51.305L85.9909 37.0596Z" fill="#5D7389"/>
<path fill-rule="evenodd" clip-rule="evenodd" d="M85.991 37.0596L84.2524 60.4489L111.076 64.3942L85.991 37.0596Z" fill="#8DA5BA"/>
<path fill-rule="evenodd" clip-rule="evenodd" d="M46.8174 127.172H58.2794L53.6461 114.508L49.6522 118.721L46.8174 127.172Z" fill="#5D7389"/>
<path fill-rule="evenodd" clip-rule="evenodd" d="M44.2166 113.908L46.8173 127.171L53.6459 114.508L49.575 111.556L44.2166 113.908Z" fill="#32485C"/>
<path fill-rule="evenodd" clip-rule="evenodd" d="M44.1714 113.682L44.2171 113.908L53.6464 114.507L49.7268 103.799L44.1714 113.682Z" fill="#091F34"/>
<path fill-rule="evenodd" clip-rule="evenodd" d="M120.734 29.4608L112.166 45.6275L99.7109 32.1757L112.055 27.668L120.734 29.4608Z" fill="#5D7389"/>
</svg>