<svg width="150" height="150" viewBox="0 0 150 150" fill="none" xmlns="http://www.w3.org/2000/svg">
<g clip-path="url(#clip0_45_6355)">
<path d="M74.5467 55.2011C73.3986 55.2011 72.4641 54.2666 72.4641 53.1185V14.2027C72.4641 13.0546 73.3986 12.1201 74.5467 12.1201C75.6948 12.1201 76.6294 13.0546 76.6294 14.2027V53.1185C76.6294 54.2666 75.6948 55.2011 74.5467 55.2011Z" fill="#B835A1"/>
<path d="M59.9552 36.4447V3.08263C59.9552 1.93451 59.0207 1 57.8592 1C56.7111 1 55.7766 1.93451 55.7766 3.08263V36.4314C55.7766 37.5795 56.7111 38.514 57.8592 38.514C59.0074 38.514 59.9419 37.5795 59.9419 36.4314L59.9552 36.4447Z" fill="#B835A1"/>
<path d="M93.3033 41.9978V19.7565C93.3033 18.6083 92.3687 17.6738 91.2206 17.6738C90.0725 17.6738 89.138 18.6083 89.138 19.7565V41.9978C89.138 43.146 90.0725 44.0805 91.2206 44.0805C92.3687 44.0805 93.3033 43.146 93.3033 41.9978Z" fill="#B835A1"/>
<path d="M113.449 36.4306C114.983 36.4306 116.226 35.1874 116.226 33.6538C116.226 32.1202 114.983 30.877 113.449 30.877C111.915 30.877 110.672 32.1202 110.672 33.6538C110.672 35.1874 111.915 36.4306 113.449 36.4306Z" fill="#B835A1"/>
<path d="M35.6306 16.9805C34.0953 16.9805 32.8538 18.222 32.8538 19.7573C32.8538 21.2926 34.0953 22.5341 35.6306 22.5341C37.1659 22.5341 38.4074 21.2926 38.4074 19.7573C38.4074 18.222 37.1659 16.9805 35.6306 16.9805Z" fill="#B835A1"/>
<path d="M59.9419 130.244V96.8951C59.9419 95.747 59.0073 94.8125 57.8592 94.8125C56.7111 94.8125 55.7766 95.747 55.7766 96.8951V130.244C55.7766 131.392 56.7111 132.326 57.8592 132.326C59.0073 132.326 59.9419 131.392 59.9419 130.244Z" fill="#B835A1"/>
<path d="M93.3033 135.81V113.569C93.3033 112.421 92.3687 111.486 91.2206 111.486C90.0725 111.486 89.138 112.421 89.138 113.569V135.81C89.138 136.958 90.0725 137.893 91.2206 137.893C92.3687 137.893 93.3033 136.958 93.3033 135.81Z" fill="#B835A1"/>
<path d="M113.449 130.243C114.983 130.243 116.226 129 116.226 127.466C116.226 125.933 114.983 124.689 113.449 124.689C111.915 124.689 110.672 125.933 110.672 127.466C110.672 129 111.915 130.243 113.449 130.243Z" fill="#B835A1"/>
<path d="M35.6306 110.793C34.0953 110.793 32.8538 112.035 32.8538 113.57C32.8538 115.105 34.0953 116.347 35.6306 116.347C37.1659 116.347 38.4074 115.105 38.4074 113.57C38.4074 112.035 37.1659 110.793 35.6306 110.793Z" fill="#B835A1"/>
<path d="M89.5515 75.36C89.3513 74.0784 88.9641 72.8902 88.4435 71.7154C88.31 71.4618 88.1898 71.1814 88.0296 70.9411C87.8961 70.6074 87.6959 70.3003 87.4956 69.9933C86.8815 69.0187 86.1873 68.0975 85.3863 67.3232C82.5561 64.4663 78.6845 62.8242 74.546 62.8242C70.4074 62.8242 66.5092 64.4663 63.7056 67.3232C62.9313 68.0975 62.2371 68.9653 61.623 69.9399C61.4227 70.2736 61.2358 70.6074 61.0356 70.9411C60.9021 71.1948 60.7819 71.4351 60.6751 71.7154C60.1144 72.8769 59.7273 74.0784 59.5404 75.36C59.3401 76.2545 59.26 77.1623 59.26 78.1102C59.26 79.8323 59.5404 81.5011 60.1278 83.0898C60.328 83.7306 60.5683 84.3447 60.8754 84.9187C60.9021 84.9721 60.9288 85.0255 60.9555 85.0789C61.3693 85.9067 61.8766 86.6943 62.424 87.4152C66.3489 87.6956 70.4074 87.8291 74.546 87.8291C78.6845 87.8291 82.743 87.6956 86.6679 87.4152C87.2286 86.6943 87.6959 85.9467 88.1097 85.1056C88.4435 84.4381 88.7505 83.7706 88.9775 83.0764C89.5649 81.4878 89.8453 79.819 89.8453 78.0968C89.8453 77.1489 89.7651 76.2411 89.5649 75.3467L89.5515 75.36Z" fill="black"/>
<path d="M93.4636 82.6497V82.7031C93.0765 84.1983 92.5425 85.6535 91.8216 87.0152C100.019 86.2409 107.521 84.9325 113.969 83.1837C108.936 80.1265 101.968 77.6567 93.8775 76.0947C93.9576 76.7622 93.9843 77.4297 93.9843 78.124C93.9843 79.6859 93.784 81.2078 93.4503 82.6497H93.4636Z" fill="black"/>
<path d="M55.615 82.7031V82.6497C55.2813 81.2078 55.081 79.6726 55.081 78.124C55.081 77.4297 55.1077 76.7622 55.1878 76.0947C47.0976 77.6567 40.1288 80.1265 35.0958 83.1837C41.544 84.9325 49.0468 86.2409 57.2438 87.0152C56.5229 85.6535 55.9888 84.2116 55.6017 82.7031H55.615Z" fill="black"/>
<path d="M78.0172 46.1895V53.1182C78.0172 55.0406 76.4552 56.5892 74.5461 56.5892C72.6371 56.5892 71.0751 55.0273 71.0751 53.1182V46.1895C38.1402 46.7902 12.0139 55.8817 12.0139 67.0024C12.0139 70.8072 15.0711 74.3717 20.4112 77.4289C23.0812 78.9508 26.3253 80.3792 30.05 81.6475C36.0309 77.0284 45.2024 73.5039 56.2297 71.6349C56.6969 70.2465 57.3111 68.9648 58.0854 67.75C61.503 62.2764 67.5907 58.6585 74.5461 58.6585C81.5016 58.6585 87.5759 62.2764 91.0069 67.75C91.7812 68.9782 92.3953 70.2465 92.8626 71.6349C103.903 73.4906 113.075 77.0284 119.042 81.6475C122.767 80.3659 126.024 78.9508 128.681 77.4289C134.021 74.3717 137.078 70.8072 137.078 67.0024C137.078 55.8817 110.939 46.7902 78.0172 46.1895Z" fill="black"/>
<path d="M76.6294 146.917V108.002C76.6294 106.853 75.6948 105.919 74.5467 105.919C73.3986 105.919 72.4641 106.853 72.4641 108.002V146.917C72.4641 148.065 73.3986 149 74.5467 149C75.6948 149 76.6294 148.065 76.6294 146.917Z" fill="#B835A1"/>
</g>
<defs>
<clipPath id="clip0_45_6355">
<rect width="125.078" height="148" fill="white" transform="translate(12 1)"/>
</clipPath>
</defs>
</svg>
