<svg width="150" height="150" viewBox="0 0 150 150" fill="none" xmlns="http://www.w3.org/2000/svg">
<g clip-path="url(#clip0_45_6299)">
<path d="M43.0629 63.3259C43.0629 65.1273 43.2577 66.5878 43.5985 67.6588C43.9879 68.7299 44.4748 69.8983 45.1564 71.1641C45.3998 71.5536 45.4971 71.943 45.4971 72.2838C45.4971 72.7707 45.205 73.2575 44.5721 73.7444L41.505 75.7891C41.0669 76.0812 40.6287 76.2273 40.2393 76.2273C39.7524 76.2273 39.2656 75.9838 38.7787 75.5457C38.0971 74.8154 37.5129 74.0365 37.0261 73.2575C36.5393 72.4299 36.0524 71.5049 35.5169 70.3852C31.7195 74.8641 26.9485 77.1036 21.2037 77.1036C17.1143 77.1036 13.8524 75.9351 11.4669 73.5983C9.08136 71.2615 7.86426 68.1457 7.86426 64.2509C7.86426 60.1128 9.32478 56.7536 12.2945 54.222C15.2643 51.6904 19.2077 50.4246 24.2221 50.4246C25.8774 50.4246 27.5814 50.5707 29.3827 50.8141C31.184 51.0575 33.034 51.447 34.9814 51.8852V48.3312C34.9814 44.6312 34.2024 42.0509 32.6932 40.5417C31.1353 39.0325 28.5064 38.3023 24.7577 38.3023C23.0537 38.3023 21.3011 38.497 19.4998 38.9352C17.6985 39.3733 15.9458 39.9088 14.2419 40.5904C13.4629 40.9312 12.8787 41.1259 12.5379 41.2233C12.1972 41.3207 11.9537 41.3694 11.759 41.3694C11.0774 41.3694 10.7366 40.8825 10.7366 39.8602V37.4746C10.7366 36.6957 10.834 36.1115 11.0774 35.7707C11.3208 35.4299 11.759 35.0891 12.4406 34.7483C14.1445 33.872 16.1893 33.1417 18.5748 32.5575C20.9603 31.9246 23.4919 31.6325 26.1695 31.6325C31.9629 31.6325 36.1985 32.947 38.9248 35.5759C41.6024 38.2049 42.9656 42.197 42.9656 47.5523V63.3259H43.0629ZM23.2971 70.7259C24.9037 70.7259 26.559 70.4338 28.3116 69.8496C30.0643 69.2654 31.6221 68.1944 32.9366 66.7338C33.7156 65.8088 34.2998 64.7865 34.5919 63.618C34.884 62.4496 35.0787 61.0378 35.0787 59.3825V57.3378C33.6669 56.997 32.1577 56.7049 30.5998 56.5102C29.0419 56.3154 27.5327 56.218 26.0235 56.218C22.7616 56.218 20.3761 56.8509 18.7695 58.1654C17.1629 59.4799 16.384 61.3299 16.384 63.7641C16.384 66.0523 16.9682 67.7562 18.1853 68.9246C19.3537 70.1417 21.0577 70.7259 23.2971 70.7259ZM62.3906 75.9838C61.5142 75.9838 60.93 75.8378 60.5406 75.497C60.1511 75.2049 59.8103 74.5233 59.5182 73.5983L48.0774 35.9654C47.7853 34.9917 47.6392 34.3588 47.6392 34.0181C47.6392 33.2391 48.0287 32.8009 48.8077 32.8009H53.5787C54.5037 32.8009 55.1366 32.947 55.4774 33.2878C55.8669 33.5799 56.159 34.2615 56.4511 35.1865L64.63 67.4154L72.2248 35.1865C72.4682 34.2128 72.7603 33.5799 73.1498 33.2878C73.5392 32.9957 74.2208 32.8009 75.0971 32.8009H78.9919C79.9169 32.8009 80.5498 32.947 80.9392 33.2878C81.3287 33.5799 81.6695 34.2615 81.8642 35.1865L89.5563 67.8049L97.9787 35.1865C98.2708 34.2128 98.6116 33.5799 98.9524 33.2878C99.3419 32.9957 99.9748 32.8009 100.851 32.8009H105.379C106.158 32.8009 106.596 33.1904 106.596 34.0181C106.596 34.2615 106.547 34.5049 106.498 34.797C106.45 35.0891 106.352 35.4786 106.158 36.0141L94.4248 73.647C94.1327 74.6207 93.7919 75.2536 93.4024 75.5457C93.0129 75.8378 92.38 76.0325 91.5524 76.0325H87.3655C86.4405 76.0325 85.8077 75.8865 85.4182 75.5457C85.0287 75.2049 84.6879 74.572 84.4932 73.5983L76.9471 42.197L69.4498 73.5496C69.2064 74.5233 68.9142 75.1562 68.5248 75.497C68.1353 75.8378 67.4537 75.9838 66.5774 75.9838H62.3906ZM124.95 77.2983C122.418 77.2983 119.887 77.0062 117.452 76.422C115.018 75.8378 113.119 75.2049 111.854 74.4746C111.075 74.0365 110.539 73.5496 110.344 73.1115C110.15 72.6733 110.052 72.1865 110.052 71.7483V69.2654C110.052 68.243 110.442 67.7562 111.172 67.7562C111.464 67.7562 111.756 67.8049 112.048 67.9023C112.341 67.9996 112.779 68.1944 113.266 68.3891C114.921 69.1194 116.722 69.7036 118.621 70.093C120.568 70.4825 122.467 70.6773 124.414 70.6773C127.481 70.6773 129.867 70.1417 131.522 69.0707C133.177 67.9996 134.054 66.4417 134.054 64.4457C134.054 63.0825 133.616 61.9628 132.739 61.0378C131.863 60.1128 130.208 59.2852 127.822 58.5062L120.763 56.3154C117.209 55.1957 114.58 53.5404 112.973 51.3496C111.367 49.2075 110.539 46.822 110.539 44.2904C110.539 42.2457 110.977 40.4444 111.854 38.8865C112.73 37.3286 113.898 35.9654 115.359 34.8944C116.819 33.7746 118.475 32.947 120.422 32.3628C122.369 31.7786 124.414 31.5352 126.556 31.5352C127.627 31.5352 128.747 31.5838 129.818 31.7299C130.938 31.8759 131.96 32.0707 132.983 32.2654C133.956 32.5088 134.881 32.7523 135.758 33.0444C136.634 33.3365 137.316 33.6286 137.802 33.9207C138.484 34.3102 138.971 34.6996 139.263 35.1378C139.555 35.5273 139.701 36.0628 139.701 36.7444V39.0325C139.701 40.0549 139.312 40.5904 138.581 40.5904C138.192 40.5904 137.559 40.3957 136.731 40.0062C133.956 38.7404 130.841 38.1075 127.384 38.1075C124.609 38.1075 122.418 38.5457 120.909 39.4707C119.4 40.3957 118.621 41.8075 118.621 43.8036C118.621 45.1667 119.108 46.3352 120.081 47.2602C121.055 48.1852 122.856 49.1102 125.437 49.9378L132.35 52.1286C135.855 53.2483 138.387 54.8062 139.896 56.8023C141.405 58.7983 142.135 61.0865 142.135 63.618C142.135 65.7115 141.697 67.6101 140.869 69.2654C139.993 70.9207 138.825 72.3812 137.316 73.5496C135.806 74.7667 134.005 75.643 131.912 76.2759C129.721 76.9575 127.433 77.2983 124.95 77.2983Z" fill="#252F3E"/>
<path fill-rule="evenodd" clip-rule="evenodd" d="M134.152 100.959C118.135 112.79 94.8636 119.07 74.8544 119.07C46.8123 119.07 21.5452 108.7 2.46098 91.4659C0.951772 90.1027 2.31493 88.2527 4.11624 89.3238C24.7583 101.3 50.2202 108.554 76.5583 108.554C94.3281 108.554 113.85 104.854 131.815 97.2593C134.493 96.0422 136.781 99.012 134.152 100.959Z" fill="#FF9900"/>
<path fill-rule="evenodd" clip-rule="evenodd" d="M140.821 93.3642C138.776 90.7352 127.287 92.0984 122.078 92.7313C120.52 92.926 120.276 91.5629 121.688 90.5405C130.841 84.1142 145.884 85.9642 147.637 88.1063C149.389 90.2971 147.15 105.34 138.582 112.546C137.267 113.665 136.001 113.081 136.586 111.621C138.533 106.801 142.866 95.9444 140.821 93.3642Z" fill="#FF9900"/>
</g>
<defs>
<clipPath id="clip0_45_6299">
<rect width="148" height="88.6052" fill="white" transform="translate(1 31)"/>
</clipPath>
</defs>
</svg>
