<svg width="150" height="150" viewBox="0 0 150 150" fill="none" xmlns="http://www.w3.org/2000/svg">
<path d="M18.6598 107.91C19.8685 107.91 21.0135 108.196 21.5867 108.769C21.6821 109.66 20.8863 111.091 20.3774 111.091C19.773 110.869 19.2005 110.741 18.5008 110.741C15.6063 110.741 14.1743 113.731 14.1743 116.689C14.1743 118.534 14.8105 119.648 16.2743 119.648C17.8328 119.648 19.4232 118.598 20.3138 117.803C20.5364 117.962 20.8227 118.471 20.8227 119.044C20.8227 119.68 20.6318 120.284 20.0593 120.857C19.0415 121.875 17.3239 122.733 14.8423 122.733C11.9797 122.733 10.0076 121.111 10.0076 117.326C10.0076 112.364 13.2837 107.91 18.628 107.91H18.6598Z" fill="#373535"/>
<path d="M28.0103 119.489C29.5689 119.489 32.4003 116.753 33.1955 111.537C33.2273 111.219 33.2591 111.123 33.3227 110.805C32.9729 110.678 32.4958 110.582 32.018 110.582C30.8411 110.582 29.6325 110.932 28.551 112.395C27.4378 113.954 26.9607 115.894 26.9607 117.453C26.9607 118.789 27.3424 119.489 27.9785 119.489H28.0103ZM22.8887 118.058C22.8887 116.181 23.5249 112.904 25.9111 110.519C27.9467 108.42 30.4276 107.91 32.6866 107.91C34.1815 107.91 36.2172 108.387 37.4895 108.642C37.1714 110.042 36.408 115.322 36.0581 118.375C35.8991 119.68 35.8355 121.493 35.8991 122.161C34.8495 122.606 32.8774 122.733 32.3361 122.733C32.0505 122.733 31.9862 121.429 32.0823 120.189C32.1134 119.775 32.1777 119.171 32.2088 118.917C30.9684 120.984 28.5192 122.733 25.9429 122.733C24.0981 122.733 22.8887 121.207 22.8887 118.09V118.058Z" fill="#373535"/>
<path d="M45.4082 107.91C46.7122 107.91 47.9527 108.387 48.5259 108.991C48.4941 109.883 47.7943 111.377 46.6804 110.963C46.2033 110.804 45.7262 110.678 45.0901 110.678C44.2313 110.678 43.4997 111.06 43.4997 111.854C43.4997 112.458 43.945 112.904 46.0761 114.399C47.6035 115.513 48.2078 116.499 48.2078 117.898C48.2078 120.221 46.0125 122.733 42.1956 122.733C40.6371 122.733 39.2687 122.129 38.8234 121.493C38.2509 120.539 38.6962 118.662 39.333 118.98C40.16 119.393 41.5277 119.839 42.6409 119.839C43.6906 119.839 44.3585 119.361 44.3585 118.725C44.3585 118.185 43.8814 117.707 41.9412 116.34C40.3184 115.131 39.8095 114.018 39.8095 112.745C39.8095 110.105 42.0684 107.91 45.3763 107.91H45.4082Z" fill="#373535"/>
<path d="M56.3811 107.91C57.6859 107.91 58.9264 108.387 59.4989 108.991C59.4671 109.883 58.768 111.377 57.6541 110.963C57.177 110.804 56.6992 110.678 56.0637 110.678C55.2049 110.678 54.4734 111.06 54.4734 111.854C54.4734 112.458 54.9187 112.904 57.0498 114.399C58.5765 115.513 59.1808 116.499 59.1808 117.898C59.1808 120.221 56.9855 122.733 53.1686 122.733C51.6101 122.733 50.2424 122.129 49.7971 121.493C49.2246 120.539 49.6699 118.662 50.306 118.98C51.133 119.393 52.5007 119.839 53.6139 119.839C54.6636 119.839 55.3315 119.361 55.3315 118.725C55.3315 118.185 54.8544 117.707 52.9142 116.34C51.292 115.131 50.7831 114.018 50.7831 112.745C50.7831 110.105 53.0414 107.91 56.35 107.91H56.3811Z" fill="#373535"/>
<path d="M66.3997 119.489C67.9589 119.489 70.7897 116.753 71.5849 111.537C71.6167 111.219 71.6492 111.123 71.7128 110.805C71.3623 110.678 70.8858 110.582 70.4081 110.582C69.2312 110.582 68.0225 110.932 66.9404 112.395C65.8279 113.954 65.3501 115.894 65.3501 117.453C65.3501 118.789 65.7318 119.489 66.3686 119.489H66.3997ZM61.2781 118.058C61.2781 116.181 61.9149 112.904 64.3005 110.519C66.3361 108.42 68.8171 107.91 71.076 107.91C72.5709 107.91 74.6072 108.387 75.8795 108.642C75.5615 110.042 74.7981 115.322 74.4482 118.375C74.2885 119.68 74.2256 121.493 74.2885 122.161C73.2389 122.606 71.2675 122.733 70.7261 122.733C70.4405 122.733 70.3763 121.429 70.4717 120.189C70.5035 119.775 70.5671 119.171 70.5989 118.917C69.3584 120.984 66.9093 122.733 64.3329 122.733C62.4875 122.733 61.2781 121.207 61.2781 118.09V118.058Z" fill="#373535"/>
<path d="M83.0663 112.046C84.5301 109.692 86.4378 107.911 89.1103 107.911C91.3686 107.911 92.1002 110.01 91.6873 113C91.4647 114.4 91.083 116.404 90.8279 118.249C90.6052 119.808 90.4462 121.207 90.4787 122.162C89.6517 122.575 87.2337 122.734 86.693 122.734C86.4703 122.734 86.4378 120.984 86.7248 119.14C86.9786 117.613 87.5199 114.846 87.7744 113.255C87.9341 112.333 87.9016 111.219 87.011 111.219C85.8335 111.219 83.0352 113.096 81.635 120.793C81.5389 121.43 81.2851 121.811 80.9346 122.034C80.4581 122.321 79.4397 122.575 77.3729 122.607C77.7545 120.667 78.3589 116.69 78.8042 113.764C79.217 111.092 79.3767 109.374 79.2806 108.706C79.822 108.515 82.6535 107.911 82.9702 107.911C83.3214 107.911 83.3844 108.897 83.0663 111.283C83.0352 111.506 83.0027 111.855 82.9702 112.046H83.0663Z" fill="#373535"/>
<path d="M99.2252 119.457C100.624 119.457 103.456 116.848 104.251 112.236C104.283 111.982 104.379 111.505 104.442 111.218C104.028 110.836 103.487 110.582 102.629 110.582C99.4154 110.582 97.9841 114.431 97.9841 117.199C97.9841 118.694 98.4937 119.457 99.1928 119.457H99.2252ZM97.126 122.733C95.0903 122.733 93.8181 120.92 93.8181 117.803C93.8181 112.65 97.0299 107.91 102.438 107.91C103.393 107.91 104.251 108.164 104.791 108.483C105.078 107.019 105.746 102.502 105.778 101.166C106.668 101.007 108.577 100.722 109.435 100.722C109.786 100.722 109.882 101.071 109.754 101.866C108.99 106.638 107.624 115.799 107.368 117.835C107.177 119.553 107.146 121.238 107.177 122.193C106.16 122.638 104.092 122.733 103.552 122.733C103.328 122.733 103.201 121.27 103.265 119.966C103.297 119.553 103.36 118.948 103.36 118.853C101.77 121.461 99.5745 122.733 97.1571 122.733H97.126Z" fill="#373535"/>
<path d="M115.764 112.491C117.451 108.737 119.454 107.91 120.758 107.91C121.173 107.91 121.808 108.165 122.094 108.483C122.222 109.532 121.395 111.632 120.663 112.427C120.281 112.236 119.805 112.045 119.264 112.045C118.181 112.045 116.05 113.732 114.714 120.984C114.618 121.589 114.428 121.843 114.079 122.002C113.538 122.32 111.407 122.575 110.389 122.606C110.865 119.998 111.692 114.686 112.011 111.568C112.106 110.773 112.137 109.31 112.075 108.737C112.679 108.451 115.065 107.91 115.605 107.91C115.892 107.91 116.115 109.66 115.668 112.491H115.764Z" fill="#373535"/>
<path d="M126.992 119.489C128.551 119.489 131.382 116.753 132.177 111.537C132.209 111.219 132.241 111.123 132.305 110.805C131.955 110.678 131.478 110.582 131 110.582C129.823 110.582 128.614 110.932 127.532 112.395C126.42 113.954 125.942 115.894 125.942 117.453C125.942 118.789 126.324 119.489 126.96 119.489H126.992ZM121.87 118.058C121.87 116.181 122.507 112.904 124.892 110.519C126.928 108.42 129.409 107.91 131.668 107.91C133.163 107.91 135.198 108.387 136.472 108.642C136.153 110.042 135.39 115.322 135.04 118.375C134.881 119.68 134.817 121.493 134.881 122.161C133.831 122.606 131.859 122.733 131.318 122.733C131.032 122.733 130.969 121.429 131.064 120.189C131.095 119.775 131.159 119.171 131.191 118.917C129.95 120.984 127.502 122.733 124.925 122.733C123.079 122.733 121.87 121.207 121.87 118.09V118.058Z" fill="#373535"/>
<path d="M117.65 54.0071C118.7 66.2342 99.4575 77.8716 74.6719 79.998C49.8864 82.1245 28.9428 73.9342 27.8945 61.7077C26.8449 49.4786 46.0874 37.8419 70.873 35.7155C95.6586 33.5897 116.602 41.778 117.65 54.0071Z" fill="#BBE6FB"/>
<mask id="mask0_45_6319" style="mask-type:luminance" maskUnits="userSpaceOnUse" x="41" y="37" width="60" height="42">
<path d="M41.5324 37.1451H100.037V78.3457H41.5324V37.1451Z" fill="white"/>
</mask>
<g mask="url(#mask0_45_6319)">
<g opacity="0.350006">
<path d="M71.6006 37.1497C62.146 36.996 51.0825 40.7499 42.8504 44.2652C41.9936 46.7342 41.5324 49.3603 41.5324 52.0824C41.5324 66.5864 54.6289 78.3457 70.7849 78.3457C86.9408 78.3457 100.037 66.5864 100.037 52.0824C100.037 47.4923 98.7227 43.1798 96.4173 39.4252C89.8313 38.4015 80.7729 37.2988 71.6006 37.1497Z" fill="white"/>
</g>
</g>
<path d="M70.7848 37.1456C65.5505 36.8262 56.5286 39.557 49.0056 42.2811C47.8625 44.9788 47.2277 47.9308 47.2277 51.0287C47.2277 63.7369 58.7498 74.0391 70.9385 74.0391C83.047 74.0391 93.76 63.7204 94.6493 51.0287C94.9382 46.8958 93.5155 43.0014 91.5401 39.6438C83.7408 38.2701 75.4637 37.4312 70.7848 37.1456Z" fill="white"/>
<path d="M57.3521 49.3601C57.9942 47.9381 58.967 47.2416 59.9093 46.0495C59.8046 45.7672 59.5753 44.8442 59.5753 44.5241C59.5753 43.0954 60.7342 41.9358 62.1636 41.9358C62.5009 41.9358 62.8229 42.0027 63.1178 42.12C67.4018 38.8552 73.0416 37.4318 78.7092 38.6988C79.2267 38.8154 79.7343 38.9566 80.2326 39.1116C74.6312 38.335 68.3176 40.319 64.023 43.7853C64.1542 44.0947 64.518 44.9793 64.518 45.3352C64.518 46.7645 63.5929 47.1124 62.1636 47.1124C61.8389 47.1124 61.5288 47.0501 61.2418 46.9408C60.2717 48.2435 59.0829 50.7251 58.5011 52.2764C60.8761 54.4008 63.0217 55.1708 65.8181 56.2158C65.8108 56.0826 65.9141 55.9594 65.9141 55.8235C65.9141 51.5144 69.7078 48.0123 74.0176 48.0123C77.8795 48.0123 81.0775 50.8206 81.7017 54.5049C83.6286 53.279 85.492 52.3393 86.912 50.5224C86.5807 50.1182 86.2236 48.9738 86.2236 48.4105C86.2236 47.1137 87.2758 46.0621 88.5726 46.0621C88.7562 46.0621 88.9325 46.0886 89.1041 46.1284C89.825 44.6467 90.3691 43.0762 90.717 41.4567C83.9779 36.4677 70.939 37.1482 70.939 37.1482C70.939 37.1482 60.5633 36.6068 53.5392 40.0301C54.0077 43.4168 55.3589 46.6366 57.3521 49.3601Z" fill="#373535"/>
<path d="M89.5632 47.4162C90.0396 47.8456 90.2994 48.2227 90.5041 48.5898C91.1343 49.7229 89.87 50.76 88.5732 50.76C88.4413 50.76 88.3141 50.7421 88.1875 50.7209C86.7264 53.0043 84.1673 55.9326 81.8937 57.4063C85.3799 57.9775 88.6673 59.3737 91.2834 61.5312C93.1885 58.118 94.6497 53.1892 94.6497 49.0026C94.6497 45.816 93.2429 43.4801 91.1191 41.7665C91.0078 43.4735 90.0966 45.861 89.5632 47.4162Z" fill="#373535"/>
<path d="M61.2636 69.0352C62.4252 65.8273 65.2825 63.3417 67.9855 61.155C67.5899 60.6136 66.9968 59.2731 66.7496 58.6383C63.453 57.6357 60.536 55.7591 58.2737 53.2748C58.2572 53.347 58.2366 53.4173 58.2194 53.4895C57.7933 55.3986 57.7151 57.3116 57.9272 59.1776C59.5056 59.4719 60.7004 60.8548 60.7004 62.5187C60.7004 63.5054 59.8356 64.9354 59.1643 65.5576C59.8939 67.132 60.3916 67.8914 61.2636 69.0352Z" fill="#373535"/>
<path d="M61.0591 71.7275C59.6735 70.3498 58.7153 67.6018 57.8161 65.8763C57.6478 65.9022 57.4755 65.92 57.2993 65.92C55.42 65.92 53.4513 64.343 53.8966 62.518C54.1431 61.5082 54.8402 60.8475 55.9753 60.2962C55.7169 58.2042 55.6466 55.1971 56.1323 53.0223C56.2715 52.4001 56.5664 52.1085 56.7619 51.5161C54.6884 48.4819 53.3486 44.4994 53.3486 40.548C53.3486 40.4036 53.3559 40.2611 53.3592 40.118C49.8551 41.8753 47.2277 44.6438 47.2277 49.0021C47.2277 58.6422 52.78 68.0988 61.0412 71.8057C61.0472 71.7798 61.0525 71.7533 61.0591 71.7275Z" fill="#373535"/>
<path d="M81.3733 58.4009C80.3057 61.4372 77.4193 63.6179 74.0179 63.6179C72.1983 63.6179 70.5291 62.9904 69.2025 61.9474C66.4677 64.0772 63.9868 67.8185 62.7258 71.0641C63.2917 71.6731 63.6859 72.174 64.3208 72.7141C66.2338 73.2124 68.8685 72.7141 70.9393 72.7141C79.2687 72.7141 86.6459 69.0086 90.8756 62.5107C88.0633 60.5632 84.7461 58.7097 81.3733 58.4009Z" fill="#373535"/>
<path d="M57.1392 50.488C57.7813 49.066 58.5864 47.75 59.5281 46.5579C59.4234 46.2762 59.3624 45.9721 59.3624 45.652C59.3624 44.2234 60.5214 43.0637 61.9507 43.0637C62.288 43.0637 62.61 43.1307 62.9049 43.248C67.1889 39.9831 72.8287 38.5597 78.4963 39.8267C79.0138 39.9433 79.5214 40.0845 80.0197 40.2396C74.4184 39.4629 68.6308 41.1798 64.3362 44.6468C64.4674 44.9556 64.539 45.2962 64.539 45.652C64.539 47.0814 63.38 48.2403 61.9507 48.2403C61.626 48.2403 61.3159 48.178 61.0289 48.0687C60.0588 49.3715 59.2656 50.8107 58.6838 52.3626C60.7235 54.5606 63.2269 56.2988 66.0226 57.3438C66.016 57.2106 66.0021 57.0787 66.0021 56.9428C66.0021 52.6337 69.4949 49.1402 73.8047 49.1402C77.6666 49.1402 80.8646 51.9485 81.4888 55.6328C83.4157 54.4069 85.128 52.8325 86.5474 51.0155C86.2161 50.6113 86.0107 50.1017 86.0107 49.5385C86.0107 48.2417 87.063 47.19 88.3597 47.19C88.5433 47.19 88.7196 47.2165 88.8912 47.2563C89.6121 45.7746 90.1562 44.2042 90.5041 42.5847C83.765 37.5956 70.7261 38.2761 70.7261 38.2761C70.7261 38.2761 60.3504 37.7348 53.3264 41.158C53.7948 44.5448 55.146 47.7646 57.1392 50.488Z" fill="#1287B1"/>
<path d="M89.9265 47.8012C90.403 48.2306 90.7085 48.8462 90.7085 49.538C90.7085 50.8348 89.6562 51.8871 88.3594 51.8871C88.2275 51.8871 88.1003 51.8692 87.9737 51.848C86.5126 54.1315 84.5764 56.0783 82.3022 57.5521C85.6631 58.0775 88.8266 59.5036 91.442 61.6611C93.3471 58.2478 94.4358 54.3164 94.4358 50.1298C94.4358 46.9431 93.0291 44.6073 90.9053 42.8937C90.794 44.6007 90.46 46.246 89.9265 47.8012Z" fill="#1287B1"/>
<path d="M61.622 69.8066C62.7837 66.5988 64.8021 63.7202 67.505 61.5342C67.1094 60.9921 66.7834 60.4004 66.5362 59.7656C63.2389 58.763 60.3226 56.8864 58.0603 54.4021C58.0438 54.4744 58.0226 54.5446 58.006 54.6168C57.5793 56.5259 57.5011 58.439 57.7138 60.305C59.2915 60.5992 60.4869 61.9821 60.4869 63.646C60.4869 64.6327 60.0635 65.52 59.3922 66.1422C60.0012 67.433 60.75 68.6629 61.622 69.8066Z" fill="#1287B1"/>
<path d="M61.05 71.6904C59.6644 70.3127 58.5015 68.7303 57.6029 67.0055C57.4339 67.0313 57.2617 67.0485 57.0861 67.0485C55.2068 67.0485 53.6834 65.5251 53.6834 63.6465C53.6834 62.3 54.4679 61.1391 55.6031 60.5877C55.3453 58.4964 55.4328 56.3256 55.9191 54.1508C56.0583 53.5292 56.2279 52.9223 56.4234 52.3292C54.35 49.2956 53.1354 45.6279 53.1354 41.6765C53.1354 41.5321 53.142 41.3896 53.1453 41.2471C49.6412 43.0038 47.0139 45.773 47.0139 50.1305C47.0139 59.7714 52.7709 68.0617 61.0321 71.7686C61.0381 71.7427 61.0434 71.7162 61.05 71.6904Z" fill="#1287B1"/>
<path d="M81.1599 59.5287C80.0924 62.5649 77.2059 64.7457 73.8045 64.7457C71.9849 64.7457 70.3157 64.1181 68.9891 63.0751C66.2544 65.2049 64.1902 68.1079 62.9299 71.3542C63.4951 71.9632 64.0994 72.537 64.7343 73.0764C66.648 73.5748 68.6551 73.8418 70.7259 73.8418C79.0553 73.8418 86.3782 69.5412 90.6079 63.044C87.7956 61.0958 84.5328 59.8375 81.1599 59.5287Z" fill="#1287B1"/>
<mask id="mask1_45_6319" style="mask-type:luminance" maskUnits="userSpaceOnUse" x="58" y="42" width="31" height="31">
<path d="M58.2268 42.1489H88.6416V72.5371H58.2268V42.1489Z" fill="white"/>
</mask>
<g mask="url(#mask1_45_6319)">
<path d="M81.4327 57.5163L88.6416 55.7967L81.4055 55.4276L87.2944 50.9269L80.6123 53.3224L85.1534 47.0292L78.8815 51.1979L81.0742 43.8313L76.767 49.9031L76.6689 42.2304L73.8348 49.0649L71.4718 42.1489L71.5997 50.2961L67.5158 42.9931L69.7257 50.7473L63.1013 45.9299L68.2904 52.4503L60.0663 49.426L66.557 54.2282L58.2341 54.484L66.7438 56.68L58.2268 58.5215L66.6338 59.1311L59.5442 63.6709L66.8445 61.0243L61.7793 67.4394L68.1798 62.2774L65.8751 70.8858L70.8164 63.8803L70.124 72.1541L72.9289 64.6536L75.3165 72.5371L75.8969 64.6298L79.4408 71.3762L77.3468 63.6597L83.8361 68.6865L79.6468 62.2774L86.7663 65.0512L81.3227 59.7017L88.6224 60.2755L81.4327 57.5163Z" fill="white"/>
</g>
<mask id="mask2_45_6319" style="mask-type:luminance" maskUnits="userSpaceOnUse" x="4" y="30" width="142" height="42">
<path d="M4.68597 30.3472H145.433V71.3105H4.68597V30.3472Z" fill="white"/>
</mask>
<g mask="url(#mask2_45_6319)">
<g opacity="0.350006">
<path d="M4.68597 71.3105C27.0436 48.9536 44.8999 42.0515 61.1056 38.9006C63.2499 38.4838 63.6554 33.7982 63.6554 33.7982C63.6554 33.7982 63.9556 37.2493 65.4565 37.6992C66.9567 38.1498 68.9069 32.2973 68.9069 32.2973C68.9069 32.2973 67.1065 37.5494 68.9069 37.8496C70.708 38.1498 74.0086 32.7479 74.0086 32.7479C74.0086 32.7479 72.6588 37.399 73.5593 37.6992C74.4585 37.9994 78.9599 30.9475 78.9599 30.9475C78.9599 30.9475 76.2589 35.5986 78.8101 36.0492C81.362 36.4991 85.0834 32.8745 85.0834 32.8745C85.0834 32.8745 82.1572 36.191 83.4612 36.6489C89.0135 38.6004 93.5063 31.3842 93.5063 31.3842C93.5063 31.3842 92.4653 34.5483 89.7643 37.9994C95.6155 39.4996 99.9618 30.6844 99.9618 30.6844L95.6155 39.4996C97.8665 40.701 106.871 30.3471 106.871 30.3471C106.871 30.3471 102.219 38.45 99.5178 40.1C101.018 41.3007 106.42 36.4991 106.42 36.4991C106.42 36.4991 102.068 41.9004 103.719 42.2005C106.12 44.1514 114.972 32.1476 114.972 32.1476C114.972 32.1476 111.522 39.1994 106.42 44.7517C110.684 46.8848 121.275 33.1978 121.275 33.1978C121.275 33.1978 120.975 37.5494 113.322 44.4515C119.024 43.7014 126.377 32.8977 126.377 32.8977C126.377 32.8977 123.676 41.0005 117.223 46.7019C122.822 46.1194 131.777 32.2973 131.777 32.2973C131.777 32.2973 128.327 41.9004 121.275 47.4527C129.078 49.1782 140.331 37.5494 140.331 37.5494C140.331 37.5494 135.905 45.8027 130.127 49.1782C136.58 51.6538 145.433 41.4504 145.433 41.4504C145.433 41.4504 136.58 55.1056 122.476 54.5052C117.848 54.3084 103.85 40.4651 73.8588 41.6009C34.2459 43.1017 25.8436 59.9071 4.68597 71.3105Z" fill="#373535"/>
</g>
</g>
<path d="M5.60199 69.6123C27.9596 47.2553 45.8153 40.3539 62.0209 37.2023C64.1659 36.7855 64.5714 32.1006 64.5714 32.1006C64.5714 32.1006 64.871 35.5523 66.3725 36.0016C67.8727 36.4516 69.8229 30.6004 69.8229 30.6004C69.8229 30.6004 68.0225 35.8525 69.8229 36.152C71.624 36.4516 74.9246 31.0503 74.9246 31.0503C74.9246 31.0503 73.5748 35.7014 74.474 36.0016C75.3746 36.3018 79.8759 29.2493 79.8759 29.2493C79.8759 29.2493 77.175 33.901 79.7262 34.351C82.2767 34.8016 85.9994 31.1769 85.9994 31.1769C85.9994 31.1769 83.0732 34.4934 84.3773 34.9513C89.9296 36.9022 94.421 29.6866 94.421 29.6866C94.421 29.6866 93.38 32.8507 90.6803 36.3018C96.5315 37.8027 100.878 28.9862 100.878 28.9862L96.5315 37.8027C98.7825 39.0027 107.785 28.6502 107.785 28.6502C107.785 28.6502 103.135 36.7517 100.434 38.4024C101.934 39.6031 107.336 34.8016 107.336 34.8016C107.336 34.8016 102.984 40.2034 104.635 40.503C107.036 42.4545 115.888 30.45 115.888 30.45C115.888 30.45 112.436 37.5025 107.336 43.0541C111.6 45.1879 122.191 31.5003 122.191 31.5003C122.191 31.5003 121.891 35.8525 114.238 42.7546C119.94 42.0039 127.293 31.2001 127.293 31.2001C127.293 31.2001 124.592 39.3029 118.139 45.005C123.738 44.4225 132.693 30.6004 132.693 30.6004C132.693 30.6004 129.243 40.2035 122.191 45.7551C129.994 47.4806 141.247 35.8525 141.247 35.8525C141.247 35.8525 136.821 44.1044 131.043 47.4806C137.496 49.9563 146.349 39.7529 146.349 39.7529C146.349 39.7529 137.496 53.408 123.39 52.8076C118.764 52.6102 104.766 38.7668 74.7742 39.9033C35.1619 41.4035 26.7589 58.2088 5.60199 69.6123Z" fill="#373535"/>
<mask id="mask3_45_6319" style="mask-type:luminance" maskUnits="userSpaceOnUse" x="4" y="55" width="133" height="50">
<path d="M4.10077 55.2255H136.219V104.141H4.10077V55.2255Z" fill="white"/>
</mask>
<g mask="url(#mask3_45_6319)">
<g opacity="0.350006">
<path d="M4.10077 73.7557C15.9171 79.6831 26.7215 72.8558 40.3382 76.6932C50.6907 79.6115 63.2955 83.209 80.4004 80.7327C97.5059 78.2577 112.136 70.8301 119.115 57.55C121.29 51.624 130.143 58.9012 130.143 58.9012C130.143 58.9012 123.691 56.2002 123.841 57.4758C123.991 58.7508 133.519 63.1772 133.519 63.1772C133.519 63.1772 124.891 60.4763 125.417 62.502C125.942 64.5277 136.219 72.6305 136.219 72.6305C136.219 72.6305 124.591 63.7776 123.616 64.9776C122.64 66.1783 128.567 71.0554 128.567 71.0554C128.567 71.0554 118.739 64.9776 115.287 66.7701C112.805 68.0576 125.491 76.3824 125.491 76.3824C125.491 76.3824 117.238 70.0793 115.287 71.73C113.337 73.3813 124.591 86.8853 124.591 86.8853C124.591 86.8853 111.836 73.0805 110.561 73.7557C109.285 74.4309 114.087 81.0335 114.087 81.0335C114.087 81.0335 107.785 74.1308 106.06 75.3315C104.334 76.5322 115.063 94.4627 115.063 94.4627C115.063 94.4627 103.434 76.0822 98.6324 79.1569C106.173 95.7005 103.359 98.0642 103.359 98.0642C103.359 98.0642 102.397 81.1866 93.0052 81.6332C88.2786 81.8585 95.2556 94.2374 95.2556 94.2374C95.2556 94.2374 88.8339 82.9313 84.5572 83.1566C92.4393 98.0734 89.6297 104.141 89.6297 104.141C89.6297 104.141 90.9331 91.4006 80.2427 84.311C84.2934 87.9111 77.7008 104.141 77.7008 104.141C77.7008 104.141 83.5002 80.2251 73.4234 84.7848C71.8311 85.5037 73.3107 96.7137 73.3107 96.7137C73.3107 96.7137 71.285 83.8836 68.2475 84.5595C66.4762 84.9524 56.9931 102.34 56.9931 102.34C56.9931 102.34 64.7586 83.5463 62.3957 84.3342C60.6741 84.9087 57.4437 92.6623 57.4437 92.6623C57.4437 92.6623 59.0188 85.0094 57.4437 84.5595C55.8686 84.1089 47.0899 92.6623 47.0899 92.6623C47.0899 92.6623 53.6176 85.0094 52.4918 83.4336C50.7861 81.0461 48.7869 80.9341 46.4146 81.8585C42.9629 83.2037 38.3125 89.5107 38.3125 89.5107C38.3125 89.5107 42.9483 83.1248 42.1379 80.7327C40.8372 76.8893 27.5087 88.1603 27.5087 88.1603C27.5087 88.1603 35.3862 80.7327 33.5858 79.1569C31.7854 77.5818 22.0088 78.0688 18.9559 78.0602C9.95325 78.0324 6.83352 75.9206 4.10077 73.7557Z" fill="#373535"/>
</g>
</g>
<path d="M3.65057 72.4051C15.4669 78.3325 26.2706 71.5052 39.8873 75.3433C50.2398 78.2602 62.8453 81.8584 79.9509 79.3821C97.0564 76.9065 111.686 69.4789 118.664 56.2001C120.839 50.2734 129.692 57.5499 129.692 57.5499C129.692 57.5499 123.24 54.8497 123.391 56.1252C123.54 57.4002 133.068 61.8266 133.068 61.8266C133.068 61.8266 124.44 59.1264 124.966 61.1521C125.491 63.1771 135.769 71.2799 135.769 71.2799C135.769 71.2799 124.14 62.4263 123.165 63.6277C122.191 64.8278 128.117 69.7042 128.117 69.7042C128.117 69.7042 118.288 63.6277 114.837 65.4188C112.354 66.707 125.041 75.0312 125.041 75.0312C125.041 75.0312 116.787 68.7288 114.837 70.3794C112.886 72.0307 124.141 85.5348 124.141 85.5348C124.141 85.5348 111.385 71.7299 110.11 72.4051C108.836 73.081 113.637 79.6823 113.637 79.6823C113.637 79.6823 107.334 72.7802 105.609 73.9809C103.884 75.1809 114.612 93.1121 114.612 93.1121C114.612 93.1121 102.983 74.731 98.1815 77.807C105.722 94.3499 102.908 96.7136 102.908 96.7136C102.908 96.7136 101.946 79.836 92.5544 80.2833C87.8277 80.5086 94.8047 92.8868 94.8047 92.8868C94.8047 92.8868 88.383 81.5801 84.107 81.8054C91.9898 96.7229 89.1788 102.79 89.1788 102.79C89.1788 102.79 90.4823 90.0494 79.7918 82.9597C83.8426 86.5605 77.2499 102.79 77.2499 102.79C77.2499 102.79 83.0507 78.8745 72.9739 83.4342C71.3815 84.1538 72.8612 95.3631 72.8612 95.3631C72.8612 95.3631 70.8342 82.5336 67.7973 83.2089C66.0254 83.6018 56.5422 100.99 56.5422 100.99C56.5422 100.99 64.3078 82.1957 61.9448 82.9842C60.2232 83.5574 56.9928 91.311 56.9928 91.311C56.9928 91.311 58.5686 83.6588 56.9928 83.2089C55.4177 82.7589 46.6397 91.311 46.6397 91.311C46.6397 91.311 53.1674 83.6588 52.0409 82.083C50.3353 79.6955 48.336 79.5842 45.9644 80.5086C42.5121 81.8531 37.8616 88.1602 37.8616 88.1602C37.8616 88.1602 42.4975 81.7736 41.6877 79.3821C40.3863 75.5394 27.0585 86.8097 27.0585 86.8097C27.0585 86.8097 34.936 79.3821 33.135 77.807C31.3346 76.2312 21.5579 76.7189 18.5051 76.7097C9.50239 76.6812 6.38332 74.57 3.65057 72.4051Z" fill="#373535"/>
</svg>
