<svg width="150" height="150" viewBox="0 0 150 150" fill="none" xmlns="http://www.w3.org/2000/svg">
<path d="M1.74981 6.17866C-0.65499 3.23943 3.23939 -0.654996 6.17861 1.7498L73.2075 56.5911C74.4176 57.5812 76.1338 57.6604 77.43 56.7858L114.038 32.0847C116.907 30.1496 120.342 33.5861 118.407 36.4541L93.7057 73.0645C92.8317 74.3598 92.9101 76.0748 93.8987 77.2849L148.252 143.823C150.653 146.762 146.762 150.653 143.823 148.252L77.2847 93.8988C76.0746 92.9104 74.3596 92.8319 73.0644 93.7058L36.4539 118.409C33.5861 120.344 30.1496 116.907 32.0847 114.039L56.7856 77.4302C57.6602 76.134 57.581 74.4177 56.5909 73.2077L1.74981 6.17866Z" fill="#007880"/>
</svg>
