<svg width="150" height="150" viewBox="0 0 150 150" fill="none" xmlns="http://www.w3.org/2000/svg">
<path d="M99.8056 145.171L82.4407 140.901C79.6914 140.223 77.7636 137.797 77.7636 135.006V118.166C77.7636 115.571 78.8549 113.227 80.6058 111.546C89.176 110.242 96.8004 106.172 102.476 100.313C110.633 91.8896 113.847 80.0282 111.511 68.7025L102.847 28.7513H90.3048V13.3342C90.3048 11.6322 88.8988 10.25 87.1692 10.25C85.4396 10.25 84.0336 11.6322 84.0336 13.3342V34.9183C84.0336 36.6191 82.6288 38.0013 80.8992 38.0013C79.1684 38.0013 77.7636 36.6191 77.7636 34.9183V31.8342C77.7636 30.1334 76.3576 28.7513 74.628 28.7513C72.8984 28.7513 71.4924 30.1334 71.4924 31.8342V52.6733C73.8905 51.0955 76.8067 50.2163 79.9373 50.3455C87.0814 50.6377 92.97 56.3068 93.409 63.3268C93.9157 71.3903 87.415 78.0854 79.3251 78.0854C76.4254 78.0854 73.7288 77.2225 71.4875 75.7475V90.4196C71.4875 92.1203 70.0815 93.5038 68.3519 93.5038C66.6223 93.5038 65.2163 92.1203 65.2163 90.4196V22.5842C65.2163 20.8834 63.8103 19.5 62.0807 19.5C60.3511 19.5 58.9451 20.8834 58.9451 22.5842V28.7513H46.4027L37.7435 68.7025C35.4081 80.0333 38.6164 91.8896 46.779 100.313C52.4544 106.177 60.0789 110.242 68.6491 111.546C70.4 113.227 71.4924 115.571 71.4924 118.166V134.821C71.4924 137.714 69.4907 140.238 66.6323 140.942L49.4493 145.166C47.662 145.609 46.409 147.186 46.409 149H102.847C102.847 147.186 101.593 145.609 99.8056 145.166V145.171Z" fill="#C7154A"/>
<path d="M79.3317 71.9199C83.6601 71.9199 87.1707 68.4682 87.1707 64.2113C87.1707 59.9532 83.6601 56.5028 79.3317 56.5028C75.0021 56.5028 71.4928 59.9532 71.4928 64.2113C71.4928 68.4682 75.0021 71.9199 79.3317 71.9199Z" fill="#C7154A"/>
<path d="M62.086 16.4171C63.8181 16.4171 65.2216 15.0362 65.2216 13.3342C65.2216 11.6309 63.8181 10.25 62.086 10.25C60.3539 10.25 58.9504 11.6309 58.9504 13.3342C58.9504 15.0362 60.3539 16.4171 62.086 16.4171Z" fill="#C7154A"/>
<path d="M74.6283 25.6671C76.3604 25.6671 77.7639 24.2874 77.7639 22.5842C77.7639 20.8809 76.3604 19.5 74.6283 19.5C72.8962 19.5 71.4928 20.8809 71.4928 22.5842C71.4928 24.2874 72.8962 25.6671 74.6283 25.6671Z" fill="#C7154A"/>
<path d="M87.1695 7.16709C88.9016 7.16709 90.3051 5.78616 90.3051 4.08291C90.3051 2.38091 88.9016 1 87.1695 1C85.4386 1 84.0339 2.38091 84.0339 4.08291C84.0339 5.78616 85.4386 7.16709 87.1695 7.16709Z" fill="#C7154A"/>
</svg>
