<svg width="150" height="150" viewBox="0 0 150 150" fill="none" xmlns="http://www.w3.org/2000/svg">
<path d="M88.3182 18.4916C81.8864 11.2171 76.3522 3.78314 75.2228 2.27355C75.1991 2.2418 75.1679 2.21592 75.1317 2.19807C75.0955 2.18021 75.0554 2.1709 75.0147 2.1709C74.974 2.1709 74.9339 2.18021 74.8977 2.19807C74.8615 2.21592 74.8303 2.2418 74.8067 2.27355C73.6832 3.80023 68.149 11.2342 61.729 18.5087C6.61873 85.7565 70.4138 131.141 70.4138 131.141L70.9309 131.488C71.4184 138.507 72.6191 148.578 72.6191 148.578H77.4163C77.4163 148.578 78.6051 138.529 79.0985 131.488L79.6216 131.095C79.6216 131.095 143.417 85.7565 88.3182 18.4916ZM75.0207 130.144C75.0207 130.144 72.1614 127.808 71.3887 126.635V126.51L74.8483 53.2748C74.856 53.2341 74.8784 53.1973 74.9115 53.1708C74.9446 53.1443 74.9864 53.1298 75.0296 53.1298C75.0728 53.1298 75.1145 53.1443 75.1477 53.1708C75.1808 53.1973 75.2032 53.2341 75.2109 53.2748L78.6824 126.521V126.646C77.9096 127.786 75.0504 130.155 75.0504 130.155" fill="#00684A"/>
</svg>
