<svg width="150" height="150" viewBox="0 0 150 150" fill="none" xmlns="http://www.w3.org/2000/svg">
<path d="M127.933 140.419C127.931 142.638 127.051 144.766 125.485 146.335C123.919 147.904 121.796 148.786 119.582 148.788H30.4821C28.268 148.788 26.1443 147.907 24.5774 146.34C23.0106 144.772 22.1285 142.645 22.125 140.425V9.71685C22.1241 8.61664 22.3397 7.52706 22.7594 6.51044C23.179 5.49382 23.7946 4.57011 24.5708 3.79215C25.347 3.01419 26.2686 2.39724 27.2829 1.97662C28.2973 1.556 29.3844 1.33995 30.4821 1.34082H87.6644L127.933 42.5007V140.419Z" fill="#23A566"/>
<path d="M92.0977 41.4255L127.935 75.7565V42.2591H96.1897C94.8038 42.2748 93.4375 41.9302 92.2241 41.2588L92.0977 41.4255Z" fill="#1C8F5A"/>
<path d="M127.933 42.4313H96.1012C93.887 42.4295 91.7641 41.5472 90.1985 39.978C88.6328 38.4088 87.7525 36.2811 87.7507 34.062V1.11133L127.933 42.4313Z" fill="#8ED1B1"/>
<path fill-rule="evenodd" clip-rule="evenodd" d="M102.456 121.606H47.3966V73.7568H102.456V121.606ZM78.3498 80.6591V89.0351H95.6895V80.6724L78.3498 80.6591ZM78.3498 94.3101V102.313H95.6895V94.2701L78.3498 94.3101ZM78.3498 107.414V114.823H95.6895V107.374L78.3498 107.414ZM71.543 114.783V107.374H54.21V114.783H71.543ZM71.543 102.226V94.2701H54.21V102.266L71.543 102.226ZM71.543 89.1218V80.6591H54.21V89.0351L71.543 89.1218Z" fill="white"/>
</svg>
