<svg width="150" height="150" viewBox="0 0 150 150" fill="none" xmlns="http://www.w3.org/2000/svg">
<g clip-path="url(#clip0_45_6305)">
<path d="M27.8222 114.585L33.2001 135.385H29.1404L25.5584 120.402L18.8051 135.385H15.3759L8.66077 120.488L4.97367 135.385H1L6.33006 114.585H9.84523L17.1048 130.69L24.3357 114.585H27.8222Z" fill="#003545"/>
<path d="M48.536 122.624V120.202H52.4571V135.385H48.536V132.94C47.4996 134.697 45.3695 135.705 42.7761 135.705C37.3553 135.705 34.332 131.884 34.332 127.49C34.332 123.254 37.1977 119.849 42.1982 119.849C45.0495 119.882 47.4136 120.837 48.536 122.624ZM38.5063 127.696C38.5063 130.49 40.2639 132.882 43.6644 132.882C46.9456 132.882 48.7318 130.547 48.7318 127.782C48.7318 125.016 46.8882 122.652 43.4781 122.652C40.2113 122.652 38.5111 125.012 38.5111 127.696H38.5063Z" fill="#003545"/>
<path d="M61.2962 135.386H57.3799V120.203H61.2962V123.603C61.7441 122.515 62.5015 121.583 63.4745 120.921C64.4475 120.26 65.5932 119.899 66.7696 119.883C67.6035 119.871 68.433 120.007 69.2197 120.284L68.3839 123.149C67.7072 122.97 67.0111 122.874 66.3111 122.863C63.4837 122.863 61.2962 124.993 61.2962 128.116V135.386Z" fill="#003545"/>
<path d="M71.1787 116.196C71.1711 115.92 71.2206 115.646 71.3242 115.391C71.4279 115.136 71.5834 114.905 71.7809 114.712C71.9784 114.52 72.2136 114.371 72.4717 114.275C72.7298 114.178 73.0051 114.136 73.2802 114.152C73.5606 114.142 73.8399 114.19 74.1012 114.293C74.3624 114.395 74.6001 114.549 74.7998 114.746C74.9996 114.943 75.1571 115.179 75.2629 115.439C75.3686 115.699 75.4204 115.977 75.4151 116.258C75.4206 116.534 75.3682 116.809 75.2612 117.064C75.1543 117.319 74.9951 117.549 74.7941 117.738C74.593 117.928 74.3544 118.074 74.0937 118.166C73.833 118.258 73.5559 118.295 73.2802 118.273C73.0031 118.285 72.7265 118.24 72.4677 118.14C72.2089 118.04 71.9735 117.888 71.7762 117.693C71.579 117.498 71.4241 117.264 71.3213 117.007C71.2185 116.749 71.1699 116.473 71.1787 116.196ZM71.3507 120.203H75.2718V131.298C75.2718 131.985 75.4151 132.477 75.9882 132.477C76.2402 132.471 76.4912 132.442 76.7381 132.391L77.3446 135.257C76.5192 135.582 75.6384 135.745 74.7512 135.734C73.1083 135.734 71.3507 135.257 71.3507 131.527V120.203Z" fill="#003545"/>
<path d="M92.7863 122.624V120.202H96.7218V135.385H92.8006V132.94C91.7642 134.697 89.6341 135.705 87.0407 135.705C81.6247 135.705 78.5967 131.884 78.5967 127.49C78.5967 123.254 81.4623 119.849 86.4628 119.849C89.2998 119.882 91.6639 120.837 92.7863 122.624ZM82.7566 127.696C82.7566 130.49 84.5142 132.882 87.9147 132.882C91.2007 132.882 92.9869 130.547 92.9869 127.782C92.9869 125.016 91.1386 122.652 87.7332 122.652C84.4617 122.652 82.7614 125.012 82.7614 127.696H82.7566Z" fill="#003545"/>
<path d="M102.726 114.585H112.12C120.015 114.585 123.96 118.936 123.903 124.982C123.96 131.268 119.604 135.385 112.813 135.385H102.726V114.585ZM105.319 116.429V133.57H112.483C118.764 133.57 121.156 129.333 121.156 124.925C121.156 119.944 118.162 116.429 112.483 116.429H105.319Z" fill="#003545"/>
<path d="M139.92 135.385H127.98V114.585H138.75C142.867 114.585 146.788 115.359 146.731 119.972C146.731 123.225 144.711 124.123 142.581 124.467C145.604 124.724 147.424 126.654 147.424 129.768C147.443 134.434 143.35 135.385 139.92 135.385ZM139.027 123.659C143.149 123.659 144.071 122.074 144.071 120.058C144.071 117.03 142.227 116.343 139.027 116.343H130.469V123.659H139.027ZM139.142 125.417H130.469V133.627H139.514C142.051 133.627 144.73 132.791 144.73 129.596C144.73 125.909 141.649 125.417 139.142 125.417Z" fill="#003545"/>
<path d="M148.341 15.4537C147.96 15.1401 147.477 14.9785 146.985 14.9999C145.633 14.9999 143.885 15.9169 142.944 16.4089L142.572 16.5999C140.993 17.364 139.275 17.7963 137.523 17.8703C135.727 17.9277 134.18 18.0327 132.165 18.2429C120.224 19.4703 114.899 28.6212 109.77 37.4712C106.976 42.2855 104.091 47.286 100.136 51.1068C99.3182 51.9002 98.4486 52.6389 97.5334 53.3181C93.4404 56.3605 88.3013 58.5336 84.3038 60.0714C80.4543 61.5425 76.2514 62.8654 72.1917 64.1454C68.4712 65.3155 64.9608 66.4236 61.7322 67.6224C60.2755 68.1621 59.0385 68.5776 57.9448 68.9406C55.0028 69.8958 52.8822 70.6265 49.7826 72.7614C48.5742 73.5876 47.3611 74.4808 46.5396 75.1494C44.0791 77.1126 41.9014 79.4061 40.0681 81.9648C38.4915 84.3251 36.6697 86.512 34.6329 88.4889C33.9786 89.1289 32.8181 89.4441 31.0796 89.4441C29.045 89.4441 26.5758 89.0238 23.9633 88.5797C21.2696 88.1021 18.4851 87.6483 16.0971 87.6483C14.1581 87.6483 12.6727 87.9635 11.5647 88.6035C11.5647 88.6035 9.69723 89.6925 8.90918 91.1014L9.6829 91.4501C10.8827 92.1005 11.9936 92.9032 12.9879 93.8381C14.0254 94.7963 15.181 95.618 16.4267 96.2834C16.8243 96.4292 17.1859 96.6589 17.487 96.9568C17.1622 97.4344 16.6846 98.0505 16.1831 98.7096C13.4273 102.316 11.8178 104.594 12.7396 105.835C13.1814 106.065 13.6748 106.177 14.1724 106.16C20.1806 106.16 23.4092 104.598 27.4928 102.621C28.6772 102.048 29.8808 101.461 31.3136 100.854C33.7016 99.8177 36.2711 98.1652 38.9983 96.4171C42.566 94.0912 46.296 91.7032 49.9163 90.5522C52.8915 89.6449 55.9906 89.2098 59.1006 89.2626C62.9215 89.2626 66.9429 89.7737 70.821 90.2704C73.7105 90.6429 76.7051 91.025 79.6424 91.2017C80.7839 91.2686 81.8394 91.302 82.8662 91.302C84.2398 91.306 85.6127 91.2343 86.9784 91.0871L87.3079 90.9725C89.3664 89.7068 90.3312 86.9892 91.2673 84.3624C91.869 82.6717 92.3753 81.1529 93.1777 80.1881C93.225 80.141 93.2761 80.0979 93.3305 80.0592C93.3681 80.0383 93.4117 80.0307 93.4542 80.0376C93.4967 80.0445 93.5355 80.0656 93.5645 80.0974C93.5645 80.0974 93.5645 80.1213 93.5645 80.1738C93.0869 90.4471 88.9509 96.9712 84.7671 102.769L81.9731 105.764C81.9731 105.764 85.8847 105.764 88.1103 104.904C96.2296 102.478 102.357 97.1288 106.818 88.5988C107.918 86.4091 108.902 84.1628 109.765 81.8693C109.841 81.6783 110.543 81.3248 110.477 82.3135C110.453 82.6048 110.434 82.9296 110.41 83.2687C110.41 83.4693 110.41 83.6747 110.371 83.88C110.257 85.3128 109.918 88.3409 109.918 88.3409L112.425 86.9988C118.472 83.1779 123.133 75.4694 126.667 63.4768C128.138 58.481 129.218 53.5187 130.168 49.1486C131.305 43.895 132.284 39.3912 133.406 37.6432C135.169 34.9017 137.858 33.0486 140.461 31.248C140.814 31.0045 141.172 30.7704 141.521 30.5125C144.792 28.2153 148.045 25.5645 148.761 20.6213V20.5115C149.282 16.8244 148.842 15.8835 148.341 15.4537Z" fill="#003545"/>
</g>
<defs>
<clipPath id="clip0_45_6305">
<rect width="148" height="120.7" fill="white" transform="translate(1 15)"/>
</clipPath>
</defs>
</svg>
