<svg width="150" height="150" viewBox="0 0 150 150" fill="none" xmlns="http://www.w3.org/2000/svg">
<path d="M39.2161 128.929L11.9498 81.7008C10.9015 79.885 10.3496 77.8253 10.3496 75.7287C10.3496 73.632 10.9015 71.5723 11.9498 69.7566L39.2161 22.5293C40.2645 20.7132 41.7726 19.2052 43.5886 18.1568C45.4047 17.1084 47.4647 16.5565 49.5616 16.5566H104.094C106.191 16.5567 108.251 17.1087 110.067 18.1571C111.882 19.2055 113.39 20.7134 114.439 22.5293L141.705 69.7566C142.753 71.5725 143.305 73.6324 143.305 75.7292C143.305 77.8261 142.753 79.886 141.705 81.7018L114.439 128.929C113.39 130.745 111.882 132.253 110.066 133.301C108.251 134.349 106.191 134.901 104.094 134.901H49.5616C47.4647 134.901 45.4046 134.349 43.5885 133.301C41.7725 132.252 40.2644 130.744 39.2161 128.928V128.929Z" fill="url(#paint0_linear_45_6283)"/>
<mask id="mask0_45_6283" style="mask-type:alpha" maskUnits="userSpaceOnUse" x="10" y="16" width="134" height="119">
<path d="M39.2161 128.929L11.9498 81.7008C10.9015 79.885 10.3496 77.8253 10.3496 75.7287C10.3496 73.632 10.9015 71.5723 11.9498 69.7566L39.2161 22.5293C40.2645 20.7132 41.7726 19.2052 43.5886 18.1568C45.4047 17.1084 47.4647 16.5565 49.5616 16.5566H104.094C106.191 16.5567 108.251 17.1087 110.067 18.1571C111.882 19.2055 113.39 20.7134 114.439 22.5293L141.705 69.7566C142.753 71.5725 143.305 73.6324 143.305 75.7292C143.305 77.8261 142.753 79.886 141.705 81.7018L114.439 128.929C113.39 130.745 111.882 132.253 110.066 133.301C108.251 134.349 106.191 134.901 104.094 134.901H49.5616C47.4647 134.901 45.4046 134.349 43.5885 133.301C41.7725 132.252 40.2644 130.744 39.2161 128.928V128.929Z" fill="url(#paint1_linear_45_6283)"/>
</mask>
<g mask="url(#mask0_45_6283)">
<path opacity="0.07" d="M134.193 99.0832L94.0946 58.9826L76.8259 54.3613L61.3147 60.1262L55.3244 75.7329L60.1409 93.1095L102.664 135.632L111.687 135.231L134.193 99.0832Z" fill="black"/>
<path d="M76.8255 51.6387C63.5195 51.6387 52.7324 62.4257 52.7324 75.7327C52.7324 89.0387 63.5195 99.8258 76.8255 99.8258C90.1314 99.8258 100.917 89.0387 100.917 75.7327C100.917 62.4257 90.1304 51.6387 76.8255 51.6387ZM76.8255 94.0131C66.7291 94.0131 58.544 85.828 58.544 75.7317C58.544 65.6354 66.7291 57.4513 76.8255 57.4513C86.9218 57.4513 95.1069 65.6364 95.1069 75.7327C95.1069 85.8291 86.9218 94.0141 76.8255 94.0141" fill="white"/>
<path d="M65.3938 74.7976V82.2866C66.5019 84.189 68.0652 85.7862 69.9433 86.9348V74.7976H65.3938ZM74.415 68.4844V88.6466C75.1889 88.7889 75.9804 88.8751 76.7937 88.8751C77.5353 88.8751 78.2583 88.7972 78.9677 88.6788V68.4844H74.415ZM83.858 77.9096V86.8029C85.7661 85.5896 87.3328 83.9093 88.4096 81.921V77.9106L83.858 77.9096ZM94.1673 90.5682L91.6712 93.0663C91.4598 93.2782 91.3411 93.5652 91.3411 93.8645C91.3411 94.1638 91.4598 94.4509 91.6712 94.6628L101.139 104.127C101.351 104.339 101.638 104.458 101.937 104.458C102.237 104.458 102.524 104.339 102.736 104.127L105.232 101.632C105.442 101.42 105.56 101.133 105.56 100.835C105.56 100.536 105.442 100.249 105.232 100.037L95.7627 90.5682C95.5506 90.3576 95.2639 90.2394 94.965 90.2394C94.6661 90.2394 94.3793 90.3576 94.1673 90.5682Z" fill="white"/>
</g>
<defs>
<linearGradient id="paint0_linear_45_6283" x1="76.8279" y1="16.5577" x2="76.8279" y2="134.717" gradientUnits="userSpaceOnUse">
<stop stop-color="#4387FD"/>
<stop offset="1" stop-color="#4683EA"/>
</linearGradient>
<linearGradient id="paint1_linear_45_6283" x1="76.8279" y1="16.5577" x2="76.8279" y2="134.717" gradientUnits="userSpaceOnUse">
<stop stop-color="#4387FD"/>
<stop offset="1" stop-color="#4683EA"/>
</linearGradient>
</defs>
</svg>
