<svg width="150" height="150" viewBox="0 0 150 150" fill="none" xmlns="http://www.w3.org/2000/svg">
<path d="M75.1896 4.08398L13.333 39.4504V96.892V100.663V110.137L75.1896 145.917L137.046 110.551V39.6342L75.1896 4.08398ZM125.641 103.147L75.1896 132.304L24.7385 103.468V56.2367V46.5788V46.441L75.1896 17.2831L125.641 46.5329V103.147Z" fill="#0078D1"/>
<path d="M99.5599 75.0018C98.5479 75.0018 97.5822 75.0936 96.6625 75.2777C89.396 65.8958 78.6801 59.6409 66.9067 57.9855L117.91 28.5057L106.044 21.6992L59.4105 48.6494C57.0191 46.9018 54.0295 45.8439 50.8102 45.8439C42.7621 45.8439 36.2316 52.3747 36.2316 60.4228C36.2316 68.4713 42.7621 75.0018 50.8102 75.0018C55.4553 75.0018 59.6406 72.7941 62.308 69.391C72.0118 69.9429 81.0256 74.6339 87.0045 82.1301C85.7166 84.2915 84.9809 86.8211 84.9809 89.5344C84.9809 90.0404 85.0269 90.5923 85.0728 91.0983L32.7363 121.36L44.5557 128.166L90.9595 101.308C93.3513 103.056 96.3406 104.113 99.5599 104.113C107.608 104.113 114.138 97.5829 114.138 89.5344C114.138 81.5323 107.608 75.0018 99.5599 75.0018Z" fill="#50E6FF"/>
</svg>
