<svg width="150" height="150" viewBox="0 0 150 150" fill="none" xmlns="http://www.w3.org/2000/svg">
<g clip-path="url(#clip0_45_6297)">
<path d="M111.005 89.8027L92.5011 108.595L127.389 145.6C127.389 145.6 133.518 150.947 143.304 142.559C153.091 134.17 143.304 124.176 143.304 124.176L111.005 89.8027Z" fill="#6877A2"/>
<path d="M100.77 85.2422L88.2615 98.0382L95.9938 106.187L107.183 91.7683L100.77 85.2422Z" fill="#BCC2D8"/>
<path d="M8.41599 102.495C11.0539 102.495 13.1923 100.307 13.1923 97.6087C13.1923 94.9102 11.0539 92.7227 8.41599 92.7227C5.77809 92.7227 3.63965 94.9102 3.63965 97.6087C3.63965 100.307 5.77809 102.495 8.41599 102.495Z" fill="#B835A0"/>
<path d="M44.8222 62.7233C47.4601 62.7233 49.5986 60.5357 49.5986 57.8372C49.5986 55.1387 47.4601 52.9512 44.8222 52.9512C42.1843 52.9512 40.0459 55.1387 40.0459 57.8372C40.0459 60.5357 42.1843 62.7233 44.8222 62.7233Z" fill="#B835A0"/>
<path d="M78.4081 73.6754C81.046 73.6754 83.1844 71.4879 83.1844 68.7894C83.1844 66.0909 81.046 63.9033 78.4081 63.9033C75.7701 63.9033 73.6317 66.0909 73.6317 68.7894C73.6317 71.4879 75.7701 73.6754 78.4081 73.6754Z" fill="#B835A0"/>
<path d="M120.091 30.4352C122.729 30.4352 124.867 28.2476 124.867 25.5491C124.867 22.8507 122.729 20.6631 120.091 20.6631C117.453 20.6631 115.315 22.8507 115.315 25.5491C115.315 28.2476 117.453 30.4352 120.091 30.4352Z" fill="#B835A0"/>
<path d="M97.3458 55.0041C97.3458 54.0474 97.3459 53.0907 97.229 52.134C97.0989 50.2483 96.8309 48.3752 96.4273 46.5304C95.2173 41.035 92.8664 35.8699 89.534 31.3854C86.2016 26.9009 81.9655 23.2019 77.1131 20.5389C72.2606 17.876 66.9052 16.3114 61.4099 15.9514C55.9146 15.5914 50.4078 16.4443 45.2629 18.4523C40.118 20.4603 35.4553 23.5764 31.5909 27.5894C27.7266 31.6024 24.7508 36.4185 22.8654 41.7111C20.9801 47.0037 20.2291 52.6492 20.6636 58.2647C21.098 63.8802 22.7077 69.3346 25.3834 74.2579C26.1356 75.6429 26.9723 76.9781 27.8885 78.2556C32.6679 84.967 39.4029 89.9571 47.1269 92.5097C54.8508 95.0623 63.1668 95.0461 70.8812 92.4636C78.5957 89.8811 85.3122 84.8651 90.0667 78.1352C94.8213 71.4053 97.3695 63.3076 97.3458 55.0041ZM24.9492 55.0041C24.9157 46.1785 28.1711 37.6715 34.0527 31.2146C39.9344 24.7578 48.0003 20.8363 56.6087 20.2485C65.217 19.6607 73.7208 22.4508 80.3891 28.0507C87.0575 33.6506 91.3893 41.6395 92.5027 50.3914L80.328 62.3503C78.6923 61.3587 76.7424 61.061 74.895 61.5207C73.0475 61.9804 71.4491 63.1611 70.4414 64.8104L52.0708 57.5325C51.9483 55.5975 51.0996 53.7857 49.702 52.4758C48.3043 51.1658 46.4659 50.4591 44.5708 50.5032C42.6757 50.5473 40.8706 51.3388 39.5326 52.7125C38.1947 54.0861 37.4274 55.9355 37.3911 57.8742C37.3915 58.8474 37.5788 59.8109 37.9422 60.7102L28.5899 70.7557C26.2005 65.8678 24.9813 60.4689 25.0327 55.0041H24.9492ZM79.493 68.8081C79.493 69.3859 79.3255 69.9507 79.0117 70.4312C78.6979 70.9116 78.2519 71.286 77.7301 71.5071C77.2083 71.7282 76.6341 71.7861 76.0801 71.6734C75.5262 71.5606 75.0173 71.2824 74.6179 70.8738C74.2185 70.4653 73.9465 69.9447 73.8364 69.378C73.7262 68.8114 73.7827 68.2239 73.9988 67.6901C74.215 67.1563 74.581 66.7 75.0507 66.379C75.5203 66.058 76.0724 65.8867 76.6372 65.8867C77.0129 65.8844 77.3853 65.9585 77.7327 66.1045C78.0802 66.2505 78.3959 66.4656 78.6615 66.7373C78.9272 67.0091 79.1374 67.332 79.2802 67.6875C79.4229 68.0429 79.4952 68.4238 79.493 68.8081ZM41.967 57.8401C41.967 57.2616 42.1349 56.6961 42.4495 56.2153C42.764 55.7345 43.211 55.3601 43.7338 55.1395C44.2566 54.9189 44.8317 54.862 45.3861 54.9761C45.9405 55.0902 46.4493 55.3702 46.848 55.7805C47.2468 56.1908 47.5174 56.7129 47.6257 57.2807C47.734 57.8485 47.6751 58.4364 47.4564 58.97C47.2377 59.5035 46.869 59.9585 46.3972 60.2774C45.9254 60.5964 45.3716 60.7649 44.8061 60.7615C44.4318 60.7615 44.0613 60.6858 43.7158 60.5388C43.3702 60.3918 43.0565 60.1763 42.7926 59.9048C42.5288 59.6333 42.32 59.3111 42.1783 58.9568C42.0366 58.6024 41.9648 58.2229 41.967 57.8401ZM58.8846 89.8045C53.4168 89.798 48.0315 88.4401 43.1872 85.8462C38.3429 83.2524 34.1829 79.4996 31.0616 74.9071L40.9483 64.2808C42.1014 65.0325 43.4388 65.4353 44.8061 65.4425C46.0277 65.4418 47.2297 65.1289 48.303 64.5322C49.3763 63.9355 50.2868 63.0739 50.9519 62.0257L69.3224 69.3377C69.3844 71.3268 70.2163 73.2093 71.6351 74.5709C73.0539 75.9326 74.9433 76.6619 76.8877 76.5985C78.8322 76.535 80.6723 75.684 82.0034 74.2326C83.3345 72.7813 84.0474 70.8484 83.9854 68.8593C83.9859 67.7984 83.7638 66.7498 83.3341 65.7842L92.7365 56.5588C92.3625 65.4926 88.6346 73.9346 82.3289 80.1273C76.0233 86.3201 67.6258 89.7863 58.8846 89.8045Z" fill="#06184C"/>
<path d="M144.658 122.109L110.957 86.2319L107.783 89.3413L103.157 84.4039C107.289 77.9088 110.004 70.579 111.116 62.9137C112.229 55.2485 111.713 47.428 109.604 39.9851L117.152 32.5877C118.526 33.0905 120.014 33.1619 121.427 32.7928C122.84 32.4237 124.114 31.6309 125.083 30.5162C126.052 29.4015 126.674 28.0158 126.868 26.5371C127.061 25.0584 126.819 23.5541 126.171 22.2176L139.03 9.13107V15.7597H143.606V0.964844H129.745V5.57759H136.124L123.031 18.9032C121.976 18.3095 120.794 17.9925 119.591 17.9807C118.25 17.9768 116.935 18.348 115.786 19.0541C114.637 19.7601 113.699 20.7741 113.073 21.9863C112.447 23.1986 112.157 24.5628 112.234 25.9316C112.312 27.3003 112.753 28.6213 113.512 29.7517L107.984 35.1332C105.261 28.0786 101.115 21.6902 95.817 16.3843C90.5189 11.0784 84.1874 6.97398 77.235 4.33866C70.2827 1.70335 62.8655 0.596228 55.4669 1.08945C48.0683 1.58267 40.8542 3.66518 34.295 7.20123C27.7358 10.7373 21.9785 15.6475 17.3984 21.612C12.8183 27.5764 9.51815 34.4612 7.71305 41.8176C5.90795 49.1741 5.6384 56.8371 6.92196 64.3072C8.20552 71.7773 11.0134 78.8869 15.1626 85.1727L11.071 89.5633C9.42782 88.8823 7.60079 88.8247 5.91972 89.4008C4.23864 89.9769 2.81424 91.1488 1.90371 92.705C0.993176 94.2611 0.656482 96.0991 0.954369 97.8869C1.25226 99.6747 2.16514 101.295 3.52819 102.454C4.89125 103.614 6.61467 104.237 8.38738 104.211C10.1601 104.185 11.8653 103.512 13.1951 102.312C14.525 101.113 15.3919 99.4666 15.6394 97.6707C15.8869 95.8748 15.4986 94.0476 14.5447 92.5189L17.8848 88.9142C26.045 99.2471 37.6487 106.132 50.4682 108.248C63.2876 110.364 76.4193 107.561 87.3421 100.378L91.6842 105.025L88.5111 108.117L122.229 143.993C123.642 145.499 125.33 146.705 127.198 147.543C129.066 148.381 131.077 148.834 133.117 148.877C135.156 148.92 137.183 148.551 139.084 147.793C140.984 147.034 142.719 145.9 144.191 144.455C145.662 143.01 146.841 141.283 147.66 139.372C148.479 137.461 148.922 135.404 148.964 133.317C149.006 131.231 148.646 129.157 147.904 127.213C147.163 125.27 146.054 123.494 144.641 121.989L144.658 122.109ZM119.607 22.6276C120.172 22.6276 120.724 22.7989 121.194 23.1199C121.664 23.4409 122.03 23.8972 122.246 24.431C122.462 24.9648 122.518 25.5522 122.408 26.1189C122.298 26.6856 122.026 27.2061 121.627 27.6147C121.227 28.0233 120.718 28.3015 120.165 28.4142C119.611 28.5269 119.036 28.4691 118.515 28.248C117.993 28.0269 117.547 27.6524 117.233 27.172C116.919 26.6916 116.752 26.1268 116.752 25.549C116.752 24.7771 117.05 24.0366 117.582 23.4892C118.114 22.9418 118.836 22.6321 119.591 22.6276H119.607ZM8.33208 99.5405C7.76726 99.5405 7.21515 99.3691 6.74551 99.0481C6.27588 98.7271 5.90983 98.2709 5.69368 97.7371C5.47753 97.2032 5.42096 96.6159 5.53115 96.0492C5.64134 95.4825 5.91332 94.9619 6.31271 94.5534C6.7121 94.1448 7.22096 93.8666 7.77492 93.7539C8.32889 93.6411 8.90312 93.699 9.42494 93.9201C9.94677 94.1412 10.3928 94.5156 10.7066 94.9961C11.0204 95.4765 11.1878 96.0413 11.1878 96.6191C11.1878 97.3939 10.887 98.137 10.3514 98.6848C9.81589 99.2327 9.08948 99.5405 8.33208 99.5405ZM21.0245 85.6169C20.0725 84.3868 19.1874 83.1226 18.3524 81.8071C14.6469 75.949 12.1973 69.3539 11.165 62.4567C10.1328 55.5595 10.5413 48.5168 12.3637 41.7929C14.1862 35.069 17.3811 28.8166 21.7378 23.4479C26.0946 18.0792 31.5142 13.7162 37.6395 10.6464C43.7648 7.57664 50.4566 5.86982 57.2737 5.63854C64.0908 5.40726 70.8785 6.65675 77.1891 9.30464C83.4998 11.9525 89.1901 15.9387 93.885 21.0003C98.5799 26.0619 102.173 32.084 104.427 38.6696C104.991 40.3039 105.465 41.9694 105.846 43.6582C107.407 50.3785 107.567 57.36 106.316 64.1478C105.064 70.9356 102.429 77.3776 98.5815 83.0543L84.6032 96.7216C74.5366 103.241 62.4644 105.711 50.7209 103.654C38.9773 101.596 28.3966 95.1576 21.0245 85.5827V85.6169ZM91.0663 97.7637C94.5812 94.9796 97.745 91.7602 100.485 88.1795L104.527 92.5018L94.9408 101.898L91.0663 97.7637ZM99.5 103.812L110.806 92.7239L114.414 96.5678L98.6149 112.302L94.8907 108.322L99.5 103.812ZM141.068 141.243C138.959 143.313 136.133 144.442 133.211 144.381C130.289 144.32 127.51 143.075 125.486 140.918L101.738 115.634L117.537 99.8993L141.385 125.303C142.389 126.37 143.177 127.63 143.705 129.009C144.232 130.388 144.489 131.86 144.459 133.341C144.43 134.821 144.115 136.281 143.533 137.637C142.951 138.993 142.113 140.219 141.068 141.243Z" fill="#06184C"/>
<path d="M66.4659 33.5278L67.9189 29.1714C63.3504 27.564 58.4492 27.2134 53.7065 28.155C48.9639 29.0965 44.5465 31.297 40.8975 34.5358L43.9871 37.9526C47.0488 35.3056 50.7245 33.5084 54.661 32.7335C58.5974 31.9587 62.6626 32.2322 66.4659 33.5278Z" fill="#06184C"/>
<path d="M76.5863 34.2111L73.2462 31.7852L70.5741 35.4924C70.5741 35.4924 72.2441 36.7737 73.9142 37.9696L76.5863 34.2111Z" fill="#06184C"/>
<path d="M58.7181 104.666C49.1162 104.666 39.7298 101.753 31.746 96.2962C23.7623 90.8391 17.5398 83.0828 13.8653 74.0079C10.1908 64.9331 9.22932 54.9474 11.1026 45.3136C12.9758 35.6798 17.5996 26.8306 24.3892 19.885C31.1788 12.9394 39.8293 8.20943 49.2468 6.29315C58.6642 4.37687 68.4257 5.36041 77.2968 9.11933C86.1678 12.8782 93.75 19.2438 99.0846 27.4109C104.419 35.578 107.266 45.18 107.266 55.0025C107.253 68.1699 102.134 80.7942 93.0323 90.1049C83.9306 99.4157 71.5899 104.653 58.7181 104.666ZM58.7181 15.6065C51.0973 15.6065 43.6476 17.9184 37.3113 22.2499C30.975 26.5815 26.0368 32.738 23.1212 39.9408C20.2056 47.1436 19.4436 55.0691 20.9315 62.715C22.4195 70.3608 26.0906 77.3835 31.4806 82.8949C36.8705 88.4062 43.737 92.1586 51.2119 93.6775C58.6867 95.1963 66.4339 94.4133 73.4737 91.4276C80.5135 88.4419 86.5296 83.3876 90.7611 76.9039C94.9927 70.4202 97.2495 62.7984 97.2461 55.0025C97.2373 44.5538 93.1748 34.536 85.9508 27.1493C78.7268 19.7626 68.9321 15.611 58.7181 15.6065Z" fill="#BCC2D8"/>
</g>
<defs>
<clipPath id="clip0_45_6297">
<rect width="148" height="148" fill="white" transform="translate(1 1)"/>
</clipPath>
</defs>
</svg>
