<svg width="150" height="150" viewBox="0 0 150 150" fill="none" xmlns="http://www.w3.org/2000/svg">
<circle cx="75" cy="75" r="74" fill="#FCFF74"/>
<mask id="mask0_45_6307" style="mask-type:luminance" maskUnits="userSpaceOnUse" x="34" y="31" width="89" height="88">
<path d="M122.09 31.2725H34.6357V118.727H122.09V31.2725Z" fill="white"/>
</mask>
<g mask="url(#mask0_45_6307)">
<path d="M48.8046 38.1055H42.3308C41.8545 38.1055 41.4684 38.4916 41.4684 38.9679V111.03C41.4684 111.507 41.8545 111.893 42.3308 111.893H48.8046C49.2809 111.893 49.667 111.507 49.667 111.03V38.9679C49.667 38.4916 49.2809 38.1055 48.8046 38.1055Z" fill="black"/>
<path d="M65.204 38.1055H58.7302C58.2539 38.1055 57.8678 38.4916 57.8678 38.9679V111.03C57.8678 111.507 58.2539 111.893 58.7302 111.893H65.204C65.6803 111.893 66.0664 111.507 66.0664 111.03V38.9679C66.0664 38.4916 65.6803 38.1055 65.204 38.1055Z" fill="black"/>
<path d="M81.6017 38.1055H75.1279C74.6516 38.1055 74.2655 38.4916 74.2655 38.9679V111.03C74.2655 111.507 74.6516 111.893 75.1279 111.893H81.6017C82.078 111.893 82.4641 111.507 82.4641 111.03V38.9679C82.4641 38.4916 82.078 38.1055 81.6017 38.1055Z" fill="black"/>
<path d="M97.9945 38.1055H91.5207C91.0444 38.1055 90.6583 38.4916 90.6583 38.9679V111.03C90.6583 111.507 91.0444 111.893 91.5207 111.893H97.9945C98.4708 111.893 98.8569 111.507 98.8569 111.03V38.9679C98.8569 38.4916 98.4708 38.1055 97.9945 38.1055Z" fill="black"/>
<path d="M114.397 66.8018H107.923C107.447 66.8018 107.061 67.1879 107.061 67.6641V82.3365C107.061 82.8128 107.447 83.1989 107.923 83.1989H114.397C114.873 83.1989 115.26 82.8128 115.26 82.3365V67.6641C115.26 67.1879 114.873 66.8018 114.397 66.8018Z" fill="black"/>
</g>
</svg>
