<svg width="150" height="150" viewBox="0 0 150 150" fill="none" xmlns="http://www.w3.org/2000/svg">
<g clip-path="url(#clip0_45_6279)">
<path d="M143.768 55.3438C140.878 55.3438 138.535 57.6863 138.535 60.576C138.535 103.632 103.632 138.535 60.576 138.535C57.6863 138.535 55.3438 140.878 55.3438 143.768C55.3438 146.657 57.6863 149 60.576 149C109.411 149 149 109.411 149 60.576C149 57.6863 146.657 55.3438 143.768 55.3438Z" fill="#005EB8"/>
<path d="M112.188 88.875C117.22 80.6668 122.086 69.7224 121.129 54.4005C119.145 22.6618 90.3988 -1.41571 63.2539 1.19363C52.6273 2.21514 41.7158 10.8772 42.6852 26.3924C43.1065 33.1347 46.4064 37.1141 51.7696 40.1735C56.8742 43.0856 63.4325 44.9303 70.8671 47.0213C79.8475 49.5472 90.2646 52.3844 98.2707 58.2846C107.866 65.3557 114.426 73.5531 112.188 88.875Z" fill="#003B5C"/>
<path d="M10.0618 33.375C5.03013 41.5832 0.164017 52.5276 1.12139 67.8495C3.10454 99.5881 31.8513 123.666 58.9961 121.056C69.6227 120.035 80.5343 111.373 79.5649 95.8576C79.1435 89.1153 75.8434 85.1359 70.4805 82.0765C65.3758 79.1643 58.8176 77.3197 51.3829 75.2287C42.4025 72.7028 31.9854 69.8656 23.9792 63.9654C14.3835 56.894 7.824 48.6969 10.0618 33.375Z" fill="#005EB8"/>
</g>
<defs>
<clipPath id="clip0_45_6279">
<rect width="148" height="148" fill="white" transform="translate(1 1)"/>
</clipPath>
</defs>
</svg>
