<svg width="150" height="150" viewBox="0 0 150 150" fill="none" xmlns="http://www.w3.org/2000/svg">
<path d="M5.625 75C5.625 81.3998 6.52341 87.5788 8.05081 93.5H98.125C108.342 93.5 116.625 85.2166 116.625 75C116.625 64.7834 108.342 56.5 98.125 56.5H8.05081C6.46169 62.539 5.64656 68.7555 5.625 75Z" fill="#343741"/>
<path d="M130.148 36.4368C132.734 34.056 135.141 31.4867 137.348 28.75C123.78 11.8445 102.98 1 79.6254 1C50.3896 1 25.2319 18.0084 13.2266 42.625H114.359C120.212 42.621 125.848 40.4114 130.144 36.4368" fill="#FEC514"/>
<path d="M114.359 107.375H13.2296C25.2361 131.992 50.3892 149 79.625 149C102.981 149 123.78 138.151 137.347 121.25C135.142 118.512 132.735 115.943 130.147 113.563C125.85 109.589 120.212 107.379 114.359 107.375Z" fill="#00BFB3"/>
</svg>
