<svg width="150" height="150" viewBox="0 0 150 150" fill="none" xmlns="http://www.w3.org/2000/svg">
<path fill-rule="evenodd" clip-rule="evenodd" d="M148.549 44.4669V107.052C148.549 116.188 143.583 124.602 135.585 129.017C98.2605 149.621 52.9719 149.621 15.6476 129.017C7.64954 124.602 2.68359 116.188 2.68359 107.052V44.4669C2.68359 36.4023 7.60013 29.1525 15.0925 26.1691L62.8658 7.14635C71.0533 3.88611 80.1789 3.88611 88.3666 7.14635L136.14 26.1691C143.632 29.1525 148.549 36.4023 148.549 44.4669ZM16.914 30.7436C11.2947 32.9812 7.60731 38.4184 7.60731 44.4669V107.052C7.60731 114.395 11.5987 121.158 18.0272 124.707C53.8703 144.493 97.3619 144.493 133.205 124.707C139.634 121.158 143.625 114.395 143.625 107.052V44.4669C143.625 38.4184 139.938 32.9812 134.318 30.7436L86.5451 11.7208C79.5272 8.92628 71.7053 8.92628 64.6873 11.7208L16.914 30.7436Z" fill="#1C708D"/>
<path d="M7.70312 44.5704C7.70312 38.522 11.3905 33.0847 17.0098 30.8472L64.7831 11.8244C71.8011 9.0299 79.623 9.0299 86.6409 11.8244L134.414 30.8472C140.033 33.0847 143.721 38.522 143.721 44.5704V107.156C143.721 114.499 139.729 121.261 133.301 124.81C97.4577 144.597 53.9662 144.597 18.123 124.81C11.6945 121.261 7.70312 114.499 7.70312 107.156V44.5704Z" fill="white"/>
<path fill-rule="evenodd" clip-rule="evenodd" d="M139.625 107.053V44.468C139.625 40.0576 136.936 36.093 132.839 34.4614L85.0659 15.4386C78.9983 13.0225 72.2356 13.0225 66.168 15.4386L18.3948 34.4614C14.2974 36.093 11.6087 40.0576 11.6087 44.468V107.053C11.6087 112.94 14.8082 118.361 19.9615 121.205C54.6013 140.328 96.6326 140.328 131.272 121.205C136.426 118.361 139.625 112.94 139.625 107.053ZM16.9149 30.7447C11.2955 32.9823 7.60815 38.4195 7.60815 44.468V107.053C7.60815 114.396 11.5995 121.159 18.028 124.708C53.8712 144.494 97.3627 144.494 133.206 124.708C139.634 121.159 143.626 114.396 143.626 107.053V44.468C143.626 38.4195 139.938 32.9823 134.319 30.7447L86.546 11.7218C79.5278 8.92735 71.7061 8.92735 64.6882 11.7218L16.9149 30.7447Z" fill="white"/>
<path d="M113.217 97.4222C121.2 95.3027 127.95 95.2842 133.036 96.1741C139.77 97.3522 141.713 104.398 139.678 110.925C139.393 111.84 139.078 112.75 138.594 113.578C137.708 115.095 135.844 117.704 132.528 119.97C127.492 123.41 105.835 134.246 78.0539 135.375C57.1358 136.225 34.921 128.716 18.7054 120.585C17.9447 120.142 18.3356 119.047 19.2038 119.191C24.627 120.093 32.5684 121.197 42.2405 119.538C51.3843 117.969 64.5128 113.743 78.0539 109.068C90.4444 104.79 97.1094 101.699 113.217 97.4222Z" fill="#1C708D"/>
<mask id="mask0_45_6317" style="mask-type:alpha" maskUnits="userSpaceOnUse" x="18" y="95" width="123" height="41">
<path d="M113.217 97.4222C121.2 95.3027 127.95 95.2842 133.036 96.1741C139.77 97.3522 141.713 104.398 139.678 110.925C139.393 111.84 139.078 112.75 138.594 113.578C137.708 115.095 135.844 117.704 132.528 119.97C127.492 123.41 105.835 134.246 78.0537 135.375C57.1359 136.225 34.9211 128.716 18.7053 120.585C17.9447 120.142 18.3356 119.047 19.2039 119.191C24.6268 120.093 32.5684 121.197 42.2405 119.538C51.3841 117.969 64.5128 113.743 78.0537 109.068C90.4444 104.79 97.1094 101.699 113.217 97.4222Z" fill="#B22400"/>
</mask>
<g mask="url(#mask0_45_6317)">
<path d="M141.097 91.1025H108.821V136.349H141.097V91.1025Z" fill="#1C708D"/>
<path fill-rule="evenodd" clip-rule="evenodd" d="M113.749 135.415L128.205 92.3047L131.122 93.283L116.667 136.393L113.749 135.415Z" fill="white"/>
<path fill-rule="evenodd" clip-rule="evenodd" d="M99.9142 132.952L114.37 89.8418L126.041 93.7552L111.585 136.865L99.9142 132.952Z" fill="white"/>
<path fill-rule="evenodd" clip-rule="evenodd" d="M118.103 135.415L132.558 92.3047L140.144 94.8485L125.688 137.959L118.103 135.415Z" fill="white"/>
<path fill-rule="evenodd" clip-rule="evenodd" d="M127.95 135.416L142.406 92.3057L147.95 94.1644L133.494 137.275L127.95 135.416Z" fill="white"/>
<path d="M99.7945 100.559C93.7359 102.298 87.9655 104.316 81.8551 106.464C71.4122 110.126 60.6215 115.146 48.1617 117.429C45.3865 117.936 42.8315 118.31 40.3499 118.566C36.8681 118.929 33.5247 119.05 30.4153 118.938C25.1803 118.742 18.8906 119.121 12.7803 117.022C13.9572 118.001 15.2999 119.015 16.939 120.227C27.6509 127.64 46.5036 133.703 64.1549 135.595C67.4248 135.943 70.7409 136.177 74.0732 136.295C82.3037 136.585 90.2025 135.365 98.1773 134.282C102.165 133.747 106.495 131.66 110.257 130.794C110.806 130.667 111.341 130.535 111.882 130.402C111.621 127.333 111.24 123.884 110.749 121.365C110.238 118.759 112.488 116.234 112.591 113.574L112.48 98.5196C112.466 98.4648 112.436 97.044 112.401 96.7646C110.229 97.3866 108.101 98.0373 105.989 98.6908C103.959 99.3212 101.86 99.9633 99.7945 100.559ZM89.0472 121.748C89.0444 121.748 89.0444 121.748 89.0472 121.748V121.748Z" fill="#1C708D"/>
</g>
<path d="M11.0784 44.6243C11.3211 39.8187 14.3522 35.5692 18.8654 33.7936L64.8021 15.721C71.7534 12.9862 79.4824 12.9862 86.4335 15.721L114.353 26.7049C114.057 26.897 113.758 27.0868 113.451 27.2708C108.497 30.2334 101.145 31.5979 94.3577 30.8148C93.198 30.6803 92.0531 30.4877 90.9099 30.2955C88.8985 29.9575 86.8919 29.6202 84.8185 29.5999C79.3644 29.5453 74.5639 31.6642 70.2048 33.6853C80.9124 33.6176 91.6212 33.5488 102.33 33.4797L102.701 33.4773C112.169 33.4163 121.637 33.3554 131.104 33.2953L132.37 33.7936C137.078 35.6456 140.173 40.1894 140.173 45.2483V92.9902C140.173 93.5898 139.219 93.9946 138.717 93.6657C136.026 91.8997 129.066 89.2697 113.525 92.8074C113.236 92.8732 112.946 92.9405 112.654 93.0093C112.659 92.8082 112.662 92.6284 112.662 92.4734C112.662 91.4385 112.428 90.6379 112.202 89.8639C111.991 89.1398 111.786 88.4391 111.786 87.5922C111.786 86.716 112.005 85.9024 112.224 85.089C112.443 84.2755 112.662 83.4621 112.662 82.5858C112.662 81.752 112.547 79.4436 112.427 77.0231C112.293 74.356 112.154 71.5528 112.154 70.4373C112.154 69.3399 112.622 67.3798 113.075 65.481C113.501 63.6973 113.914 61.9679 113.914 61.0587V55.0508C113.914 55.0508 103.09 60.5175 99.8357 62.8955C96.5816 65.2736 91.8255 67.7768 91.8255 67.7768L92.7001 98.8555C92.0544 99.0684 91.4065 99.2834 90.7571 99.5002L89.9486 68.2773C89.9486 68.2773 83.6906 68.2773 80.8119 69.0282C77.9334 69.7792 74.554 71.9069 74.554 71.9069L83.2228 102.057C82.6246 102.262 82.0266 102.468 81.4285 102.674L73.0494 72.9919L53.7748 78.2901L58.2095 110.482C57.6714 110.649 57.1379 110.814 56.6089 110.975L51.902 78.5406L47.3962 79.9174V101.57L43.9853 114.29C43.3891 114.409 42.8071 114.518 42.2407 114.615C42.1486 114.631 42.0567 114.647 41.9648 114.662L45.7657 101.069V80.5434L39.007 80.5435L30.332 81.3619L36.2794 115.436C35.7512 115.491 35.2281 115.542 34.7104 115.587L28.6516 81.4509L24.4557 81.8834L14.313 85.4915L18.8937 115.654C18.559 115.627 18.2334 115.599 17.9173 115.57C17.6405 115.545 17.3695 115.505 17.1046 115.451L12.82 85.9264L11.0626 86.4632V84.194C12.7718 84.0632 14.7596 83.8299 16.8488 82.7853C20.4356 80.9919 24.919 80.0951 28.8047 80.0951C32.6903 80.0951 42.8526 79.4975 45.8417 78.3018C48.8305 77.1063 61.9821 73.5196 67.3622 72.9217C70.1003 72.6175 72.5286 71.2294 74.9233 69.8607C77.2337 68.54 79.5128 67.2374 82.0081 66.9438C83.4488 66.7742 84.7454 66.821 85.9932 66.8661C89.1459 66.9798 91.9873 67.0823 96.0561 63.656C99.3484 60.8835 103.946 58.7139 107.638 56.9722C110.314 55.7095 112.513 54.6718 113.392 53.7924C114.966 52.2185 110.283 52.167 105.194 52.1107C103.517 52.0923 101.796 52.0733 100.241 51.9993C93.9638 51.7003 53.9119 54.6892 45.8417 55.8847C37.7715 57.0804 26.7124 57.977 19.539 57.977C17.4025 57.977 14.3437 58.3359 11.0626 58.8535V46.6957C17.5972 46.6548 24.1282 46.6135 30.6596 46.572C37.4143 46.5293 44.1693 46.4865 50.9289 46.4443C51.0476 46.4436 51.2464 46.4461 51.5026 46.4494H51.5046C53.6643 46.477 59.8913 46.5567 56.7392 45.1585C52.2009 43.1468 47.6396 41.1256 42.6072 39.5826C38.421 38.2968 33.1959 37.3858 29.1568 38.8375C27.858 39.3018 26.8229 39.9681 25.7853 40.6361C25.3347 40.9263 24.8838 41.2166 24.4105 41.4909C20.89 43.5287 15.9767 44.6585 11.0784 44.6243Z" fill="#1C708D"/>
</svg>
